<?xml version="1.0" encoding="UTF-8"?>
<svg width="476px" height="154px" viewBox="0 0 476 154" version="1.1" xmlns="http://www.w3.org/2000/svg" xmlns:xlink="http://www.w3.org/1999/xlink">
    <title>Billy Toolbar</title>
    <defs>
        <path d="M0,0 L476,0 L476,154 L0,154 L0,0 Z" id="path-1"></path>
        <path d="M0,0 L476,0 L476,672 L0,672 L0,0 Z" id="path-2"></path>
        <path d="M0,0 L476,0 L476,4 L0,4 L0,0 Z" id="path-3"></path>
        <path d="M0,0 L266,0 L266,56 L0,56 L0,0 Z" id="path-4"></path>
        <linearGradient x1="50%" y1="38.4769145%" x2="50%" y2="100%" id="linearGradient-5">
            <stop stop-color="color(display-p3 0.867 0.875 0.827)" offset="2.54862325%"></stop>
            <stop stop-color="color(display-p3 0.867 0.875 0.827)" stop-opacity="0" offset="100%"></stop>
        </linearGradient>
        <linearGradient x1="50%" y1="32.6062605%" x2="50%" y2="100%" id="linearGradient-6">
            <stop stop-color="color(display-p3 0.498 0.573 0.514)" offset="0%"></stop>
            <stop stop-color="color(display-p3 0.498 0.573 0.514)" stop-opacity="0" offset="100%"></stop>
        </linearGradient>
        <path d="M12.819426,0 L225.180574,9.06834139e-16 C229.638168,-5.2689675e-16 231.254599,0.464128056 232.884229,1.33566352 C234.513858,2.20719898 235.792801,3.48614185 236.664336,5.11577148 C237.535872,6.74540111 238,8.3618323 238,12.819426 L238,42 L238,42 L0,42 L0,12.819426 C0,8.3618323 0.464128056,6.74540111 1.33566352,5.11577148 C2.20719898,3.48614185 3.48614185,2.20719898 5.11577148,1.33566352 C6.74540111,0.464128056 8.3618323,0 12.819426,0 Z" id="path-7"></path>
        <path d="M7.89473684,14 C2.76315789,14 0,10.8659932 0,7 C0,3.11111111 2.76315789,0 7.89473684,0 L34.1052632,0 C39.2368421,0 42,3.13400675 42,7 C42,10.8888889 39.2368421,14 34.1052632,14 L7.89473684,14 Z" id="path-8"></path>
        <filter x="-21.4%" y="-64.3%" width="142.9%" height="228.6%" filterUnits="objectBoundingBox" id="filter-9">
            <feOffset dx="0" dy="0" in="SourceAlpha" result="shadowOffsetOuter1"></feOffset>
            <feGaussianBlur stdDeviation="3" in="shadowOffsetOuter1" result="shadowBlurOuter1"></feGaussianBlur>
            <feComposite in="shadowBlurOuter1" in2="SourceAlpha" operator="out" result="shadowBlurOuter1"></feComposite>
            <feColorMatrix values="0 0 0 0 0   0 0 0 0 0   0 0 0 0 0  0 0 0 0.05 0" type="matrix" in="shadowBlurOuter1" result="shadowMatrixOuter1"></feColorMatrix>
            <feOffset dx="0" dy="0" in="SourceAlpha" result="shadowOffsetOuter2"></feOffset>
            <feGaussianBlur stdDeviation="0.5" in="shadowOffsetOuter2" result="shadowBlurOuter2"></feGaussianBlur>
            <feComposite in="shadowBlurOuter2" in2="SourceAlpha" operator="out" result="shadowBlurOuter2"></feComposite>
            <feColorMatrix values="0 0 0 0 0   0 0 0 0 0   0 0 0 0 0  0 0 0 0.15 0" type="matrix" in="shadowBlurOuter2" result="shadowMatrixOuter2"></feColorMatrix>
            <feMerge>
                <feMergeNode in="shadowMatrixOuter1"></feMergeNode>
                <feMergeNode in="shadowMatrixOuter2"></feMergeNode>
            </feMerge>
        </filter>
        <filter x="-14.3%" y="-42.9%" width="128.6%" height="185.7%" filterUnits="objectBoundingBox" id="filter-10">
            <feOffset dx="0" dy="0" in="SourceAlpha" result="shadowOffsetInner1"></feOffset>
            <feComposite in="shadowOffsetInner1" in2="SourceAlpha" operator="arithmetic" k2="-1" k3="1" result="shadowInnerInner1"></feComposite>
            <feColorMatrix values="0 0 0 0 1   0 0 0 0 1   0 0 0 0 1  0 0 0 1 0" type="matrix" in="shadowInnerInner1"></feColorMatrix>
        </filter>
        <path d="M215.894737,17 C210.763158,17 208,13.8659932 208,10 C208,6.11111111 210.763158,3 215.894737,3 L227.105263,3 C232.236842,3 235,6.13400675 235,10 C235,13.8888889 232.236842,17 227.105263,17 L215.894737,17 Z" id="path-11"></path>
        <filter x="-33.3%" y="-64.3%" width="166.7%" height="228.6%" filterUnits="objectBoundingBox" id="filter-12">
            <feOffset dx="0" dy="0" in="SourceAlpha" result="shadowOffsetOuter1"></feOffset>
            <feGaussianBlur stdDeviation="3" in="shadowOffsetOuter1" result="shadowBlurOuter1"></feGaussianBlur>
            <feComposite in="shadowBlurOuter1" in2="SourceAlpha" operator="out" result="shadowBlurOuter1"></feComposite>
            <feColorMatrix values="0 0 0 0 0   0 0 0 0 0   0 0 0 0 0  0 0 0 0.05 0" type="matrix" in="shadowBlurOuter1" result="shadowMatrixOuter1"></feColorMatrix>
            <feOffset dx="0" dy="0" in="SourceAlpha" result="shadowOffsetOuter2"></feOffset>
            <feGaussianBlur stdDeviation="0.5" in="shadowOffsetOuter2" result="shadowBlurOuter2"></feGaussianBlur>
            <feComposite in="shadowBlurOuter2" in2="SourceAlpha" operator="out" result="shadowBlurOuter2"></feComposite>
            <feColorMatrix values="0 0 0 0 0   0 0 0 0 0   0 0 0 0 0  0 0 0 0.15 0" type="matrix" in="shadowBlurOuter2" result="shadowMatrixOuter2"></feColorMatrix>
            <feMerge>
                <feMergeNode in="shadowMatrixOuter1"></feMergeNode>
                <feMergeNode in="shadowMatrixOuter2"></feMergeNode>
            </feMerge>
        </filter>
        <filter x="-22.2%" y="-42.9%" width="144.4%" height="185.7%" filterUnits="objectBoundingBox" id="filter-13">
            <feOffset dx="0" dy="0" in="SourceAlpha" result="shadowOffsetInner1"></feOffset>
            <feComposite in="shadowOffsetInner1" in2="SourceAlpha" operator="arithmetic" k2="-1" k3="1" result="shadowInnerInner1"></feComposite>
            <feColorMatrix values="0 0 0 0 1   0 0 0 0 1   0 0 0 0 1  0 0 0 1 0" type="matrix" in="shadowInnerInner1"></feColorMatrix>
        </filter>
        <path d="M186.894737,17 C181.763158,17 179,13.8659932 179,10 C179,6.11111111 181.763158,3 186.894737,3 L198.105263,3 C203.236842,3 206,6.13400675 206,10 C206,13.8888889 203.236842,17 198.105263,17 L186.894737,17 Z" id="path-14"></path>
        <filter x="-33.3%" y="-64.3%" width="166.7%" height="228.6%" filterUnits="objectBoundingBox" id="filter-15">
            <feOffset dx="0" dy="0" in="SourceAlpha" result="shadowOffsetOuter1"></feOffset>
            <feGaussianBlur stdDeviation="3" in="shadowOffsetOuter1" result="shadowBlurOuter1"></feGaussianBlur>
            <feComposite in="shadowBlurOuter1" in2="SourceAlpha" operator="out" result="shadowBlurOuter1"></feComposite>
            <feColorMatrix values="0 0 0 0 0   0 0 0 0 0   0 0 0 0 0  0 0 0 0.05 0" type="matrix" in="shadowBlurOuter1" result="shadowMatrixOuter1"></feColorMatrix>
            <feOffset dx="0" dy="0" in="SourceAlpha" result="shadowOffsetOuter2"></feOffset>
            <feGaussianBlur stdDeviation="0.5" in="shadowOffsetOuter2" result="shadowBlurOuter2"></feGaussianBlur>
            <feComposite in="shadowBlurOuter2" in2="SourceAlpha" operator="out" result="shadowBlurOuter2"></feComposite>
            <feColorMatrix values="0 0 0 0 0   0 0 0 0 0   0 0 0 0 0  0 0 0 0.15 0" type="matrix" in="shadowBlurOuter2" result="shadowMatrixOuter2"></feColorMatrix>
            <feMerge>
                <feMergeNode in="shadowMatrixOuter1"></feMergeNode>
                <feMergeNode in="shadowMatrixOuter2"></feMergeNode>
            </feMerge>
        </filter>
        <filter x="-22.2%" y="-42.9%" width="144.4%" height="185.7%" filterUnits="objectBoundingBox" id="filter-16">
            <feOffset dx="0" dy="0" in="SourceAlpha" result="shadowOffsetInner1"></feOffset>
            <feComposite in="shadowOffsetInner1" in2="SourceAlpha" operator="arithmetic" k2="-1" k3="1" result="shadowInnerInner1"></feComposite>
            <feColorMatrix values="0 0 0 0 1   0 0 0 0 1   0 0 0 0 1  0 0 0 1 0" type="matrix" in="shadowInnerInner1"></feColorMatrix>
        </filter>
        <circle id="path-17" cx="10" cy="10" r="3"></circle>
        <filter x="-150.0%" y="-150.0%" width="400.0%" height="400.0%" filterUnits="objectBoundingBox" id="filter-18">
            <feOffset dx="0" dy="0" in="SourceAlpha" result="shadowOffsetOuter1"></feOffset>
            <feGaussianBlur stdDeviation="3" in="shadowOffsetOuter1" result="shadowBlurOuter1"></feGaussianBlur>
            <feComposite in="shadowBlurOuter1" in2="SourceAlpha" operator="out" result="shadowBlurOuter1"></feComposite>
            <feColorMatrix values="0 0 0 0 0   0 0 0 0 0   0 0 0 0 0  0 0 0 0.05 0" type="matrix" in="shadowBlurOuter1" result="shadowMatrixOuter1"></feColorMatrix>
            <feOffset dx="0" dy="0" in="SourceAlpha" result="shadowOffsetOuter2"></feOffset>
            <feGaussianBlur stdDeviation="0.5" in="shadowOffsetOuter2" result="shadowBlurOuter2"></feGaussianBlur>
            <feComposite in="shadowBlurOuter2" in2="SourceAlpha" operator="out" result="shadowBlurOuter2"></feComposite>
            <feColorMatrix values="0 0 0 0 0   0 0 0 0 0   0 0 0 0 0  0 0 0 0.15 0" type="matrix" in="shadowBlurOuter2" result="shadowMatrixOuter2"></feColorMatrix>
            <feMerge>
                <feMergeNode in="shadowMatrixOuter1"></feMergeNode>
                <feMergeNode in="shadowMatrixOuter2"></feMergeNode>
            </feMerge>
        </filter>
        <filter x="-100.0%" y="-100.0%" width="300.0%" height="300.0%" filterUnits="objectBoundingBox" id="filter-19">
            <feOffset dx="0" dy="0" in="SourceAlpha" result="shadowOffsetInner1"></feOffset>
            <feComposite in="shadowOffsetInner1" in2="SourceAlpha" operator="arithmetic" k2="-1" k3="1" result="shadowInnerInner1"></feComposite>
            <feColorMatrix values="0 0 0 0 1   0 0 0 0 1   0 0 0 0 1  0 0 0 1 0" type="matrix" in="shadowInnerInner1"></feColorMatrix>
        </filter>
        <circle id="path-20" cx="19" cy="10" r="3"></circle>
        <filter x="-150.0%" y="-150.0%" width="400.0%" height="400.0%" filterUnits="objectBoundingBox" id="filter-21">
            <feOffset dx="0" dy="0" in="SourceAlpha" result="shadowOffsetOuter1"></feOffset>
            <feGaussianBlur stdDeviation="3" in="shadowOffsetOuter1" result="shadowBlurOuter1"></feGaussianBlur>
            <feComposite in="shadowBlurOuter1" in2="SourceAlpha" operator="out" result="shadowBlurOuter1"></feComposite>
            <feColorMatrix values="0 0 0 0 0   0 0 0 0 0   0 0 0 0 0  0 0 0 0.05 0" type="matrix" in="shadowBlurOuter1" result="shadowMatrixOuter1"></feColorMatrix>
            <feOffset dx="0" dy="0" in="SourceAlpha" result="shadowOffsetOuter2"></feOffset>
            <feGaussianBlur stdDeviation="0.5" in="shadowOffsetOuter2" result="shadowBlurOuter2"></feGaussianBlur>
            <feComposite in="shadowBlurOuter2" in2="SourceAlpha" operator="out" result="shadowBlurOuter2"></feComposite>
            <feColorMatrix values="0 0 0 0 0   0 0 0 0 0   0 0 0 0 0  0 0 0 0.15 0" type="matrix" in="shadowBlurOuter2" result="shadowMatrixOuter2"></feColorMatrix>
            <feMerge>
                <feMergeNode in="shadowMatrixOuter1"></feMergeNode>
                <feMergeNode in="shadowMatrixOuter2"></feMergeNode>
            </feMerge>
        </filter>
        <filter x="-100.0%" y="-100.0%" width="300.0%" height="300.0%" filterUnits="objectBoundingBox" id="filter-22">
            <feOffset dx="0" dy="0" in="SourceAlpha" result="shadowOffsetInner1"></feOffset>
            <feComposite in="shadowOffsetInner1" in2="SourceAlpha" operator="arithmetic" k2="-1" k3="1" result="shadowInnerInner1"></feComposite>
            <feColorMatrix values="0 0 0 0 1   0 0 0 0 1   0 0 0 0 1  0 0 0 1 0" type="matrix" in="shadowInnerInner1"></feColorMatrix>
        </filter>
        <circle id="path-23" cx="28" cy="10" r="3"></circle>
        <filter x="-150.0%" y="-150.0%" width="400.0%" height="400.0%" filterUnits="objectBoundingBox" id="filter-24">
            <feOffset dx="0" dy="0" in="SourceAlpha" result="shadowOffsetOuter1"></feOffset>
            <feGaussianBlur stdDeviation="3" in="shadowOffsetOuter1" result="shadowBlurOuter1"></feGaussianBlur>
            <feComposite in="shadowBlurOuter1" in2="SourceAlpha" operator="out" result="shadowBlurOuter1"></feComposite>
            <feColorMatrix values="0 0 0 0 0   0 0 0 0 0   0 0 0 0 0  0 0 0 0.05 0" type="matrix" in="shadowBlurOuter1" result="shadowMatrixOuter1"></feColorMatrix>
            <feOffset dx="0" dy="0" in="SourceAlpha" result="shadowOffsetOuter2"></feOffset>
            <feGaussianBlur stdDeviation="0.5" in="shadowOffsetOuter2" result="shadowBlurOuter2"></feGaussianBlur>
            <feComposite in="shadowBlurOuter2" in2="SourceAlpha" operator="out" result="shadowBlurOuter2"></feComposite>
            <feColorMatrix values="0 0 0 0 0   0 0 0 0 0   0 0 0 0 0  0 0 0 0.15 0" type="matrix" in="shadowBlurOuter2" result="shadowMatrixOuter2"></feColorMatrix>
            <feMerge>
                <feMergeNode in="shadowMatrixOuter1"></feMergeNode>
                <feMergeNode in="shadowMatrixOuter2"></feMergeNode>
            </feMerge>
        </filter>
        <filter x="-100.0%" y="-100.0%" width="300.0%" height="300.0%" filterUnits="objectBoundingBox" id="filter-25">
            <feOffset dx="0" dy="0" in="SourceAlpha" result="shadowOffsetInner1"></feOffset>
            <feComposite in="shadowOffsetInner1" in2="SourceAlpha" operator="arithmetic" k2="-1" k3="1" result="shadowInnerInner1"></feComposite>
            <feColorMatrix values="0 0 0 0 1   0 0 0 0 1   0 0 0 0 1  0 0 0 1 0" type="matrix" in="shadowInnerInner1"></feColorMatrix>
        </filter>
        <circle id="path-26" cx="88" cy="10" r="7"></circle>
        <filter x="-64.3%" y="-64.3%" width="228.6%" height="228.6%" filterUnits="objectBoundingBox" id="filter-27">
            <feOffset dx="0" dy="0" in="SourceAlpha" result="shadowOffsetOuter1"></feOffset>
            <feGaussianBlur stdDeviation="3" in="shadowOffsetOuter1" result="shadowBlurOuter1"></feGaussianBlur>
            <feComposite in="shadowBlurOuter1" in2="SourceAlpha" operator="out" result="shadowBlurOuter1"></feComposite>
            <feColorMatrix values="0 0 0 0 0   0 0 0 0 0   0 0 0 0 0  0 0 0 0.05 0" type="matrix" in="shadowBlurOuter1" result="shadowMatrixOuter1"></feColorMatrix>
            <feOffset dx="0" dy="0" in="SourceAlpha" result="shadowOffsetOuter2"></feOffset>
            <feGaussianBlur stdDeviation="0.5" in="shadowOffsetOuter2" result="shadowBlurOuter2"></feGaussianBlur>
            <feComposite in="shadowBlurOuter2" in2="SourceAlpha" operator="out" result="shadowBlurOuter2"></feComposite>
            <feColorMatrix values="0 0 0 0 0   0 0 0 0 0   0 0 0 0 0  0 0 0 0.15 0" type="matrix" in="shadowBlurOuter2" result="shadowMatrixOuter2"></feColorMatrix>
            <feMerge>
                <feMergeNode in="shadowMatrixOuter1"></feMergeNode>
                <feMergeNode in="shadowMatrixOuter2"></feMergeNode>
            </feMerge>
        </filter>
        <filter x="-42.9%" y="-42.9%" width="185.7%" height="185.7%" filterUnits="objectBoundingBox" id="filter-28">
            <feOffset dx="0" dy="0" in="SourceAlpha" result="shadowOffsetInner1"></feOffset>
            <feComposite in="shadowOffsetInner1" in2="SourceAlpha" operator="arithmetic" k2="-1" k3="1" result="shadowInnerInner1"></feComposite>
            <feColorMatrix values="0 0 0 0 1   0 0 0 0 1   0 0 0 0 1  0 0 0 1 0" type="matrix" in="shadowInnerInner1"></feColorMatrix>
        </filter>
        <linearGradient x1="50%" y1="16.8105332%" x2="50%" y2="100%" id="linearGradient-29">
            <stop stop-color="color(display-p3 0.498 0.573 0.514)" offset="0%"></stop>
            <stop stop-color="color(display-p3 0.498 0.573 0.514)" stop-opacity="0" offset="100%"></stop>
        </linearGradient>
        <path d="M0,0 L266,0 L266,56 L0,56 L0,0 Z" id="path-30"></path>
        <linearGradient x1="50%" y1="40.0449061%" x2="50%" y2="100%" id="linearGradient-31">
            <stop stop-color="color(display-p3 0.867 0.875 0.827)" offset="0%"></stop>
            <stop stop-color="color(display-p3 0.867 0.875 0.827)" stop-opacity="0" offset="100%"></stop>
        </linearGradient>
        <path d="M12.819426,0 L225.180574,9.06834139e-16 C229.638168,-5.2689675e-16 231.254599,0.464128056 232.884229,1.33566352 C234.513858,2.20719898 235.792801,3.48614185 236.664336,5.11577148 C237.535872,6.74540111 238,8.3618323 238,12.819426 L238,42 L238,42 L0,42 L0,12.819426 C0,8.3618323 0.464128056,6.74540111 1.33566352,5.11577148 C2.20719898,3.48614185 3.48614185,2.20719898 5.11577148,1.33566352 C6.74540111,0.464128056 8.3618323,0 12.819426,0 Z" id="path-32"></path>
        <path d="M7.89473684,14 C2.76315789,14 0,10.8659932 0,7 C0,3.11111111 2.76315789,0 7.89473684,0 L34.1052632,0 C39.2368421,0 42,3.13400675 42,7 C42,10.8888889 39.2368421,14 34.1052632,14 L7.89473684,14 Z" id="path-33"></path>
        <filter x="-21.4%" y="-64.3%" width="142.9%" height="228.6%" filterUnits="objectBoundingBox" id="filter-34">
            <feOffset dx="0" dy="0" in="SourceAlpha" result="shadowOffsetOuter1"></feOffset>
            <feGaussianBlur stdDeviation="3" in="shadowOffsetOuter1" result="shadowBlurOuter1"></feGaussianBlur>
            <feComposite in="shadowBlurOuter1" in2="SourceAlpha" operator="out" result="shadowBlurOuter1"></feComposite>
            <feColorMatrix values="0 0 0 0 0   0 0 0 0 0   0 0 0 0 0  0 0 0 0.05 0" type="matrix" in="shadowBlurOuter1" result="shadowMatrixOuter1"></feColorMatrix>
            <feOffset dx="0" dy="0" in="SourceAlpha" result="shadowOffsetOuter2"></feOffset>
            <feGaussianBlur stdDeviation="0.5" in="shadowOffsetOuter2" result="shadowBlurOuter2"></feGaussianBlur>
            <feComposite in="shadowBlurOuter2" in2="SourceAlpha" operator="out" result="shadowBlurOuter2"></feComposite>
            <feColorMatrix values="0 0 0 0 0   0 0 0 0 0   0 0 0 0 0  0 0 0 0.15 0" type="matrix" in="shadowBlurOuter2" result="shadowMatrixOuter2"></feColorMatrix>
            <feMerge>
                <feMergeNode in="shadowMatrixOuter1"></feMergeNode>
                <feMergeNode in="shadowMatrixOuter2"></feMergeNode>
            </feMerge>
        </filter>
        <path d="M171.894737,17 C166.763158,17 164,13.8659932 164,10 C164,6.11111111 166.763158,3 171.894737,3 L183.105263,3 C188.236842,3 191,6.13400675 191,10 C191,13.8888889 188.236842,17 183.105263,17 L171.894737,17 Z" id="path-35"></path>
        <filter x="-33.3%" y="-64.3%" width="166.7%" height="228.6%" filterUnits="objectBoundingBox" id="filter-36">
            <feOffset dx="0" dy="0" in="SourceAlpha" result="shadowOffsetOuter1"></feOffset>
            <feGaussianBlur stdDeviation="3" in="shadowOffsetOuter1" result="shadowBlurOuter1"></feGaussianBlur>
            <feComposite in="shadowBlurOuter1" in2="SourceAlpha" operator="out" result="shadowBlurOuter1"></feComposite>
            <feColorMatrix values="0 0 0 0 0   0 0 0 0 0   0 0 0 0 0  0 0 0 0.05 0" type="matrix" in="shadowBlurOuter1" result="shadowMatrixOuter1"></feColorMatrix>
            <feOffset dx="0" dy="0" in="SourceAlpha" result="shadowOffsetOuter2"></feOffset>
            <feGaussianBlur stdDeviation="0.5" in="shadowOffsetOuter2" result="shadowBlurOuter2"></feGaussianBlur>
            <feComposite in="shadowBlurOuter2" in2="SourceAlpha" operator="out" result="shadowBlurOuter2"></feComposite>
            <feColorMatrix values="0 0 0 0 0   0 0 0 0 0   0 0 0 0 0  0 0 0 0.15 0" type="matrix" in="shadowBlurOuter2" result="shadowMatrixOuter2"></feColorMatrix>
            <feMerge>
                <feMergeNode in="shadowMatrixOuter1"></feMergeNode>
                <feMergeNode in="shadowMatrixOuter2"></feMergeNode>
            </feMerge>
        </filter>
        <filter x="-22.2%" y="-42.9%" width="144.4%" height="185.7%" filterUnits="objectBoundingBox" id="filter-37">
            <feOffset dx="0" dy="0" in="SourceAlpha" result="shadowOffsetInner1"></feOffset>
            <feComposite in="shadowOffsetInner1" in2="SourceAlpha" operator="arithmetic" k2="-1" k3="1" result="shadowInnerInner1"></feComposite>
            <feColorMatrix values="0 0 0 0 1   0 0 0 0 1   0 0 0 0 1  0 0 0 1 0" type="matrix" in="shadowInnerInner1"></feColorMatrix>
        </filter>
        <path d="M142.894737,17 C137.763158,17 135,13.8659932 135,10 C135,6.11111111 137.763158,3 142.894737,3 L154.105263,3 C159.236842,3 162,6.13400675 162,10 C162,13.8888889 159.236842,17 154.105263,17 L142.894737,17 Z" id="path-38"></path>
        <filter x="-33.3%" y="-64.3%" width="166.7%" height="228.6%" filterUnits="objectBoundingBox" id="filter-39">
            <feOffset dx="0" dy="0" in="SourceAlpha" result="shadowOffsetOuter1"></feOffset>
            <feGaussianBlur stdDeviation="3" in="shadowOffsetOuter1" result="shadowBlurOuter1"></feGaussianBlur>
            <feComposite in="shadowBlurOuter1" in2="SourceAlpha" operator="out" result="shadowBlurOuter1"></feComposite>
            <feColorMatrix values="0 0 0 0 0   0 0 0 0 0   0 0 0 0 0  0 0 0 0.05 0" type="matrix" in="shadowBlurOuter1" result="shadowMatrixOuter1"></feColorMatrix>
            <feOffset dx="0" dy="0" in="SourceAlpha" result="shadowOffsetOuter2"></feOffset>
            <feGaussianBlur stdDeviation="0.5" in="shadowOffsetOuter2" result="shadowBlurOuter2"></feGaussianBlur>
            <feComposite in="shadowBlurOuter2" in2="SourceAlpha" operator="out" result="shadowBlurOuter2"></feComposite>
            <feColorMatrix values="0 0 0 0 0   0 0 0 0 0   0 0 0 0 0  0 0 0 0.15 0" type="matrix" in="shadowBlurOuter2" result="shadowMatrixOuter2"></feColorMatrix>
            <feMerge>
                <feMergeNode in="shadowMatrixOuter1"></feMergeNode>
                <feMergeNode in="shadowMatrixOuter2"></feMergeNode>
            </feMerge>
        </filter>
        <filter x="-22.2%" y="-42.9%" width="144.4%" height="185.7%" filterUnits="objectBoundingBox" id="filter-40">
            <feOffset dx="0" dy="0" in="SourceAlpha" result="shadowOffsetInner1"></feOffset>
            <feComposite in="shadowOffsetInner1" in2="SourceAlpha" operator="arithmetic" k2="-1" k3="1" result="shadowInnerInner1"></feComposite>
            <feColorMatrix values="0 0 0 0 1   0 0 0 0 1   0 0 0 0 1  0 0 0 1 0" type="matrix" in="shadowInnerInner1"></feColorMatrix>
        </filter>
        <circle id="path-41" cx="10" cy="10" r="3"></circle>
        <filter x="-150.0%" y="-150.0%" width="400.0%" height="400.0%" filterUnits="objectBoundingBox" id="filter-42">
            <feOffset dx="0" dy="0" in="SourceAlpha" result="shadowOffsetOuter1"></feOffset>
            <feGaussianBlur stdDeviation="3" in="shadowOffsetOuter1" result="shadowBlurOuter1"></feGaussianBlur>
            <feComposite in="shadowBlurOuter1" in2="SourceAlpha" operator="out" result="shadowBlurOuter1"></feComposite>
            <feColorMatrix values="0 0 0 0 0   0 0 0 0 0   0 0 0 0 0  0 0 0 0.05 0" type="matrix" in="shadowBlurOuter1" result="shadowMatrixOuter1"></feColorMatrix>
            <feOffset dx="0" dy="0" in="SourceAlpha" result="shadowOffsetOuter2"></feOffset>
            <feGaussianBlur stdDeviation="0.5" in="shadowOffsetOuter2" result="shadowBlurOuter2"></feGaussianBlur>
            <feComposite in="shadowBlurOuter2" in2="SourceAlpha" operator="out" result="shadowBlurOuter2"></feComposite>
            <feColorMatrix values="0 0 0 0 0   0 0 0 0 0   0 0 0 0 0  0 0 0 0.15 0" type="matrix" in="shadowBlurOuter2" result="shadowMatrixOuter2"></feColorMatrix>
            <feMerge>
                <feMergeNode in="shadowMatrixOuter1"></feMergeNode>
                <feMergeNode in="shadowMatrixOuter2"></feMergeNode>
            </feMerge>
        </filter>
        <filter x="-100.0%" y="-100.0%" width="300.0%" height="300.0%" filterUnits="objectBoundingBox" id="filter-43">
            <feOffset dx="0" dy="0" in="SourceAlpha" result="shadowOffsetInner1"></feOffset>
            <feComposite in="shadowOffsetInner1" in2="SourceAlpha" operator="arithmetic" k2="-1" k3="1" result="shadowInnerInner1"></feComposite>
            <feColorMatrix values="0 0 0 0 1   0 0 0 0 1   0 0 0 0 1  0 0 0 1 0" type="matrix" in="shadowInnerInner1"></feColorMatrix>
        </filter>
        <circle id="path-44" cx="19" cy="10" r="3"></circle>
        <filter x="-150.0%" y="-150.0%" width="400.0%" height="400.0%" filterUnits="objectBoundingBox" id="filter-45">
            <feOffset dx="0" dy="0" in="SourceAlpha" result="shadowOffsetOuter1"></feOffset>
            <feGaussianBlur stdDeviation="3" in="shadowOffsetOuter1" result="shadowBlurOuter1"></feGaussianBlur>
            <feComposite in="shadowBlurOuter1" in2="SourceAlpha" operator="out" result="shadowBlurOuter1"></feComposite>
            <feColorMatrix values="0 0 0 0 0   0 0 0 0 0   0 0 0 0 0  0 0 0 0.05 0" type="matrix" in="shadowBlurOuter1" result="shadowMatrixOuter1"></feColorMatrix>
            <feOffset dx="0" dy="0" in="SourceAlpha" result="shadowOffsetOuter2"></feOffset>
            <feGaussianBlur stdDeviation="0.5" in="shadowOffsetOuter2" result="shadowBlurOuter2"></feGaussianBlur>
            <feComposite in="shadowBlurOuter2" in2="SourceAlpha" operator="out" result="shadowBlurOuter2"></feComposite>
            <feColorMatrix values="0 0 0 0 0   0 0 0 0 0   0 0 0 0 0  0 0 0 0.15 0" type="matrix" in="shadowBlurOuter2" result="shadowMatrixOuter2"></feColorMatrix>
            <feMerge>
                <feMergeNode in="shadowMatrixOuter1"></feMergeNode>
                <feMergeNode in="shadowMatrixOuter2"></feMergeNode>
            </feMerge>
        </filter>
        <filter x="-100.0%" y="-100.0%" width="300.0%" height="300.0%" filterUnits="objectBoundingBox" id="filter-46">
            <feOffset dx="0" dy="0" in="SourceAlpha" result="shadowOffsetInner1"></feOffset>
            <feComposite in="shadowOffsetInner1" in2="SourceAlpha" operator="arithmetic" k2="-1" k3="1" result="shadowInnerInner1"></feComposite>
            <feColorMatrix values="0 0 0 0 1   0 0 0 0 1   0 0 0 0 1  0 0 0 1 0" type="matrix" in="shadowInnerInner1"></feColorMatrix>
        </filter>
        <circle id="path-47" cx="28" cy="10" r="3"></circle>
        <filter x="-150.0%" y="-150.0%" width="400.0%" height="400.0%" filterUnits="objectBoundingBox" id="filter-48">
            <feOffset dx="0" dy="0" in="SourceAlpha" result="shadowOffsetOuter1"></feOffset>
            <feGaussianBlur stdDeviation="3" in="shadowOffsetOuter1" result="shadowBlurOuter1"></feGaussianBlur>
            <feComposite in="shadowBlurOuter1" in2="SourceAlpha" operator="out" result="shadowBlurOuter1"></feComposite>
            <feColorMatrix values="0 0 0 0 0   0 0 0 0 0   0 0 0 0 0  0 0 0 0.05 0" type="matrix" in="shadowBlurOuter1" result="shadowMatrixOuter1"></feColorMatrix>
            <feOffset dx="0" dy="0" in="SourceAlpha" result="shadowOffsetOuter2"></feOffset>
            <feGaussianBlur stdDeviation="0.5" in="shadowOffsetOuter2" result="shadowBlurOuter2"></feGaussianBlur>
            <feComposite in="shadowBlurOuter2" in2="SourceAlpha" operator="out" result="shadowBlurOuter2"></feComposite>
            <feColorMatrix values="0 0 0 0 0   0 0 0 0 0   0 0 0 0 0  0 0 0 0.15 0" type="matrix" in="shadowBlurOuter2" result="shadowMatrixOuter2"></feColorMatrix>
            <feMerge>
                <feMergeNode in="shadowMatrixOuter1"></feMergeNode>
                <feMergeNode in="shadowMatrixOuter2"></feMergeNode>
            </feMerge>
        </filter>
        <filter x="-100.0%" y="-100.0%" width="300.0%" height="300.0%" filterUnits="objectBoundingBox" id="filter-49">
            <feOffset dx="0" dy="0" in="SourceAlpha" result="shadowOffsetInner1"></feOffset>
            <feComposite in="shadowOffsetInner1" in2="SourceAlpha" operator="arithmetic" k2="-1" k3="1" result="shadowInnerInner1"></feComposite>
            <feColorMatrix values="0 0 0 0 1   0 0 0 0 1   0 0 0 0 1  0 0 0 1 0" type="matrix" in="shadowInnerInner1"></feColorMatrix>
        </filter>
        <linearGradient x1="50%" y1="1.27259314e-12%" x2="50%" y2="100%" id="linearGradient-50">
            <stop stop-color="color(display-p3 0.498 0.573 0.514)" offset="0%"></stop>
            <stop stop-color="color(display-p3 0.498 0.573 0.514)" stop-opacity="0" offset="100%"></stop>
            <stop stop-color="color(display-p3 0.498 0.573 0.514)" stop-opacity="0" offset="100%"></stop>
        </linearGradient>
    </defs>
    <g id="Billy-Toolbar" stroke="none" fill="none" xlink:href="#path-1">
        <use fill="color(display-p3 0.992 0.976 0.933)" fill-rule="evenodd" xlink:href="#path-1"></use>
        <use fill-opacity="0.06" fill="color(display-p3 0.494 0.549 0.514)" fill-rule="evenodd" xlink:href="#path-1"></use>
        <g id="Stack" opacity="0.0299999993" xlink:href="#path-2" stroke="color(display-p3 0.494 0.549 0.514)" stroke-width="1">
            <line x1="476" y1="154" x2="0" y2="154" id="Path" opacity="0"></line>
            <line x1="476" y1="140" x2="0" y2="140" id="Path"></line>
            <line x1="476" y1="126" x2="0" y2="126" id="Path"></line>
            <line x1="476" y1="112" x2="0" y2="112" id="Path"></line>
            <line x1="476" y1="98" x2="0" y2="98" id="Path"></line>
            <line x1="476" y1="84" x2="0" y2="84" id="Path"></line>
            <line x1="476" y1="70" x2="0" y2="70" id="Path"></line>
            <line x1="476" y1="56" x2="0" y2="56" id="Path"></line>
            <line x1="476" y1="42" x2="0" y2="42" id="Path"></line>
            <line x1="476" y1="28" x2="0" y2="28" id="Path"></line>
            <line x1="476" y1="14" x2="0" y2="14" id="Path"></line>
        </g>
        <g id="Stack" opacity="0.0299999993" xlink:href="#path-3" stroke="color(display-p3 0.494 0.549 0.514)" stroke-width="1">
            <line x1="462" y1="-538" x2="462" y2="542" id="Path"></line>
            <line x1="448" y1="-538" x2="448" y2="542" id="Path"></line>
            <line x1="434" y1="-538" x2="434" y2="542" id="Path"></line>
            <line x1="420" y1="-538" x2="420" y2="542" id="Path"></line>
            <line x1="406" y1="-538" x2="406" y2="542" id="Path"></line>
            <line x1="392" y1="-538" x2="392" y2="542" id="Path"></line>
            <line x1="378" y1="-538" x2="378" y2="542" id="Path"></line>
            <line x1="364" y1="-538" x2="364" y2="542" id="Path"></line>
            <line x1="350" y1="-538" x2="350" y2="542" id="Path"></line>
            <line x1="336" y1="-538" x2="336" y2="542" id="Path"></line>
            <line x1="322" y1="-538" x2="322" y2="542" id="Path"></line>
            <line x1="308" y1="-538" x2="308" y2="542" id="Path"></line>
            <line x1="294" y1="-538" x2="294" y2="542" id="Path"></line>
            <line x1="280" y1="-538" x2="280" y2="542" id="Path"></line>
            <line x1="266" y1="-538" x2="266" y2="542" id="Path"></line>
            <line x1="252" y1="-538" x2="252" y2="542" id="Path"></line>
            <line x1="238" y1="-538" x2="238" y2="542" id="Path"></line>
            <line x1="224" y1="-538" x2="224" y2="542" id="Path"></line>
            <line x1="210" y1="-538" x2="210" y2="542" id="Path"></line>
            <line x1="196" y1="-538" x2="196" y2="542" id="Path"></line>
            <line x1="182" y1="-538" x2="182" y2="542" id="Path"></line>
            <line x1="168" y1="-538" x2="168" y2="542" id="Path"></line>
            <line x1="154" y1="-538" x2="154" y2="542" id="Path"></line>
            <line x1="140" y1="-538" x2="140" y2="542" id="Path"></line>
            <line x1="126" y1="-538" x2="126" y2="542" id="Path"></line>
            <line x1="112" y1="-538" x2="112" y2="542" id="Path"></line>
            <line x1="98" y1="-538" x2="98" y2="542" id="Path"></line>
            <line x1="84" y1="-538" x2="84" y2="542" id="Path"></line>
            <line x1="70" y1="-538" x2="70" y2="542" id="Path"></line>
            <line x1="56" y1="-538" x2="56" y2="542" id="Path"></line>
            <line x1="42" y1="-538" x2="42" y2="542" id="Path"></line>
            <line x1="28" y1="-538" x2="28" y2="542" id="Path"></line>
            <line x1="14" y1="-538" x2="14" y2="542" id="Path"></line>
        </g>
        <g id="Traditional-toolbar" stroke-width="1" fill-rule="evenodd" transform="translate(28, 30)" fill="color(display-p3 0.498 0.573 0.514)">
            <polygon id="Path" fill-rule="nonzero" points="1.7640636 8 2.5644314 8 2.5644314 3.43652319 4.11441724 3.43652319 4.11441724 2.75888342 0.214077881 2.75888342 0.214077881 3.43652319 1.76406372 3.43652319 1.76406372 8"></polygon>
            <path d="M4.58762567,8 L5.37974774,8 L5.37974774,5.55396191 C5.62931317,4.92638379 6.0142077,4.70104199 6.33510223,4.70104199 C6.49465497,4.70104199 6.58243134,4.71704199 6.70176044,4.74904199 L6.86730048,4.07445996 C6.74707684,4.01823633 6.62341229,3.99445996 6.43708954,3.99445996 C5.99985956,3.99445996 5.59297772,4.29202539 5.32576044,4.79490723 L5.30198407,4.79490723 L5.2388786,4.09045996 L4.58762567,4.09045996 L4.58762567,8 Z" id="Path" fill-rule="nonzero"></path>
            <path d="M8.19708807,8.096 C8.67020477,8.096 9.07243805,7.85984448 9.44651581,7.55280554 L9.47547687,7.55280554 L9.53339911,7.99999988 L10.1885584,7.99999988 L10.1885584,5.64961121 C10.1885584,4.60942737 9.74158307,3.99575244 8.7807774,3.99575244 C8.1567774,3.99575244 7.60285516,4.24142737 7.20732159,4.49823303 L7.50381635,5.0371449 C7.83454425,4.83522266 8.22077753,4.65395056 8.6351662,4.65395056 C9.21482684,4.65395056 9.3877879,5.05680554 9.39771014,5.49934961 C7.76043805,5.67838855 7.04124371,6.09134961 7.04124371,6.96679126 C7.04124371,7.66238843 7.52732147,8.096 8.1970882,8.096 L8.19708807,8.096 Z M8.43342755,7.44428223 C8.0860777,7.44428223 7.81568903,7.29804895 7.81568903,6.91342712 C7.81568903,6.4648053 8.21023309,6.19745544 9.3977099,6.05729993 L9.3977099,6.99566016 C9.06716583,7.29804883 8.78077716,7.44428223 8.43342731,7.44428223 L8.43342755,7.44428223 Z" id="Shape" fill-rule="nonzero"></path>
            <path d="M12.7037303,8.096 C13.1461902,8.096 13.5548611,7.8546582 13.851532,7.5579873 L13.8753084,7.5579873 L13.9384139,8 L14.5896668,8 L14.5896668,2.32509277 L13.7975447,2.32509277 L13.7975447,3.78556543 L13.8290974,4.43557812 C13.5068611,4.16268359 13.2179666,3.99445996 12.7695193,3.99445996 C11.8959539,3.99445996 11.0964012,4.77845996 11.0964012,6.0493418 C11.0964012,7.3453418 11.7281775,8.096 12.7037303,8.096 Z M12.8908103,7.43652344 C12.2678777,7.43652344 11.9122996,6.93426172 11.9122996,6.04156543 C11.9122996,5.18954004 12.3652195,4.65393652 12.9245994,4.65393652 C13.2157303,4.65393652 13.497743,4.75127832 13.7975447,5.01863281 L13.7975447,6.95115625 C13.5055193,7.28206348 13.2221648,7.43652344 12.8908103,7.43652344 Z" id="Shape" fill-rule="nonzero"></path>
            <path d="M15.8301648,8 L16.6222869,8 L16.6222869,4.09045996 L15.8301648,4.09045996 L15.8301648,8 Z M16.2221141,3.34775098 C16.513865,3.34775098 16.7191814,3.1579873 16.7191814,2.8653418 C16.7191814,2.58091992 16.513865,2.39115625 16.2221141,2.39115625 C15.9303631,2.39115625 15.7250467,2.58091992 15.7250467,2.8653418 C15.7250467,3.1579873 15.9303631,3.34775098 16.2221141,3.34775098 Z" id="Shape" fill-rule="nonzero"></path>
            <path d="M19.1679919,8.07696106 C19.460642,8.07696106 19.7300059,8.00648059 19.9380059,7.90744165 L19.7836808,7.34908813 C19.6435253,7.41916589 19.4964864,7.43820483 19.3589668,7.43820483 C18.9480199,7.43820483 18.7841755,7.18989392 18.7841755,6.71981616 L18.7841755,4.72402856 L19.8100058,4.72402856 L19.8100058,4.09175269 L18.7841755,4.09175269 L18.7841755,2.85063599 L18.1225357,2.85063599 L18.02573,4.09175269 L17.41773,4.13023315 L17.41773,4.72402844 L17.9868467,4.72402844 L17.9868467,6.7137384 C17.9868467,7.52527197 18.2954969,8.07696106 19.1679916,8.07696106 L19.1679919,8.07696106 Z" id="Path" fill-rule="nonzero"></path>
            <path d="M20.6611386,8 L21.4532606,8 L21.4532606,4.09045996 L20.6611386,4.09045996 L20.6611386,8 Z M21.0530878,3.34775098 C21.3448388,3.34775098 21.5501552,3.1579873 21.5501552,2.8653418 C21.5501552,2.58091992 21.3448388,2.39115625 21.0530878,2.39115625 C20.7613368,2.39115625 20.5560204,2.58091992 20.5560204,2.8653418 C20.5560204,3.1579873 20.7613368,3.34775098 21.0530878,3.34775098 Z" id="Shape" fill-rule="nonzero"></path>
            <path d="M24.2559442,8.096 C25.2223788,8.096 26.0919188,7.34444727 26.0919188,6.0493418 C26.0919188,4.7460127 25.2223788,3.99445996 24.2559442,3.99445996 C23.2895097,3.99445996 22.4199696,4.7460127 22.4199696,6.0493418 C22.4199696,7.34444727 23.2895097,8.096 24.2559442,8.096 Z M24.2559442,7.4442998 C23.6343534,7.4442998 23.2358681,6.88760352 23.2358681,6.0493418 C23.2358681,5.21108008 23.6343534,4.64616016 24.2559442,4.64616016 C24.877535,4.64616016 25.2760204,5.21108008 25.2760204,6.0493418 C25.2760204,6.88760352 24.877535,7.4442998 24.2559442,7.4442998 Z" id="Shape" fill-rule="nonzero"></path>
            <path d="M27.0586278,8 L27.8507499,8 L27.8507499,5.21975098 C28.2067753,4.86327832 28.4576825,4.67726563 28.8288134,4.67726563 C29.2981806,4.67726563 29.5001932,4.95329102 29.5001932,5.6379873 L29.5001932,8 L30.2923153,8 L30.2923153,5.536 C30.2923153,4.544 29.9243153,3.99445996 29.0936571,3.99445996 C28.5578807,3.99445996 28.1578807,4.28290723 27.7967626,4.63624902 L27.7729862,4.63624902 L27.7098807,4.09045996 L27.0586278,4.09045996 L27.0586278,8 Z" id="Path" fill-rule="nonzero"></path>
            <path d="M32.4092338,8.096 C32.8823505,8.096 33.2845838,7.85984448 33.6586615,7.55280554 L33.6876226,7.55280554 L33.7455448,7.99999988 L34.4007041,7.99999988 L34.4007041,5.64961121 C34.4007041,4.60942737 33.9537288,3.99575244 32.9929231,3.99575244 C32.3689231,3.99575244 31.8150009,4.24142737 31.4194673,4.49823303 L31.715962,5.0371449 C32.04669,4.83522266 32.4329232,4.65395056 32.8473119,4.65395056 C33.4269725,4.65395056 33.5999336,5.05680554 33.6098558,5.49934961 C31.9725838,5.67838855 31.2533894,6.09134961 31.2533894,6.96679126 C31.2533894,7.66238843 31.7394672,8.096 32.4092339,8.096 L32.4092338,8.096 Z M32.6455733,7.44428223 C32.2982234,7.44428223 32.0278347,7.29804895 32.0278347,6.91342712 C32.0278347,6.4648053 32.4223788,6.19745544 33.6098556,6.05729993 L33.6098556,6.99566016 C33.2793115,7.29804883 32.9929229,7.44428223 32.645573,7.44428223 L32.6455733,7.44428223 Z" id="Shape" fill-rule="nonzero"></path>
            <path d="M36.3642374,8.07696143 C36.5544071,8.07696143 36.6961738,8.048 36.7990571,8.00303894 L36.692732,7.40924365 C36.628732,7.42524365 36.596732,7.42524365 36.5582516,7.42524365 C36.452732,7.42524365 36.3563292,7.35476318 36.3563292,7.13339929 L36.3563292,2.32768933 L35.5654808,2.32768933 L35.5654808,7.08539929 C35.5654808,7.71262207 35.7872475,8.07696143 36.364237,8.07696143 L36.3642374,8.07696143 Z" id="Path" fill-rule="nonzero"></path>
            <path d="M40.5776935,8.07696106 C40.8703436,8.07696106 41.1397075,8.00648059 41.3477075,7.90744165 L41.1933824,7.34908813 C41.0532269,7.41916589 40.906188,7.43820483 40.7686684,7.43820483 C40.3577215,7.43820483 40.1938771,7.18989392 40.1938771,6.71981616 L40.1938771,4.72402856 L41.2197074,4.72402856 L41.2197074,4.09175269 L40.1938771,4.09175269 L40.1938771,2.85063599 L39.5322373,2.85063599 L39.4354316,4.09175269 L38.8274316,4.13023315 L38.8274316,4.72402844 L39.3965483,4.72402844 L39.3965483,6.7137384 C39.3965483,7.52527197 39.7051985,8.07696106 40.5776932,8.07696106 L40.5776935,8.07696106 Z" id="Path" fill-rule="nonzero"></path>
            <path d="M43.5141439,8.096 C44.4805784,8.096 45.3501185,7.34444727 45.3501185,6.0493418 C45.3501185,4.7460127 44.4805784,3.99445996 43.5141439,3.99445996 C42.5477093,3.99445996 41.6781693,4.7460127 41.6781693,6.0493418 C41.6781693,7.34444727 42.5477093,8.096 43.5141439,8.096 Z M43.5141439,7.4442998 C42.892553,7.4442998 42.4940677,6.88760352 42.4940677,6.0493418 C42.4940677,5.21108008 42.892553,4.64616016 43.5141439,4.64616016 C44.1357347,4.64616016 44.53422,5.21108008 44.53422,6.0493418 C44.53422,6.88760352 44.1357347,7.4442998 43.5141439,7.4442998 Z" id="Shape" fill-rule="nonzero"></path>
            <path d="M47.879013,8.096 C48.8454476,8.096 49.7149876,7.34444727 49.7149876,6.0493418 C49.7149876,4.7460127 48.8454476,3.99445996 47.879013,3.99445996 C46.9125784,3.99445996 46.0430384,4.7460127 46.0430384,6.0493418 C46.0430384,7.34444727 46.9125784,8.096 47.879013,8.096 Z M47.879013,7.4442998 C47.2574222,7.4442998 46.8589368,6.88760352 46.8589368,6.0493418 C46.8589368,5.21108008 47.2574222,4.64616016 47.879013,4.64616016 C48.5006038,4.64616016 48.8990892,5.21108008 48.8990892,6.0493418 C48.8990892,6.88760352 48.5006038,7.4442998 47.879013,7.4442998 Z" id="Shape" fill-rule="nonzero"></path>
            <path d="M51.4791508,8.07696143 C51.6693205,8.07696143 51.8110872,8.048 51.9139705,8.00303894 L51.8076455,7.40924365 C51.7436455,7.42524365 51.7116455,7.42524365 51.673165,7.42524365 C51.5676455,7.42524365 51.4712426,7.35476318 51.4712426,7.13339929 L51.4712426,2.32768933 L50.6803942,2.32768933 L50.6803942,7.08539929 C50.6803942,7.71262207 50.902161,8.07696143 51.4791505,8.07696143 L51.4791508,8.07696143 Z" id="Path" fill-rule="nonzero"></path>
            <path d="M54.6002183,8.096 C55.4811129,8.096 56.2806656,7.32022363 56.2806656,5.98145361 C56.2806656,4.7780127 55.7263428,3.99445996 54.733001,3.99445996 C54.315212,3.99445996 53.8974229,4.21247266 53.5557457,4.50959082 L53.579522,3.83490723 L53.579522,2.32509277 L52.7874,2.32509277 L52.7874,8 L53.4153238,8 L53.4862056,7.5926709 L53.509982,7.5926709 C53.8468765,7.91177637 54.2399947,8.096 54.6002183,8.096 Z M54.4451382,7.43652344 C54.2033492,7.43652344 53.8875474,7.33918164 53.579522,7.07182715 L53.579522,5.13930371 C53.9117711,4.81617285 54.2197964,4.65393652 54.52648,4.65393652 C55.1905308,4.65393652 55.4647671,5.17264551 55.4647671,5.99311816 C55.4647671,6.91736719 55.0282945,7.43652344 54.4451382,7.43652344 Z" id="Shape" fill-rule="nonzero"></path>
            <path d="M58.0749004,8.096 C58.5480171,8.096 58.9502504,7.85984448 59.3243282,7.55280554 L59.3532892,7.55280554 L59.4112115,7.99999988 L60.0663708,7.99999988 L60.0663708,5.64961121 C60.0663708,4.60942737 59.6193954,3.99575244 58.6585898,3.99575244 C58.0345898,3.99575244 57.4806675,4.24142737 57.085134,4.49823303 L57.3816287,5.0371449 C57.7123566,4.83522266 58.0985899,4.65395056 58.5129786,4.65395056 C59.0926392,4.65395056 59.2656003,5.05680554 59.2755225,5.49934961 C57.6382504,5.67838855 56.9190561,6.09134961 56.9190561,6.96679126 C56.9190561,7.66238843 57.4051338,8.096 58.0749006,8.096 L58.0749004,8.096 Z M58.3112399,7.44428223 C57.9638901,7.44428223 57.6935014,7.29804895 57.6935014,6.91342712 C57.6935014,6.4648053 58.0880455,6.19745544 59.2755223,6.05729993 L59.2755223,6.99566016 C58.9449782,7.29804883 58.6585895,7.44428223 58.3112397,7.44428223 L58.3112399,7.44428223 Z" id="Shape" fill-rule="nonzero"></path>
            <path d="M61.2324499,8 L62.0245719,8 L62.0245719,5.55396191 C62.2741374,4.92638379 62.6590319,4.70104199 62.9799264,4.70104199 C63.1394792,4.70104199 63.2272555,4.71704199 63.3465846,4.74904199 L63.5121247,4.07445996 C63.391901,4.01823633 63.2682365,3.99445996 63.0819137,3.99445996 C62.6446838,3.99445996 62.2378019,4.29202539 61.9705846,4.79490723 L61.9468083,4.79490723 L61.8837028,4.09045996 L61.2324499,4.09045996 L61.2324499,8 Z" id="Path" fill-rule="nonzero"></path>
        </g>
        <g id="Segmented-toolbar" stroke-width="1" fill-rule="evenodd" transform="translate(28, 86)" fill="color(display-p3 0.498 0.573 0.514)">
            <path d="M2.18288184,8.096 C3.33085645,8.096 4.01751465,7.41068359 4.01751465,6.57180176 C4.01751465,5.80245996 3.57550195,5.42847266 2.94806104,5.16424902 L2.22148926,4.85457178 C1.79883105,4.67879541 1.37125293,4.50855908 1.37125293,4.05085645 C1.37125293,3.62560107 1.72727832,3.3616875 2.26886914,3.3616875 C2.70033545,3.3616875 3.0893418,3.5390293 3.42489453,3.82014746 L3.84884375,3.30243457 C3.46319189,2.92388818 2.90109277,2.66288184 2.26886914,2.66288184 C1.2726709,2.66288184 0.563130859,3.27986279 0.563130859,4.09796191 C0.563130859,4.85818555 1.11280811,5.25206104 1.62346631,5.47172559 L2.35781445,5.7891792 C2.84304443,5.99807373 3.20161621,6.15208643 3.20161621,6.63445996 C3.20161621,7.09260986 2.83647266,7.39719434 2.19843457,7.39719434 C1.66730371,7.39719434 1.13429736,7.17551709 0.762185547,6.80161621 L0.321789062,7.3193291 C0.799552734,7.81443457 1.44554004,8.096 2.18288184,8.096 Z" id="Path" fill-rule="nonzero"></path>
            <path d="M6.56839954,8.096 C7.07959387,8.096 7.5292052,7.93296106 7.88201086,7.68911658 L7.60151611,7.17612708 C7.32951611,7.35516602 7.01639941,7.45724377 6.66216614,7.45724377 C6.00706372,7.45724377 5.44331104,6.99950537 5.44331104,6.0411167 C5.44331104,4.98672803 5.96889404,4.62802844 6.45943811,4.62802844 C7.02390454,4.62802844 7.32244861,5.01041711 7.32244861,5.66462183 L5.23754443,5.66462183 L5.23754443,6.27745593 L7.98712744,6.27745593 C8.0160885,6.14257263 8.02904956,5.99776697 8.02904956,5.84000024 C8.02904956,4.74288354 7.48201062,3.99575281 6.44647705,3.99575281 C5.53367139,3.99575281 4.65590466,4.77023328 4.65590466,6.04415552 C4.65590466,7.344 5.49174915,8.096 6.56839929,8.096 L6.56839954,8.096 Z" id="Path" fill-rule="nonzero"></path>
            <path d="M10.2076875,9.76313086 C11.4507676,9.76313086 12.2398603,9.14645996 12.2398603,8.39759082 C12.2398603,7.73560352 11.7625439,7.44805078 10.8406685,7.44805078 L10.1132021,7.44805078 C9.61451855,7.44805078 9.45451855,7.29359082 9.45451855,7.06002539 C9.45451855,6.86578906 9.54453125,6.752 9.67387304,6.64299365 C9.84987304,6.72 10.0514385,6.7606709 10.2287803,6.7606709 C11.0425439,6.7606709 11.6885312,6.26976367 11.6885312,5.424 C11.6885312,5.11141553 11.5699595,4.88062012 11.4033877,4.71972559 L11.4033877,4.68772559 L12.1758603,4.68772559 L12.1758603,4.09045996 L10.7947676,4.09045996 C10.6438857,4.03468359 10.4445566,3.99445996 10.2287803,3.99445996 C9.42279297,3.99445996 8.72237109,4.51602539 8.72237109,5.39289453 C8.72237109,5.85689453 8.97014746,6.23311816 9.23347656,6.4333418 L9.23347656,6.4653418 C9.01904199,6.61622363 8.80192383,6.87955273 8.80192383,7.1926709 C8.80192383,7.504 8.95370019,7.712 9.15347656,7.83955273 L9.15347656,7.87155273 C8.79370019,8.09644727 8.58525293,8.39790088 8.58525293,8.7300127 C8.58525293,9.40889453 9.26279297,9.76313086 10.2076875,9.76313086 Z M10.2287803,6.24894531 C9.81653125,6.24894531 9.47605859,5.92491992 9.47605859,5.39289453 C9.47605859,4.86042188 9.80830761,4.55284375 10.2287803,4.55284375 C10.6492529,4.55284375 10.981502,4.86042188 10.981502,5.39289453 C10.981502,5.92491992 10.6410293,6.24894531 10.2287803,6.24894531 Z M10.3247803,9.23585254 C9.66341308,9.23585254 9.26117676,9.00049805 9.26117676,8.61291992 C9.26117676,8.41045996 9.36674218,8.20710547 9.61076758,8.02886914 C9.77210937,8.06909277 9.9490039,8.08509277 10.1292021,8.08509277 L10.7331411,8.08509277 C11.2128311,8.08509277 11.4706201,8.19110547 11.4706201,8.52245996 C11.4706201,8.89448535 11.0112656,9.23585254 10.3247803,9.23585254 Z" id="Shape" fill-rule="nonzero"></path>
            <path d="M12.9634385,8 L13.7555605,8 L13.7555605,5.21975098 C14.086915,4.85550195 14.3858223,4.67726563 14.6527295,4.67726563 C15.1056494,4.67726563 15.3158857,4.95329102 15.3158857,5.6379873 L15.3158857,8 L16.1080078,8 L16.1080078,5.21975098 C16.4393623,4.85550195 16.7300459,4.67726563 17.0051768,4.67726563 C17.4580967,4.67726563 17.668333,4.95329102 17.668333,5.6379873 L17.668333,8 L18.4604551,8 L18.4604551,5.536 C18.4604551,4.544 18.0764551,3.99445996 17.2622441,3.99445996 C16.7758096,3.99445996 16.3788032,4.29845996 15.989126,4.71669629 C15.818356,4.26780176 15.494915,3.99445996 14.9097969,3.99445996 C14.4315859,3.99445996 14.0380205,4.28290723 13.7015732,4.64013721 L13.6777969,4.64013721 L13.6146914,4.09045996 L12.9634385,4.09045996 L12.9634385,8 Z" id="Path" fill-rule="nonzero"></path>
            <path d="M21.2860236,8.096 C21.7972179,8.096 22.2468292,7.93296106 22.5996349,7.68911658 L22.3191401,7.17612708 C22.0471401,7.35516602 21.7340234,7.45724377 21.3797902,7.45724377 C20.7246877,7.45724377 20.1609351,6.99950537 20.1609351,6.0411167 C20.1609351,4.98672803 20.6865181,4.62802844 21.1770621,4.62802844 C21.7415286,4.62802844 22.0400726,5.01041711 22.0400726,5.66462183 L19.9551685,5.66462183 L19.9551685,6.27745593 L22.7047515,6.27745593 C22.7337125,6.14257263 22.7466736,5.99776697 22.7466736,5.84000024 C22.7466736,4.74288354 22.1996346,3.99575281 21.1641011,3.99575281 C20.2512954,3.99575281 19.3735287,4.77023328 19.3735287,6.04415552 C19.3735287,7.344 20.2093732,8.096 21.2860233,8.096 L21.2860236,8.096 Z" id="Path" fill-rule="nonzero"></path>
            <path d="M23.6644424,8 L24.4565644,8 L24.4565644,5.21975098 C24.8125898,4.86327832 25.0634971,4.67726563 25.4346279,4.67726563 C25.9039951,4.67726563 26.1060078,4.95329102 26.1060078,5.6379873 L26.1060078,8 L26.8981299,8 L26.8981299,5.536 C26.8981299,4.544 26.5301299,3.99445996 25.6994717,3.99445996 C25.1636953,3.99445996 24.7636953,4.28290723 24.4025771,4.63624902 L24.3788008,4.63624902 L24.3156953,4.09045996 L23.6644424,4.09045996 L23.6644424,8 Z" id="Path" fill-rule="nonzero"></path>
            <path d="M29.3953876,8.07696106 C29.6880377,8.07696106 29.9574016,8.00648059 30.1654016,7.90744165 L30.0110765,7.34908813 C29.870921,7.41916589 29.7238821,7.43820483 29.5863625,7.43820483 C29.1754156,7.43820483 29.0115712,7.18989392 29.0115712,6.71981616 L29.0115712,4.72402856 L30.0374015,4.72402856 L30.0374015,4.09175269 L29.0115712,4.09175269 L29.0115712,2.85063599 L28.3499314,2.85063599 L28.2531257,4.09175269 L27.6451257,4.13023315 L27.6451257,4.72402844 L28.2142424,4.72402844 L28.2142424,6.7137384 C28.2142424,7.52527197 28.5228926,8.07696106 29.3953873,8.07696106 L29.3953876,8.07696106 Z" id="Path" fill-rule="nonzero"></path>
            <path d="M32.4031701,8.096 C32.9143645,8.096 33.3639758,7.93296106 33.7167815,7.68911658 L33.4362867,7.17612708 C33.1642867,7.35516602 32.85117,7.45724377 32.4969367,7.45724377 C31.8418343,7.45724377 31.2780816,6.99950537 31.2780816,6.0411167 C31.2780816,4.98672803 31.8036646,4.62802844 32.2942087,4.62802844 C32.8586751,4.62802844 33.1572192,5.01041711 33.1572192,5.66462183 L31.072315,5.66462183 L31.072315,6.27745593 L33.821898,6.27745593 C33.8508591,6.14257263 33.8638202,5.99776697 33.8638202,5.84000024 C33.8638202,4.74288354 33.3167812,3.99575281 32.2812476,3.99575281 C31.368442,3.99575281 30.4906753,4.77023328 30.4906753,6.04415552 C30.4906753,7.344 31.3265197,8.096 32.4031699,8.096 L32.4031701,8.096 Z" id="Path" fill-rule="nonzero"></path>
            <path d="M36.1306817,8.096 C36.5731417,8.096 36.9818126,7.8546582 37.2784835,7.5579873 L37.3022599,7.5579873 L37.3653653,8 L38.0166183,8 L38.0166183,2.32509277 L37.2244962,2.32509277 L37.2244962,3.78556543 L37.2560489,4.43557813 C36.9338126,4.16268359 36.6449181,3.99445996 36.1964708,3.99445996 C35.3229054,3.99445996 34.5233526,4.77845996 34.5233526,6.0493418 C34.5233526,7.3453418 35.155129,8.096 36.1306817,8.096 Z M36.3177618,7.43652344 C35.6948292,7.43652344 35.3392511,6.93426172 35.3392511,6.04156543 C35.3392511,5.18954004 35.792171,4.65393652 36.3515509,4.65393652 C36.6426817,4.65393652 36.9246944,4.75127832 37.2244962,5.01863281 L37.2244962,6.95115625 C36.9324708,7.28206348 36.6491163,7.43652344 36.3177618,7.43652344 Z" id="Shape" fill-rule="nonzero"></path>
            <path d="M42.1623232,8.07696106 C42.4549734,8.07696106 42.7243372,8.00648059 42.9323372,7.90744165 L42.7780122,7.34908813 C42.6378567,7.41916589 42.4908177,7.43820483 42.3532982,7.43820483 C41.9423513,7.43820483 41.7785068,7.18989392 41.7785068,6.71981616 L41.7785068,4.72402856 L42.8043371,4.72402856 L42.8043371,4.09175269 L41.7785068,4.09175269 L41.7785068,2.85063599 L41.116867,2.85063599 L41.0200614,4.09175269 L40.4120614,4.13023315 L40.4120614,4.72402844 L40.9811781,4.72402844 L40.9811781,6.7137384 C40.9811781,7.52527197 41.2898282,8.07696106 42.162323,8.07696106 L42.1623232,8.07696106 Z" id="Path" fill-rule="nonzero"></path>
            <path d="M45.0987736,8.096 C46.0652082,8.096 46.9347482,7.34444727 46.9347482,6.0493418 C46.9347482,4.7460127 46.0652082,3.99445996 45.0987736,3.99445996 C44.1323391,3.99445996 43.262799,4.7460127 43.262799,6.0493418 C43.262799,7.34444727 44.1323391,8.096 45.0987736,8.096 Z M45.0987736,7.4442998 C44.4771828,7.4442998 44.0786974,6.88760352 44.0786974,6.0493418 C44.0786974,5.21108008 44.4771828,4.64616016 45.0987736,4.64616016 C45.7203644,4.64616016 46.1188498,5.21108008 46.1188498,6.0493418 C46.1188498,6.88760352 45.7203644,7.4442998 45.0987736,7.4442998 Z" id="Shape" fill-rule="nonzero"></path>
            <path d="M49.4636428,8.096 C50.4300773,8.096 51.2996174,7.34444727 51.2996174,6.0493418 C51.2996174,4.7460127 50.4300773,3.99445996 49.4636428,3.99445996 C48.4972082,3.99445996 47.6276682,4.7460127 47.6276682,6.0493418 C47.6276682,7.34444727 48.4972082,8.096 49.4636428,8.096 Z M49.4636428,7.4442998 C48.8420519,7.4442998 48.4435666,6.88760352 48.4435666,6.0493418 C48.4435666,5.21108008 48.8420519,4.64616016 49.4636428,4.64616016 C50.0852336,4.64616016 50.4837189,5.21108008 50.4837189,6.0493418 C50.4837189,6.88760352 50.0852336,7.4442998 49.4636428,7.4442998 Z" id="Shape" fill-rule="nonzero"></path>
            <path d="M53.0637806,8.07696143 C53.2539503,8.07696143 53.395717,8.048 53.4986003,8.00303894 L53.3922752,7.40924365 C53.3282752,7.42524365 53.2962752,7.42524365 53.2577947,7.42524365 C53.1522752,7.42524365 53.0558724,7.35476318 53.0558724,7.13339929 L53.0558724,2.32768933 L52.265024,2.32768933 L52.265024,7.08539929 C52.265024,7.71262207 52.4867907,8.07696143 53.0637802,8.07696143 L53.0637806,8.07696143 Z" id="Path" fill-rule="nonzero"></path>
            <path d="M56.1848481,8.096 C57.0657426,8.096 57.8652953,7.32022363 57.8652953,5.98145361 C57.8652953,4.7780127 57.3109726,3.99445996 56.3176308,3.99445996 C55.8998417,3.99445996 55.4820527,4.21247266 55.1403754,4.50959082 L55.1641518,3.83490723 L55.1641518,2.32509277 L54.3720297,2.32509277 L54.3720297,8 L54.9999535,8 L55.0708354,7.5926709 L55.0946117,7.5926709 C55.4315063,7.91177637 55.8246244,8.096 56.1848481,8.096 Z M56.029768,7.43652344 C55.7879789,7.43652344 55.4721772,7.33918164 55.1641518,7.07182715 L55.1641518,5.13930371 C55.4964008,4.81617285 55.8044262,4.65393652 56.1111098,4.65393652 C56.7751606,4.65393652 57.0493969,5.17264551 57.0493969,5.99311816 C57.0493969,6.91736719 56.6129242,7.43652344 56.029768,7.43652344 Z" id="Shape" fill-rule="nonzero"></path>
            <path d="M59.6595302,8.096 C60.1326469,8.096 60.5348802,7.85984448 60.9089579,7.55280554 L60.937919,7.55280554 L60.9958412,7.99999988 L61.6510005,7.99999988 L61.6510005,5.64961121 C61.6510005,4.60942737 61.2040252,3.99575244 60.2432195,3.99575244 C59.6192195,3.99575244 59.0652973,4.24142737 58.6697637,4.49823303 L58.9662585,5.0371449 C59.2969864,4.83522266 59.6832197,4.65395056 60.0976083,4.65395056 C60.677269,4.65395056 60.85023,5.05680554 60.8601523,5.49934961 C59.2228802,5.67838855 58.5036858,6.09134961 58.5036858,6.96679126 C58.5036858,7.66238843 58.9897636,8.096 59.6595303,8.096 L59.6595302,8.096 Z M59.8958697,7.44428223 C59.5485198,7.44428223 59.2781312,7.29804895 59.2781312,6.91342712 C59.2781312,6.4648053 59.6726752,6.19745544 60.860152,6.05729993 L60.860152,6.99566016 C60.529608,7.29804883 60.2432193,7.44428223 59.8958694,7.44428223 L59.8958697,7.44428223 Z" id="Shape" fill-rule="nonzero"></path>
            <path d="M62.8170796,8 L63.6092017,8 L63.6092017,5.55396191 C63.8587671,4.92638379 64.2436616,4.70104199 64.5645562,4.70104199 C64.7241089,4.70104199 64.8118853,4.71704199 64.9312144,4.74904199 L65.0967544,4.07445996 C64.9765308,4.01823633 64.8528662,3.99445996 64.6665435,3.99445996 C64.2293135,3.99445996 63.8224317,4.29202539 63.5552144,4.79490723 L63.531438,4.79490723 L63.4683325,4.09045996 L62.8170796,4.09045996 L62.8170796,8 Z" id="Path" fill-rule="nonzero"></path>
        </g>
        <g id="Billy-Segmented-Toolbar" transform="translate(126, 70)" xlink:href="#path-4">
            <g id="Frame-2" transform="translate(14, 14)" xlink:href="#path-7">
                <use stroke="url(#linearGradient-6)" stroke-width="1" fill="url(#linearGradient-5)" fill-rule="evenodd" xlink:href="#path-7"></use>
                <g id="Group" stroke-width="1" fill-rule="evenodd" transform="translate(37, 3)">
                    <g id="Path">
                        <use fill="black" fill-opacity="1" filter="url(#filter-9)" xlink:href="#path-8"></use>
                        <use fill-opacity="0.15" fill="color(display-p3 0.498 0.573 0.514)" fill-rule="evenodd" xlink:href="#path-8"></use>
                        <use fill="black" fill-opacity="1" filter="url(#filter-10)" xlink:href="#path-8"></use>
                        <path stroke="color(display-p3 0.498 0.573 0.514)" stroke-width="1" d="M34.1052632,0.5 C36.4196115,0.5 38.2296219,1.16397906 39.4804941,2.27308578 C40.8148836,3.45624445 41.5,5.13868435 41.5,7 C41.5,8.86965984 40.8173087,10.5498372 39.4864945,11.7298257 C38.2353302,12.8391915 36.4231677,13.5 34.1052632,13.5 L7.89473684,13.5 C5.58038851,13.5 3.7703781,12.8360209 2.51950586,11.7269142 C1.18511638,10.5437555 0.5,8.86131565 0.5,7 C0.5,5.13034016 1.1826913,3.45016281 2.51350546,2.27017426 C3.76466981,1.16080853 5.57683226,0.5 7.89473684,0.5 L34.1052632,0.5 Z" stroke-linejoin="square"></path>
                    </g>
                    <polyline id="Path-2" stroke="color(display-p3 0.498 0.573 0.514)" stroke-linecap="round" stroke-linejoin="round" points="33 6 35 8 37 6"></polyline>
                    <g id="Profile" transform="translate(5, 2)" fill="color(display-p3 0.498 0.573 0.514)" fill-rule="nonzero">
                        <path d="M0.538500977,7 L1.56999609,7 L1.56999609,5.45203271 L2.13392676,5.45203271 C3.10071289,5.45203271 3.91942578,4.97765796 3.91942578,3.90531982 C3.91942578,2.79674951 3.10978418,2.43767822 2.10592676,2.43767822 L0.538500977,2.43767822 L0.538500977,7 Z M1.56999609,4.63310791 L1.56999609,3.25660303 L2.04499805,3.25660303 C2.60310791,3.25660303 2.9085376,3.42785352 2.9085376,3.90531982 C2.9085376,4.38032178 2.6401792,4.63310791 2.07299805,4.63310791 L1.56999609,4.63310791 Z" id="Shape"></path>
                        <path d="M4.71499902,7 L5.74402979,7 L5.74402979,4.9874624 C5.92928027,4.51403271 6.2471377,4.34524658 6.50899512,4.34524658 C6.65806641,4.34524658 6.73960205,4.35924658 6.85820898,4.38724658 L7.05510107,3.51310791 C6.95463672,3.46864355 6.83933325,3.44310791 6.64081592,3.44310791 C6.28426196,3.44310791 5.90458374,3.6703584 5.65420898,4.13403662 L5.62867334,4.13403662 L5.55453076,3.52710791 L4.71499902,3.52710791 L4.71499902,7 Z" id="Path"></path>
                        <path d="M9.01042188,7.084 C9.88917139,7.084 10.7020635,6.41692871 10.7020635,5.26478613 C10.7020635,4.1101792 9.88917139,3.44310791 9.01042188,3.44310791 C8.13167236,3.44310791 7.31878027,4.1101792 7.31878027,5.26478613 C7.31878027,6.41692871 8.13167236,7.084 9.01042188,7.084 Z M9.01042188,6.25353955 C8.58481299,6.25353955 8.37334668,5.86578809 8.37334668,5.26478613 C8.37334668,4.66378418 8.58481299,4.27356836 9.01042188,4.27356836 C9.43603076,4.27356836 9.64749707,4.66378418 9.64749707,5.26478613 C9.64749707,5.86578809 9.43603076,6.25353955 9.01042188,6.25353955 Z" id="Shape"></path>
                        <path d="M11.6368506,7 L12.6658813,7 L12.6658813,3.31742578 C12.6658813,2.96338916 12.8108101,2.81935254 13.061918,2.81935254 C13.1763823,2.81935254 13.2920789,2.83581689 13.4102397,2.86874561 L13.6071318,2.13549902 C13.4555962,2.07703467 13.2043823,2.01196338 12.9144189,2.01196338 C11.9769932,2.01196338 11.6368506,2.61412231 11.6368506,3.347104 L11.6368506,7 Z M11.1237793,4.33449707 L13.2908467,4.33449707 L13.2908467,3.52710791 L11.7060645,3.52710791 L11.1237793,3.56664355 L11.1237793,4.33449707 Z" id="Shape"></path>
                        <path d="M13.933312,7 L14.9623428,7 L14.9623428,3.52710791 L13.933312,3.52710791 L13.933312,7 Z M14.4465952,3.01917725 C14.7917725,3.01917725 15.0282002,2.8058208 15.0282002,2.47878613 C15.0282002,2.15421582 14.7917725,1.94085937 14.4465952,1.94085937 C14.101418,1.94085937 13.8649902,2.15421582 13.8649902,2.47878613 C13.8649902,2.8058208 14.101418,3.01917725 14.4465952,3.01917725 Z" id="Shape"></path>
                        <path d="M16.9034986,7.07783965 C17.1356157,7.07783965 17.3069736,7.042 17.4206526,6.99216057 L17.296054,6.23337086 C17.240054,6.24737086 17.212054,6.24737086 17.1731343,6.24737086 C17.086054,6.24737086 16.9832948,6.1804512 16.9832948,5.95785257 L16.9832948,2.09719769 L15.9548694,2.09719769 L15.9548694,5.91585257 C15.9548694,6.61976582 16.1962274,7.07783965 16.9034986,7.07783965 L16.9034986,7.07783965 Z" id="Path"></path>
                        <path d="M19.604517,7.084 C20.0149986,7.084 20.4820355,6.944 20.8353935,6.6964816 L20.5005171,6.06872881 C20.2546777,6.21488937 20.0043567,6.29104994 19.7417146,6.29104994 C19.2802699,6.29104994 18.8277883,6.05080273 18.8121093,5.26232114 C18.7964304,4.46823439 19.1693935,4.23359233 19.5065171,4.23359233 C19.9136408,4.23359233 20.0749249,4.50239496 20.0749249,4.8669632 L18.6317884,4.8669632 L18.6396278,5.57703702 L20.9154738,5.57703702 C20.939554,5.47455553 20.9613935,5.29535815 20.9613935,5.11000021 C20.9613935,4.16583965 20.4775539,3.4437225 19.4846776,3.4437225 C18.6491592,3.4437225 17.8416408,4.1344817 17.8416408,5.26232114 C17.8416408,6.41816057 18.6071592,7.084 19.6045171,7.084 L19.604517,7.084 Z" id="Path"></path>
                    </g>
                </g>
                <g id="Path">
                    <use fill="black" fill-opacity="1" filter="url(#filter-12)" xlink:href="#path-11"></use>
                    <use fill-opacity="0.15" fill="color(display-p3 0.498 0.573 0.514)" fill-rule="evenodd" xlink:href="#path-11"></use>
                    <use fill="black" fill-opacity="1" filter="url(#filter-13)" xlink:href="#path-11"></use>
                    <path stroke="color(display-p3 0.498 0.573 0.514)" stroke-width="1" d="M227.105263,3.5 C229.419611,3.5 231.229622,4.16397906 232.480494,5.27308578 C233.814884,6.45624445 234.5,8.13868435 234.5,10 C234.5,11.8696598 233.817309,13.5498372 232.486495,14.7298257 C231.23533,15.8391915 229.423168,16.5 227.105263,16.5 L215.894737,16.5 C213.580389,16.5 211.770378,15.8360209 210.519506,14.7269142 C209.185116,13.5437555 208.5,11.8613157 208.5,10 C208.5,8.13034016 209.182691,6.45016281 210.513505,5.27017426 C211.76467,4.16080853 213.576832,3.5 215.894737,3.5 Z" stroke-linejoin="square"></path>
                </g>
                <g id="Path">
                    <use fill="black" fill-opacity="1" filter="url(#filter-15)" xlink:href="#path-14"></use>
                    <use fill-opacity="0.15" fill="color(display-p3 0.498 0.573 0.514)" fill-rule="evenodd" xlink:href="#path-14"></use>
                    <use fill="black" fill-opacity="1" filter="url(#filter-16)" xlink:href="#path-14"></use>
                    <path stroke="color(display-p3 0.498 0.573 0.514)" stroke-width="1" d="M198.105263,3.5 C200.419611,3.5 202.229622,4.16397906 203.480494,5.27308578 C204.814884,6.45624445 205.5,8.13868435 205.5,10 C205.5,11.8696598 204.817309,13.5498372 203.486495,14.7298257 C202.23533,15.8391915 200.423168,16.5 198.105263,16.5 L186.894737,16.5 C184.580389,16.5 182.770378,15.8360209 181.519506,14.7269142 C180.185116,13.5437555 179.5,11.8613157 179.5,10 C179.5,8.13034016 180.182691,6.45016281 181.513505,5.27017426 C182.76467,4.16080853 184.576832,3.5 186.894737,3.5 Z" stroke-linejoin="square"></path>
                </g>
                <g id="Oval">
                    <use fill="black" fill-opacity="1" filter="url(#filter-18)" xlink:href="#path-17"></use>
                    <use fill-opacity="0.15" fill="color(display-p3 0.498 0.573 0.514)" fill-rule="evenodd" xlink:href="#path-17"></use>
                    <use fill="black" fill-opacity="1" filter="url(#filter-19)" xlink:href="#path-17"></use>
                    <circle stroke="color(display-p3 0.498 0.573 0.514)" stroke-width="1" stroke-linejoin="square" cx="10" cy="10" r="2.5"></circle>
                </g>
                <g id="Oval">
                    <use fill="black" fill-opacity="1" filter="url(#filter-21)" xlink:href="#path-20"></use>
                    <use fill-opacity="0.15" fill="color(display-p3 0.498 0.573 0.514)" fill-rule="evenodd" xlink:href="#path-20"></use>
                    <use fill="black" fill-opacity="1" filter="url(#filter-22)" xlink:href="#path-20"></use>
                    <circle stroke="color(display-p3 0.498 0.573 0.514)" stroke-width="1" stroke-linejoin="square" cx="19" cy="10" r="2.5"></circle>
                </g>
                <g id="Oval">
                    <use fill="black" fill-opacity="1" filter="url(#filter-24)" xlink:href="#path-23"></use>
                    <use fill-opacity="0.15" fill="color(display-p3 0.498 0.573 0.514)" fill-rule="evenodd" xlink:href="#path-23"></use>
                    <use fill="black" fill-opacity="1" filter="url(#filter-25)" xlink:href="#path-23"></use>
                    <circle stroke="color(display-p3 0.498 0.573 0.514)" stroke-width="1" stroke-linejoin="square" cx="28" cy="10" r="2.5"></circle>
                </g>
                <g id="Oval">
                    <use fill="black" fill-opacity="1" filter="url(#filter-27)" xlink:href="#path-26"></use>
                    <use fill-opacity="0.15" fill="color(display-p3 0.498 0.573 0.514)" fill-rule="evenodd" xlink:href="#path-26"></use>
                    <use fill="black" fill-opacity="1" filter="url(#filter-28)" xlink:href="#path-26"></use>
                    <circle stroke="color(display-p3 0.498 0.573 0.514)" stroke-width="1" stroke-linejoin="square" cx="88" cy="10" r="6.5"></circle>
                </g>
                <line x1="98" y1="0" x2="98" y2="42" id="Path-2" stroke="url(#linearGradient-29)" stroke-width="1" opacity="0.25"></line>
                <path d="M102.254602,6 L120.745398,6 C121.158349,6 121.32546,6.04641281 121.488423,6.13356635 C121.651386,6.2207199 121.77928,6.34861419 121.866434,6.51157715 C121.953587,6.67454011 122,6.84165137 122,7.25460192 L122,7.74539808 C122,8.15834863 121.953587,8.32545989 121.866434,8.48842285 C121.77928,8.65138581 121.651386,8.7792801 121.488423,8.86643365 C121.32546,8.95358719 121.158349,9 120.745398,9 L102.254602,9 C101.841651,9 101.67454,8.95358719 101.511577,8.86643365 C101.348614,8.7792801 101.22072,8.65138581 101.133566,8.48842285 C101.046413,8.32545989 101,8.15834863 101,7.74539808 L101,7.25460192 C101,6.84165137 101.046413,6.67454011 101.133566,6.51157715 C101.22072,6.34861419 101.348614,6.2207199 101.511577,6.13356635 C101.67454,6.04641281 101.841651,6 102.254602,6 Z" id="Rectangle" fill="color(display-p3 0.498 0.573 0.514)" fill-rule="evenodd"></path>
                <path d="M102.254602,11 L130.745398,11 C131.158349,11 131.32546,11.0464128 131.488423,11.1335664 C131.651386,11.2207199 131.77928,11.3486142 131.866434,11.5115771 C131.953587,11.6745401 132,11.8416514 132,12.2546019 L132,12.7453981 C132,13.1583486 131.953587,13.3254599 131.866434,13.4884229 C131.77928,13.6513858 131.651386,13.7792801 131.488423,13.8664336 C131.32546,13.9535872 131.158349,14 130.745398,14 L102.254602,14 C101.841651,14 101.67454,13.9535872 101.511577,13.8664336 C101.348614,13.7792801 101.22072,13.6513858 101.133566,13.4884229 C101.046413,13.3254599 101,13.1583486 101,12.7453981 L101,12.2546019 C101,11.8416514 101.046413,11.6745401 101.133566,11.5115771 C101.22072,11.3486142 101.348614,11.2207199 101.511577,11.1335664 C101.67454,11.0464128 101.841651,11 102.254602,11 Z" id="Rectangle" fill="color(display-p3 0.498 0.573 0.514)" fill-rule="evenodd"></path>
            </g>
        </g>
        <g id="Billy-Traditional-Toolbar" transform="translate(126, 14)" xlink:href="#path-30">
            <g id="Frame-2" transform="translate(14, 14)" xlink:href="#path-32">
                <use stroke="url(#linearGradient-6)" stroke-width="1" fill="url(#linearGradient-31)" fill-rule="evenodd" xlink:href="#path-32"></use>
                <g id="Group" stroke-width="1" fill-rule="evenodd" transform="translate(193, 3)">
                    <g id="Path">
                        <use fill="black" fill-opacity="1" filter="url(#filter-34)" xlink:href="#path-33"></use>
                        <path stroke="color(display-p3 0.498 0.573 0.514)" stroke-width="1" d="M34.1052632,0.5 C36.4196115,0.5 38.2296219,1.16397906 39.4804941,2.27308578 C40.8148836,3.45624445 41.5,5.13868435 41.5,7 C41.5,8.86965984 40.8173087,10.5498372 39.4864945,11.7298257 C38.2353302,12.8391915 36.4231677,13.5 34.1052632,13.5 L7.89473684,13.5 C5.58038851,13.5 3.7703781,12.8360209 2.51950586,11.7269142 C1.18511638,10.5437555 0.5,8.86131565 0.5,7 C0.5,5.13034016 1.1826913,3.45016281 2.51350546,2.27017426 C3.76466981,1.16080853 5.57683226,0.5 7.89473684,0.5 L34.1052632,0.5 Z" stroke-linejoin="square" fill-opacity="0.15" fill="color(display-p3 0.498 0.573 0.514)" fill-rule="evenodd"></path>
                    </g>
                    <polyline id="Path-2" stroke="color(display-p3 0.498 0.573 0.514)" stroke-linecap="round" stroke-linejoin="round" points="33 6 35 8 37 6"></polyline>
                    <g id="Profile" transform="translate(5, 2)" fill="color(display-p3 0.498 0.573 0.514)" fill-rule="nonzero">
                        <path d="M0.538500977,7 L1.56999609,7 L1.56999609,5.45203271 L2.13392676,5.45203271 C3.10071289,5.45203271 3.91942578,4.97765796 3.91942578,3.90531982 C3.91942578,2.79674951 3.10978418,2.43767822 2.10592676,2.43767822 L0.538500977,2.43767822 L0.538500977,7 Z M1.56999609,4.63310791 L1.56999609,3.25660303 L2.04499805,3.25660303 C2.60310791,3.25660303 2.9085376,3.42785352 2.9085376,3.90531982 C2.9085376,4.38032178 2.6401792,4.63310791 2.07299805,4.63310791 L1.56999609,4.63310791 Z" id="Shape"></path>
                        <path d="M4.71499902,7 L5.74402979,7 L5.74402979,4.9874624 C5.92928027,4.51403271 6.2471377,4.34524658 6.50899512,4.34524658 C6.65806641,4.34524658 6.73960205,4.35924658 6.85820898,4.38724658 L7.05510107,3.51310791 C6.95463672,3.46864355 6.83933325,3.44310791 6.64081592,3.44310791 C6.28426196,3.44310791 5.90458374,3.6703584 5.65420898,4.13403662 L5.62867334,4.13403662 L5.55453076,3.52710791 L4.71499902,3.52710791 L4.71499902,7 Z" id="Path"></path>
                        <path d="M9.01042188,7.084 C9.88917139,7.084 10.7020635,6.41692871 10.7020635,5.26478613 C10.7020635,4.1101792 9.88917139,3.44310791 9.01042188,3.44310791 C8.13167236,3.44310791 7.31878027,4.1101792 7.31878027,5.26478613 C7.31878027,6.41692871 8.13167236,7.084 9.01042188,7.084 Z M9.01042188,6.25353955 C8.58481299,6.25353955 8.37334668,5.86578809 8.37334668,5.26478613 C8.37334668,4.66378418 8.58481299,4.27356836 9.01042188,4.27356836 C9.43603076,4.27356836 9.64749707,4.66378418 9.64749707,5.26478613 C9.64749707,5.86578809 9.43603076,6.25353955 9.01042188,6.25353955 Z" id="Shape"></path>
                        <path d="M11.6368506,7 L12.6658813,7 L12.6658813,3.31742578 C12.6658813,2.96338916 12.8108101,2.81935254 13.061918,2.81935254 C13.1763823,2.81935254 13.2920789,2.83581689 13.4102397,2.86874561 L13.6071318,2.13549902 C13.4555962,2.07703467 13.2043823,2.01196338 12.9144189,2.01196338 C11.9769932,2.01196338 11.6368506,2.61412231 11.6368506,3.347104 L11.6368506,7 Z M11.1237793,4.33449707 L13.2908467,4.33449707 L13.2908467,3.52710791 L11.7060645,3.52710791 L11.1237793,3.56664355 L11.1237793,4.33449707 Z" id="Shape"></path>
                        <path d="M13.933312,7 L14.9623428,7 L14.9623428,3.52710791 L13.933312,3.52710791 L13.933312,7 Z M14.4465952,3.01917725 C14.7917725,3.01917725 15.0282002,2.8058208 15.0282002,2.47878613 C15.0282002,2.15421582 14.7917725,1.94085937 14.4465952,1.94085937 C14.101418,1.94085937 13.8649902,2.15421582 13.8649902,2.47878613 C13.8649902,2.8058208 14.101418,3.01917725 14.4465952,3.01917725 Z" id="Shape"></path>
                        <path d="M16.9034986,7.07783965 C17.1356157,7.07783965 17.3069736,7.042 17.4206526,6.99216057 L17.296054,6.23337086 C17.240054,6.24737086 17.212054,6.24737086 17.1731343,6.24737086 C17.086054,6.24737086 16.9832948,6.1804512 16.9832948,5.95785257 L16.9832948,2.09719769 L15.9548694,2.09719769 L15.9548694,5.91585257 C15.9548694,6.61976582 16.1962274,7.07783965 16.9034986,7.07783965 L16.9034986,7.07783965 Z" id="Path"></path>
                        <path d="M19.604517,7.084 C20.0149986,7.084 20.4820355,6.944 20.8353935,6.6964816 L20.5005171,6.06872881 C20.2546777,6.21488937 20.0043567,6.29104994 19.7417146,6.29104994 C19.2802699,6.29104994 18.8277883,6.05080273 18.8121093,5.26232114 C18.7964304,4.46823439 19.1693935,4.23359233 19.5065171,4.23359233 C19.9136408,4.23359233 20.0749249,4.50239496 20.0749249,4.8669632 L18.6317884,4.8669632 L18.6396278,5.57703702 L20.9154738,5.57703702 C20.939554,5.47455553 20.9613935,5.29535815 20.9613935,5.11000021 C20.9613935,4.16583965 20.4775539,3.4437225 19.4846776,3.4437225 C18.6491592,3.4437225 17.8416408,4.1344817 17.8416408,5.26232114 C17.8416408,6.41816057 18.6071592,7.084 19.6045171,7.084 L19.604517,7.084 Z" id="Path"></path>
                    </g>
                </g>
                <g id="Path">
                    <use fill="black" fill-opacity="1" filter="url(#filter-36)" xlink:href="#path-35"></use>
                    <use fill-opacity="0.15" fill="color(display-p3 0.498 0.573 0.514)" fill-rule="evenodd" xlink:href="#path-35"></use>
                    <use fill="black" fill-opacity="1" filter="url(#filter-37)" xlink:href="#path-35"></use>
                    <path stroke="color(display-p3 0.498 0.573 0.514)" stroke-width="1" d="M183.105263,3.5 C185.419611,3.5 187.229622,4.16397906 188.480494,5.27308578 C189.814884,6.45624445 190.5,8.13868435 190.5,10 C190.5,11.8696598 189.817309,13.5498372 188.486495,14.7298257 C187.23533,15.8391915 185.423168,16.5 183.105263,16.5 L171.894737,16.5 C169.580389,16.5 167.770378,15.8360209 166.519506,14.7269142 C165.185116,13.5437555 164.5,11.8613157 164.5,10 C164.5,8.13034016 165.182691,6.45016281 166.513505,5.27017426 C167.76467,4.16080853 169.576832,3.5 171.894737,3.5 Z" stroke-linejoin="square"></path>
                </g>
                <g id="Path">
                    <use fill="black" fill-opacity="1" filter="url(#filter-39)" xlink:href="#path-38"></use>
                    <use fill-opacity="0.15" fill="color(display-p3 0.498 0.573 0.514)" fill-rule="evenodd" xlink:href="#path-38"></use>
                    <use fill="black" fill-opacity="1" filter="url(#filter-40)" xlink:href="#path-38"></use>
                    <path stroke="color(display-p3 0.498 0.573 0.514)" stroke-width="1" d="M154.105263,3.5 C156.419611,3.5 158.229622,4.16397906 159.480494,5.27308578 C160.814884,6.45624445 161.5,8.13868435 161.5,10 C161.5,11.8696598 160.817309,13.5498372 159.486495,14.7298257 C158.23533,15.8391915 156.423168,16.5 154.105263,16.5 L142.894737,16.5 C140.580389,16.5 138.770378,15.8360209 137.519506,14.7269142 C136.185116,13.5437555 135.5,11.8613157 135.5,10 C135.5,8.13034016 136.182691,6.45016281 137.513505,5.27017426 C138.76467,4.16080853 140.576832,3.5 142.894737,3.5 Z" stroke-linejoin="square"></path>
                </g>
                <g id="Oval">
                    <use fill="black" fill-opacity="1" filter="url(#filter-42)" xlink:href="#path-41"></use>
                    <use fill-opacity="0.15" fill="color(display-p3 0.498 0.573 0.514)" fill-rule="evenodd" xlink:href="#path-41"></use>
                    <use fill="black" fill-opacity="1" filter="url(#filter-43)" xlink:href="#path-41"></use>
                    <circle stroke="color(display-p3 0.498 0.573 0.514)" stroke-width="1" stroke-linejoin="square" cx="10" cy="10" r="2.5"></circle>
                </g>
                <g id="Oval">
                    <use fill="black" fill-opacity="1" filter="url(#filter-45)" xlink:href="#path-44"></use>
                    <use fill-opacity="0.15" fill="color(display-p3 0.498 0.573 0.514)" fill-rule="evenodd" xlink:href="#path-44"></use>
                    <use fill="black" fill-opacity="1" filter="url(#filter-46)" xlink:href="#path-44"></use>
                    <circle stroke="color(display-p3 0.498 0.573 0.514)" stroke-width="1" stroke-linejoin="square" cx="19" cy="10" r="2.5"></circle>
                </g>
                <g id="Oval">
                    <use fill="black" fill-opacity="1" filter="url(#filter-48)" xlink:href="#path-47"></use>
                    <use fill-opacity="0.15" fill="color(display-p3 0.498 0.573 0.514)" fill-rule="evenodd" xlink:href="#path-47"></use>
                    <use fill="black" fill-opacity="1" filter="url(#filter-49)" xlink:href="#path-47"></use>
                    <circle stroke="color(display-p3 0.498 0.573 0.514)" stroke-width="1" stroke-linejoin="square" cx="28" cy="10" r="2.5"></circle>
                </g>
                <line x1="98" y1="20.5" x2="98" y2="42" id="Path-2" stroke="url(#linearGradient-50)" stroke-width="1" opacity="0.25"></line>
                <path d="M38.2546019,6 L56.7453981,6 C57.1583486,6 57.3254599,6.04641281 57.4884229,6.13356635 C57.6513858,6.2207199 57.7792801,6.34861419 57.8664336,6.51157715 C57.9535872,6.67454011 58,6.84165137 58,7.25460192 L58,7.74539808 C58,8.15834863 57.9535872,8.32545989 57.8664336,8.48842285 C57.7792801,8.65138581 57.6513858,8.7792801 57.4884229,8.86643365 C57.3254599,8.95358719 57.1583486,9 56.7453981,9 L38.2546019,9 C37.8416514,9 37.6745401,8.95358719 37.5115771,8.86643365 C37.3486142,8.7792801 37.2207199,8.65138581 37.1335664,8.48842285 C37.0464128,8.32545989 37,8.15834863 37,7.74539808 L37,7.25460192 C37,6.84165137 37.0464128,6.67454011 37.1335664,6.51157715 C37.2207199,6.34861419 37.3486142,6.2207199 37.5115771,6.13356635 C37.6745401,6.04641281 37.8416514,6 38.2546019,6 Z" id="Rectangle" fill="color(display-p3 0.498 0.573 0.514)" fill-rule="evenodd"></path>
                <path d="M38.2546019,11 L66.7453981,11 C67.1583486,11 67.3254599,11.0464128 67.4884229,11.1335664 C67.6513858,11.2207199 67.7792801,11.3486142 67.8664336,11.5115771 C67.9535872,11.6745401 68,11.8416514 68,12.2546019 L68,12.7453981 C68,13.1583486 67.9535872,13.3254599 67.8664336,13.4884229 C67.7792801,13.6513858 67.6513858,13.7792801 67.4884229,13.8664336 C67.3254599,13.9535872 67.1583486,14 66.7453981,14 L38.2546019,14 C37.8416514,14 37.6745401,13.9535872 37.5115771,13.8664336 C37.3486142,13.7792801 37.2207199,13.6513858 37.1335664,13.4884229 C37.0464128,13.3254599 37,13.1583486 37,12.7453981 L37,12.2546019 C37,11.8416514 37.0464128,11.6745401 37.1335664,11.5115771 C37.2207199,11.3486142 37.3486142,11.2207199 37.5115771,11.1335664 C37.6745401,11.0464128 37.8416514,11 38.2546019,11 Z" id="Rectangle" fill="color(display-p3 0.498 0.573 0.514)" fill-rule="evenodd"></path>
                <line x1="0" y1="20" x2="238" y2="20" id="Path-2" stroke="color(display-p3 0.498 0.573 0.514)" stroke-width="1" opacity="0.25"></line>
            </g>
        </g>
    </g>
</svg>