<?xml version="1.0" encoding="UTF-8"?>
<svg width="476px" height="224px" viewBox="0 0 476 224" version="1.1" xmlns="http://www.w3.org/2000/svg" xmlns:xlink="http://www.w3.org/1999/xlink">
    <title>Comparison of the Hierarchical Layers</title>
    <defs>
        <path d="M0,0 L476,0 L476,224 L0,224 L0,0 Z" id="path-1"></path>
        <path d="M0,0 L476,0 L476,672 L0,672 L0,0 Z" id="path-2"></path>
        <path d="M0,0 L476,0 L476,1 L0,1 L0,0 Z" id="path-3"></path>
        <linearGradient x1="27.3104931%" y1="49.7194929%" x2="29.3890344%" y2="50.8210125%" id="linearGradient-4">
            <stop stop-color="color(display-p3 0.498 0.573 0.514)" offset="0%"></stop>
            <stop stop-color="color(display-p3 0.498 0.573 0.514)" stop-opacity="0" offset="100%"></stop>
        </linearGradient>
        <linearGradient x1="89.3705081%" y1="50.3696204%" x2="96.5322239%" y2="50.0006664%" id="linearGradient-5">
            <stop stop-color="color(display-p3 0.871 0.875 0.831)" offset="0%"></stop>
            <stop stop-color="color(display-p3 0.871 0.875 0.831)" stop-opacity="0" offset="100%"></stop>
        </linearGradient>
        <linearGradient x1="83.4491365%" y1="50.6105709%" x2="96.1050192%" y2="50%" id="linearGradient-6">
            <stop stop-color="color(display-p3 0.992 0.976 0.933)" stop-opacity="0.2" offset="0%"></stop>
            <stop stop-color="color(display-p3 0.992 0.976 0.933)" stop-opacity="0" offset="100%"></stop>
        </linearGradient>
        <linearGradient x1="91.231787%" y1="50.3343052%" x2="96.4436598%" y2="50.0367165%" id="linearGradient-7">
            <stop stop-color="color(display-p3 0.498 0.573 0.514)" offset="0%"></stop>
            <stop stop-color="color(display-p3 0.498 0.573 0.514)" stop-opacity="0" offset="100%"></stop>
        </linearGradient>
        <path d="M144.236068,42 L365,42 L365,42 L379,70 L158.414826,70 C157.085235,70 156.606933,69.9168135 156.092265,69.738482 C155.577598,69.5601505 155.135104,69.2866739 154.745433,68.9060937 C154.355762,68.5255135 154.067454,68.134909 153.472843,66.9456866 L142.447214,44.8944272 C141.953235,43.9064702 142.353684,42.7051241 143.341641,42.2111456 C143.619352,42.0722902 143.925578,42 144.236068,42 Z" id="path-8"></path>
        <linearGradient x1="50%" y1="51.2324863%" x2="50%" y2="100%" id="linearGradient-9">
            <stop stop-color="color(display-p3 0.871 0.875 0.831)" offset="0%"></stop>
            <stop stop-color="color(display-p3 0.871 0.875 0.831)" stop-opacity="0" offset="100%"></stop>
        </linearGradient>
        <linearGradient x1="50%" y1="70.3780594%" x2="50%" y2="99.647618%" id="linearGradient-10">
            <stop stop-color="color(display-p3 0.498 0.573 0.514)" offset="0%"></stop>
            <stop stop-color="color(display-p3 0.498 0.573 0.514)" stop-opacity="0" offset="100%"></stop>
        </linearGradient>
        <linearGradient x1="46.4719609%" y1="49.4684287%" x2="47.6245092%" y2="50.4747032%" id="linearGradient-11">
            <stop stop-color="color(display-p3 0.498 0.573 0.514)" offset="0%"></stop>
            <stop stop-color="color(display-p3 0.498 0.573 0.514)" stop-opacity="0" offset="100%"></stop>
        </linearGradient>
    </defs>
    <g id="Comparison-of-the-Hierarchical-Layers" stroke="none" fill="none" xlink:href="#path-1">
        <use fill="color(display-p3 0.992 0.976 0.933)" fill-rule="evenodd" xlink:href="#path-1"></use>
        <use fill-opacity="0.1" fill="color(display-p3 0.494 0.549 0.514)" fill-rule="evenodd" xlink:href="#path-1"></use>
        <g id="Stack" opacity="0.0299999993" xlink:href="#path-2" stroke="color(display-p3 0.494 0.549 0.514)" stroke-width="1">
            <line x1="476" y1="224" x2="0" y2="224" id="Path"></line>
            <line x1="476" y1="210" x2="0" y2="210" id="Path"></line>
            <line x1="476" y1="196" x2="0" y2="196" id="Path"></line>
            <line x1="476" y1="182" x2="0" y2="182" id="Path"></line>
            <line x1="476" y1="168" x2="0" y2="168" id="Path"></line>
            <line x1="476" y1="154" x2="0" y2="154" id="Path"></line>
            <line x1="476" y1="140" x2="0" y2="140" id="Path"></line>
            <line x1="476" y1="126" x2="0" y2="126" id="Path"></line>
            <line x1="476" y1="112" x2="0" y2="112" id="Path"></line>
            <line x1="476" y1="98" x2="0" y2="98" id="Path"></line>
            <line x1="476" y1="84" x2="0" y2="84" id="Path"></line>
            <line x1="476" y1="70" x2="0" y2="70" id="Path"></line>
            <line x1="476" y1="56" x2="0" y2="56" id="Path"></line>
            <line x1="476" y1="42" x2="0" y2="42" id="Path"></line>
            <line x1="476" y1="28" x2="0" y2="28" id="Path"></line>
            <line x1="476" y1="14" x2="0" y2="14" id="Path"></line>
        </g>
        <g id="Stack" opacity="0.0299999993" xlink:href="#path-3" stroke="color(display-p3 0.494 0.549 0.514)" stroke-width="1">
            <line x1="462" y1="-539.5" x2="462" y2="540.5" id="Path"></line>
            <line x1="448" y1="-539.5" x2="448" y2="540.5" id="Path"></line>
            <line x1="434" y1="-539.5" x2="434" y2="540.5" id="Path"></line>
            <line x1="420" y1="-539.5" x2="420" y2="540.5" id="Path"></line>
            <line x1="406" y1="-539.5" x2="406" y2="540.5" id="Path"></line>
            <line x1="392" y1="-539.5" x2="392" y2="540.5" id="Path"></line>
            <line x1="378" y1="-539.5" x2="378" y2="540.5" id="Path"></line>
            <line x1="364" y1="-539.5" x2="364" y2="540.5" id="Path"></line>
            <line x1="350" y1="-539.5" x2="350" y2="540.5" id="Path"></line>
            <line x1="336" y1="-539.5" x2="336" y2="540.5" id="Path"></line>
            <line x1="322" y1="-539.5" x2="322" y2="540.5" id="Path"></line>
            <line x1="308" y1="-539.5" x2="308" y2="540.5" id="Path"></line>
            <line x1="294" y1="-539.5" x2="294" y2="540.5" id="Path"></line>
            <line x1="280" y1="-539.5" x2="280" y2="540.5" id="Path"></line>
            <line x1="266" y1="-539.5" x2="266" y2="540.5" id="Path"></line>
            <line x1="252" y1="-539.5" x2="252" y2="540.5" id="Path"></line>
            <line x1="238" y1="-539.5" x2="238" y2="540.5" id="Path"></line>
            <line x1="224" y1="-539.5" x2="224" y2="540.5" id="Path"></line>
            <line x1="210" y1="-539.5" x2="210" y2="540.5" id="Path"></line>
            <line x1="196" y1="-539.5" x2="196" y2="540.5" id="Path"></line>
            <line x1="182" y1="-539.5" x2="182" y2="540.5" id="Path"></line>
            <line x1="168" y1="-539.5" x2="168" y2="540.5" id="Path"></line>
            <line x1="154" y1="-539.5" x2="154" y2="540.5" id="Path"></line>
            <line x1="140" y1="-539.5" x2="140" y2="540.5" id="Path"></line>
            <line x1="126" y1="-539.5" x2="126" y2="540.5" id="Path"></line>
            <line x1="112" y1="-539.5" x2="112" y2="540.5" id="Path"></line>
            <line x1="98" y1="-539.5" x2="98" y2="540.5" id="Path"></line>
            <line x1="84" y1="-539.5" x2="84" y2="540.5" id="Path"></line>
            <line x1="70" y1="-539.5" x2="70" y2="540.5" id="Path"></line>
            <line x1="56" y1="-539.5" x2="56" y2="540.5" id="Path"></line>
            <line x1="42" y1="-539.5" x2="42" y2="540.5" id="Path"></line>
            <line x1="28" y1="-539.5" x2="28" y2="540.5" id="Path"></line>
            <line x1="14" y1="-539.5" x2="14" y2="540.5" id="Path"></line>
        </g>
        <path d="M144.236068,56 L347.585174,56 C348.914765,56 349.393067,56.0831865 349.907735,56.261518 C350.422402,56.4398495 350.864896,56.7133261 351.254567,57.0939063 C351.644238,57.4744865 351.932546,57.865091 352.527157,59.0543134 L363.552786,81.1055728 C364.046765,82.0935298 363.646316,83.2948759 362.658359,83.7888544 C362.380648,83.9277098 362.074422,84 361.763932,84 L158.414826,84 C157.085235,84 156.606933,83.9168135 156.092265,83.738482 C155.577598,83.5601505 155.135104,83.2866739 154.745433,82.9060937 C154.355762,82.5255135 154.067454,82.134909 153.472843,80.9456866 L142.447214,58.8944272 C141.953235,57.9064702 142.353684,56.7051241 143.341641,56.2111456 C143.619352,56.0722902 143.925578,56 144.236068,56 Z" id="Rectangle" stroke="color(display-p3 0.498 0.573 0.514)" stroke-width="1" opacity="0.149999991" stroke-linejoin="round"></path>
        <path d="M169,112 L142.447214,58.8944272 C141.953235,57.9064702 142.353684,56.7051241 143.341641,56.2111456 C143.619352,56.0722902 143.925578,56 144.236068,56 L379,56 L379,56" id="Path" stroke="url(#linearGradient-4)" stroke-width="1" stroke-linecap="round" stroke-linejoin="round"></path>
        <g id="Rectangle" stroke-linejoin="round" fill-rule="evenodd">
            <use fill="url(#linearGradient-5)" xlink:href="#path-8"></use>
            <use stroke="url(#linearGradient-7)" stroke-width="1" fill="url(#linearGradient-6)" xlink:href="#path-8"></use>
        </g>
        <path d="M213.236068,48 L243.585174,48 C244.914765,48 245.393067,48.0831865 245.907735,48.261518 C246.422402,48.4398495 246.864896,48.7133261 247.254567,49.0939063 C247.644238,49.4744865 247.932546,49.865091 248.527157,51.0543134 L253.552786,61.1055728 C254.046765,62.0935298 253.646316,63.2948759 252.658359,63.7888544 C252.380648,63.9277098 252.074422,64 251.763932,64 L221.414826,64 C220.085235,64 219.606933,63.9168135 219.092265,63.738482 C218.577598,63.5601505 218.135104,63.2866739 217.745433,62.9060937 C217.355762,62.5255135 217.067454,62.134909 216.472843,60.9456866 L211.447214,50.8944272 C210.953235,49.9064702 211.353684,48.7051241 212.341641,48.2111456 C212.619352,48.0722902 212.925578,48 213.236068,48 Z" id="Rectangle" stroke="color(display-p3 0.498 0.573 0.514)" stroke-width="1" opacity="0.149999991" stroke-linejoin="round"></path>
        <path d="M261.236068,48 L291.585174,48 C292.914765,48 293.393067,48.0831865 293.907735,48.261518 C294.422402,48.4398495 294.864896,48.7133261 295.254567,49.0939063 C295.644238,49.4744865 295.932546,49.865091 296.527157,51.0543134 L301.552786,61.1055728 C302.046765,62.0935298 301.646316,63.2948759 300.658359,63.7888544 C300.380648,63.9277098 300.074422,64 299.763932,64 L269.414826,64 C268.085235,64 267.606933,63.9168135 267.092265,63.738482 C266.577598,63.5601505 266.135104,63.2866739 265.745433,62.9060937 C265.355762,62.5255135 265.067454,62.134909 264.472843,60.9456866 L259.447214,50.8944272 C258.953235,49.9064702 259.353684,48.7051241 260.341641,48.2111456 C260.619352,48.0722902 260.925578,48 261.236068,48 Z" id="Rectangle" stroke="color(display-p3 0.498 0.573 0.514)" stroke-width="1" opacity="0.149999991" stroke-linejoin="round"></path>
        <path d="M309.236068,48 L339.585174,48 C340.914765,48 341.393067,48.0831865 341.907735,48.261518 C342.422402,48.4398495 342.864896,48.7133261 343.254567,49.0939063 C343.644238,49.4744865 343.932546,49.865091 344.527157,51.0543134 L349.552786,61.1055728 C350.046765,62.0935298 349.646316,63.2948759 348.658359,63.7888544 C348.380648,63.9277098 348.074422,64 347.763932,64 L317.414826,64 C316.085235,64 315.606933,63.9168135 315.092265,63.738482 C314.577598,63.5601505 314.135104,63.2866739 313.745433,62.9060937 C313.355762,62.5255135 313.067454,62.134909 312.472843,60.9456866 L307.447214,50.8944272 C306.953235,49.9064702 307.353684,48.7051241 308.341641,48.2111456 C308.619352,48.0722902 308.925578,48 309.236068,48 Z" id="Rectangle" stroke="color(display-p3 0.498 0.573 0.514)" stroke-width="1" opacity="0.149999991" stroke-linejoin="round"></path>
        <path d="M213.236068,36 L243.585174,36 C244.914765,36 245.393067,36.0831865 245.907735,36.261518 C246.422402,36.4398495 246.864896,36.7133261 247.254567,37.0939063 C247.644238,37.4744865 247.932546,37.865091 248.527157,39.0543134 L253.552786,49.1055728 C254.046765,50.0935298 253.646316,51.2948759 252.658359,51.7888544 C252.380648,51.9277098 252.074422,52 251.763932,52 L221.414826,52 C220.085235,52 219.606933,51.9168135 219.092265,51.738482 C218.577598,51.5601505 218.135104,51.2866739 217.745433,50.9060937 C217.355762,50.5255135 217.067454,50.134909 216.472843,48.9456866 L211.447214,38.8944272 C210.953235,37.9064702 211.353684,36.7051241 212.341641,36.2111456 C212.619352,36.0722902 212.925578,36 213.236068,36 Z" id="Rectangle" stroke="color(display-p3 0.498 0.573 0.514)" stroke-width="1" fill="color(display-p3 0.871 0.875 0.831)" fill-rule="evenodd" stroke-linejoin="round"></path>
        <path d="M261.236068,36 L291.585174,36 C292.914765,36 293.393067,36.0831865 293.907735,36.261518 C294.422402,36.4398495 294.864896,36.7133261 295.254567,37.0939063 C295.644238,37.4744865 295.932546,37.865091 296.527157,39.0543134 L301.552786,49.1055728 C302.046765,50.0935298 301.646316,51.2948759 300.658359,51.7888544 C300.380648,51.9277098 300.074422,52 299.763932,52 L269.414826,52 C268.085235,52 267.606933,51.9168135 267.092265,51.738482 C266.577598,51.5601505 266.135104,51.2866739 265.745433,50.9060937 C265.355762,50.5255135 265.067454,50.134909 264.472843,48.9456866 L259.447214,38.8944272 C258.953235,37.9064702 259.353684,36.7051241 260.341641,36.2111456 C260.619352,36.0722902 260.925578,36 261.236068,36 Z" id="Rectangle" stroke="color(display-p3 0.498 0.573 0.514)" stroke-width="1" fill="color(display-p3 0.871 0.875 0.831)" fill-rule="evenodd" stroke-linejoin="round"></path>
        <path d="M309.236068,36 L339.585174,36 C340.914765,36 341.393067,36.0831865 341.907735,36.261518 C342.422402,36.4398495 342.864896,36.7133261 343.254567,37.0939063 C343.644238,37.4744865 343.932546,37.865091 344.527157,39.0543134 L349.552786,49.1055728 C350.046765,50.0935298 349.646316,51.2948759 348.658359,51.7888544 C348.380648,51.9277098 348.074422,52 347.763932,52 L317.414826,52 C316.085235,52 315.606933,51.9168135 315.092265,51.738482 C314.577598,51.5601505 314.135104,51.2866739 313.745433,50.9060937 C313.355762,50.5255135 313.067454,50.134909 312.472843,48.9456866 L307.447214,38.8944272 C306.953235,37.9064702 307.353684,36.7051241 308.341641,36.2111456 C308.619352,36.0722902 308.925578,36 309.236068,36 Z" id="Rectangle" stroke="color(display-p3 0.498 0.573 0.514)" stroke-width="1" fill="color(display-p3 0.871 0.875 0.831)" fill-rule="evenodd" stroke-linejoin="round"></path>
        <path d="M144.236068,28 L207.585174,28 C208.914765,28 209.393067,28.0831865 209.907735,28.261518 C210.422402,28.4398495 210.864896,28.7133261 211.254567,29.0939063 C211.644238,29.4744865 211.932546,29.865091 212.527157,31.0543134 L253,112 L253,112 L183,112 L142.447214,30.8944272 C141.953235,29.9064702 142.353684,28.7051241 143.341641,28.2111456 C143.619352,28.0722902 143.925578,28 144.236068,28 Z" id="Rectangle" stroke="url(#linearGradient-10)" stroke-width="1" fill="url(#linearGradient-9)" fill-rule="evenodd" stroke-linejoin="round"></path>
        <ellipse id="Oval" stroke="color(display-p3 0.498 0.573 0.514)" stroke-width="1" fill="color(display-p3 0.827 0.831 0.784)" fill-rule="evenodd" cx="159" cy="37" rx="4" ry="3"></ellipse>
        <ellipse id="Oval" stroke="color(display-p3 0.498 0.573 0.514)" stroke-width="1" fill="color(display-p3 0.827 0.831 0.784)" fill-rule="evenodd" cx="171" cy="37" rx="4" ry="3"></ellipse>
        <ellipse id="Oval" stroke="color(display-p3 0.498 0.573 0.514)" stroke-width="1" fill="color(display-p3 0.827 0.831 0.784)" fill-rule="evenodd" cx="183" cy="37" rx="4" ry="3"></ellipse>
        <text id="macOS-Sequoia" font-family="SourceSans3VF-Medium, SourceSans3VF" font-size="8" font-weight="400" fill="color(display-p3 0.498 0.573 0.514)">
            <tspan x="28" y="47">macOS Sequoia </tspan>
        </text>
        <text id="macOS-Tahoe" font-family="SourceSans3VF-Medium, SourceSans3VF" font-size="8" font-weight="400" fill="color(display-p3 0.498 0.573 0.514)">
            <tspan x="28" y="152">macOS Tahoe </tspan>
        </text>
        <path d="M169,196 L143.894427,145.788854 C142.90647,143.81294 143.707368,141.410248 145.683282,140.422291 C146.238703,140.14458 146.851156,140 147.472136,140 L379,140 L379,140" id="Path" stroke="url(#linearGradient-11)" stroke-width="1" stroke-linecap="round" stroke-linejoin="round"></path>
        <ellipse id="Oval" stroke="color(display-p3 0.498 0.573 0.514)" stroke-width="1" opacity="0.149999991" cx="159" cy="150" rx="4" ry="3"></ellipse>
        <ellipse id="Oval" stroke="color(display-p3 0.498 0.573 0.514)" stroke-width="1" opacity="0.149999991" cx="171" cy="150" rx="4" ry="3"></ellipse>
        <ellipse id="Oval" stroke="color(display-p3 0.498 0.573 0.514)" stroke-width="1" opacity="0.149999991" cx="183" cy="150" rx="4" ry="3"></ellipse>
        <ellipse id="Oval" stroke="color(display-p3 0.498 0.573 0.514)" stroke-width="1" fill="color(display-p3 0.871 0.875 0.831)" fill-rule="evenodd" cx="159" cy="140" rx="4" ry="3"></ellipse>
        <ellipse id="Oval" stroke="color(display-p3 0.498 0.573 0.514)" stroke-width="1" fill="color(display-p3 0.871 0.875 0.831)" fill-rule="evenodd" cx="171" cy="140" rx="4" ry="3"></ellipse>
        <ellipse id="Oval" stroke="color(display-p3 0.498 0.573 0.514)" stroke-width="1" fill="color(display-p3 0.871 0.875 0.831)" fill-rule="evenodd" cx="183" cy="140" rx="4" ry="3"></ellipse>
        <path d="M220.931743,166 C209.654738,166 202.192015,162.5 198.543572,155.5 C194.895129,148.5 197.71438,145 207.001325,145 L252.772697,145 C262.059642,145 268.527336,148.5 272.175779,155.5 C275.824221,162.5 274,166 266.703115,166 L220.931743,166 Z" id="Path" stroke="color(display-p3 0.498 0.573 0.514)" stroke-width="1" opacity="0.149999991" stroke-linejoin="round"></path>
        <path d="M302.765637,166 C291.566904,166 284.155978,162.5 280.532858,155.5 C276.909739,148.5 279.709422,145 288.931908,145 L289.920032,145 C299.142518,145 305.565321,148.5 309.18844,155.5 C312.81156,162.5 311,166 303.753761,166 L302.765637,166 Z" id="Path" stroke="color(display-p3 0.498 0.573 0.514)" stroke-width="1" opacity="0.149999991" stroke-linejoin="round"></path>
        <path d="M339.765637,166 C328.566904,166 321.155978,162.5 317.532858,155.5 C313.909739,148.5 316.709422,145 325.931908,145 L326.920032,145 C336.142518,145 342.565321,148.5 346.18844,155.5 C349.81156,162.5 348,166 340.753761,166 L339.765637,166 Z" id="Path" stroke="color(display-p3 0.498 0.573 0.514)" stroke-width="1" opacity="0.149999991" stroke-linejoin="round"></path>
        <path d="M220.931743,154 C209.654738,154 202.192015,150.5 198.543572,143.5 C194.895129,136.5 197.71438,133 207.001325,133 L252.772697,133 C262.059642,133 268.527336,136.5 272.175779,143.5 C275.824221,150.5 274,154 266.703115,154 L220.931743,154 Z" id="Path" stroke="color(display-p3 0.498 0.573 0.514)" stroke-width="1" fill="color(display-p3 0.871 0.875 0.831)" fill-rule="evenodd" stroke-linejoin="round"></path>
        <path d="M302.765637,154 C291.566904,154 284.155978,150.5 280.532858,143.5 C276.909739,136.5 279.709422,133 288.931908,133 L289.920032,133 C299.142518,133 305.565321,136.5 309.18844,143.5 C312.81156,150.5 311,154 303.753761,154 L302.765637,154 Z" id="Path" stroke="color(display-p3 0.498 0.573 0.514)" stroke-width="1" fill="color(display-p3 0.871 0.875 0.831)" fill-rule="evenodd" stroke-linejoin="round"></path>
        <path d="M339.765637,154 C328.566904,154 321.155978,150.5 317.532858,143.5 C313.909739,136.5 316.709422,133 325.931908,133 L326.920032,133 C336.142518,133 342.565321,136.5 346.18844,143.5 C349.81156,150.5 348,154 340.753761,154 L339.765637,154 Z" id="Path" stroke="color(display-p3 0.498 0.573 0.514)" stroke-width="1" fill="color(display-p3 0.871 0.875 0.831)" fill-rule="evenodd" stroke-linejoin="round"></path>
    </g>
</svg>