<?xml version="1.0" encoding="UTF-8"?>
<svg width="476px" height="238px" viewBox="0 0 476 238" version="1.1" xmlns="http://www.w3.org/2000/svg" xmlns:xlink="http://www.w3.org/1999/xlink">
    <title>Comparison of Toolbar Placements</title>
    <defs>
        <path d="M0,0 L476,0 L476,238 L0,238 L0,0 Z" id="path-1"></path>
        <path d="M0,0 L476,0 L476,672 L0,672 L0,0 Z" id="path-2"></path>
        <path d="M0,0 L476,0 L476,1 L0,1 L0,0 Z" id="path-3"></path>
        <linearGradient x1="27.3104931%" y1="49.7194929%" x2="29.3890344%" y2="50.8210125%" id="linearGradient-4">
            <stop stop-color="color(display-p3 0.498 0.573 0.514)" offset="0%"></stop>
            <stop stop-color="color(display-p3 0.498 0.573 0.514)" stop-opacity="0" offset="100%"></stop>
        </linearGradient>
        <linearGradient x1="89.3705081%" y1="50.3696204%" x2="96.5451589%" y2="50%" id="linearGradient-5">
            <stop stop-color="color(display-p3 0.871 0.875 0.831)" offset="0%"></stop>
            <stop stop-color="color(display-p3 0.871 0.875 0.831)" stop-opacity="0" offset="100%"></stop>
        </linearGradient>
        <linearGradient x1="83.4491365%" y1="50.6105709%" x2="96.1050192%" y2="50%" id="linearGradient-6">
            <stop stop-color="color(display-p3 0.992 0.976 0.933)" stop-opacity="0.2" offset="0%"></stop>
            <stop stop-color="color(display-p3 0.992 0.976 0.933)" stop-opacity="0" offset="100%"></stop>
        </linearGradient>
        <linearGradient x1="91.231787%" y1="50.3343052%" x2="96.4436598%" y2="50.0367165%" id="linearGradient-7">
            <stop stop-color="color(display-p3 0.498 0.573 0.514)" offset="0%"></stop>
            <stop stop-color="color(display-p3 0.498 0.573 0.514)" stop-opacity="0" offset="100%"></stop>
        </linearGradient>
        <path d="M144.854102,140 L364,140 L364,140 L378,168 L159.122239,168 C157.127853,168 156.410399,167.87522 155.638398,167.607723 C154.866397,167.340226 154.202655,166.930011 153.618149,166.359141 C153.033643,165.78827 152.601182,165.202363 151.709265,163.41853 L142.17082,144.341641 C141.429853,142.859705 142.030526,141.057686 143.512461,140.316718 C143.929027,140.108435 144.388367,140 144.854102,140 Z" id="path-8"></path>
        <linearGradient x1="50%" y1="51.2324863%" x2="50%" y2="100%" id="linearGradient-9">
            <stop stop-color="color(display-p3 0.871 0.875 0.831)" offset="0%"></stop>
            <stop stop-color="color(display-p3 0.871 0.875 0.831)" stop-opacity="0" offset="100%"></stop>
        </linearGradient>
        <linearGradient x1="50%" y1="0%" x2="50%" y2="100%" id="linearGradient-10">
            <stop stop-color="color(display-p3 0.992 0.976 0.933)" stop-opacity="0.2" offset="26.6307911%"></stop>
            <stop stop-color="color(display-p3 0.992 0.976 0.933)" stop-opacity="0" offset="100%"></stop>
        </linearGradient>
        <linearGradient x1="50%" y1="70.3780594%" x2="50%" y2="99.647618%" id="linearGradient-11">
            <stop stop-color="color(display-p3 0.498 0.573 0.514)" offset="0%"></stop>
            <stop stop-color="color(display-p3 0.498 0.573 0.514)" stop-opacity="0" offset="100%"></stop>
        </linearGradient>
        <path d="M144.854102,126 L204.877761,126 C206.872147,126 207.589601,126.12478 208.361602,126.392277 C209.133603,126.659774 209.797345,127.069989 210.381851,127.640859 C210.966357,128.21173 211.398818,128.797637 212.290735,130.58147 L252,210 L252,210 L182,210 L142.17082,130.341641 C141.429853,128.859705 142.030526,127.057686 143.512461,126.316718 C143.929027,126.108435 144.388367,126 144.854102,126 Z" id="path-12"></path>
        <linearGradient x1="50%" y1="51.2324863%" x2="50%" y2="100%" id="linearGradient-13">
            <stop stop-color="color(display-p3 0.871 0.875 0.831)" offset="0%"></stop>
            <stop stop-color="color(display-p3 0.871 0.875 0.831)" stop-opacity="0" offset="100%"></stop>
        </linearGradient>
        <linearGradient x1="50%" y1="26.6307911%" x2="50%" y2="100%" id="linearGradient-14">
            <stop stop-color="color(display-p3 0.992 0.976 0.933)" stop-opacity="0.2" offset="0%"></stop>
            <stop stop-color="color(display-p3 0.992 0.976 0.933)" stop-opacity="0" offset="100%"></stop>
        </linearGradient>
        <linearGradient x1="50%" y1="70.3780594%" x2="50%" y2="99.647618%" id="linearGradient-15">
            <stop stop-color="color(display-p3 0.498 0.573 0.514)" offset="0%"></stop>
            <stop stop-color="color(display-p3 0.498 0.573 0.514)" stop-opacity="0" offset="100%"></stop>
        </linearGradient>
        <path d="M144.854102,42 L204.877761,42 C206.872147,42 207.589601,42.1247797 208.361602,42.392277 C209.133603,42.6597743 209.797345,43.0699892 210.381851,43.6408595 C210.966357,44.2117298 211.398818,44.7976366 212.290735,46.58147 L245,112 L245,112 L175,112 L142.17082,46.3416408 C141.429853,44.8597053 142.030526,43.0576862 143.512461,42.3167184 C143.929027,42.1084353 144.388367,42 144.854102,42 Z" id="path-16"></path>
    </defs>
    <g id="Comparison-of-Toolbar-Placements" stroke="none" fill="none" xlink:href="#path-1">
        <use fill="color(display-p3 0.992 0.976 0.933)" fill-rule="evenodd" xlink:href="#path-1"></use>
        <use fill-opacity="0.06" fill="color(display-p3 0.494 0.549 0.514)" fill-rule="evenodd" xlink:href="#path-1"></use>
        <g id="Stack" opacity="0.0299999993" xlink:href="#path-2" stroke="color(display-p3 0.494 0.549 0.514)" stroke-width="1">
            <line x1="476" y1="238" x2="0" y2="238" id="Path"></line>
            <line x1="476" y1="224" x2="0" y2="224" id="Path"></line>
            <line x1="476" y1="210" x2="0" y2="210" id="Path"></line>
            <line x1="476" y1="196" x2="0" y2="196" id="Path"></line>
            <line x1="476" y1="182" x2="0" y2="182" id="Path"></line>
            <line x1="476" y1="168" x2="0" y2="168" id="Path"></line>
            <line x1="476" y1="154" x2="0" y2="154" id="Path"></line>
            <line x1="476" y1="140" x2="0" y2="140" id="Path"></line>
            <line x1="476" y1="126" x2="0" y2="126" id="Path"></line>
            <line x1="476" y1="112" x2="0" y2="112" id="Path"></line>
            <line x1="476" y1="98" x2="0" y2="98" id="Path"></line>
            <line x1="476" y1="84" x2="0" y2="84" id="Path"></line>
            <line x1="476" y1="70" x2="0" y2="70" id="Path"></line>
            <line x1="476" y1="56" x2="0" y2="56" id="Path"></line>
            <line x1="476" y1="42" x2="0" y2="42" id="Path"></line>
            <line x1="476" y1="28" x2="0" y2="28" id="Path"></line>
            <line x1="476" y1="14" x2="0" y2="14" id="Path"></line>
        </g>
        <g id="Stack" opacity="0.0299999993" xlink:href="#path-3" stroke="color(display-p3 0.494 0.549 0.514)" stroke-width="1">
            <line x1="462" y1="-539.5" x2="462" y2="540.5" id="Path"></line>
            <line x1="448" y1="-539.5" x2="448" y2="540.5" id="Path"></line>
            <line x1="434" y1="-539.5" x2="434" y2="540.5" id="Path"></line>
            <line x1="420" y1="-539.5" x2="420" y2="540.5" id="Path"></line>
            <line x1="406" y1="-539.5" x2="406" y2="540.5" id="Path"></line>
            <line x1="392" y1="-539.5" x2="392" y2="540.5" id="Path"></line>
            <line x1="378" y1="-539.5" x2="378" y2="540.5" id="Path"></line>
            <line x1="364" y1="-539.5" x2="364" y2="540.5" id="Path"></line>
            <line x1="350" y1="-539.5" x2="350" y2="540.5" id="Path"></line>
            <line x1="336" y1="-539.5" x2="336" y2="540.5" id="Path"></line>
            <line x1="322" y1="-539.5" x2="322" y2="540.5" id="Path"></line>
            <line x1="308" y1="-539.5" x2="308" y2="540.5" id="Path"></line>
            <line x1="294" y1="-539.5" x2="294" y2="540.5" id="Path"></line>
            <line x1="280" y1="-539.5" x2="280" y2="540.5" id="Path"></line>
            <line x1="266" y1="-539.5" x2="266" y2="540.5" id="Path"></line>
            <line x1="252" y1="-539.5" x2="252" y2="540.5" id="Path"></line>
            <line x1="238" y1="-539.5" x2="238" y2="540.5" id="Path"></line>
            <line x1="224" y1="-539.5" x2="224" y2="540.5" id="Path"></line>
            <line x1="210" y1="-539.5" x2="210" y2="540.5" id="Path"></line>
            <line x1="196" y1="-539.5" x2="196" y2="540.5" id="Path"></line>
            <line x1="182" y1="-539.5" x2="182" y2="540.5" id="Path"></line>
            <line x1="168" y1="-539.5" x2="168" y2="540.5" id="Path"></line>
            <line x1="154" y1="-539.5" x2="154" y2="540.5" id="Path"></line>
            <line x1="140" y1="-539.5" x2="140" y2="540.5" id="Path"></line>
            <line x1="126" y1="-539.5" x2="126" y2="540.5" id="Path"></line>
            <line x1="112" y1="-539.5" x2="112" y2="540.5" id="Path"></line>
            <line x1="98" y1="-539.5" x2="98" y2="540.5" id="Path"></line>
            <line x1="84" y1="-539.5" x2="84" y2="540.5" id="Path"></line>
            <line x1="70" y1="-539.5" x2="70" y2="540.5" id="Path"></line>
            <line x1="56" y1="-539.5" x2="56" y2="540.5" id="Path"></line>
            <line x1="42" y1="-539.5" x2="42" y2="540.5" id="Path"></line>
            <line x1="28" y1="-539.5" x2="28" y2="540.5" id="Path"></line>
            <line x1="14" y1="-539.5" x2="14" y2="540.5" id="Path"></line>
        </g>
        <g id="until-macOS-Catalina" stroke-width="1" fill-rule="evenodd" transform="translate(28, 44)" fill="color(display-p3 0.498 0.573 0.514)">
            <path d="M1.77175269,8.09600012 C2.30623315,8.09600012 2.69327209,7.82440283 3.04486926,7.40880566 L3.06734973,7.40880566 L3.13175256,8 L3.78043127,8 L3.78043127,4.09175269 L2.98958289,4.09175269 L2.98958289,6.81318018 C2.65863599,7.23364661 2.40384448,7.41187988 2.03401416,7.41187988 C1.56595056,7.41187988 1.36523682,7.13845239 1.36523682,6.45246655 L1.36523682,4.09175269 L0.574388428,4.09175269 L0.574388428,6.55575281 C0.574388428,7.54775281 0.942388428,8.09600012 1.77175232,8.09600012 L1.77175269,8.09600012 Z" id="Path" fill-rule="nonzero"></path>
            <path d="M5.01962725,8 L5.81174932,8 L5.81174932,5.21975098 C6.16777471,4.86327832 6.41868194,4.67726563 6.7898128,4.67726563 C7.25917999,4.67726563 7.46119268,4.95329102 7.46119268,5.6379873 L7.46119268,8 L8.25331475,8 L8.25331475,5.536 C8.25331475,4.544 7.88531475,3.99445996 7.05465655,3.99445996 C6.51888018,3.99445996 6.11888018,4.28290723 5.75776202,4.63624902 L5.73398565,4.63624902 L5.67088018,4.09045996 L5.01962725,4.09045996 L5.01962725,8 Z" id="Path" fill-rule="nonzero"></path>
            <path d="M10.7505724,8.07696106 C11.0432226,8.07696106 11.3125865,8.00648059 11.5205865,7.90744165 L11.3662614,7.34908813 C11.2261059,7.41916589 11.079067,7.43820483 10.9415474,7.43820483 C10.5306005,7.43820483 10.366756,7.18989392 10.366756,6.71981616 L10.366756,4.72402856 L11.3925864,4.72402856 L11.3925864,4.09175269 L10.366756,4.09175269 L10.366756,2.85063599 L9.70511627,2.85063599 L9.6083106,4.09175269 L9.0003106,4.13023315 L9.0003106,4.72402844 L9.5694273,4.72402844 L9.5694273,6.7137384 C9.5694273,7.52527197 9.87807745,8.07696106 10.7505722,8.07696106 L10.7505724,8.07696106 Z" id="Path" fill-rule="nonzero"></path>
            <path d="M12.2437191,8 L13.0358412,8 L13.0358412,4.09045996 L12.2437191,4.09045996 L12.2437191,8 Z M12.6356684,3.34775098 C12.9274193,3.34775098 13.1327357,3.1579873 13.1327357,2.8653418 C13.1327357,2.58091992 12.9274193,2.39115625 12.6356684,2.39115625 C12.3439174,2.39115625 12.138601,2.58091992 12.138601,2.8653418 C12.138601,3.1579873 12.3439174,3.34775098 12.6356684,3.34775098 Z" id="Shape" fill-rule="nonzero"></path>
            <path d="M15.0737935,8.07696143 C15.2639632,8.07696143 15.4057299,8.048 15.5086132,8.00303894 L15.4022881,7.40924365 C15.3382881,7.42524365 15.3062881,7.42524365 15.2678076,7.42524365 C15.1622881,7.42524365 15.0658853,7.35476318 15.0658853,7.13339929 L15.0658853,2.32768933 L14.2750369,2.32768933 L14.2750369,7.08539929 C14.2750369,7.71262207 14.4968036,8.07696143 15.0737931,8.07696143 L15.0737935,8.07696143 Z" id="Path" fill-rule="nonzero"></path>
            <path d="M17.9820426,8 L18.7741647,8 L18.7741647,5.21975098 C19.1055192,4.85550195 19.4044264,4.67726563 19.6713336,4.67726563 C20.1242536,4.67726563 20.3344899,4.95329102 20.3344899,5.6379873 L20.3344899,8 L21.126612,8 L21.126612,5.21975098 C21.4579664,4.85550195 21.74865,4.67726563 22.0237809,4.67726563 C22.4767008,4.67726563 22.6869372,4.95329102 22.6869372,5.6379873 L22.6869372,8 L23.4790592,8 L23.4790592,5.536 C23.4790592,4.544 23.0950592,3.99445996 22.2808483,3.99445996 C21.7944137,3.99445996 21.3974074,4.29845996 21.0077301,4.71669629 C20.8369601,4.26780176 20.5135192,3.99445996 19.928401,3.99445996 C19.4501901,3.99445996 19.0566247,4.28290723 18.7201774,4.64013721 L18.696401,4.64013721 L18.6332955,4.09045996 L17.9820426,4.09045996 L17.9820426,8 Z" id="Path" fill-rule="nonzero"></path>
            <path d="M25.5959777,8.096 C26.0690944,8.096 26.4713277,7.85984448 26.8454054,7.55280554 L26.8743665,7.55280554 L26.9322887,7.99999988 L27.587448,7.99999988 L27.587448,5.64961121 C27.587448,4.60942737 27.1404727,3.99575244 26.179667,3.99575244 C25.555667,3.99575244 25.0017448,4.24142737 24.6062112,4.49823303 L24.902706,5.0371449 C25.2334339,4.83522266 25.6196671,4.65395056 26.0340558,4.65395056 C26.6137164,4.65395056 26.7866775,5.05680554 26.7965997,5.49934961 C25.1593277,5.67838855 24.4401333,6.09134961 24.4401333,6.96679126 C24.4401333,7.66238843 24.9262111,8.096 25.5959778,8.096 L25.5959777,8.096 Z M25.8323172,7.44428223 C25.4849673,7.44428223 25.2145786,7.29804895 25.2145786,6.91342712 C25.2145786,6.4648053 25.6091227,6.19745544 26.7965995,6.05729993 L26.7965995,6.99566016 C26.4660554,7.29804883 26.1796668,7.44428223 25.8323169,7.44428223 L25.8323172,7.44428223 Z" id="Shape" fill-rule="nonzero"></path>
            <path d="M30.3550448,8.096 C30.8445643,8.096 31.2834476,7.90096106 31.6099281,7.59392212 L31.2779917,7.10645203 C31.0543945,7.30564636 30.7546418,7.44428247 30.4263309,7.44428247 C29.7537091,7.44428247 29.2943592,6.88629663 29.2943592,6.05063599 C29.2943592,5.20849475 29.7788257,4.64747009 30.4392921,4.64747009 C30.7451224,4.64747009 30.9743945,4.7621062 31.16255,4.93730054 L31.546331,4.44334985 C31.2708894,4.18431091 30.9089672,3.99575256 30.4004088,3.99575256 C29.3782391,3.99575256 28.4810306,4.74471362 28.4810306,6.05063586 C28.4810306,7.3470387 29.2883169,8.096 30.3550448,8.096 L30.3550448,8.096 Z" id="Path" fill-rule="nonzero"></path>
            <path d="M34.4812145,8.096 C35.826423,8.096 36.7613063,7.0468833 36.7613063,5.35696106 C36.7613063,3.67351941 35.826423,2.6628833 34.4812145,2.6628833 C33.1424866,2.6628833 32.2076033,3.67351941 32.2076033,5.35696106 C32.2076033,7.0468833 33.1424866,8.096 34.4812145,8.096 Z M34.4812145,7.39587964 C33.6009955,7.39587964 33.0304514,6.59829663 33.0304514,5.35696106 C33.0304514,4.12210608 33.6009955,3.36300366 34.4812145,3.36300366 C35.3614335,3.36300366 35.9319776,4.12210608 35.9319776,5.35696106 C35.9319776,6.59829663 35.3614335,7.39587964 34.4812145,7.39587964 Z" id="Shape" fill-rule="nonzero"></path>
            <path d="M39.3403438,8.096 C40.4883184,8.096 41.1749766,7.41068359 41.1749766,6.57180176 C41.1749766,5.80245996 40.732964,5.42847266 40.105523,5.16424902 L39.3789513,4.85457178 C38.9562931,4.67879541 38.5287149,4.50855908 38.5287149,4.05085645 C38.5287149,3.62560107 38.8847403,3.3616875 39.4263311,3.3616875 C39.8577974,3.3616875 40.2468038,3.5390293 40.5823565,3.82014746 L41.0063057,3.30243457 C40.6206539,2.92388818 40.0585548,2.66288184 39.4263311,2.66288184 C38.4301329,2.66288184 37.7205929,3.27986279 37.7205929,4.09796191 C37.7205929,4.85818555 38.2702701,5.25206104 38.7809283,5.47172559 L39.5152765,5.7891792 C40.0005064,5.99807373 40.3590782,6.15208643 40.3590782,6.63445996 C40.3590782,7.09260986 39.9939347,7.39719434 39.3558966,7.39719434 C38.8247657,7.39719434 38.2917594,7.17551709 37.9196475,6.80161621 L37.4792511,7.3193291 C37.9570147,7.81443457 38.603002,8.096 39.3403438,8.096 Z" id="Path" fill-rule="nonzero"></path>
            <path d="M45.812745,8.09600024 C46.4778617,8.09600024 46.9906673,7.83392224 47.4165896,7.344 L47.0053668,6.8710105 C46.6960947,7.20236035 46.3369004,7.39587988 45.8676283,7.39587988 C44.9104481,7.39587988 44.2975788,6.62421924 44.2975788,5.36992249 C44.2975788,4.1350675 44.9428509,3.36300391 45.8542642,3.36300391 C46.2759392,3.36300391 46.6076919,3.52564001 46.8827308,3.80979553 L47.3149146,3.3192865 C46.9975507,2.96384485 46.4786674,2.66288379 45.834823,2.66288379 C44.5102646,2.66288379 43.474731,3.68648096 43.474731,5.38936426 C43.474731,7.11168933 44.490823,8.09600024 45.8127452,8.09600024 L45.812745,8.09600024 Z" id="Path" fill-rule="nonzero"></path>
            <path d="M49.2039395,8.096 C49.6770562,8.096 50.0792895,7.85984448 50.4533672,7.55280554 L50.4823283,7.55280554 L50.5402505,7.99999988 L51.1954098,7.99999988 L51.1954098,5.64961121 C51.1954098,4.60942737 50.7484345,3.99575244 49.7876288,3.99575244 C49.1636288,3.99575244 48.6097066,4.24142737 48.214173,4.49823303 L48.5106678,5.0371449 C48.8413957,4.83522266 49.2276289,4.65395056 49.6420176,4.65395056 C50.2216783,4.65395056 50.3946393,5.05680554 50.4045616,5.49934961 C48.7672895,5.67838855 48.0480951,6.09134961 48.0480951,6.96679126 C48.0480951,7.66238843 48.5341729,8.096 49.2039396,8.096 L49.2039395,8.096 Z M49.440279,7.44428223 C49.0929291,7.44428223 48.8225404,7.29804895 48.8225404,6.91342712 C48.8225404,6.4648053 49.2170845,6.19745544 50.4045613,6.05729993 L50.4045613,6.99566016 C50.0740172,7.29804883 49.7876286,7.44428223 49.4402787,7.44428223 L49.440279,7.44428223 Z" id="Shape" fill-rule="nonzero"></path>
            <path d="M53.547814,8.07696106 C53.8404641,8.07696106 54.109828,8.00648059 54.317828,7.90744165 L54.1635029,7.34908813 C54.0233474,7.41916589 53.8763085,7.43820483 53.7387889,7.43820483 C53.327842,7.43820483 53.1639976,7.18989392 53.1639976,6.71981616 L53.1639976,4.72402856 L54.1898279,4.72402856 L54.1898279,4.09175269 L53.1639976,4.09175269 L53.1639976,2.85063599 L52.5023578,2.85063599 L52.4055521,4.09175269 L51.7975521,4.13023315 L51.7975521,4.72402844 L52.3666688,4.72402844 L52.3666688,6.7137384 C52.3666688,7.52527197 52.675319,8.07696106 53.5478137,8.07696106 L53.547814,8.07696106 Z" id="Path" fill-rule="nonzero"></path>
            <path d="M55.7976047,8.096 C56.2707214,8.096 56.6729547,7.85984448 57.0470325,7.55280554 L57.0759935,7.55280554 L57.1339158,7.99999988 L57.7890751,7.99999988 L57.7890751,5.64961121 C57.7890751,4.60942737 57.3420997,3.99575244 56.381294,3.99575244 C55.757294,3.99575244 55.2033718,4.24142737 54.8078382,4.49823303 L55.104333,5.0371449 C55.4350609,4.83522266 55.8212942,4.65395056 56.2356828,4.65395056 C56.8153435,4.65395056 56.9883045,5.05680554 56.9982268,5.49934961 C55.3609547,5.67838855 54.6417604,6.09134961 54.6417604,6.96679126 C54.6417604,7.66238843 55.1278381,8.096 55.7976048,8.096 L55.7976047,8.096 Z M56.0339442,7.44428223 C55.6865943,7.44428223 55.4162057,7.29804895 55.4162057,6.91342712 C55.4162057,6.4648053 55.8107497,6.19745544 56.9982265,6.05729993 L56.9982265,6.99566016 C56.6676825,7.29804883 56.3812938,7.44428223 56.033944,7.44428223 L56.0339442,7.44428223 Z" id="Shape" fill-rule="nonzero"></path>
            <path d="M59.7526084,8.07696143 C59.942778,8.07696143 60.0845448,8.048 60.1874281,8.00303894 L60.081103,7.40924365 C60.017103,7.42524365 59.985103,7.42524365 59.9466225,7.42524365 C59.841103,7.42524365 59.7447002,7.35476318 59.7447002,7.13339929 L59.7447002,2.32768933 L58.9538518,2.32768933 L58.9538518,7.08539929 C58.9538518,7.71262207 59.1756185,8.07696143 59.752608,8.07696143 L59.7526084,8.07696143 Z" id="Path" fill-rule="nonzero"></path>
            <path d="M61.0608575,8 L61.8529796,8 L61.8529796,4.09045996 L61.0608575,4.09045996 L61.0608575,8 Z M61.4528067,3.34775098 C61.7445577,3.34775098 61.9498741,3.1579873 61.9498741,2.8653418 C61.9498741,2.58091992 61.7445577,2.39115625 61.4528067,2.39115625 C61.1610557,2.39115625 60.9557393,2.58091992 60.9557393,2.8653418 C60.9557393,3.1579873 61.1610557,3.34775098 61.4528067,3.34775098 Z" id="Shape" fill-rule="nonzero"></path>
            <path d="M63.0934776,8 L63.8855997,8 L63.8855997,5.21975098 C64.2416251,4.86327832 64.4925323,4.67726563 64.8636632,4.67726563 C65.3330303,4.67726563 65.535043,4.95329102 65.535043,5.6379873 L65.535043,8 L66.3271651,8 L66.3271651,5.536 C66.3271651,4.544 65.9591651,3.99445996 65.1285069,3.99445996 C64.5927305,3.99445996 64.1927305,4.28290723 63.8316124,4.63624902 L63.807836,4.63624902 L63.7447305,4.09045996 L63.0934776,4.09045996 L63.0934776,8 Z" id="Path" fill-rule="nonzero"></path>
            <path d="M68.4440836,8.096 C68.9172003,8.096 69.3194335,7.85984448 69.6935113,7.55280554 L69.7224724,7.55280554 L69.7803946,7.99999988 L70.4355539,7.99999988 L70.4355539,5.64961121 C70.4355539,4.60942737 69.9885786,3.99575244 69.0277729,3.99575244 C68.4037729,3.99575244 67.8498507,4.24142737 67.4543171,4.49823303 L67.7508118,5.0371449 C68.0815397,4.83522266 68.467773,4.65395056 68.8821617,4.65395056 C69.4618223,4.65395056 69.6347834,5.05680554 69.6447056,5.49934961 C68.0074335,5.67838855 67.2882392,6.09134961 67.2882392,6.96679126 C67.2882392,7.66238843 67.774317,8.096 68.4440837,8.096 L68.4440836,8.096 Z M68.680423,7.44428223 C68.3330732,7.44428223 68.0626845,7.29804895 68.0626845,6.91342712 C68.0626845,6.4648053 68.4572286,6.19745544 69.6447054,6.05729993 L69.6447054,6.99566016 C69.3141613,7.29804883 69.0277727,7.44428223 68.6804228,7.44428223 L68.680423,7.44428223 Z" id="Shape" fill-rule="nonzero"></path>
        </g>
        <g id="since-macOS-Big-Sur" stroke-width="1" fill-rule="evenodd" transform="translate(28, 142)" fill="color(display-p3 0.498 0.573 0.514)">
            <path d="M1.67955273,8.096 C2.63508008,8.096 3.15306738,7.56111816 3.15306738,6.90780176 C3.15306738,6.21023633 2.58993652,5.92903174 1.98193652,5.71647266 C1.49460742,5.54824902 1.17925293,5.41890723 1.17925293,5.09488184 C1.17925293,4.83163916 1.38171289,4.59950195 1.82730371,4.59950195 C2.15731641,4.59950195 2.44098096,4.70439648 2.71642188,4.90394922 L3.07038379,4.44844727 C2.75950195,4.18556543 2.32151465,3.99445996 1.81219824,3.99445996 C0.95043457,3.99445996 0.42556543,4.48178906 0.42556543,5.13421094 C0.42556543,5.76688184 0.971801758,6.06864551 1.54824902,6.27664551 C1.98458447,6.43664551 2.39937988,6.5906582 2.39937988,6.95490723 C2.39937988,7.25470898 2.17224902,7.49095801 1.7033291,7.49095801 C1.25863281,7.49095801 0.907080078,7.35339258 0.563750977,7.07361621 L0.209789063,7.52911816 C0.576447266,7.888 1.11821094,8.096 1.67955273,8.096 Z" id="Path" fill-rule="nonzero"></path>
            <path d="M4.02243457,8 L4.81455664,8 L4.81455664,4.09045996 L4.02243457,4.09045996 L4.02243457,8 Z M4.41438379,3.34775098 C4.70613477,3.34775098 4.91145117,3.1579873 4.91145117,2.8653418 C4.91145117,2.58091992 4.70613477,2.39115625 4.41438379,2.39115625 C4.12263281,2.39115625 3.91731641,2.58091992 3.91731641,2.8653418 C3.91731641,3.1579873 4.12263281,3.34775098 4.41438379,3.34775098 Z" id="Shape" fill-rule="nonzero"></path>
            <path d="M6.05505469,8 L6.84717676,8 L6.84717676,5.21975098 C7.20320215,4.86327832 7.45410938,4.67726562 7.82524023,4.67726562 C8.29460742,4.67726562 8.49662012,4.95329102 8.49662012,5.6379873 L8.49662012,8 L9.28874219,8 L9.28874219,5.536 C9.28874219,4.544 8.92074219,3.99445996 8.09008398,3.99445996 C7.55430762,3.99445996 7.15430762,4.28290723 6.79318945,4.63624902 L6.76941309,4.63624902 L6.70630762,4.09045996 L6.05505469,4.09045996 L6.05505469,8 Z" id="Path" fill-rule="nonzero"></path>
            <path d="M12.0823107,8.096 C12.5718302,8.096 13.0107135,7.90096106 13.337194,7.59392212 L13.0052576,7.10645203 C12.7816604,7.30564636 12.4819077,7.44428247 12.1535968,7.44428247 C11.480975,7.44428247 11.0216251,6.88629663 11.0216251,6.05063599 C11.0216251,5.20849475 11.5060916,4.64747009 12.166558,4.64747009 C12.4723883,4.64747009 12.7016604,4.7621062 12.8898159,4.93730054 L13.2735969,4.44334985 C12.9981553,4.18431091 12.636233,3.99575256 12.1276747,3.99575256 C11.105505,3.99575256 10.2082965,4.74471362 10.2082965,6.05063586 C10.2082965,7.3470387 11.0155828,8.096 12.0823107,8.096 L12.0823107,8.096 Z" id="Path" fill-rule="nonzero"></path>
            <path d="M15.6035652,8.096 C16.1147595,8.096 16.5643709,7.93296106 16.9171765,7.68911658 L16.6366818,7.17612708 C16.3646818,7.35516602 16.0515651,7.45724377 15.6973318,7.45724377 C15.0422294,7.45724377 14.4784767,6.99950537 14.4784767,6.0411167 C14.4784767,4.98672803 15.0040597,4.62802844 15.4946038,4.62802844 C16.0590702,4.62802844 16.3576143,5.01041711 16.3576143,5.66462183 L14.2727101,5.66462183 L14.2727101,6.27745593 L17.0222931,6.27745593 C17.0512542,6.14257263 17.0642152,5.99776697 17.0642152,5.84000024 C17.0642152,4.74288354 16.5171763,3.99575281 15.4816427,3.99575281 C14.5688371,3.99575281 13.6910703,4.77023328 13.6910703,6.04415552 C13.6910703,7.344 14.5269148,8.096 15.603565,8.096 L15.6035652,8.096 Z" id="Path" fill-rule="nonzero"></path>
            <path d="M19.581984,8 L20.3741061,8 L20.3741061,5.21975098 C20.7054606,4.85550195 21.0043678,4.67726562 21.271275,4.67726562 C21.724195,4.67726562 21.9344313,4.95329102 21.9344313,5.6379873 L21.9344313,8 L22.7265534,8 L22.7265534,5.21975098 C23.0579079,4.85550195 23.3485915,4.67726562 23.6237223,4.67726562 C24.0766422,4.67726562 24.2868786,4.95329102 24.2868786,5.6379873 L24.2868786,8 L25.0790006,8 L25.0790006,5.536 C25.0790006,4.544 24.6950006,3.99445996 23.8807897,3.99445996 C23.3943551,3.99445996 22.9973488,4.29845996 22.6076715,4.71669629 C22.4369015,4.26780176 22.1134606,3.99445996 21.5283424,3.99445996 C21.0501315,3.99445996 20.6565661,4.28290723 20.3201188,4.64013721 L20.2963424,4.64013721 L20.233237,4.09045996 L19.581984,4.09045996 L19.581984,8 Z" id="Path" fill-rule="nonzero"></path>
            <path d="M27.1959191,8.096 C27.6690358,8.096 28.0712691,7.85984448 28.4453468,7.55280554 L28.4743079,7.55280554 L28.5322301,7.99999988 L29.1873894,7.99999988 L29.1873894,5.64961121 C29.1873894,4.60942737 28.7404141,3.99575244 27.7796084,3.99575244 C27.1556084,3.99575244 26.6016862,4.24142737 26.2061526,4.49823303 L26.5026474,5.0371449 C26.8333753,4.83522266 27.2196085,4.65395056 27.6339972,4.65395056 C28.2136579,4.65395056 28.3866189,5.05680554 28.3965412,5.49934961 C26.7592691,5.67838855 26.0400747,6.09134961 26.0400747,6.96679126 C26.0400747,7.66238843 26.5261525,8.096 27.1959192,8.096 L27.1959191,8.096 Z M27.4322586,7.44428223 C27.0849087,7.44428223 26.81452,7.29804895 26.81452,6.91342712 C26.81452,6.4648053 27.2090641,6.19745544 28.3965409,6.05729993 L28.3965409,6.99566016 C28.0659969,7.29804883 27.7796082,7.44428223 27.4322583,7.44428223 L27.4322586,7.44428223 Z" id="Shape" fill-rule="nonzero"></path>
            <path d="M31.9549862,8.096 C32.4445057,8.096 32.883389,7.90096106 33.2098695,7.59392212 L32.8779331,7.10645203 C32.6543359,7.30564636 32.3545833,7.44428247 32.0262723,7.44428247 C31.3536505,7.44428247 30.8943007,6.88629663 30.8943007,6.05063599 C30.8943007,5.20849475 31.3787671,4.64747009 32.0392335,4.64747009 C32.3450638,4.64747009 32.5743359,4.7621062 32.7624915,4.93730054 L33.1462725,4.44334985 C32.8708308,4.18431091 32.5089086,3.99575256 32.0003502,3.99575256 C30.9781805,3.99575256 30.080972,4.74471362 30.080972,6.05063586 C30.080972,7.3470387 30.8882583,8.096 31.9549862,8.096 L31.9549862,8.096 Z" id="Path" fill-rule="nonzero"></path>
            <path d="M36.0811559,8.096 C37.4263644,8.096 38.3612477,7.0468833 38.3612477,5.35696106 C38.3612477,3.67351941 37.4263644,2.6628833 36.0811559,2.6628833 C34.742428,2.6628833 33.8075447,3.67351941 33.8075447,5.35696106 C33.8075447,7.0468833 34.742428,8.096 36.0811559,8.096 Z M36.0811559,7.39587964 C35.2009369,7.39587964 34.6303929,6.59829663 34.6303929,5.35696106 C34.6303929,4.12210608 35.2009369,3.36300366 36.0811559,3.36300366 C36.9613749,3.36300366 37.531919,4.12210608 37.531919,5.35696106 C37.531919,6.59829663 36.9613749,7.39587964 36.0811559,7.39587964 Z" id="Shape" fill-rule="nonzero"></path>
            <path d="M40.9402852,8.096 C42.0882599,8.096 42.7749181,7.41068359 42.7749181,6.57180176 C42.7749181,5.80245996 42.3329054,5.42847266 41.7054644,5.16424902 L40.9788927,4.85457178 C40.5562345,4.67879541 40.1286563,4.50855908 40.1286563,4.05085645 C40.1286563,3.62560107 40.4846817,3.3616875 41.0262726,3.3616875 C41.4577389,3.3616875 41.8467452,3.5390293 42.1822979,3.82014746 L42.6062472,3.30243457 C42.2205953,2.92388818 41.6584962,2.66288184 41.0262726,2.66288184 C40.0300743,2.66288184 39.3205343,3.27986279 39.3205343,4.09796191 C39.3205343,4.85818555 39.8702115,5.25206104 40.3808697,5.47172559 L41.1152179,5.7891792 C41.6004478,5.99807373 41.9590196,6.15208643 41.9590196,6.63445996 C41.9590196,7.09260986 41.5938761,7.39719434 40.955838,7.39719434 C40.4247071,7.39719434 39.8917008,7.17551709 39.519589,6.80161621 L39.0791925,7.3193291 C39.5569561,7.81443457 40.2029434,8.096 40.9402852,8.096 Z" id="Path" fill-rule="nonzero"></path>
            <path d="M45.3631671,8 L47.1073399,8 C48.2684581,8 49.1059981,7.4953291 49.1059981,6.43289453 C49.1059981,5.73577637 48.7042091,5.3426582 48.0701964,5.21510547 L48.0701964,5.18310547 C48.5519854,5.02310547 48.8166563,4.5833291 48.8166563,4.0466582 C48.8166563,3.10489453 48.0517872,2.75888184 46.9802345,2.75888184 L45.3631671,2.75888184 L45.3631671,8 Z M46.1635128,4.95535449 L46.1635128,3.38725293 L46.9071163,3.38725293 C47.6511671,3.38725293 48.0318634,3.59748926 48.0318634,4.15597461 C48.0318634,4.6486709 47.6922852,4.95535449 46.8824454,4.95535449 L46.1635128,4.95535449 Z M46.1635128,7.37162891 L46.1635128,5.56039648 L47.0113399,5.56039648 C47.8596143,5.56039648 48.3212052,5.82775098 48.3212052,6.42556543 C48.3212052,7.07272168 47.8431671,7.37162891 47.0113399,7.37162891 L46.1635128,7.37162891 Z" id="Shape" fill-rule="nonzero"></path>
            <path d="M50.0320362,8 L50.8241583,8 L50.8241583,4.09045996 L50.0320362,4.09045996 L50.0320362,8 Z M50.4239854,3.34775098 C50.7157364,3.34775098 50.9210528,3.1579873 50.9210528,2.8653418 C50.9210528,2.58091992 50.7157364,2.39115625 50.4239854,2.39115625 C50.1322345,2.39115625 49.9269181,2.58091992 49.9269181,2.8653418 C49.9269181,3.1579873 50.1322345,3.34775098 50.4239854,3.34775098 Z" id="Shape" fill-rule="nonzero"></path>
            <path d="M53.4055255,9.76313086 C54.6486056,9.76313086 55.4376983,9.14645996 55.4376983,8.39759082 C55.4376983,7.73560352 54.9603819,7.44805078 54.0385064,7.44805078 L53.3110401,7.44805078 C52.8123565,7.44805078 52.6523565,7.29359082 52.6523565,7.06002539 C52.6523565,6.86578906 52.7423692,6.752 52.871711,6.64299365 C53.047711,6.72 53.2492765,6.7606709 53.4266183,6.7606709 C54.2403819,6.7606709 54.8863692,6.26976367 54.8863692,5.424 C54.8863692,5.11141553 54.7677975,4.88062012 54.6012257,4.71972559 L54.6012257,4.68772559 L55.3736983,4.68772559 L55.3736983,4.09045996 L53.9926056,4.09045996 C53.8417237,4.03468359 53.6423946,3.99445996 53.4266183,3.99445996 C52.6206309,3.99445996 51.9202091,4.51602539 51.9202091,5.39289453 C51.9202091,5.85689453 52.1679854,6.23311816 52.4313145,6.4333418 L52.4313145,6.4653418 C52.21688,6.61622363 51.9997618,6.87955273 51.9997618,7.1926709 C51.9997618,7.504 52.1515382,7.712 52.3513145,7.83955273 L52.3513145,7.87155273 C51.9915382,8.09644727 51.7830909,8.39790088 51.7830909,8.7300127 C51.7830909,9.40889453 52.4606309,9.76313086 53.4055255,9.76313086 Z M53.4266183,6.24894531 C53.0143692,6.24894531 52.6738966,5.92491992 52.6738966,5.39289453 C52.6738966,4.86042187 53.0061456,4.55284375 53.4266183,4.55284375 C53.8470909,4.55284375 54.1793399,4.86042187 54.1793399,5.39289453 C54.1793399,5.92491992 53.8388673,6.24894531 53.4266183,6.24894531 Z M53.5226183,9.23585254 C52.8612511,9.23585254 52.4590147,9.00049805 52.4590147,8.61291992 C52.4590147,8.41045996 52.5645802,8.20710547 52.8086056,8.02886914 C52.9699474,8.06909277 53.1468419,8.08509277 53.3270401,8.08509277 L53.9309791,8.08509277 C54.410669,8.08509277 54.6684581,8.19110547 54.6684581,8.52245996 C54.6684581,8.89448535 54.2091036,9.23585254 53.5226183,9.23585254 Z" id="Shape" fill-rule="nonzero"></path>
            <path d="M59.3239093,8.096 C60.4718839,8.096 61.1585421,7.41068359 61.1585421,6.57180176 C61.1585421,5.80245996 60.7165294,5.42847266 60.0890885,5.16424902 L59.3625167,4.85457178 C58.9398585,4.67879541 58.5122804,4.50855908 58.5122804,4.05085645 C58.5122804,3.62560107 58.8683058,3.3616875 59.4098966,3.3616875 C59.8413629,3.3616875 60.2303692,3.5390293 60.565922,3.82014746 L60.9898712,3.30243457 C60.6042193,2.92388818 60.0421202,2.66288184 59.4098966,2.66288184 C58.4136983,2.66288184 57.7041583,3.27986279 57.7041583,4.09796191 C57.7041583,4.85818555 58.2538355,5.25206104 58.7644937,5.47172559 L59.4988419,5.7891792 C59.9840719,5.99807373 60.3426436,6.15208643 60.3426436,6.63445996 C60.3426436,7.09260986 59.9775001,7.39719434 59.339462,7.39719434 C58.8083311,7.39719434 58.2753248,7.17551709 57.903213,6.80161621 L57.4628165,7.3193291 C57.9405802,7.81443457 58.5865675,8.096 59.3239093,8.096 Z" id="Path" fill-rule="nonzero"></path>
            <path d="M63.2274129,8.09600012 C63.7618934,8.09600012 64.1489323,7.82440283 64.5005295,7.40880566 L64.52301,7.40880566 L64.5874128,8 L65.2360915,8 L65.2360915,4.09175269 L64.4452431,4.09175269 L64.4452431,6.81318018 C64.1142962,7.23364661 63.8595047,7.41187988 63.4896744,7.41187988 C63.0216108,7.41187988 62.8208971,7.13845239 62.8208971,6.45246655 L62.8208971,4.09175269 L62.0300487,4.09175269 L62.0300487,6.55575281 C62.0300487,7.54775281 62.3980487,8.09600012 63.2274126,8.09600012 L63.2274129,8.09600012 Z" id="Path" fill-rule="nonzero"></path>
            <path d="M66.4752875,8 L67.2674096,8 L67.2674096,5.55396191 C67.516975,4.92638379 67.9018695,4.70104199 68.2227641,4.70104199 C68.3823168,4.70104199 68.4700932,4.71704199 68.5894223,4.74904199 L68.7549623,4.07445996 C68.6347387,4.01823633 68.5110741,3.99445996 68.3247514,3.99445996 C67.8875214,3.99445996 67.4806396,4.29202539 67.2134223,4.79490723 L67.1896459,4.79490723 L67.1265404,4.09045996 L66.4752875,4.09045996 L66.4752875,8 Z" id="Path" fill-rule="nonzero"></path>
        </g>
        <path d="M168,210 L142.17082,158.341641 C141.429853,156.859705 142.030526,155.057686 143.512461,154.316718 C143.929027,154.108435 144.388367,154 144.854102,154 L378,154 L378,154" id="Path" stroke="url(#linearGradient-4)" stroke-width="1" stroke-linecap="round" stroke-linejoin="round"></path>
        <g id="Rectangle" stroke-linejoin="round" fill-rule="evenodd">
            <use fill="url(#linearGradient-5)" xlink:href="#path-8"></use>
            <use stroke="url(#linearGradient-7)" stroke-width="1" fill="url(#linearGradient-6)" xlink:href="#path-8"></use>
        </g>
        <path d="M212.236068,146 L242.585174,146 C243.914765,146 244.393067,146.083186 244.907735,146.261518 C245.422402,146.43985 245.864896,146.713326 246.254567,147.093906 C246.644238,147.474487 246.932546,147.865091 247.527157,149.054313 L252.552786,159.105573 C253.046765,160.09353 252.646316,161.294876 251.658359,161.788854 C251.380648,161.92771 251.074422,162 250.763932,162 L220.414826,162 C219.085235,162 218.606933,161.916814 218.092265,161.738482 C217.577598,161.56015 217.135104,161.286674 216.745433,160.906094 C216.355762,160.525513 216.067454,160.134909 215.472843,158.945687 L210.447214,148.894427 C209.953235,147.90647 210.353684,146.705124 211.341641,146.211146 C211.619352,146.07229 211.925578,146 212.236068,146 Z" id="Rectangle" stroke="color(display-p3 0.498 0.573 0.514)" stroke-width="1" opacity="0.149999991" stroke-linejoin="round"></path>
        <path d="M260.236068,146 L290.585174,146 C291.914765,146 292.393067,146.083186 292.907735,146.261518 C293.422402,146.43985 293.864896,146.713326 294.254567,147.093906 C294.644238,147.474487 294.932546,147.865091 295.527157,149.054313 L300.552786,159.105573 C301.046765,160.09353 300.646316,161.294876 299.658359,161.788854 C299.380648,161.92771 299.074422,162 298.763932,162 L268.414826,162 C267.085235,162 266.606933,161.916814 266.092265,161.738482 C265.577598,161.56015 265.135104,161.286674 264.745433,160.906094 C264.355762,160.525513 264.067454,160.134909 263.472843,158.945687 L258.447214,148.894427 C257.953235,147.90647 258.353684,146.705124 259.341641,146.211146 C259.619352,146.07229 259.925578,146 260.236068,146 Z" id="Rectangle" stroke="color(display-p3 0.498 0.573 0.514)" stroke-width="1" opacity="0.149999991" stroke-linejoin="round"></path>
        <path d="M308.236068,146 L338.585174,146 C339.914765,146 340.393067,146.083186 340.907735,146.261518 C341.422402,146.43985 341.864896,146.713326 342.254567,147.093906 C342.644238,147.474487 342.932546,147.865091 343.527157,149.054313 L348.552786,159.105573 C349.046765,160.09353 348.646316,161.294876 347.658359,161.788854 C347.380648,161.92771 347.074422,162 346.763932,162 L316.414826,162 C315.085235,162 314.606933,161.916814 314.092265,161.738482 C313.577598,161.56015 313.135104,161.286674 312.745433,160.906094 C312.355762,160.525513 312.067454,160.134909 311.472843,158.945687 L306.447214,148.894427 C305.953235,147.90647 306.353684,146.705124 307.341641,146.211146 C307.619352,146.07229 307.925578,146 308.236068,146 Z" id="Rectangle" stroke="color(display-p3 0.498 0.573 0.514)" stroke-width="1" opacity="0.149999991" stroke-linejoin="round"></path>
        <g id="Rectangle" stroke-linejoin="round" fill-rule="evenodd">
            <use fill="url(#linearGradient-9)" xlink:href="#path-12"></use>
            <use stroke="url(#linearGradient-11)" stroke-width="1" fill="url(#linearGradient-10)" xlink:href="#path-12"></use>
        </g>
        <ellipse id="Oval" stroke="color(display-p3 0.498 0.573 0.514)" stroke-width="1" fill="color(display-p3 0.827 0.831 0.784)" fill-rule="evenodd" cx="158" cy="135" rx="4" ry="3"></ellipse>
        <ellipse id="Oval" stroke="color(display-p3 0.498 0.573 0.514)" stroke-width="1" fill="color(display-p3 0.827 0.831 0.784)" fill-rule="evenodd" cx="170" cy="135" rx="4" ry="3"></ellipse>
        <ellipse id="Oval" stroke="color(display-p3 0.498 0.573 0.514)" stroke-width="1" fill="color(display-p3 0.827 0.831 0.784)" fill-rule="evenodd" cx="182" cy="135" rx="4" ry="3"></ellipse>
        <path d="M164.236068,156 L215.585174,156 C216.914765,156 217.393067,156.083186 217.907735,156.261518 C218.422402,156.43985 218.864896,156.713326 219.254567,157.093906 C219.644238,157.474487 219.932546,157.865091 220.527157,159.054313 L221.552786,161.105573 C222.046765,162.09353 221.646316,163.294876 220.658359,163.788854 C220.380648,163.92771 220.074422,164 219.763932,164 L168.414826,164 C167.085235,164 166.606933,163.916814 166.092265,163.738482 C165.577598,163.56015 165.135104,163.286674 164.745433,162.906094 C164.355762,162.525513 164.067454,162.134909 163.472843,160.945687 L162.447214,158.894427 C161.953235,157.90647 162.353684,156.705124 163.341641,156.211146 C163.619352,156.07229 163.925578,156 164.236068,156 Z" id="Rectangle" stroke="color(display-p3 0.498 0.573 0.514)" stroke-width="1" opacity="0.149999991" stroke-linejoin="round"></path>
        <path d="M171.236068,170 L222.585174,170 C223.914765,170 224.393067,170.083186 224.907735,170.261518 C225.422402,170.43985 225.864896,170.713326 226.254567,171.093906 C226.644238,171.474487 226.932546,171.865091 227.527157,173.054313 L228.552786,175.105573 C229.046765,176.09353 228.646316,177.294876 227.658359,177.788854 C227.380648,177.92771 227.074422,178 226.763932,178 L175.414826,178 C174.085235,178 173.606933,177.916814 173.092265,177.738482 C172.577598,177.56015 172.135104,177.286674 171.745433,176.906094 C171.355762,176.525513 171.067454,176.134909 170.472843,174.945687 L169.447214,172.894427 C168.953235,171.90647 169.353684,170.705124 170.341641,170.211146 C170.619352,170.07229 170.925578,170 171.236068,170 Z" id="Rectangle" stroke="color(display-p3 0.498 0.573 0.514)" stroke-width="1" opacity="0.149999991" stroke-linejoin="round"></path>
        <path d="M178.236068,184 L229.585174,184 C230.914765,184 231.393067,184.083186 231.907735,184.261518 C232.422402,184.43985 232.864896,184.713326 233.254567,185.093906 C233.644238,185.474487 233.932546,185.865091 234.527157,187.054313 L235.552786,189.105573 C236.046765,190.09353 235.646316,191.294876 234.658359,191.788854 C234.380648,191.92771 234.074422,192 233.763932,192 L182.414826,192 C181.085235,192 180.606933,191.916814 180.092265,191.738482 C179.577598,191.56015 179.135104,191.286674 178.745433,190.906094 C178.355762,190.525513 178.067454,190.134909 177.472843,188.945687 L176.447214,186.894427 C175.953235,185.90647 176.353684,184.705124 177.341641,184.211146 C177.619352,184.07229 177.925578,184 178.236068,184 Z" id="Rectangle" stroke="color(display-p3 0.498 0.573 0.514)" stroke-width="1" opacity="0.149999991" stroke-linejoin="round"></path>
        <path d="M168,112 L142.17082,60.3416408 C141.429853,58.8597053 142.030526,57.0576862 143.512461,56.3167184 C143.929027,56.1084353 144.388367,56 144.854102,56 L378,56 L378,56" id="Path" stroke="url(#linearGradient-4)" stroke-width="1" stroke-linecap="round" stroke-linejoin="round"></path>
        <g id="Rectangle" stroke-linejoin="round" fill-rule="evenodd">
            <use fill="url(#linearGradient-13)" xlink:href="#path-16"></use>
            <use stroke="url(#linearGradient-15)" stroke-width="1" fill="url(#linearGradient-14)" xlink:href="#path-16"></use>
        </g>
        <path d="M144.854102,28 L364,28 L364,28 L378,56 L157.414826,56 C156.085235,56 155.606933,55.9168135 155.092265,55.738482 C154.577598,55.5601505 154.135104,55.2866739 153.745433,54.9060937 C153.355762,54.5255135 153.067454,54.134909 152.472843,52.9456866 L142.17082,32.3416408 C141.429853,30.8597053 142.030526,29.0576862 143.512461,28.3167184 C143.929027,28.1084353 144.388367,28 144.854102,28 Z" id="Rectangle" stroke="url(#linearGradient-7)" stroke-width="1" fill="url(#linearGradient-5)" fill-rule="evenodd" stroke-linejoin="round"></path>
        <ellipse id="Oval" stroke="color(display-p3 0.498 0.573 0.514)" stroke-width="1" fill="color(display-p3 0.827 0.831 0.784)" fill-rule="evenodd" cx="158" cy="37" rx="4" ry="3"></ellipse>
        <ellipse id="Oval" stroke="color(display-p3 0.498 0.573 0.514)" stroke-width="1" fill="color(display-p3 0.827 0.831 0.784)" fill-rule="evenodd" cx="170" cy="37" rx="4" ry="3"></ellipse>
        <ellipse id="Oval" stroke="color(display-p3 0.498 0.573 0.514)" stroke-width="1" fill="color(display-p3 0.827 0.831 0.784)" fill-rule="evenodd" cx="182" cy="37" rx="4" ry="3"></ellipse>
        <path d="M212.236068,34 L242.585174,34 C243.914765,34 244.393067,34.0831865 244.907735,34.261518 C245.422402,34.4398495 245.864896,34.7133261 246.254567,35.0939063 C246.644238,35.4744865 246.932546,35.865091 247.527157,37.0543134 L252.552786,47.1055728 C253.046765,48.0935298 252.646316,49.2948759 251.658359,49.7888544 C251.380648,49.9277098 251.074422,50 250.763932,50 L220.414826,50 C219.085235,50 218.606933,49.9168135 218.092265,49.738482 C217.577598,49.5601505 217.135104,49.2866739 216.745433,48.9060937 C216.355762,48.5255135 216.067454,48.134909 215.472843,46.9456866 L210.447214,36.8944272 C209.953235,35.9064702 210.353684,34.7051241 211.341641,34.2111456 C211.619352,34.0722902 211.925578,34 212.236068,34 Z" id="Rectangle" stroke="color(display-p3 0.498 0.573 0.514)" stroke-width="1" opacity="0.149999991" stroke-linejoin="round"></path>
        <path d="M260.236068,34 L290.585174,34 C291.914765,34 292.393067,34.0831865 292.907735,34.261518 C293.422402,34.4398495 293.864896,34.7133261 294.254567,35.0939063 C294.644238,35.4744865 294.932546,35.865091 295.527157,37.0543134 L300.552786,47.1055728 C301.046765,48.0935298 300.646316,49.2948759 299.658359,49.7888544 C299.380648,49.9277098 299.074422,50 298.763932,50 L268.414826,50 C267.085235,50 266.606933,49.9168135 266.092265,49.738482 C265.577598,49.5601505 265.135104,49.2866739 264.745433,48.9060937 C264.355762,48.5255135 264.067454,48.134909 263.472843,46.9456866 L258.447214,36.8944272 C257.953235,35.9064702 258.353684,34.7051241 259.341641,34.2111456 C259.619352,34.0722902 259.925578,34 260.236068,34 Z" id="Rectangle" stroke="color(display-p3 0.498 0.573 0.514)" stroke-width="1" opacity="0.149999991" stroke-linejoin="round"></path>
        <path d="M308.236068,34 L338.585174,34 C339.914765,34 340.393067,34.0831865 340.907735,34.261518 C341.422402,34.4398495 341.864896,34.7133261 342.254567,35.0939063 C342.644238,35.4744865 342.932546,35.865091 343.527157,37.0543134 L348.552786,47.1055728 C349.046765,48.0935298 348.646316,49.2948759 347.658359,49.7888544 C347.380648,49.9277098 347.074422,50 346.763932,50 L316.414826,50 C315.085235,50 314.606933,49.9168135 314.092265,49.738482 C313.577598,49.5601505 313.135104,49.2866739 312.745433,48.9060937 C312.355762,48.5255135 312.067454,48.134909 311.472843,46.9456866 L306.447214,36.8944272 C305.953235,35.9064702 306.353684,34.7051241 307.341641,34.2111456 C307.619352,34.0722902 307.925578,34 308.236068,34 Z" id="Rectangle" stroke="color(display-p3 0.498 0.573 0.514)" stroke-width="1" opacity="0.149999991" stroke-linejoin="round"></path>
        <path d="M167.236068,78 L218.585174,78 C219.914765,78 220.393067,78.0831865 220.907735,78.261518 C221.422402,78.4398495 221.864896,78.7133261 222.254567,79.0939063 C222.644238,79.4744865 222.932546,79.865091 223.527157,81.0543134 L224.552786,83.1055728 C225.046765,84.0935298 224.646316,85.2948759 223.658359,85.7888544 C223.380648,85.9277098 223.074422,86 222.763932,86 L171.414826,86 C170.085235,86 169.606933,85.9168135 169.092265,85.738482 C168.577598,85.5601505 168.135104,85.2866739 167.745433,84.9060937 C167.355762,84.5255135 167.067454,84.134909 166.472843,82.9456866 L165.447214,80.8944272 C164.953235,79.9064702 165.353684,78.7051241 166.341641,78.2111456 C166.619352,78.0722902 166.925578,78 167.236068,78 Z" id="Rectangle" stroke="color(display-p3 0.498 0.573 0.514)" stroke-width="1" opacity="0.149999991" stroke-linejoin="round"></path>
        <path d="M174.236068,92 L225.585174,92 C226.914765,92 227.393067,92.0831865 227.907735,92.261518 C228.422402,92.4398495 228.864896,92.7133261 229.254567,93.0939063 C229.644238,93.4744865 229.932546,93.865091 230.527157,95.0543134 L231.552786,97.1055728 C232.046765,98.0935298 231.646316,99.2948759 230.658359,99.7888544 C230.380648,99.9277098 230.074422,100 229.763932,100 L178.414826,100 C177.085235,100 176.606933,99.9168135 176.092265,99.738482 C175.577598,99.5601505 175.135104,99.2866739 174.745433,98.9060937 C174.355762,98.5255135 174.067454,98.134909 173.472843,96.9456866 L172.447214,94.8944272 C171.953235,93.9064702 172.353684,92.7051241 173.341641,92.2111456 C173.619352,92.0722902 173.925578,92 174.236068,92 Z" id="Rectangle" stroke="color(display-p3 0.498 0.573 0.514)" stroke-width="1" opacity="0.149999991" stroke-linejoin="round"></path>
    </g>
</svg>