<?xml version="1.0" encoding="UTF-8"?>
<svg width="476px" height="238px" viewBox="0 0 476 238" version="1.1" xmlns="http://www.w3.org/2000/svg" xmlns:xlink="http://www.w3.org/1999/xlink">
    <title>Comparison of Toolbar Placements</title>
    <defs>
        <path d="M0,0 L476,0 L476,238 L0,238 L0,0 Z" id="path-1"></path>
        <path d="M0,0 L476,0 L476,672 L0,672 L0,0 Z" id="path-2"></path>
        <path d="M0,0 L476,0 L476,1 L0,1 L0,0 Z" id="path-3"></path>
        <linearGradient x1="27.3104931%" y1="49.7194929%" x2="29.3890344%" y2="50.8210125%" id="linearGradient-4">
            <stop stop-color="color(display-p3 0.498 0.573 0.514)" offset="0%"></stop>
            <stop stop-color="color(display-p3 0.498 0.573 0.514)" stop-opacity="0" offset="100%"></stop>
        </linearGradient>
        <linearGradient x1="89.3705081%" y1="50.3696204%" x2="96.5451589%" y2="50%" id="linearGradient-5">
            <stop stop-color="color(display-p3 0.871 0.875 0.831)" offset="0%"></stop>
            <stop stop-color="color(display-p3 0.871 0.875 0.831)" stop-opacity="0" offset="100%"></stop>
        </linearGradient>
        <linearGradient x1="83.4491365%" y1="50.6105709%" x2="96.1050192%" y2="50%" id="linearGradient-6">
            <stop stop-color="color(display-p3 0.992 0.976 0.933)" stop-opacity="0.2" offset="0%"></stop>
            <stop stop-color="color(display-p3 0.992 0.976 0.933)" stop-opacity="0" offset="100%"></stop>
        </linearGradient>
        <linearGradient x1="91.231787%" y1="50.3343052%" x2="96.4436598%" y2="50.0367165%" id="linearGradient-7">
            <stop stop-color="color(display-p3 0.498 0.573 0.514)" offset="0%"></stop>
            <stop stop-color="color(display-p3 0.498 0.573 0.514)" stop-opacity="0" offset="100%"></stop>
        </linearGradient>
        <path d="M144.854102,140 L364,140 L364,140 L378,168 L159.122239,168 C157.127853,168 156.410399,167.87522 155.638398,167.607723 C154.866397,167.340226 154.202655,166.930011 153.618149,166.359141 C153.033643,165.78827 152.601182,165.202363 151.709265,163.41853 L142.17082,144.341641 C141.429853,142.859705 142.030526,141.057686 143.512461,140.316718 C143.929027,140.108435 144.388367,140 144.854102,140 Z" id="path-8"></path>
        <linearGradient x1="50%" y1="51.2324863%" x2="50%" y2="100%" id="linearGradient-9">
            <stop stop-color="color(display-p3 0.871 0.875 0.831)" offset="0%"></stop>
            <stop stop-color="color(display-p3 0.871 0.875 0.831)" stop-opacity="0" offset="100%"></stop>
        </linearGradient>
        <linearGradient x1="50%" y1="0%" x2="50%" y2="100%" id="linearGradient-10">
            <stop stop-color="color(display-p3 0.992 0.976 0.933)" stop-opacity="0.2" offset="26.6307911%"></stop>
            <stop stop-color="color(display-p3 0.992 0.976 0.933)" stop-opacity="0" offset="100%"></stop>
        </linearGradient>
        <linearGradient x1="50%" y1="70.3780594%" x2="50%" y2="99.647618%" id="linearGradient-11">
            <stop stop-color="color(display-p3 0.498 0.573 0.514)" offset="0%"></stop>
            <stop stop-color="color(display-p3 0.498 0.573 0.514)" stop-opacity="0" offset="100%"></stop>
        </linearGradient>
        <path d="M144.854102,126 L204.877761,126 C206.872147,126 207.589601,126.12478 208.361602,126.392277 C209.133603,126.659774 209.797345,127.069989 210.381851,127.640859 C210.966357,128.21173 211.398818,128.797637 212.290735,130.58147 L252,210 L252,210 L182,210 L142.17082,130.341641 C141.429853,128.859705 142.030526,127.057686 143.512461,126.316718 C143.929027,126.108435 144.388367,126 144.854102,126 Z" id="path-12"></path>
        <linearGradient x1="50%" y1="51.2324863%" x2="50%" y2="100%" id="linearGradient-13">
            <stop stop-color="color(display-p3 0.871 0.875 0.831)" offset="0%"></stop>
            <stop stop-color="color(display-p3 0.871 0.875 0.831)" stop-opacity="0" offset="100%"></stop>
        </linearGradient>
        <linearGradient x1="50%" y1="26.6307911%" x2="50%" y2="100%" id="linearGradient-14">
            <stop stop-color="color(display-p3 0.992 0.976 0.933)" stop-opacity="0.2" offset="0%"></stop>
            <stop stop-color="color(display-p3 0.992 0.976 0.933)" stop-opacity="0" offset="100%"></stop>
        </linearGradient>
        <linearGradient x1="50%" y1="70.3780594%" x2="50%" y2="99.647618%" id="linearGradient-15">
            <stop stop-color="color(display-p3 0.498 0.573 0.514)" offset="0%"></stop>
            <stop stop-color="color(display-p3 0.498 0.573 0.514)" stop-opacity="0" offset="100%"></stop>
        </linearGradient>
        <path d="M144.854102,42 L204.877761,42 C206.872147,42 207.589601,42.1247797 208.361602,42.392277 C209.133603,42.6597743 209.797345,43.0699892 210.381851,43.6408595 C210.966357,44.2117298 211.398818,44.7976366 212.290735,46.58147 L245,112 L245,112 L175,112 L142.17082,46.3416408 C141.429853,44.8597053 142.030526,43.0576862 143.512461,42.3167184 C143.929027,42.1084353 144.388367,42 144.854102,42 Z" id="path-16"></path>
    </defs>
    <g id="Comparison-of-Toolbar-Placements" stroke="none" fill="none" xlink:href="#path-1">
        <use fill="color(display-p3 0.992 0.976 0.933)" fill-rule="evenodd" xlink:href="#path-1"></use>
        <use fill-opacity="0.06" fill="color(display-p3 0.494 0.549 0.514)" fill-rule="evenodd" xlink:href="#path-1"></use>
        <g id="Stack" opacity="0.0299999993" xlink:href="#path-2" stroke="color(display-p3 0.494 0.549 0.514)" stroke-width="1">
            <line x1="476" y1="238" x2="0" y2="238" id="Path"></line>
            <line x1="476" y1="224" x2="0" y2="224" id="Path"></line>
            <line x1="476" y1="210" x2="0" y2="210" id="Path"></line>
            <line x1="476" y1="196" x2="0" y2="196" id="Path"></line>
            <line x1="476" y1="182" x2="0" y2="182" id="Path"></line>
            <line x1="476" y1="168" x2="0" y2="168" id="Path"></line>
            <line x1="476" y1="154" x2="0" y2="154" id="Path"></line>
            <line x1="476" y1="140" x2="0" y2="140" id="Path"></line>
            <line x1="476" y1="126" x2="0" y2="126" id="Path"></line>
            <line x1="476" y1="112" x2="0" y2="112" id="Path"></line>
            <line x1="476" y1="98" x2="0" y2="98" id="Path"></line>
            <line x1="476" y1="84" x2="0" y2="84" id="Path"></line>
            <line x1="476" y1="70" x2="0" y2="70" id="Path"></line>
            <line x1="476" y1="56" x2="0" y2="56" id="Path"></line>
            <line x1="476" y1="42" x2="0" y2="42" id="Path"></line>
            <line x1="476" y1="28" x2="0" y2="28" id="Path"></line>
            <line x1="476" y1="14" x2="0" y2="14" id="Path"></line>
        </g>
        <g id="Stack" opacity="0.0299999993" xlink:href="#path-3" stroke="color(display-p3 0.494 0.549 0.514)" stroke-width="1">
            <line x1="462" y1="-539.5" x2="462" y2="540.5" id="Path"></line>
            <line x1="448" y1="-539.5" x2="448" y2="540.5" id="Path"></line>
            <line x1="434" y1="-539.5" x2="434" y2="540.5" id="Path"></line>
            <line x1="420" y1="-539.5" x2="420" y2="540.5" id="Path"></line>
            <line x1="406" y1="-539.5" x2="406" y2="540.5" id="Path"></line>
            <line x1="392" y1="-539.5" x2="392" y2="540.5" id="Path"></line>
            <line x1="378" y1="-539.5" x2="378" y2="540.5" id="Path"></line>
            <line x1="364" y1="-539.5" x2="364" y2="540.5" id="Path"></line>
            <line x1="350" y1="-539.5" x2="350" y2="540.5" id="Path"></line>
            <line x1="336" y1="-539.5" x2="336" y2="540.5" id="Path"></line>
            <line x1="322" y1="-539.5" x2="322" y2="540.5" id="Path"></line>
            <line x1="308" y1="-539.5" x2="308" y2="540.5" id="Path"></line>
            <line x1="294" y1="-539.5" x2="294" y2="540.5" id="Path"></line>
            <line x1="280" y1="-539.5" x2="280" y2="540.5" id="Path"></line>
            <line x1="266" y1="-539.5" x2="266" y2="540.5" id="Path"></line>
            <line x1="252" y1="-539.5" x2="252" y2="540.5" id="Path"></line>
            <line x1="238" y1="-539.5" x2="238" y2="540.5" id="Path"></line>
            <line x1="224" y1="-539.5" x2="224" y2="540.5" id="Path"></line>
            <line x1="210" y1="-539.5" x2="210" y2="540.5" id="Path"></line>
            <line x1="196" y1="-539.5" x2="196" y2="540.5" id="Path"></line>
            <line x1="182" y1="-539.5" x2="182" y2="540.5" id="Path"></line>
            <line x1="168" y1="-539.5" x2="168" y2="540.5" id="Path"></line>
            <line x1="154" y1="-539.5" x2="154" y2="540.5" id="Path"></line>
            <line x1="140" y1="-539.5" x2="140" y2="540.5" id="Path"></line>
            <line x1="126" y1="-539.5" x2="126" y2="540.5" id="Path"></line>
            <line x1="112" y1="-539.5" x2="112" y2="540.5" id="Path"></line>
            <line x1="98" y1="-539.5" x2="98" y2="540.5" id="Path"></line>
            <line x1="84" y1="-539.5" x2="84" y2="540.5" id="Path"></line>
            <line x1="70" y1="-539.5" x2="70" y2="540.5" id="Path"></line>
            <line x1="56" y1="-539.5" x2="56" y2="540.5" id="Path"></line>
            <line x1="42" y1="-539.5" x2="42" y2="540.5" id="Path"></line>
            <line x1="28" y1="-539.5" x2="28" y2="540.5" id="Path"></line>
            <line x1="14" y1="-539.5" x2="14" y2="540.5" id="Path"></line>
        </g>
        <text id="until-macOS-Catalina" font-family="SourceSans3VF-Medium, SourceSans3VF" font-size="8" font-weight="400" fill="color(display-p3 0.498 0.573 0.514)">
            <tspan x="28" y="52">until macOS Catalina</tspan>
        </text>
        <text id="since-macOS-Big-Sur" font-family="SourceSans3VF-Medium, SourceSans3VF" font-size="8" font-weight="400" fill="color(display-p3 0.498 0.573 0.514)">
            <tspan x="28" y="150">since macOS Big Sur </tspan>
        </text>
        <path d="M168,210 L142.17082,158.341641 C141.429853,156.859705 142.030526,155.057686 143.512461,154.316718 C143.929027,154.108435 144.388367,154 144.854102,154 L378,154 L378,154" id="Path" stroke="url(#linearGradient-4)" stroke-width="1" stroke-linecap="round" stroke-linejoin="round"></path>
        <g id="Rectangle" stroke-linejoin="round" fill-rule="evenodd">
            <use fill="url(#linearGradient-5)" xlink:href="#path-8"></use>
            <use stroke="url(#linearGradient-7)" stroke-width="1" fill="url(#linearGradient-6)" xlink:href="#path-8"></use>
        </g>
        <path d="M212.236068,146 L242.585174,146 C243.914765,146 244.393067,146.083186 244.907735,146.261518 C245.422402,146.43985 245.864896,146.713326 246.254567,147.093906 C246.644238,147.474487 246.932546,147.865091 247.527157,149.054313 L252.552786,159.105573 C253.046765,160.09353 252.646316,161.294876 251.658359,161.788854 C251.380648,161.92771 251.074422,162 250.763932,162 L220.414826,162 C219.085235,162 218.606933,161.916814 218.092265,161.738482 C217.577598,161.56015 217.135104,161.286674 216.745433,160.906094 C216.355762,160.525513 216.067454,160.134909 215.472843,158.945687 L210.447214,148.894427 C209.953235,147.90647 210.353684,146.705124 211.341641,146.211146 C211.619352,146.07229 211.925578,146 212.236068,146 Z" id="Rectangle" stroke="color(display-p3 0.498 0.573 0.514)" stroke-width="1" opacity="0.149999991" stroke-linejoin="round"></path>
        <path d="M260.236068,146 L290.585174,146 C291.914765,146 292.393067,146.083186 292.907735,146.261518 C293.422402,146.43985 293.864896,146.713326 294.254567,147.093906 C294.644238,147.474487 294.932546,147.865091 295.527157,149.054313 L300.552786,159.105573 C301.046765,160.09353 300.646316,161.294876 299.658359,161.788854 C299.380648,161.92771 299.074422,162 298.763932,162 L268.414826,162 C267.085235,162 266.606933,161.916814 266.092265,161.738482 C265.577598,161.56015 265.135104,161.286674 264.745433,160.906094 C264.355762,160.525513 264.067454,160.134909 263.472843,158.945687 L258.447214,148.894427 C257.953235,147.90647 258.353684,146.705124 259.341641,146.211146 C259.619352,146.07229 259.925578,146 260.236068,146 Z" id="Rectangle" stroke="color(display-p3 0.498 0.573 0.514)" stroke-width="1" opacity="0.149999991" stroke-linejoin="round"></path>
        <path d="M308.236068,146 L338.585174,146 C339.914765,146 340.393067,146.083186 340.907735,146.261518 C341.422402,146.43985 341.864896,146.713326 342.254567,147.093906 C342.644238,147.474487 342.932546,147.865091 343.527157,149.054313 L348.552786,159.105573 C349.046765,160.09353 348.646316,161.294876 347.658359,161.788854 C347.380648,161.92771 347.074422,162 346.763932,162 L316.414826,162 C315.085235,162 314.606933,161.916814 314.092265,161.738482 C313.577598,161.56015 313.135104,161.286674 312.745433,160.906094 C312.355762,160.525513 312.067454,160.134909 311.472843,158.945687 L306.447214,148.894427 C305.953235,147.90647 306.353684,146.705124 307.341641,146.211146 C307.619352,146.07229 307.925578,146 308.236068,146 Z" id="Rectangle" stroke="color(display-p3 0.498 0.573 0.514)" stroke-width="1" opacity="0.149999991" stroke-linejoin="round"></path>
        <g id="Rectangle" stroke-linejoin="round" fill-rule="evenodd">
            <use fill="url(#linearGradient-9)" xlink:href="#path-12"></use>
            <use stroke="url(#linearGradient-11)" stroke-width="1" fill="url(#linearGradient-10)" xlink:href="#path-12"></use>
        </g>
        <ellipse id="Oval" stroke="color(display-p3 0.498 0.573 0.514)" stroke-width="1" fill="color(display-p3 0.827 0.831 0.784)" fill-rule="evenodd" cx="158" cy="135" rx="4" ry="3"></ellipse>
        <ellipse id="Oval" stroke="color(display-p3 0.498 0.573 0.514)" stroke-width="1" fill="color(display-p3 0.827 0.831 0.784)" fill-rule="evenodd" cx="170" cy="135" rx="4" ry="3"></ellipse>
        <ellipse id="Oval" stroke="color(display-p3 0.498 0.573 0.514)" stroke-width="1" fill="color(display-p3 0.827 0.831 0.784)" fill-rule="evenodd" cx="182" cy="135" rx="4" ry="3"></ellipse>
        <path d="M164.236068,156 L215.585174,156 C216.914765,156 217.393067,156.083186 217.907735,156.261518 C218.422402,156.43985 218.864896,156.713326 219.254567,157.093906 C219.644238,157.474487 219.932546,157.865091 220.527157,159.054313 L221.552786,161.105573 C222.046765,162.09353 221.646316,163.294876 220.658359,163.788854 C220.380648,163.92771 220.074422,164 219.763932,164 L168.414826,164 C167.085235,164 166.606933,163.916814 166.092265,163.738482 C165.577598,163.56015 165.135104,163.286674 164.745433,162.906094 C164.355762,162.525513 164.067454,162.134909 163.472843,160.945687 L162.447214,158.894427 C161.953235,157.90647 162.353684,156.705124 163.341641,156.211146 C163.619352,156.07229 163.925578,156 164.236068,156 Z" id="Rectangle" stroke="color(display-p3 0.498 0.573 0.514)" stroke-width="1" opacity="0.149999991" stroke-linejoin="round"></path>
        <path d="M171.236068,170 L222.585174,170 C223.914765,170 224.393067,170.083186 224.907735,170.261518 C225.422402,170.43985 225.864896,170.713326 226.254567,171.093906 C226.644238,171.474487 226.932546,171.865091 227.527157,173.054313 L228.552786,175.105573 C229.046765,176.09353 228.646316,177.294876 227.658359,177.788854 C227.380648,177.92771 227.074422,178 226.763932,178 L175.414826,178 C174.085235,178 173.606933,177.916814 173.092265,177.738482 C172.577598,177.56015 172.135104,177.286674 171.745433,176.906094 C171.355762,176.525513 171.067454,176.134909 170.472843,174.945687 L169.447214,172.894427 C168.953235,171.90647 169.353684,170.705124 170.341641,170.211146 C170.619352,170.07229 170.925578,170 171.236068,170 Z" id="Rectangle" stroke="color(display-p3 0.498 0.573 0.514)" stroke-width="1" opacity="0.149999991" stroke-linejoin="round"></path>
        <path d="M178.236068,184 L229.585174,184 C230.914765,184 231.393067,184.083186 231.907735,184.261518 C232.422402,184.43985 232.864896,184.713326 233.254567,185.093906 C233.644238,185.474487 233.932546,185.865091 234.527157,187.054313 L235.552786,189.105573 C236.046765,190.09353 235.646316,191.294876 234.658359,191.788854 C234.380648,191.92771 234.074422,192 233.763932,192 L182.414826,192 C181.085235,192 180.606933,191.916814 180.092265,191.738482 C179.577598,191.56015 179.135104,191.286674 178.745433,190.906094 C178.355762,190.525513 178.067454,190.134909 177.472843,188.945687 L176.447214,186.894427 C175.953235,185.90647 176.353684,184.705124 177.341641,184.211146 C177.619352,184.07229 177.925578,184 178.236068,184 Z" id="Rectangle" stroke="color(display-p3 0.498 0.573 0.514)" stroke-width="1" opacity="0.149999991" stroke-linejoin="round"></path>
        <path d="M168,112 L142.17082,60.3416408 C141.429853,58.8597053 142.030526,57.0576862 143.512461,56.3167184 C143.929027,56.1084353 144.388367,56 144.854102,56 L378,56 L378,56" id="Path" stroke="url(#linearGradient-4)" stroke-width="1" stroke-linecap="round" stroke-linejoin="round"></path>
        <g id="Rectangle" stroke-linejoin="round" fill-rule="evenodd">
            <use fill="url(#linearGradient-13)" xlink:href="#path-16"></use>
            <use stroke="url(#linearGradient-15)" stroke-width="1" fill="url(#linearGradient-14)" xlink:href="#path-16"></use>
        </g>
        <path d="M144.854102,28 L364,28 L364,28 L378,56 L157.414826,56 C156.085235,56 155.606933,55.9168135 155.092265,55.738482 C154.577598,55.5601505 154.135104,55.2866739 153.745433,54.9060937 C153.355762,54.5255135 153.067454,54.134909 152.472843,52.9456866 L142.17082,32.3416408 C141.429853,30.8597053 142.030526,29.0576862 143.512461,28.3167184 C143.929027,28.1084353 144.388367,28 144.854102,28 Z" id="Rectangle" stroke="url(#linearGradient-7)" stroke-width="1" fill="url(#linearGradient-5)" fill-rule="evenodd" stroke-linejoin="round"></path>
        <ellipse id="Oval" stroke="color(display-p3 0.498 0.573 0.514)" stroke-width="1" fill="color(display-p3 0.827 0.831 0.784)" fill-rule="evenodd" cx="158" cy="37" rx="4" ry="3"></ellipse>
        <ellipse id="Oval" stroke="color(display-p3 0.498 0.573 0.514)" stroke-width="1" fill="color(display-p3 0.827 0.831 0.784)" fill-rule="evenodd" cx="170" cy="37" rx="4" ry="3"></ellipse>
        <ellipse id="Oval" stroke="color(display-p3 0.498 0.573 0.514)" stroke-width="1" fill="color(display-p3 0.827 0.831 0.784)" fill-rule="evenodd" cx="182" cy="37" rx="4" ry="3"></ellipse>
        <path d="M212.236068,34 L242.585174,34 C243.914765,34 244.393067,34.0831865 244.907735,34.261518 C245.422402,34.4398495 245.864896,34.7133261 246.254567,35.0939063 C246.644238,35.4744865 246.932546,35.865091 247.527157,37.0543134 L252.552786,47.1055728 C253.046765,48.0935298 252.646316,49.2948759 251.658359,49.7888544 C251.380648,49.9277098 251.074422,50 250.763932,50 L220.414826,50 C219.085235,50 218.606933,49.9168135 218.092265,49.738482 C217.577598,49.5601505 217.135104,49.2866739 216.745433,48.9060937 C216.355762,48.5255135 216.067454,48.134909 215.472843,46.9456866 L210.447214,36.8944272 C209.953235,35.9064702 210.353684,34.7051241 211.341641,34.2111456 C211.619352,34.0722902 211.925578,34 212.236068,34 Z" id="Rectangle" stroke="color(display-p3 0.498 0.573 0.514)" stroke-width="1" opacity="0.149999991" stroke-linejoin="round"></path>
        <path d="M260.236068,34 L290.585174,34 C291.914765,34 292.393067,34.0831865 292.907735,34.261518 C293.422402,34.4398495 293.864896,34.7133261 294.254567,35.0939063 C294.644238,35.4744865 294.932546,35.865091 295.527157,37.0543134 L300.552786,47.1055728 C301.046765,48.0935298 300.646316,49.2948759 299.658359,49.7888544 C299.380648,49.9277098 299.074422,50 298.763932,50 L268.414826,50 C267.085235,50 266.606933,49.9168135 266.092265,49.738482 C265.577598,49.5601505 265.135104,49.2866739 264.745433,48.9060937 C264.355762,48.5255135 264.067454,48.134909 263.472843,46.9456866 L258.447214,36.8944272 C257.953235,35.9064702 258.353684,34.7051241 259.341641,34.2111456 C259.619352,34.0722902 259.925578,34 260.236068,34 Z" id="Rectangle" stroke="color(display-p3 0.498 0.573 0.514)" stroke-width="1" opacity="0.149999991" stroke-linejoin="round"></path>
        <path d="M308.236068,34 L338.585174,34 C339.914765,34 340.393067,34.0831865 340.907735,34.261518 C341.422402,34.4398495 341.864896,34.7133261 342.254567,35.0939063 C342.644238,35.4744865 342.932546,35.865091 343.527157,37.0543134 L348.552786,47.1055728 C349.046765,48.0935298 348.646316,49.2948759 347.658359,49.7888544 C347.380648,49.9277098 347.074422,50 346.763932,50 L316.414826,50 C315.085235,50 314.606933,49.9168135 314.092265,49.738482 C313.577598,49.5601505 313.135104,49.2866739 312.745433,48.9060937 C312.355762,48.5255135 312.067454,48.134909 311.472843,46.9456866 L306.447214,36.8944272 C305.953235,35.9064702 306.353684,34.7051241 307.341641,34.2111456 C307.619352,34.0722902 307.925578,34 308.236068,34 Z" id="Rectangle" stroke="color(display-p3 0.498 0.573 0.514)" stroke-width="1" opacity="0.149999991" stroke-linejoin="round"></path>
        <path d="M167.236068,78 L218.585174,78 C219.914765,78 220.393067,78.0831865 220.907735,78.261518 C221.422402,78.4398495 221.864896,78.7133261 222.254567,79.0939063 C222.644238,79.4744865 222.932546,79.865091 223.527157,81.0543134 L224.552786,83.1055728 C225.046765,84.0935298 224.646316,85.2948759 223.658359,85.7888544 C223.380648,85.9277098 223.074422,86 222.763932,86 L171.414826,86 C170.085235,86 169.606933,85.9168135 169.092265,85.738482 C168.577598,85.5601505 168.135104,85.2866739 167.745433,84.9060937 C167.355762,84.5255135 167.067454,84.134909 166.472843,82.9456866 L165.447214,80.8944272 C164.953235,79.9064702 165.353684,78.7051241 166.341641,78.2111456 C166.619352,78.0722902 166.925578,78 167.236068,78 Z" id="Rectangle" stroke="color(display-p3 0.498 0.573 0.514)" stroke-width="1" opacity="0.149999991" stroke-linejoin="round"></path>
        <path d="M174.236068,92 L225.585174,92 C226.914765,92 227.393067,92.0831865 227.907735,92.261518 C228.422402,92.4398495 228.864896,92.7133261 229.254567,93.0939063 C229.644238,93.4744865 229.932546,93.865091 230.527157,95.0543134 L231.552786,97.1055728 C232.046765,98.0935298 231.646316,99.2948759 230.658359,99.7888544 C230.380648,99.9277098 230.074422,100 229.763932,100 L178.414826,100 C177.085235,100 176.606933,99.9168135 176.092265,99.738482 C175.577598,99.5601505 175.135104,99.2866739 174.745433,98.9060937 C174.355762,98.5255135 174.067454,98.134909 173.472843,96.9456866 L172.447214,94.8944272 C171.953235,93.9064702 172.353684,92.7051241 173.341641,92.2111456 C173.619352,92.0722902 173.925578,92 174.236068,92 Z" id="Rectangle" stroke="color(display-p3 0.498 0.573 0.514)" stroke-width="1" opacity="0.149999991" stroke-linejoin="round"></path>
    </g>
</svg>