<?xml version="1.0" encoding="UTF-8"?>
<svg width="476px" height="224px" viewBox="0 0 476 224" version="1.1" xmlns="http://www.w3.org/2000/svg" xmlns:xlink="http://www.w3.org/1999/xlink">
    <title>Comparison of the Hierarchical Layers</title>
    <defs>
        <path d="M0,0 L476,0 L476,224 L0,224 L0,0 Z" id="path-1"></path>
        <path d="M0,0 L476,0 L476,672 L0,672 L0,0 Z" id="path-2"></path>
        <path d="M0,0 L476,0 L476,1 L0,1 L0,0 Z" id="path-3"></path>
        <linearGradient x1="27.3104931%" y1="49.7194929%" x2="29.3890344%" y2="50.8210125%" id="linearGradient-4">
            <stop stop-color="color(display-p3 0.498 0.573 0.514)" offset="0%"></stop>
            <stop stop-color="color(display-p3 0.498 0.573 0.514)" stop-opacity="0" offset="100%"></stop>
        </linearGradient>
        <linearGradient x1="89.3705081%" y1="50.3696204%" x2="96.5322239%" y2="50.0006664%" id="linearGradient-5">
            <stop stop-color="color(display-p3 0.871 0.875 0.831)" offset="0%"></stop>
            <stop stop-color="color(display-p3 0.871 0.875 0.831)" stop-opacity="0" offset="100%"></stop>
        </linearGradient>
        <linearGradient x1="83.4491365%" y1="50.6105709%" x2="96.1050192%" y2="50%" id="linearGradient-6">
            <stop stop-color="color(display-p3 0.992 0.976 0.933)" stop-opacity="0.2" offset="0%"></stop>
            <stop stop-color="color(display-p3 0.992 0.976 0.933)" stop-opacity="0" offset="100%"></stop>
        </linearGradient>
        <linearGradient x1="91.231787%" y1="50.3343052%" x2="96.4436598%" y2="50.0367165%" id="linearGradient-7">
            <stop stop-color="color(display-p3 0.498 0.573 0.514)" offset="0%"></stop>
            <stop stop-color="color(display-p3 0.498 0.573 0.514)" stop-opacity="0" offset="100%"></stop>
        </linearGradient>
        <path d="M144.236068,42 L365,42 L365,42 L379,70 L158.414826,70 C157.085235,70 156.606933,69.9168135 156.092265,69.738482 C155.577598,69.5601505 155.135104,69.2866739 154.745433,68.9060937 C154.355762,68.5255135 154.067454,68.134909 153.472843,66.9456866 L142.447214,44.8944272 C141.953235,43.9064702 142.353684,42.7051241 143.341641,42.2111456 C143.619352,42.0722902 143.925578,42 144.236068,42 Z" id="path-8"></path>
        <linearGradient x1="50%" y1="51.2324863%" x2="50%" y2="100%" id="linearGradient-9">
            <stop stop-color="color(display-p3 0.871 0.875 0.831)" offset="0%"></stop>
            <stop stop-color="color(display-p3 0.871 0.875 0.831)" stop-opacity="0" offset="100%"></stop>
        </linearGradient>
        <linearGradient x1="50%" y1="70.3780594%" x2="50%" y2="99.647618%" id="linearGradient-10">
            <stop stop-color="color(display-p3 0.498 0.573 0.514)" offset="0%"></stop>
            <stop stop-color="color(display-p3 0.498 0.573 0.514)" stop-opacity="0" offset="100%"></stop>
        </linearGradient>
        <linearGradient x1="46.4719609%" y1="49.4684287%" x2="47.6245092%" y2="50.4747032%" id="linearGradient-11">
            <stop stop-color="color(display-p3 0.498 0.573 0.514)" offset="0%"></stop>
            <stop stop-color="color(display-p3 0.498 0.573 0.514)" stop-opacity="0" offset="100%"></stop>
        </linearGradient>
    </defs>
    <g id="Comparison-of-the-Hierarchical-Layers" stroke="none" fill="none" xlink:href="#path-1">
        <use fill="color(display-p3 0.992 0.976 0.933)" fill-rule="evenodd" xlink:href="#path-1"></use>
        <use fill-opacity="0.06" fill="color(display-p3 0.494 0.549 0.514)" fill-rule="evenodd" xlink:href="#path-1"></use>
        <g id="Stack" opacity="0.0299999993" xlink:href="#path-2" stroke="color(display-p3 0.494 0.549 0.514)" stroke-width="1">
            <line x1="476" y1="224" x2="0" y2="224" id="Path"></line>
            <line x1="476" y1="210" x2="0" y2="210" id="Path"></line>
            <line x1="476" y1="196" x2="0" y2="196" id="Path"></line>
            <line x1="476" y1="182" x2="0" y2="182" id="Path"></line>
            <line x1="476" y1="168" x2="0" y2="168" id="Path"></line>
            <line x1="476" y1="154" x2="0" y2="154" id="Path"></line>
            <line x1="476" y1="140" x2="0" y2="140" id="Path"></line>
            <line x1="476" y1="126" x2="0" y2="126" id="Path"></line>
            <line x1="476" y1="112" x2="0" y2="112" id="Path"></line>
            <line x1="476" y1="98" x2="0" y2="98" id="Path"></line>
            <line x1="476" y1="84" x2="0" y2="84" id="Path"></line>
            <line x1="476" y1="70" x2="0" y2="70" id="Path"></line>
            <line x1="476" y1="56" x2="0" y2="56" id="Path"></line>
            <line x1="476" y1="42" x2="0" y2="42" id="Path"></line>
            <line x1="476" y1="28" x2="0" y2="28" id="Path"></line>
            <line x1="476" y1="14" x2="0" y2="14" id="Path"></line>
        </g>
        <g id="Stack" opacity="0.0299999993" xlink:href="#path-3" stroke="color(display-p3 0.494 0.549 0.514)" stroke-width="1">
            <line x1="462" y1="-539.5" x2="462" y2="540.5" id="Path"></line>
            <line x1="448" y1="-539.5" x2="448" y2="540.5" id="Path"></line>
            <line x1="434" y1="-539.5" x2="434" y2="540.5" id="Path"></line>
            <line x1="420" y1="-539.5" x2="420" y2="540.5" id="Path"></line>
            <line x1="406" y1="-539.5" x2="406" y2="540.5" id="Path"></line>
            <line x1="392" y1="-539.5" x2="392" y2="540.5" id="Path"></line>
            <line x1="378" y1="-539.5" x2="378" y2="540.5" id="Path"></line>
            <line x1="364" y1="-539.5" x2="364" y2="540.5" id="Path"></line>
            <line x1="350" y1="-539.5" x2="350" y2="540.5" id="Path"></line>
            <line x1="336" y1="-539.5" x2="336" y2="540.5" id="Path"></line>
            <line x1="322" y1="-539.5" x2="322" y2="540.5" id="Path"></line>
            <line x1="308" y1="-539.5" x2="308" y2="540.5" id="Path"></line>
            <line x1="294" y1="-539.5" x2="294" y2="540.5" id="Path"></line>
            <line x1="280" y1="-539.5" x2="280" y2="540.5" id="Path"></line>
            <line x1="266" y1="-539.5" x2="266" y2="540.5" id="Path"></line>
            <line x1="252" y1="-539.5" x2="252" y2="540.5" id="Path"></line>
            <line x1="238" y1="-539.5" x2="238" y2="540.5" id="Path"></line>
            <line x1="224" y1="-539.5" x2="224" y2="540.5" id="Path"></line>
            <line x1="210" y1="-539.5" x2="210" y2="540.5" id="Path"></line>
            <line x1="196" y1="-539.5" x2="196" y2="540.5" id="Path"></line>
            <line x1="182" y1="-539.5" x2="182" y2="540.5" id="Path"></line>
            <line x1="168" y1="-539.5" x2="168" y2="540.5" id="Path"></line>
            <line x1="154" y1="-539.5" x2="154" y2="540.5" id="Path"></line>
            <line x1="140" y1="-539.5" x2="140" y2="540.5" id="Path"></line>
            <line x1="126" y1="-539.5" x2="126" y2="540.5" id="Path"></line>
            <line x1="112" y1="-539.5" x2="112" y2="540.5" id="Path"></line>
            <line x1="98" y1="-539.5" x2="98" y2="540.5" id="Path"></line>
            <line x1="84" y1="-539.5" x2="84" y2="540.5" id="Path"></line>
            <line x1="70" y1="-539.5" x2="70" y2="540.5" id="Path"></line>
            <line x1="56" y1="-539.5" x2="56" y2="540.5" id="Path"></line>
            <line x1="42" y1="-539.5" x2="42" y2="540.5" id="Path"></line>
            <line x1="28" y1="-539.5" x2="28" y2="540.5" id="Path"></line>
            <line x1="14" y1="-539.5" x2="14" y2="540.5" id="Path"></line>
        </g>
        <path d="M144.236068,56 L347.585174,56 C348.914765,56 349.393067,56.0831865 349.907735,56.261518 C350.422402,56.4398495 350.864896,56.7133261 351.254567,57.0939063 C351.644238,57.4744865 351.932546,57.865091 352.527157,59.0543134 L363.552786,81.1055728 C364.046765,82.0935298 363.646316,83.2948759 362.658359,83.7888544 C362.380648,83.9277098 362.074422,84 361.763932,84 L158.414826,84 C157.085235,84 156.606933,83.9168135 156.092265,83.738482 C155.577598,83.5601505 155.135104,83.2866739 154.745433,82.9060937 C154.355762,82.5255135 154.067454,82.134909 153.472843,80.9456866 L142.447214,58.8944272 C141.953235,57.9064702 142.353684,56.7051241 143.341641,56.2111456 C143.619352,56.0722902 143.925578,56 144.236068,56 Z" id="Rectangle" stroke="color(display-p3 0.498 0.573 0.514)" stroke-width="1" opacity="0.149999991" stroke-linejoin="round"></path>
        <path d="M169,112 L142.447214,58.8944272 C141.953235,57.9064702 142.353684,56.7051241 143.341641,56.2111456 C143.619352,56.0722902 143.925578,56 144.236068,56 L379,56 L379,56" id="Path" stroke="url(#linearGradient-4)" stroke-width="1" stroke-linecap="round" stroke-linejoin="round"></path>
        <g id="Rectangle" stroke-linejoin="round" fill-rule="evenodd">
            <use fill="url(#linearGradient-5)" xlink:href="#path-8"></use>
            <use stroke="url(#linearGradient-7)" stroke-width="1" fill="url(#linearGradient-6)" xlink:href="#path-8"></use>
        </g>
        <path d="M213.236068,48 L243.585174,48 C244.914765,48 245.393067,48.0831865 245.907735,48.261518 C246.422402,48.4398495 246.864896,48.7133261 247.254567,49.0939063 C247.644238,49.4744865 247.932546,49.865091 248.527157,51.0543134 L253.552786,61.1055728 C254.046765,62.0935298 253.646316,63.2948759 252.658359,63.7888544 C252.380648,63.9277098 252.074422,64 251.763932,64 L221.414826,64 C220.085235,64 219.606933,63.9168135 219.092265,63.738482 C218.577598,63.5601505 218.135104,63.2866739 217.745433,62.9060937 C217.355762,62.5255135 217.067454,62.134909 216.472843,60.9456866 L211.447214,50.8944272 C210.953235,49.9064702 211.353684,48.7051241 212.341641,48.2111456 C212.619352,48.0722902 212.925578,48 213.236068,48 Z" id="Rectangle" stroke="color(display-p3 0.498 0.573 0.514)" stroke-width="1" opacity="0.149999991" stroke-linejoin="round"></path>
        <path d="M261.236068,48 L291.585174,48 C292.914765,48 293.393067,48.0831865 293.907735,48.261518 C294.422402,48.4398495 294.864896,48.7133261 295.254567,49.0939063 C295.644238,49.4744865 295.932546,49.865091 296.527157,51.0543134 L301.552786,61.1055728 C302.046765,62.0935298 301.646316,63.2948759 300.658359,63.7888544 C300.380648,63.9277098 300.074422,64 299.763932,64 L269.414826,64 C268.085235,64 267.606933,63.9168135 267.092265,63.738482 C266.577598,63.5601505 266.135104,63.2866739 265.745433,62.9060937 C265.355762,62.5255135 265.067454,62.134909 264.472843,60.9456866 L259.447214,50.8944272 C258.953235,49.9064702 259.353684,48.7051241 260.341641,48.2111456 C260.619352,48.0722902 260.925578,48 261.236068,48 Z" id="Rectangle" stroke="color(display-p3 0.498 0.573 0.514)" stroke-width="1" opacity="0.149999991" stroke-linejoin="round"></path>
        <path d="M309.236068,48 L339.585174,48 C340.914765,48 341.393067,48.0831865 341.907735,48.261518 C342.422402,48.4398495 342.864896,48.7133261 343.254567,49.0939063 C343.644238,49.4744865 343.932546,49.865091 344.527157,51.0543134 L349.552786,61.1055728 C350.046765,62.0935298 349.646316,63.2948759 348.658359,63.7888544 C348.380648,63.9277098 348.074422,64 347.763932,64 L317.414826,64 C316.085235,64 315.606933,63.9168135 315.092265,63.738482 C314.577598,63.5601505 314.135104,63.2866739 313.745433,62.9060937 C313.355762,62.5255135 313.067454,62.134909 312.472843,60.9456866 L307.447214,50.8944272 C306.953235,49.9064702 307.353684,48.7051241 308.341641,48.2111456 C308.619352,48.0722902 308.925578,48 309.236068,48 Z" id="Rectangle" stroke="color(display-p3 0.498 0.573 0.514)" stroke-width="1" opacity="0.149999991" stroke-linejoin="round"></path>
        <path d="M213.236068,36 L243.585174,36 C244.914765,36 245.393067,36.0831865 245.907735,36.261518 C246.422402,36.4398495 246.864896,36.7133261 247.254567,37.0939063 C247.644238,37.4744865 247.932546,37.865091 248.527157,39.0543134 L253.552786,49.1055728 C254.046765,50.0935298 253.646316,51.2948759 252.658359,51.7888544 C252.380648,51.9277098 252.074422,52 251.763932,52 L221.414826,52 C220.085235,52 219.606933,51.9168135 219.092265,51.738482 C218.577598,51.5601505 218.135104,51.2866739 217.745433,50.9060937 C217.355762,50.5255135 217.067454,50.134909 216.472843,48.9456866 L211.447214,38.8944272 C210.953235,37.9064702 211.353684,36.7051241 212.341641,36.2111456 C212.619352,36.0722902 212.925578,36 213.236068,36 Z" id="Rectangle" stroke="color(display-p3 0.498 0.573 0.514)" stroke-width="1" fill="color(display-p3 0.871 0.875 0.831)" fill-rule="evenodd" stroke-linejoin="round"></path>
        <path d="M261.236068,36 L291.585174,36 C292.914765,36 293.393067,36.0831865 293.907735,36.261518 C294.422402,36.4398495 294.864896,36.7133261 295.254567,37.0939063 C295.644238,37.4744865 295.932546,37.865091 296.527157,39.0543134 L301.552786,49.1055728 C302.046765,50.0935298 301.646316,51.2948759 300.658359,51.7888544 C300.380648,51.9277098 300.074422,52 299.763932,52 L269.414826,52 C268.085235,52 267.606933,51.9168135 267.092265,51.738482 C266.577598,51.5601505 266.135104,51.2866739 265.745433,50.9060937 C265.355762,50.5255135 265.067454,50.134909 264.472843,48.9456866 L259.447214,38.8944272 C258.953235,37.9064702 259.353684,36.7051241 260.341641,36.2111456 C260.619352,36.0722902 260.925578,36 261.236068,36 Z" id="Rectangle" stroke="color(display-p3 0.498 0.573 0.514)" stroke-width="1" fill="color(display-p3 0.871 0.875 0.831)" fill-rule="evenodd" stroke-linejoin="round"></path>
        <path d="M309.236068,36 L339.585174,36 C340.914765,36 341.393067,36.0831865 341.907735,36.261518 C342.422402,36.4398495 342.864896,36.7133261 343.254567,37.0939063 C343.644238,37.4744865 343.932546,37.865091 344.527157,39.0543134 L349.552786,49.1055728 C350.046765,50.0935298 349.646316,51.2948759 348.658359,51.7888544 C348.380648,51.9277098 348.074422,52 347.763932,52 L317.414826,52 C316.085235,52 315.606933,51.9168135 315.092265,51.738482 C314.577598,51.5601505 314.135104,51.2866739 313.745433,50.9060937 C313.355762,50.5255135 313.067454,50.134909 312.472843,48.9456866 L307.447214,38.8944272 C306.953235,37.9064702 307.353684,36.7051241 308.341641,36.2111456 C308.619352,36.0722902 308.925578,36 309.236068,36 Z" id="Rectangle" stroke="color(display-p3 0.498 0.573 0.514)" stroke-width="1" fill="color(display-p3 0.871 0.875 0.831)" fill-rule="evenodd" stroke-linejoin="round"></path>
        <path d="M144.236068,28 L207.585174,28 C208.914765,28 209.393067,28.0831865 209.907735,28.261518 C210.422402,28.4398495 210.864896,28.7133261 211.254567,29.0939063 C211.644238,29.4744865 211.932546,29.865091 212.527157,31.0543134 L253,112 L253,112 L183,112 L142.447214,30.8944272 C141.953235,29.9064702 142.353684,28.7051241 143.341641,28.2111456 C143.619352,28.0722902 143.925578,28 144.236068,28 Z" id="Rectangle" stroke="url(#linearGradient-10)" stroke-width="1" fill="url(#linearGradient-9)" fill-rule="evenodd" stroke-linejoin="round"></path>
        <ellipse id="Oval" stroke="color(display-p3 0.498 0.573 0.514)" stroke-width="1" fill="color(display-p3 0.827 0.831 0.784)" fill-rule="evenodd" cx="159" cy="37" rx="4" ry="3"></ellipse>
        <ellipse id="Oval" stroke="color(display-p3 0.498 0.573 0.514)" stroke-width="1" fill="color(display-p3 0.827 0.831 0.784)" fill-rule="evenodd" cx="171" cy="37" rx="4" ry="3"></ellipse>
        <ellipse id="Oval" stroke="color(display-p3 0.498 0.573 0.514)" stroke-width="1" fill="color(display-p3 0.827 0.831 0.784)" fill-rule="evenodd" cx="183" cy="37" rx="4" ry="3"></ellipse>
        <g id="macOS-Sequoia" stroke-width="1" fill-rule="evenodd" transform="translate(28, 44)" fill="color(display-p3 0.498 0.573 0.514)">
            <path d="M0.620249023,8 L1.41237109,8 L1.41237109,5.21975098 C1.74372559,4.85550195 2.04263281,4.67726563 2.30954004,4.67726563 C2.76245996,4.67726563 2.97269629,4.95329102 2.97269629,5.6379873 L2.97269629,8 L3.76481836,8 L3.76481836,5.21975098 C4.09617285,4.85550195 4.38685645,4.67726563 4.6619873,4.67726563 C5.11490723,4.67726563 5.32514355,4.95329102 5.32514355,5.6379873 L5.32514355,8 L6.11726563,8 L6.11726563,5.536 C6.11726563,4.544 5.73326563,3.99445996 4.91905469,3.99445996 C4.43262012,3.99445996 4.03561377,4.29845996 3.64593652,4.71669629 C3.4751665,4.26780176 3.15172559,3.99445996 2.56660742,3.99445996 C2.08839648,3.99445996 1.69483105,4.28290723 1.35838379,4.64013721 L1.33460742,4.64013721 L1.27150195,4.09045996 L0.620249023,4.09045996 L0.620249023,8 Z" id="Path" fill-rule="nonzero"></path>
            <path d="M8.23418408,8.096 C8.70730078,8.096 9.10953406,7.85984448 9.48361182,7.55280554 L9.51257288,7.55280554 L9.57049512,7.99999988 L10.2256544,7.99999988 L10.2256544,5.64961121 C10.2256544,4.60942737 9.77867908,3.99575244 8.81787341,3.99575244 C8.19387341,3.99575244 7.63995117,4.24142737 7.2444176,4.49823303 L7.54091235,5.0371449 C7.87164026,4.83522266 8.25787354,4.65395056 8.67226221,4.65395056 C9.25192285,4.65395056 9.42488391,5.05680554 9.43480615,5.49934961 C7.79753406,5.67838855 7.07833972,6.09134961 7.07833972,6.96679126 C7.07833972,7.66238843 7.56441748,8.096 8.2341842,8.096 L8.23418408,8.096 Z M8.47052356,7.44428223 C8.12317371,7.44428223 7.85278503,7.29804895 7.85278503,6.91342712 C7.85278503,6.4648053 8.2473291,6.19745544 9.43480591,6.05729993 L9.43480591,6.99566016 C9.10426184,7.29804883 8.81787317,7.44428223 8.47052332,7.44428223 L8.47052356,7.44428223 Z" id="Shape" fill-rule="nonzero"></path>
            <path d="M12.9932512,8.096 C13.4827707,8.096 13.921654,7.90096106 14.2481345,7.59392212 L13.9161981,7.10645203 C13.6926009,7.30564636 13.3928482,7.44428247 13.0645373,7.44428247 C12.3919155,7.44428247 11.9325657,6.88629663 11.9325657,6.05063599 C11.9325657,5.20849475 12.4170321,4.64747009 13.0774985,4.64747009 C13.3833288,4.64747009 13.6126009,4.7621062 13.8007564,4.93730054 L14.1845375,4.44334985 C13.9090958,4.18431091 13.5471736,3.99575256 13.0386152,3.99575256 C12.0164455,3.99575256 11.119237,4.74471362 11.119237,6.05063586 C11.119237,7.3470387 11.9265233,8.096 12.9932512,8.096 L12.9932512,8.096 Z" id="Path" fill-rule="nonzero"></path>
            <path d="M17.1194209,8.096 C18.4646294,8.096 19.3995127,7.0468833 19.3995127,5.35696106 C19.3995127,3.67351941 18.4646294,2.6628833 17.1194209,2.6628833 C15.780693,2.6628833 14.8458097,3.67351941 14.8458097,5.35696106 C14.8458097,7.0468833 15.780693,8.096 17.1194209,8.096 Z M17.1194209,7.39587964 C16.2392019,7.39587964 15.6686578,6.59829663 15.6686578,5.35696106 C15.6686578,4.12210608 16.2392019,3.36300366 17.1194209,3.36300366 C17.9996399,3.36300366 18.570184,4.12210608 18.570184,5.35696106 C18.570184,6.59829663 17.9996399,7.39587964 17.1194209,7.39587964 Z" id="Shape" fill-rule="nonzero"></path>
            <path d="M21.9785502,8.096 C23.1265248,8.096 23.813183,7.41068359 23.813183,6.57180176 C23.813183,5.80245996 23.3711704,5.42847266 22.7437294,5.16424902 L22.0171577,4.85457178 C21.5944995,4.67879541 21.1669213,4.50855908 21.1669213,4.05085645 C21.1669213,3.62560107 21.5229467,3.3616875 22.0645375,3.3616875 C22.4960038,3.3616875 22.8850102,3.5390293 23.2205629,3.82014746 L23.6445122,3.30243457 C23.2588603,2.92388818 22.6967612,2.66288184 22.0645375,2.66288184 C21.0683393,2.66288184 20.3587993,3.27986279 20.3587993,4.09796191 C20.3587993,4.85818555 20.9084765,5.25206104 21.4191347,5.47172559 L22.1534829,5.7891792 C22.6387128,5.99807373 22.9972846,6.15208643 22.9972846,6.63445996 C22.9972846,7.09260986 22.6321411,7.39719434 21.994103,7.39719434 C21.4629721,7.39719434 20.9299658,7.17551709 20.5578539,6.80161621 L20.1174575,7.3193291 C20.5952211,7.81443457 21.2412084,8.096 21.9785502,8.096 Z" id="Path" fill-rule="nonzero"></path>
            <path d="M27.893183,8.096 C29.0411577,8.096 29.7278159,7.41068359 29.7278159,6.57180176 C29.7278159,5.80245996 29.2858032,5.42847266 28.6583622,5.16424902 L27.9317905,4.85457178 C27.5091323,4.67879541 27.0815541,4.50855908 27.0815541,4.05085645 C27.0815541,3.62560107 27.4375795,3.3616875 27.9791704,3.3616875 C28.4106367,3.3616875 28.799643,3.5390293 29.1351957,3.82014746 L29.559145,3.30243457 C29.1734931,2.92388818 28.611394,2.66288184 27.9791704,2.66288184 C26.9829721,2.66288184 26.2734321,3.27986279 26.2734321,4.09796191 C26.2734321,4.85818555 26.8231093,5.25206104 27.3337675,5.47172559 L28.0681157,5.7891792 C28.5533456,5.99807373 28.9119174,6.15208643 28.9119174,6.63445996 C28.9119174,7.09260986 28.5467739,7.39719434 27.9087358,7.39719434 C27.3776049,7.39719434 26.8445986,7.17551709 26.4724868,6.80161621 L26.0320903,7.3193291 C26.5098539,7.81443457 27.1558413,8.096 27.893183,8.096 Z" id="Path" fill-rule="nonzero"></path>
            <path d="M32.2787007,8.096 C32.7898951,8.096 33.2395064,7.93296106 33.5923121,7.68911658 L33.3118173,7.17612708 C33.0398173,7.35516602 32.7267006,7.45724377 32.3724674,7.45724377 C31.7173649,7.45724377 31.1536122,6.99950537 31.1536122,6.0411167 C31.1536122,4.98672803 31.6791953,4.62802844 32.1697393,4.62802844 C32.7342058,4.62802844 33.0327498,5.01041711 33.0327498,5.66462183 L30.9478456,5.66462183 L30.9478456,6.27745593 L33.6974287,6.27745593 C33.7263897,6.14257263 33.7393508,5.99776697 33.7393508,5.84000024 C33.7393508,4.74288354 33.1923118,3.99575281 32.1567783,3.99575281 C31.2439726,3.99575281 30.3662059,4.77023328 30.3662059,6.04415552 C30.3662059,7.344 31.2020504,8.096 32.2787005,8.096 L32.2787007,8.096 Z" id="Path" fill-rule="nonzero"></path>
            <path d="M37.1000268,9.59714355 L37.8921489,9.59714355 L37.8921489,4.09045996 L37.264225,4.09045996 L37.1933432,4.46578906 L37.1695668,4.46578906 C36.8326723,4.15490723 36.5165605,3.99445996 36.0720014,3.99445996 C35.198436,3.99445996 34.3988832,4.77845996 34.3988832,6.0493418 C34.3988832,7.3453418 35.0306596,8.096 36.0062123,8.096 C36.4331196,8.096 36.8340141,7.87021094 37.1315795,7.58086914 L37.1000268,8.25988818 L37.1000268,9.59714355 Z M36.1932924,7.43652344 C35.5703598,7.43652344 35.2147817,6.93426172 35.2147817,6.04156543 C35.2147817,5.18954004 35.6677016,4.65393652 36.2270815,4.65393652 C36.5182123,4.65393652 36.800225,4.75127832 37.1000268,5.01863281 L37.1000268,6.95115625 C36.8080014,7.28206348 36.5246469,7.43652344 36.1932924,7.43652344 Z" id="Shape" fill-rule="nonzero"></path>
            <path d="M40.2841506,8.09600012 C40.818631,8.09600012 41.20567,7.82440283 41.5572672,7.40880566 L41.5797476,7.40880566 L41.6441505,8 L42.2928292,8 L42.2928292,4.09175269 L41.5019808,4.09175269 L41.5019808,6.81318018 C41.1710339,7.23364661 40.9162424,7.41187988 40.546412,7.41187988 C40.0783485,7.41187988 39.8776347,7.13845239 39.8776347,6.45246655 L39.8776347,4.09175269 L39.0867863,4.09175269 L39.0867863,6.55575281 C39.0867863,7.54775281 39.4547863,8.09600012 40.2841502,8.09600012 L40.2841506,8.09600012 Z" id="Path" fill-rule="nonzero"></path>
            <path d="M45.0942107,8.096 C46.0606453,8.096 46.9301853,7.34444727 46.9301853,6.0493418 C46.9301853,4.7460127 46.0606453,3.99445996 45.0942107,3.99445996 C44.1277761,3.99445996 43.2582361,4.7460127 43.2582361,6.0493418 C43.2582361,7.34444727 44.1277761,8.096 45.0942107,8.096 Z M45.0942107,7.4442998 C44.4726199,7.4442998 44.0741345,6.88760352 44.0741345,6.0493418 C44.0741345,5.21108008 44.4726199,4.64616016 45.0942107,4.64616016 C45.7158015,4.64616016 46.1142869,5.21108008 46.1142869,6.0493418 C46.1142869,6.88760352 45.7158015,7.4442998 45.0942107,7.4442998 Z" id="Shape" fill-rule="nonzero"></path>
            <path d="M47.8968943,8 L48.6890164,8 L48.6890164,4.09045996 L47.8968943,4.09045996 L47.8968943,8 Z M48.2888435,3.34775098 C48.5805945,3.34775098 48.7859109,3.1579873 48.7859109,2.8653418 C48.7859109,2.58091992 48.5805945,2.39115625 48.2888435,2.39115625 C47.9970925,2.39115625 47.7917761,2.58091992 47.7917761,2.8653418 C47.7917761,3.1579873 47.9970925,3.34775098 48.2888435,3.34775098 Z" id="Shape" fill-rule="nonzero"></path>
            <path d="M50.8543821,8.096 C51.3274988,8.096 51.7297321,7.85984448 52.1038098,7.55280554 L52.1327709,7.55280554 L52.1906931,7.99999988 L52.8458524,7.99999988 L52.8458524,5.64961121 C52.8458524,4.60942737 52.3988771,3.99575244 51.4380714,3.99575244 C50.8140714,3.99575244 50.2601492,4.24142737 49.8646156,4.49823303 L50.1611103,5.0371449 C50.4918383,4.83522266 50.8780715,4.65395056 51.2924602,4.65395056 C51.8721208,4.65395056 52.0450819,5.05680554 52.0550041,5.49934961 C50.4177321,5.67838855 49.6985377,6.09134961 49.6985377,6.96679126 C49.6985377,7.66238843 50.1846155,8.096 50.8543822,8.096 L50.8543821,8.096 Z M51.0907216,7.44428223 C50.7433717,7.44428223 50.472983,7.29804895 50.472983,6.91342712 C50.472983,6.4648053 50.8675271,6.19745544 52.0550039,6.05729993 L52.0550039,6.99566016 C51.7244598,7.29804883 51.4380712,7.44428223 51.0907213,7.44428223 L51.0907216,7.44428223 Z" id="Shape" fill-rule="nonzero"></path>
        </g>
        <g id="macOS-Tahoe" stroke-width="1" fill-rule="evenodd" transform="translate(28, 142)" fill="color(display-p3 0.498 0.573 0.514)">
            <path d="M0.620249023,8 L1.41237109,8 L1.41237109,5.21975098 C1.74372559,4.85550195 2.04263281,4.67726562 2.30954004,4.67726562 C2.76245996,4.67726562 2.97269629,4.95329102 2.97269629,5.6379873 L2.97269629,8 L3.76481836,8 L3.76481836,5.21975098 C4.09617285,4.85550195 4.38685645,4.67726562 4.6619873,4.67726562 C5.11490723,4.67726562 5.32514355,4.95329102 5.32514355,5.6379873 L5.32514355,8 L6.11726563,8 L6.11726563,5.536 C6.11726563,4.544 5.73326563,3.99445996 4.91905469,3.99445996 C4.43262012,3.99445996 4.03561377,4.29845996 3.64593652,4.71669629 C3.4751665,4.26780176 3.15172559,3.99445996 2.56660742,3.99445996 C2.08839648,3.99445996 1.69483105,4.28290723 1.35838379,4.64013721 L1.33460742,4.64013721 L1.27150195,4.09045996 L0.620249023,4.09045996 L0.620249023,8 Z" id="Path" fill-rule="nonzero"></path>
            <path d="M8.23418408,8.096 C8.70730078,8.096 9.10953406,7.85984448 9.48361182,7.55280554 L9.51257288,7.55280554 L9.57049512,7.99999988 L10.2256544,7.99999988 L10.2256544,5.64961121 C10.2256544,4.60942737 9.77867908,3.99575244 8.81787341,3.99575244 C8.19387341,3.99575244 7.63995117,4.24142737 7.2444176,4.49823303 L7.54091235,5.0371449 C7.87164026,4.83522266 8.25787354,4.65395056 8.67226221,4.65395056 C9.25192285,4.65395056 9.42488391,5.05680554 9.43480615,5.49934961 C7.79753406,5.67838855 7.07833972,6.09134961 7.07833972,6.96679126 C7.07833972,7.66238843 7.56441748,8.096 8.2341842,8.096 L8.23418408,8.096 Z M8.47052356,7.44428223 C8.12317371,7.44428223 7.85278503,7.29804895 7.85278503,6.91342712 C7.85278503,6.4648053 8.2473291,6.19745544 9.43480591,6.05729993 L9.43480591,6.99566016 C9.10426184,7.29804883 8.81787317,7.44428223 8.47052332,7.44428223 L8.47052356,7.44428223 Z" id="Shape" fill-rule="nonzero"></path>
            <path d="M12.9932512,8.096 C13.4827707,8.096 13.921654,7.90096106 14.2481345,7.59392212 L13.9161981,7.10645203 C13.6926009,7.30564636 13.3928482,7.44428247 13.0645373,7.44428247 C12.3919155,7.44428247 11.9325657,6.88629663 11.9325657,6.05063599 C11.9325657,5.20849475 12.4170321,4.64747009 13.0774985,4.64747009 C13.3833288,4.64747009 13.6126009,4.7621062 13.8007564,4.93730054 L14.1845375,4.44334985 C13.9090958,4.18431091 13.5471736,3.99575256 13.0386152,3.99575256 C12.0164455,3.99575256 11.119237,4.74471362 11.119237,6.05063586 C11.119237,7.3470387 11.9265233,8.096 12.9932512,8.096 L12.9932512,8.096 Z" id="Path" fill-rule="nonzero"></path>
            <path d="M17.1194209,8.096 C18.4646294,8.096 19.3995127,7.0468833 19.3995127,5.35696106 C19.3995127,3.67351941 18.4646294,2.6628833 17.1194209,2.6628833 C15.780693,2.6628833 14.8458097,3.67351941 14.8458097,5.35696106 C14.8458097,7.0468833 15.780693,8.096 17.1194209,8.096 Z M17.1194209,7.39587964 C16.2392019,7.39587964 15.6686578,6.59829663 15.6686578,5.35696106 C15.6686578,4.12210608 16.2392019,3.36300366 17.1194209,3.36300366 C17.9996399,3.36300366 18.570184,4.12210608 18.570184,5.35696106 C18.570184,6.59829663 17.9996399,7.39587964 17.1194209,7.39587964 Z" id="Shape" fill-rule="nonzero"></path>
            <path d="M21.9785502,8.096 C23.1265248,8.096 23.813183,7.41068359 23.813183,6.57180176 C23.813183,5.80245996 23.3711704,5.42847266 22.7437294,5.16424902 L22.0171577,4.85457178 C21.5944995,4.67879541 21.1669213,4.50855908 21.1669213,4.05085645 C21.1669213,3.62560107 21.5229467,3.3616875 22.0645375,3.3616875 C22.4960038,3.3616875 22.8850102,3.5390293 23.2205629,3.82014746 L23.6445122,3.30243457 C23.2588603,2.92388818 22.6967612,2.66288184 22.0645375,2.66288184 C21.0683393,2.66288184 20.3587993,3.27986279 20.3587993,4.09796191 C20.3587993,4.85818555 20.9084765,5.25206104 21.4191347,5.47172559 L22.1534829,5.7891792 C22.6387128,5.99807373 22.9972846,6.15208643 22.9972846,6.63445996 C22.9972846,7.09260986 22.6321411,7.39719434 21.994103,7.39719434 C21.4629721,7.39719434 20.9299658,7.17551709 20.5578539,6.80161621 L20.1174575,7.3193291 C20.5952211,7.81443457 21.2412084,8.096 21.9785502,8.096 Z" id="Path" fill-rule="nonzero"></path>
            <polygon id="Path" fill-rule="nonzero" points="27.4743648 8 28.2747326 8 28.2747326 3.43652319 29.8247184 3.43652319 29.8247184 2.75888342 25.9243791 2.75888342 25.9243791 3.43652319 27.4743649 3.43652319 27.4743649 8"></polygon>
            <path d="M31.0216764,8.096 C31.4947931,8.096 31.8970264,7.85984448 32.2711041,7.55280554 L32.3000652,7.55280554 L32.3579874,7.99999988 L33.0131467,7.99999988 L33.0131467,5.64961121 C33.0131467,4.60942737 32.5661714,3.99575244 31.6053657,3.99575244 C30.9813657,3.99575244 30.4274435,4.24142737 30.0319099,4.49823303 L30.3284047,5.0371449 C30.6591326,4.83522266 31.0453658,4.65395056 31.4597545,4.65395056 C32.0394152,4.65395056 32.2123762,5.05680554 32.2222985,5.49934961 C30.5850264,5.67838855 29.865832,6.09134961 29.865832,6.96679126 C29.865832,7.66238843 30.3519098,8.096 31.0216765,8.096 L31.0216764,8.096 Z M31.2580159,7.44428223 C30.910666,7.44428223 30.6402773,7.29804895 30.6402773,6.91342712 C30.6402773,6.4648053 31.0348214,6.19745544 32.2222982,6.05729993 L32.2222982,6.99566016 C31.8917542,7.29804883 31.6053655,7.44428223 31.2580156,7.44428223 L31.2580159,7.44428223 Z" id="Shape" fill-rule="nonzero"></path>
            <path d="M34.1792258,8 L34.9713479,8 L34.9713479,5.21975098 C35.3273733,4.86327832 35.5782805,4.67726562 35.9494114,4.67726562 C36.4187785,4.67726562 36.6207912,4.95329102 36.6207912,5.6379873 L36.6207912,8 L37.4129133,8 L37.4129133,5.536 C37.4129133,4.544 37.0449133,3.99445996 36.2142551,3.99445996 C35.6784787,3.99445996 35.2862551,4.28290723 34.9402424,4.61336719 L34.9713479,3.83490723 L34.9713479,2.32509277 L34.1792258,2.32509277 L34.1792258,8 Z" id="Path" fill-rule="nonzero"></path>
            <path d="M40.1507024,8.096 C41.1171369,8.096 41.986677,7.34444727 41.986677,6.0493418 C41.986677,4.7460127 41.1171369,3.99445996 40.1507024,3.99445996 C39.1842678,3.99445996 38.3147278,4.7460127 38.3147278,6.0493418 C38.3147278,7.34444727 39.1842678,8.096 40.1507024,8.096 Z M40.1507024,7.4442998 C39.5291116,7.4442998 39.1306262,6.88760352 39.1306262,6.0493418 C39.1306262,5.21108008 39.5291116,4.64616016 40.1507024,4.64616016 C40.7722932,4.64616016 41.1707785,5.21108008 41.1707785,6.0493418 C41.1707785,6.88760352 40.7722932,7.4442998 40.1507024,7.4442998 Z" id="Shape" fill-rule="nonzero"></path>
            <path d="M44.5869037,8.096 C45.098098,8.096 45.5477093,7.93296106 45.900515,7.68911658 L45.6200202,7.17612708 C45.3480202,7.35516602 45.0349035,7.45724377 44.6806703,7.45724377 C44.0255679,7.45724377 43.4618152,6.99950537 43.4618152,6.0411167 C43.4618152,4.98672803 43.9873982,4.62802844 44.4779422,4.62802844 C45.0424087,4.62802844 45.3409527,5.01041711 45.3409527,5.66462183 L43.2560486,5.66462183 L43.2560486,6.27745593 L46.0056316,6.27745593 C46.0345926,6.14257263 46.0475537,5.99776697 46.0475537,5.84000024 C46.0475537,4.74288354 45.5005148,3.99575281 44.4649812,3.99575281 C43.5521755,3.99575281 42.6744088,4.77023328 42.6744088,6.04415552 C42.6744088,7.344 43.5102533,8.096 44.5869034,8.096 L44.5869037,8.096 Z" id="Path" fill-rule="nonzero"></path>
        </g>
        <path d="M169,196 L143.894427,145.788854 C142.90647,143.81294 143.707368,141.410248 145.683282,140.422291 C146.238703,140.14458 146.851156,140 147.472136,140 L379,140 L379,140" id="Path" stroke="url(#linearGradient-11)" stroke-width="1" stroke-linecap="round" stroke-linejoin="round"></path>
        <ellipse id="Oval" stroke="color(display-p3 0.498 0.573 0.514)" stroke-width="1" opacity="0.149999991" cx="159" cy="150" rx="4" ry="3"></ellipse>
        <ellipse id="Oval" stroke="color(display-p3 0.498 0.573 0.514)" stroke-width="1" opacity="0.149999991" cx="171" cy="150" rx="4" ry="3"></ellipse>
        <ellipse id="Oval" stroke="color(display-p3 0.498 0.573 0.514)" stroke-width="1" opacity="0.149999991" cx="183" cy="150" rx="4" ry="3"></ellipse>
        <ellipse id="Oval" stroke="color(display-p3 0.498 0.573 0.514)" stroke-width="1" fill="color(display-p3 0.871 0.875 0.831)" fill-rule="evenodd" cx="159" cy="140" rx="4" ry="3"></ellipse>
        <ellipse id="Oval" stroke="color(display-p3 0.498 0.573 0.514)" stroke-width="1" fill="color(display-p3 0.871 0.875 0.831)" fill-rule="evenodd" cx="171" cy="140" rx="4" ry="3"></ellipse>
        <ellipse id="Oval" stroke="color(display-p3 0.498 0.573 0.514)" stroke-width="1" fill="color(display-p3 0.871 0.875 0.831)" fill-rule="evenodd" cx="183" cy="140" rx="4" ry="3"></ellipse>
        <path d="M220.931743,166 C209.654738,166 202.192015,162.5 198.543572,155.5 C194.895129,148.5 197.71438,145 207.001325,145 L252.772697,145 C262.059642,145 268.527336,148.5 272.175779,155.5 C275.824221,162.5 274,166 266.703115,166 L220.931743,166 Z" id="Path" stroke="color(display-p3 0.498 0.573 0.514)" stroke-width="1" opacity="0.149999991" stroke-linejoin="round"></path>
        <path d="M302.765637,166 C291.566904,166 284.155978,162.5 280.532858,155.5 C276.909739,148.5 279.709422,145 288.931908,145 L289.920032,145 C299.142518,145 305.565321,148.5 309.18844,155.5 C312.81156,162.5 311,166 303.753761,166 L302.765637,166 Z" id="Path" stroke="color(display-p3 0.498 0.573 0.514)" stroke-width="1" opacity="0.149999991" stroke-linejoin="round"></path>
        <path d="M339.765637,166 C328.566904,166 321.155978,162.5 317.532858,155.5 C313.909739,148.5 316.709422,145 325.931908,145 L326.920032,145 C336.142518,145 342.565321,148.5 346.18844,155.5 C349.81156,162.5 348,166 340.753761,166 L339.765637,166 Z" id="Path" stroke="color(display-p3 0.498 0.573 0.514)" stroke-width="1" opacity="0.149999991" stroke-linejoin="round"></path>
        <path d="M220.931743,154 C209.654738,154 202.192015,150.5 198.543572,143.5 C194.895129,136.5 197.71438,133 207.001325,133 L252.772697,133 C262.059642,133 268.527336,136.5 272.175779,143.5 C275.824221,150.5 274,154 266.703115,154 L220.931743,154 Z" id="Path" stroke="color(display-p3 0.498 0.573 0.514)" stroke-width="1" fill="color(display-p3 0.871 0.875 0.831)" fill-rule="evenodd" stroke-linejoin="round"></path>
        <path d="M302.765637,154 C291.566904,154 284.155978,150.5 280.532858,143.5 C276.909739,136.5 279.709422,133 288.931908,133 L289.920032,133 C299.142518,133 305.565321,136.5 309.18844,143.5 C312.81156,150.5 311,154 303.753761,154 L302.765637,154 Z" id="Path" stroke="color(display-p3 0.498 0.573 0.514)" stroke-width="1" fill="color(display-p3 0.871 0.875 0.831)" fill-rule="evenodd" stroke-linejoin="round"></path>
        <path d="M339.765637,154 C328.566904,154 321.155978,150.5 317.532858,143.5 C313.909739,136.5 316.709422,133 325.931908,133 L326.920032,133 C336.142518,133 342.565321,136.5 346.18844,143.5 C349.81156,150.5 348,154 340.753761,154 L339.765637,154 Z" id="Path" stroke="color(display-p3 0.498 0.573 0.514)" stroke-width="1" fill="color(display-p3 0.871 0.875 0.831)" fill-rule="evenodd" stroke-linejoin="round"></path>
    </g>
</svg>