<?xml version="1.0" encoding="UTF-8"?>
<svg width="476px" height="294px" viewBox="0 0 476 294" version="1.1" xmlns="http://www.w3.org/2000/svg" xmlns:xlink="http://www.w3.org/1999/xlink">
    <title>Design Decision Framework</title>
    <defs>
        <path d="M0,0 L476,0 L476,294 L0,294 L0,0 Z" id="path-1"></path>
        <path d="M0,0 L476,0 L476,672 L0,672 L0,0 Z" id="path-2"></path>
        <path d="M0,0 L476,0 L476,144 L0,144 L0,0 Z" id="path-3"></path>
        <path d="M0,0 L266,0 L266,238 L0,238 L0,0 Z" id="path-4"></path>
    </defs>
    <g id="Design-Decision-Framework" stroke="none" fill="none" xlink:href="#path-1">
        <use fill="color(display-p3 0.992 0.976 0.933)" fill-rule="evenodd" xlink:href="#path-1"></use>
        <use fill-opacity="0.06" fill="color(display-p3 0.494 0.549 0.514)" fill-rule="evenodd" xlink:href="#path-1"></use>
        <g id="Stack" opacity="0.0299999993" xlink:href="#path-2" stroke="color(display-p3 0.494 0.549 0.514)" stroke-width="1">
            <line x1="476" y1="294" x2="0" y2="294" id="Path" opacity="0"></line>
            <line x1="476" y1="280" x2="0" y2="280" id="Path"></line>
            <line x1="476" y1="266" x2="0" y2="266" id="Path"></line>
            <line x1="476" y1="252" x2="0" y2="252" id="Path"></line>
            <line x1="476" y1="238" x2="0" y2="238" id="Path"></line>
            <line x1="476" y1="224" x2="0" y2="224" id="Path"></line>
            <line x1="476" y1="210" x2="0" y2="210" id="Path"></line>
            <line x1="476" y1="196" x2="0" y2="196" id="Path"></line>
            <line x1="476" y1="182" x2="0" y2="182" id="Path"></line>
            <line x1="476" y1="168" x2="0" y2="168" id="Path"></line>
            <line x1="476" y1="154" x2="0" y2="154" id="Path"></line>
            <line x1="476" y1="140" x2="0" y2="140" id="Path"></line>
            <line x1="476" y1="126" x2="0" y2="126" id="Path"></line>
            <line x1="476" y1="112" x2="0" y2="112" id="Path"></line>
            <line x1="476" y1="98" x2="0" y2="98" id="Path"></line>
            <line x1="476" y1="84" x2="0" y2="84" id="Path"></line>
            <line x1="476" y1="70" x2="0" y2="70" id="Path"></line>
            <line x1="476" y1="56" x2="0" y2="56" id="Path"></line>
            <line x1="476" y1="42" x2="0" y2="42" id="Path"></line>
            <line x1="476" y1="28" x2="0" y2="28" id="Path"></line>
            <line x1="476" y1="14" x2="0" y2="14" id="Path"></line>
        </g>
        <g id="Stack" opacity="0.0299999993" xlink:href="#path-3" stroke="color(display-p3 0.494 0.549 0.514)" stroke-width="1">
            <line x1="462" y1="-468" x2="462" y2="612" id="Path"></line>
            <line x1="448" y1="-468" x2="448" y2="612" id="Path"></line>
            <line x1="434" y1="-468" x2="434" y2="612" id="Path"></line>
            <line x1="420" y1="-468" x2="420" y2="612" id="Path"></line>
            <line x1="406" y1="-468" x2="406" y2="612" id="Path"></line>
            <line x1="392" y1="-468" x2="392" y2="612" id="Path"></line>
            <line x1="378" y1="-468" x2="378" y2="612" id="Path"></line>
            <line x1="364" y1="-468" x2="364" y2="612" id="Path"></line>
            <line x1="350" y1="-468" x2="350" y2="612" id="Path"></line>
            <line x1="336" y1="-468" x2="336" y2="612" id="Path"></line>
            <line x1="322" y1="-468" x2="322" y2="612" id="Path"></line>
            <line x1="308" y1="-468" x2="308" y2="612" id="Path"></line>
            <line x1="294" y1="-468" x2="294" y2="612" id="Path"></line>
            <line x1="280" y1="-468" x2="280" y2="612" id="Path"></line>
            <line x1="266" y1="-468" x2="266" y2="612" id="Path"></line>
            <line x1="252" y1="-468" x2="252" y2="612" id="Path"></line>
            <line x1="238" y1="-468" x2="238" y2="612" id="Path"></line>
            <line x1="224" y1="-468" x2="224" y2="612" id="Path"></line>
            <line x1="210" y1="-468" x2="210" y2="612" id="Path"></line>
            <line x1="196" y1="-468" x2="196" y2="612" id="Path"></line>
            <line x1="182" y1="-468" x2="182" y2="612" id="Path"></line>
            <line x1="168" y1="-468" x2="168" y2="612" id="Path"></line>
            <line x1="154" y1="-468" x2="154" y2="612" id="Path"></line>
            <line x1="140" y1="-468" x2="140" y2="612" id="Path"></line>
            <line x1="126" y1="-468" x2="126" y2="612" id="Path"></line>
            <line x1="112" y1="-468" x2="112" y2="612" id="Path"></line>
            <line x1="98" y1="-468" x2="98" y2="612" id="Path"></line>
            <line x1="84" y1="-468" x2="84" y2="612" id="Path"></line>
            <line x1="70" y1="-468" x2="70" y2="612" id="Path"></line>
            <line x1="56" y1="-468" x2="56" y2="612" id="Path"></line>
            <line x1="42" y1="-468" x2="42" y2="612" id="Path"></line>
            <line x1="28" y1="-468" x2="28" y2="612" id="Path"></line>
            <line x1="14" y1="-468" x2="14" y2="612" id="Path"></line>
        </g>
        <g transform="translate(105, 28)" xlink:href="#path-4">
            <ellipse id="Oval" fill="color(display-p3 0.812 0.831 0.780)" fill-rule="evenodd" cx="203" cy="210" rx="49" ry="28"></ellipse>
            <ellipse id="Oval" fill="color(display-p3 0.812 0.831 0.780)" fill-rule="evenodd" cx="63" cy="210" rx="49" ry="28"></ellipse>
            <ellipse id="Oval" fill="color(display-p3 0.812 0.831 0.780)" fill-rule="evenodd" cx="133" cy="28" rx="49" ry="28"></ellipse>
            <ellipse id="Oval" fill="color(display-p3 0.812 0.831 0.780)" fill-rule="evenodd" cx="217" cy="112" rx="49" ry="28"></ellipse>
            <ellipse id="Oval" fill="color(display-p3 0.812 0.831 0.780)" fill-rule="evenodd" cx="49" cy="112" rx="49" ry="28"></ellipse>
            <text id="Purpose" font-family="SourceSans3VF-Bold, SourceSans3VF" font-size="8" font-weight="bold" letter-spacing="0.1" fill="color(display-p3 0.498 0.573 0.514)">
                <tspan x="34.0637637" y="115">Purpose</tspan>
            </text>
            <text id="Mac-OS-Conventions" font-family="SourceSans3VF-Bold, SourceSans3VF" font-size="8" font-weight="bold" letter-spacing="0.1" fill="color(display-p3 0.498 0.573 0.514)">
                <tspan x="96.3442005" y="31">Mac OS Conventions</tspan>
            </text>
            <text id="Usability" font-family="SourceSans3VF-Bold, SourceSans3VF" font-size="8" font-weight="bold" letter-spacing="0.1" fill="color(display-p3 0.498 0.573 0.514)">
                <tspan x="201.282465" y="115">Usability</tspan>
            </text>
            <text id="Own-Taste" font-family="SourceSans3VF-Bold, SourceSans3VF" font-size="8" font-weight="bold" letter-spacing="0.1" fill="color(display-p3 0.498 0.573 0.514)">
                <tspan x="44.321748" y="213">Own Taste</tspan>
            </text>
            <text id="Apple’s-Design" font-family="SourceSans3VF-Bold, SourceSans3VF" font-size="8" font-weight="bold" letter-spacing="0.1" fill="color(display-p3 0.498 0.573 0.514)">
                <tspan x="177.160963" y="213">Apple’s Design</tspan>
            </text>
            <line x1="162" y1="112" x2="104" y2="112" id="Path-2" stroke="color(display-p3 0.498 0.573 0.514)" stroke-width="1"></line>
            <line x1="129" y1="61.5" x2="90" y2="181" id="Path-2" stroke="color(display-p3 0.498 0.573 0.514)" stroke-width="1"></line>
            <line x1="173.5" y1="133" x2="107" y2="190" id="Path-2" stroke="color(display-p3 0.498 0.573 0.514)" stroke-width="1"></line>
            <line x1="158.5" y1="133" x2="92.5" y2="190" id="Path-2" stroke="color(display-p3 0.498 0.573 0.514)" stroke-width="1" transform="translate(125.5, 161.5) scale(-1, 1) translate(-125.5, -161.5)"></line>
            <line x1="176" y1="61.5" x2="137" y2="181" id="Path-2" stroke="color(display-p3 0.498 0.573 0.514)" stroke-width="1" transform="translate(156.5, 121.25) scale(-1, 1) translate(-156.5, -121.25)"></line>
            <path d="M149.485009,217 C144.138626,216.059322 138.628999,215.56789 133,215.56789 C127.497301,215.56789 122.108676,216.037517 116.875112,216.93736" id="Oval-2" stroke="color(display-p3 0.498 0.573 0.514)" stroke-width="1" transform="translate(133.1801, 216.2839) scale(1, -1) translate(-133.1801, -216.2839)"></path>
            <path d="M43.5001115,145.407182 C45.5876858,156.336382 49.7872203,166.55511 55.676848,175.657723" id="Oval-2" stroke="color(display-p3 0.498 0.573 0.514)" stroke-width="1"></path>
            <path d="M209.75702,176.52143 C215.985026,167.141484 220.40439,156.543701 222.542482,145.182533" id="Oval-2" stroke="color(display-p3 0.498 0.573 0.514)" stroke-width="1"></path>
            <path d="M206.657931,78.1077108 C197.966141,66.6099276 186.433564,57.2258557 173.051572,50.9087352" id="Oval-2" stroke="color(display-p3 0.498 0.573 0.514)" stroke-width="1"></path>
            <path d="M93.0192816,50.875325 C79.374434,57.3023576 67.6486798,66.9166503 58.8914275,78.7091568" id="Oval-2" stroke="color(display-p3 0.498 0.573 0.514)" stroke-width="1"></path>
            <polygon id="Path" fill="color(display-p3 0.498 0.573 0.514)" fill-rule="evenodd" transform="translate(93, 51) rotate(-28) translate(-93, -51)" points="95 51 91 47 91 55"></polygon>
            <polygon id="Path" fill="color(display-p3 0.498 0.573 0.514)" fill-rule="evenodd" transform="translate(59, 79) rotate(125) translate(-59, -79)" points="61 79 57 75 57 83"></polygon>
            <polygon id="Path" fill="color(display-p3 0.498 0.573 0.514)" fill-rule="evenodd" transform="translate(43.6865, 146) rotate(260) translate(-43.6865, -146)" points="45.6865274 146 41.6865274 142 41.6865274 150"></polygon>
            <polygon id="Path" fill="color(display-p3 0.498 0.573 0.514)" fill-rule="evenodd" transform="translate(55.6865, 176) rotate(423) translate(-55.6865, -176)" points="57.6865274 176 53.6865274 172 53.6865274 180"></polygon>
            <polygon id="Path" fill="color(display-p3 0.498 0.573 0.514)" fill-rule="evenodd" transform="translate(89.6865, 181) rotate(471) translate(-89.6865, -181)" points="91.6865274 181 87.6865274 177 87.6865274 185"></polygon>
            <polygon id="Path" fill="color(display-p3 0.498 0.573 0.514)" fill-rule="evenodd" transform="translate(91.8716, 132.5672) rotate(579) translate(-91.8716, -132.5672)" points="93.8715735 132.567225 89.8715735 128.567225 89.8715735 136.567225"></polygon>
            <polygon id="Path" fill="color(display-p3 0.498 0.573 0.514)" fill-rule="evenodd" transform="translate(103.8716, 112) rotate(540) translate(-103.8716, -112)" points="105.871573 112 101.871573 108 101.871573 116"></polygon>
            <polygon id="Path" fill="color(display-p3 0.498 0.573 0.514)" fill-rule="evenodd" transform="translate(128.8716, 62) rotate(649) translate(-128.8716, -62)" points="130.871573 62 126.871573 58 126.871573 66"></polygon>
            <polygon id="Path" fill="color(display-p3 0.498 0.573 0.514)" fill-rule="evenodd" transform="translate(106.8716, 190) rotate(501) translate(-106.8716, -190)" points="108.871573 190 104.871573 186 104.871573 194"></polygon>
            <polygon id="Path" fill="color(display-p3 0.498 0.573 0.514)" fill-rule="evenodd" transform="translate(176.3183, 181) scale(-1, 1) rotate(471) translate(-176.3183, -181)" points="178.318257 181 174.318257 177 174.318257 185"></polygon>
            <polygon id="Path" fill="color(display-p3 0.498 0.573 0.514)" fill-rule="evenodd" transform="translate(174.1332, 132.5672) scale(-1, 1) rotate(579) translate(-174.1332, -132.5672)" points="176.133211 132.567225 172.133211 128.567225 172.133211 136.567225"></polygon>
            <polygon id="Path" fill="color(display-p3 0.498 0.573 0.514)" fill-rule="evenodd" transform="translate(162.1332, 112) scale(-1, 1) rotate(540) translate(-162.1332, -112)" points="164.133211 112 160.133211 108 160.133211 116"></polygon>
            <polygon id="Path" fill="color(display-p3 0.498 0.573 0.514)" fill-rule="evenodd" transform="translate(137.1332, 62) scale(-1, 1) rotate(649) translate(-137.1332, -62)" points="139.133211 62 135.133211 58 135.133211 66"></polygon>
            <polygon id="Path" fill="color(display-p3 0.498 0.573 0.514)" fill-rule="evenodd" transform="translate(159.1332, 190) scale(-1, 1) rotate(501) translate(-159.1332, -190)" points="161.133211 190 157.133211 186 157.133211 194"></polygon>
            <polygon id="Path" fill="color(display-p3 0.498 0.573 0.514)" fill-rule="evenodd" transform="translate(116.6865, 215.6865) rotate(549) translate(-116.6865, -215.6865)" points="118.686527 215.686527 114.686527 211.686527 114.686527 219.686527"></polygon>
            <polygon id="Path" fill="color(display-p3 0.498 0.573 0.514)" fill-rule="evenodd" transform="translate(173.3731, 51) scale(-1, 1) rotate(-28) translate(-173.3731, -51)" points="175.373055 51 171.373055 47 171.373055 55"></polygon>
            <polygon id="Path" fill="color(display-p3 0.498 0.573 0.514)" fill-rule="evenodd" transform="translate(207.3731, 79) scale(-1, 1) rotate(125) translate(-207.3731, -79)" points="209.373055 79 205.373055 75 205.373055 83"></polygon>
            <polygon id="Path" fill="color(display-p3 0.498 0.573 0.514)" fill-rule="evenodd" transform="translate(222.5284, 146) scale(-1, 1) rotate(258) translate(-222.5284, -146)" points="224.528414 146 220.528414 142 220.528414 150"></polygon>
            <polygon id="Path" fill="color(display-p3 0.498 0.573 0.514)" fill-rule="evenodd" transform="translate(210.472, 176) scale(-1, 1) rotate(423) translate(-210.472, -176)" points="212.472007 176 208.472007 172 208.472007 180"></polygon>
            <polygon id="Path" fill="color(display-p3 0.498 0.573 0.514)" fill-rule="evenodd" transform="translate(149.6865, 215.6865) scale(-1, 1) rotate(549) translate(-149.6865, -215.6865)" points="151.686527 215.686527 147.686527 211.686527 147.686527 219.686527"></polygon>
        </g>
    </g>
</svg>