<?xml version="1.0" encoding="UTF-8"?>
<svg width="476px" height="294px" viewBox="0 0 476 294" version="1.1" xmlns="http://www.w3.org/2000/svg" xmlns:xlink="http://www.w3.org/1999/xlink">
    <title>Design Decision Framework</title>
    <defs>
        <path d="M0,0 L476,0 L476,294 L0,294 L0,0 Z" id="path-1"></path>
        <path d="M0,0 L476,0 L476,672 L0,672 L0,0 Z" id="path-2"></path>
        <path d="M0,0 L476,0 L476,144 L0,144 L0,0 Z" id="path-3"></path>
        <path d="M0,0 L266,0 L266,238 L0,238 L0,0 Z" id="path-4"></path>
    </defs>
    <g id="Design-Decision-Framework" stroke="none" fill="none" xlink:href="#path-1">
        <use fill="color(display-p3 0.992 0.976 0.933)" fill-rule="evenodd" xlink:href="#path-1"></use>
        <use fill-opacity="0.06" fill="color(display-p3 0.494 0.549 0.514)" fill-rule="evenodd" xlink:href="#path-1"></use>
        <g id="Stack" opacity="0.0299999993" xlink:href="#path-2" stroke="color(display-p3 0.494 0.549 0.514)" stroke-width="1">
            <line x1="476" y1="294" x2="0" y2="294" id="Path" opacity="0"></line>
            <line x1="476" y1="280" x2="0" y2="280" id="Path"></line>
            <line x1="476" y1="266" x2="0" y2="266" id="Path"></line>
            <line x1="476" y1="252" x2="0" y2="252" id="Path"></line>
            <line x1="476" y1="238" x2="0" y2="238" id="Path"></line>
            <line x1="476" y1="224" x2="0" y2="224" id="Path"></line>
            <line x1="476" y1="210" x2="0" y2="210" id="Path"></line>
            <line x1="476" y1="196" x2="0" y2="196" id="Path"></line>
            <line x1="476" y1="182" x2="0" y2="182" id="Path"></line>
            <line x1="476" y1="168" x2="0" y2="168" id="Path"></line>
            <line x1="476" y1="154" x2="0" y2="154" id="Path"></line>
            <line x1="476" y1="140" x2="0" y2="140" id="Path"></line>
            <line x1="476" y1="126" x2="0" y2="126" id="Path"></line>
            <line x1="476" y1="112" x2="0" y2="112" id="Path"></line>
            <line x1="476" y1="98" x2="0" y2="98" id="Path"></line>
            <line x1="476" y1="84" x2="0" y2="84" id="Path"></line>
            <line x1="476" y1="70" x2="0" y2="70" id="Path"></line>
            <line x1="476" y1="56" x2="0" y2="56" id="Path"></line>
            <line x1="476" y1="42" x2="0" y2="42" id="Path"></line>
            <line x1="476" y1="28" x2="0" y2="28" id="Path"></line>
            <line x1="476" y1="14" x2="0" y2="14" id="Path"></line>
        </g>
        <g id="Stack" opacity="0.0299999993" xlink:href="#path-3" stroke="color(display-p3 0.494 0.549 0.514)" stroke-width="1">
            <line x1="462" y1="-468" x2="462" y2="612" id="Path"></line>
            <line x1="448" y1="-468" x2="448" y2="612" id="Path"></line>
            <line x1="434" y1="-468" x2="434" y2="612" id="Path"></line>
            <line x1="420" y1="-468" x2="420" y2="612" id="Path"></line>
            <line x1="406" y1="-468" x2="406" y2="612" id="Path"></line>
            <line x1="392" y1="-468" x2="392" y2="612" id="Path"></line>
            <line x1="378" y1="-468" x2="378" y2="612" id="Path"></line>
            <line x1="364" y1="-468" x2="364" y2="612" id="Path"></line>
            <line x1="350" y1="-468" x2="350" y2="612" id="Path"></line>
            <line x1="336" y1="-468" x2="336" y2="612" id="Path"></line>
            <line x1="322" y1="-468" x2="322" y2="612" id="Path"></line>
            <line x1="308" y1="-468" x2="308" y2="612" id="Path"></line>
            <line x1="294" y1="-468" x2="294" y2="612" id="Path"></line>
            <line x1="280" y1="-468" x2="280" y2="612" id="Path"></line>
            <line x1="266" y1="-468" x2="266" y2="612" id="Path"></line>
            <line x1="252" y1="-468" x2="252" y2="612" id="Path"></line>
            <line x1="238" y1="-468" x2="238" y2="612" id="Path"></line>
            <line x1="224" y1="-468" x2="224" y2="612" id="Path"></line>
            <line x1="210" y1="-468" x2="210" y2="612" id="Path"></line>
            <line x1="196" y1="-468" x2="196" y2="612" id="Path"></line>
            <line x1="182" y1="-468" x2="182" y2="612" id="Path"></line>
            <line x1="168" y1="-468" x2="168" y2="612" id="Path"></line>
            <line x1="154" y1="-468" x2="154" y2="612" id="Path"></line>
            <line x1="140" y1="-468" x2="140" y2="612" id="Path"></line>
            <line x1="126" y1="-468" x2="126" y2="612" id="Path"></line>
            <line x1="112" y1="-468" x2="112" y2="612" id="Path"></line>
            <line x1="98" y1="-468" x2="98" y2="612" id="Path"></line>
            <line x1="84" y1="-468" x2="84" y2="612" id="Path"></line>
            <line x1="70" y1="-468" x2="70" y2="612" id="Path"></line>
            <line x1="56" y1="-468" x2="56" y2="612" id="Path"></line>
            <line x1="42" y1="-468" x2="42" y2="612" id="Path"></line>
            <line x1="28" y1="-468" x2="28" y2="612" id="Path"></line>
            <line x1="14" y1="-468" x2="14" y2="612" id="Path"></line>
        </g>
        <g transform="translate(105, 28)" xlink:href="#path-4">
            <ellipse id="Oval" fill="color(display-p3 0.812 0.831 0.780)" fill-rule="evenodd" cx="203" cy="210" rx="49" ry="28"></ellipse>
            <ellipse id="Oval" fill="color(display-p3 0.812 0.831 0.780)" fill-rule="evenodd" cx="63" cy="210" rx="49" ry="28"></ellipse>
            <ellipse id="Oval" fill="color(display-p3 0.812 0.831 0.780)" fill-rule="evenodd" cx="133" cy="28" rx="49" ry="28"></ellipse>
            <ellipse id="Oval" fill="color(display-p3 0.812 0.831 0.780)" fill-rule="evenodd" cx="217" cy="112" rx="49" ry="28"></ellipse>
            <ellipse id="Oval" fill="color(display-p3 0.812 0.831 0.780)" fill-rule="evenodd" cx="49" cy="112" rx="49" ry="28"></ellipse>
            <g id="Purpose" stroke-width="1" fill-rule="evenodd" transform="translate(34, 107)" fill="color(display-p3 0.498 0.573 0.514)">
                <path d="M0.679193349,8 L1.85804491,8 L1.85804491,6.23089453 L2.5025371,6.23089453 C3.60743554,6.23089453 4.54310741,5.68875195 4.54310741,4.46322266 C4.54310741,3.19628516 3.61780272,2.78591797 2.4705371,2.78591797 L0.679193349,2.78591797 L0.679193349,8 Z M1.85804491,5.29498047 L1.85804491,3.72183203 L2.40090429,3.72183203 C3.03874413,3.72183203 3.38780663,3.91754687 3.38780663,4.46322266 C3.38780663,5.00608203 3.08111132,5.29498047 2.43290429,5.29498047 L1.85804491,5.29498047 Z" id="Shape" fill-rule="nonzero"></path>
                <path d="M6.64650499,8.096 C7.18698461,8.096 7.56202526,7.84543909 7.89258617,7.45087817 L7.92106579,7.45087817 L8.00650487,8 L8.96457128,8 L8.96457128,4.03168262 L7.78922802,4.03168262 L7.78922802,6.65696692 C7.56042357,6.96929163 7.37770031,7.09345398 7.08297704,7.09345398 C6.74409142,7.09345398 6.59144933,6.9161698 6.59144933,6.34432471 L6.59144933,4.03168262 L5.41610607,4.03168262 L5.41610607,6.49568262 C5.41610607,7.48768262 5.78410607,8.096 6.64650451,8.096 L6.64650499,8.096 Z" id="Path" fill-rule="nonzero"></path>
                <path d="M10.0988875,8 L11.2749227,8 L11.2749227,5.69995703 C11.4866375,5.15889453 11.8499032,4.96599609 12.1491688,4.96599609 C12.319536,4.96599609 12.4127196,4.98199609 12.5482703,5.01399609 L12.7732899,4.01498047 C12.6584735,3.96416406 12.5266981,3.93498047 12.2998211,3.93498047 C11.8923309,3.93498047 11.4584129,4.19469531 11.1722703,4.72461328 L11.1430867,4.72461328 L11.0583524,4.03098047 L10.0988875,4.03098047 L10.0988875,8 Z" id="Path" fill-rule="nonzero"></path>
                <path d="M13.3851688,9.47277734 L14.5612039,9.47277734 L14.5612039,8.30963281 L14.5216532,7.68191797 C14.8058172,7.94636719 15.1267157,8.096 15.4683485,8.096 C16.3276141,8.096 17.1379813,7.31481641 17.1379813,5.95289844 C17.1379813,4.72934766 16.5496961,3.93498047 15.5887977,3.93498047 C15.1747157,3.93498047 14.7700418,4.14387891 14.4585516,4.42151172 L14.429368,4.42151172 L14.3446336,4.03098047 L13.3851688,4.03098047 L13.3851688,9.47277734 Z M15.1943094,7.13371875 C14.9957782,7.13371875 14.7747157,7.06882031 14.5612039,6.88257422 L14.5612039,5.25285547 C14.7935321,5.00542578 15.001411,4.89726172 15.2432078,4.89726172 C15.7125985,4.89726172 15.9327625,5.25375391 15.9327625,5.96608203 C15.9327625,6.78759375 15.6044344,7.13371875 15.1943094,7.13371875 Z" id="Shape" fill-rule="nonzero"></path>
                <path d="M19.7716141,8.096 C20.7758992,8.096 21.7049188,7.33363281 21.7049188,6.01689844 C21.7049188,4.69734766 20.7758992,3.93498047 19.7716141,3.93498047 C18.7673289,3.93498047 17.8383094,4.69734766 17.8383094,6.01689844 C17.8383094,7.33363281 18.7673289,8.096 19.7716141,8.096 Z M19.7716141,7.14690234 C19.2852039,7.14690234 19.0435282,6.70375781 19.0435282,6.01689844 C19.0435282,5.33003906 19.2852039,4.88407813 19.7716141,4.88407813 C20.2580242,4.88407813 20.4997,5.33003906 20.4997,6.01689844 C20.4997,6.70375781 20.2580242,7.14690234 19.7716141,7.14690234 Z" id="Shape" fill-rule="nonzero"></path>
                <path d="M23.7427157,8.096 C24.8063875,8.096 25.3730399,7.53408203 25.3730399,6.81587891 C25.3730399,6.15616406 24.8856102,5.80736914 24.2776102,5.60832812 C23.7740594,5.44551172 23.5398133,5.34861328 23.5398133,5.12191797 C23.5398133,4.93708008 23.6827938,4.80497656 23.9932039,4.80497656 C24.2745516,4.80497656 24.566327,4.88824219 24.855286,5.09860937 L25.355243,4.43763281 C25.017325,4.14771484 24.5306727,3.93498047 23.9564696,3.93498047 C23.0406336,3.93498047 22.4400633,4.43853125 22.4400633,5.17746875 C22.4400633,5.79391797 22.9322274,6.14975391 23.4978602,6.35775391 C23.9260848,6.51775391 24.2732899,6.62310156 24.2732899,6.88461328 C24.2732899,7.09249219 24.1218602,7.22600391 23.7718992,7.22600391 C23.4407547,7.22600391 23.0783875,7.12628906 22.7188367,6.84110547 L22.2188797,7.50208203 C22.6179813,7.888 23.2138172,8.096 23.7427157,8.096 Z" id="Path" fill-rule="nonzero"></path>
                <path d="M27.9940001,8.096 C28.4631219,8.096 28.9968784,7.936 29.400716,7.65312183 L29.0180002,6.93568286 C28.7370408,7.10273071 28.4509597,7.18977136 28.1507973,7.18977136 C27.623432,7.18977136 27.1063101,6.91520313 27.0883913,6.0140813 C27.0704725,5.10655359 27.496716,4.83839124 27.8820002,4.83839124 C28.3472844,4.83839124 28.5316091,5.14559424 28.5316091,5.56224365 L26.8823103,5.56224365 L26.8912696,6.37375659 L29.4922364,6.37375659 C29.5197567,6.25663489 29.544716,6.05183789 29.544716,5.84000024 C29.544716,4.76095959 28.9917565,3.93568286 27.8570407,3.93568286 C26.9021626,3.93568286 25.9792844,4.72512195 25.9792844,6.0140813 C25.9792844,7.33504065 26.8541626,8.096 27.9940002,8.096 L27.9940001,8.096 Z" id="Path" fill-rule="nonzero"></path>
            </g>
            <g id="Mac-OS-Conventions" stroke-width="1" fill-rule="evenodd" transform="translate(96, 23)" fill="color(display-p3 0.498 0.573 0.514)">
                <path d="M0.958923783,8 L2.0184294,8 L2.0184294,6.09084888 C2.0184294,5.57693005 1.92755122,4.69437659 1.86355122,4.18749841 L1.89555122,4.18749841 L2.3045107,5.56029541 L3.03603841,7.55135803 L3.72275423,7.55135803 L4.45428194,5.56029541 L4.87924129,4.18749841 L4.91124129,4.18749841 C4.84724129,4.69437659 4.75284285,5.57693005 4.75284285,6.09084888 L4.75284285,8 L5.82834847,8 L5.82834847,2.78591882 L4.51828206,2.78591882 L3.7029167,5.10401465 C3.59987605,5.41313647 3.51987605,5.72609595 3.42387605,6.06529895 L3.39187605,6.06529895 C3.29587605,5.72609595 3.2088354,5.41313647 3.10579475,5.10401465 L2.27251057,2.78591882 L0.958923783,2.78591882 L0.958923783,8 Z" id="Path" fill-rule="nonzero"></path>
                <path d="M8.06115261,8.09600024 C8.50723379,8.09600024 8.87331497,7.88991882 9.21443679,7.59487817 L9.24643679,7.59487817 L9.32835561,8 L10.2899424,8 L10.2899424,5.73375647 C10.2899424,4.51328418 9.7257875,3.93568262 8.71394985,3.93568262 C8.08994985,3.93568262 7.5209905,4.14528418 7.01731521,4.45312183 L7.43394985,5.22047241 C7.8217875,5.00351306 8.15394985,4.87935071 8.48419338,4.87935071 C8.91363992,4.87935071 9.08963992,5.09887842 9.11459927,5.4361626 C7.54339626,5.60320325 6.87523391,6.04608142 6.87523391,6.89920325 C6.87523391,7.56928442 7.33731509,8.09600024 8.06115273,8.09600024 L8.06115261,8.09600024 Z M8.45666567,7.17377148 C8.18146267,7.17377148 8.00417849,7.05921057 8.00417849,6.80832495 C8.00417849,6.50687842 8.27554385,6.28479724 9.11459914,6.17471606 L9.11459914,6.84544666 C8.90723379,7.05473083 8.72290908,7.17377148 8.45666555,7.17377148 L8.45666567,7.17377148 Z" id="Shape" fill-rule="nonzero"></path>
                <path d="M13.1365032,8.096 C13.6200236,8.096 14.090422,7.91295935 14.418422,7.60895935 L13.9573077,6.88416968 C13.7547468,7.04577124 13.515064,7.14689307 13.255861,7.14689307 C12.7304145,7.14689307 12.3521709,6.70304797 12.3521709,6.01760144 C12.3521709,5.32863464 12.7284957,4.88478955 13.2808204,4.88478955 C13.5115436,4.88478955 13.6747466,4.96639111 13.8238685,5.09055347 L14.3758611,4.36224353 C14.0913815,4.10624353 13.7054627,3.93568262 13.2149018,3.93568262 C12.117625,3.93568262 11.1483483,4.69664197 11.1483483,6.01760132 C11.1483483,7.33504041 12.0037062,8.096 13.1365032,8.096 L13.1365032,8.096 Z" id="Path" fill-rule="nonzero"></path>
                <path d="M19.1377799,8.09600012 C20.5460972,8.09600012 21.508016,7.07391882 21.508016,5.36895947 C21.508016,3.67200012 20.5460972,2.68991895 19.1377799,2.68991895 C17.7329829,2.68991895 16.7710641,3.66752051 16.7710641,5.36895959 C16.7710641,7.07391895 17.7329829,8.09600012 19.1377799,8.09600012 L19.1377799,8.09600012 Z M19.1377799,7.07745398 C18.4257726,7.07745398 17.9784072,6.4150481 17.9784072,5.36895959 C17.9784072,4.32639136 18.4257726,3.70846509 19.1377799,3.70846509 C19.8497872,3.70846509 20.2971526,4.32639136 20.2971526,5.36895959 C20.2971526,6.4150481 19.8497872,7.07745398 19.1377799,7.07745398 Z" id="Shape" fill-rule="nonzero"></path>
                <path d="M24.1840153,8.096 C25.42932,8.096 26.1484216,7.34579687 26.1484216,6.47987891 C26.1484216,5.74298047 25.7550739,5.32032812 25.114115,5.06151172 L24.4497263,4.79238867 C23.9946247,4.61120508 23.6535622,4.49504102 23.6535622,4.17522266 C23.6535622,3.87703711 23.9122575,3.70775 24.3186677,3.70775 C24.666322,3.70775 25.0309958,3.85264844 25.377363,4.10673047 L25.9959724,3.34028516 C25.5535446,2.9265918 24.9454841,2.68991797 24.3186677,2.68991797 C23.2305466,2.68991797 22.4615271,3.37989648 22.4615271,4.24395703 C22.4615271,4.99877344 22.9706501,5.44401758 23.5137517,5.67179297 L24.1913239,5.95409961 C24.6468142,6.14136523 24.9432028,6.24671289 24.9432028,6.57498047 C24.9432028,6.88443164 24.7024255,7.07816797 24.2103825,7.07816797 C23.7549528,7.07816797 23.246279,6.89704492 22.8768708,6.56910547 L22.2526286,7.33555078 C22.7844646,7.85228516 23.4791169,8.096 24.1840153,8.096 Z" id="Path" fill-rule="nonzero"></path>
                <path d="M31.0402601,8.096 C31.6873007,8.096 32.2332196,7.84895935 32.6831384,7.344 L32.0901864,6.64416968 C31.8469834,6.89441321 31.5253818,7.07745386 31.1221788,7.07745386 C30.3256917,7.07745386 29.7954482,6.45600732 29.7954482,5.38495935 C29.7954482,4.35135046 30.3746512,3.70846484 31.0757804,3.70846484 C31.4524224,3.70846484 31.7330645,3.83806641 31.9961052,4.08318823 L32.6175369,3.36735791 C32.2671385,2.99391882 31.7212197,2.68991882 31.0473009,2.68991882 C29.7317805,2.68991882 28.5881052,3.69247974 28.5881052,5.42239856 C28.5881052,7.180797 29.7033007,8.096 31.0402601,8.096 Z" id="Path" fill-rule="nonzero"></path>
                <path d="M35.1915858,8.096 C36.195871,8.096 37.1248905,7.33363281 37.1248905,6.01689844 C37.1248905,4.69734766 36.195871,3.93498047 35.1915858,3.93498047 C34.1873007,3.93498047 33.2582812,4.69734766 33.2582812,6.01689844 C33.2582812,7.33363281 34.1873007,8.096 35.1915858,8.096 Z M35.1915858,7.14690234 C34.7051757,7.14690234 34.4634999,6.70375781 34.4634999,6.01689844 C34.4634999,5.33003906 34.7051757,4.88407813 35.1915858,4.88407813 C35.677996,4.88407813 35.9196718,5.33003906 35.9196718,6.01689844 C35.9196718,6.70375781 35.677996,7.14690234 35.1915858,7.14690234 Z" id="Shape" fill-rule="nonzero"></path>
                <path d="M38.0293827,8 L39.2054179,8 L39.2054179,5.32248828 C39.4641132,5.07416016 39.6447265,4.9368125 39.9401562,4.9368125 C40.2797499,4.9368125 40.4330976,5.11550781 40.4330976,5.68665234 L40.4330976,8 L41.6091327,8 L41.6091327,5.536 C41.6091327,4.544 41.2411327,3.93498047 40.3780312,3.93498047 C39.8368476,3.93498047 39.4368476,4.21261328 39.1027655,4.53351172 L39.0735819,4.53351172 L38.9888476,4.03098047 L38.0293827,4.03098047 L38.0293827,8 Z" id="Path" fill-rule="nonzero"></path>
                <path d="M43.6223593,8 L44.9782304,8 L46.2732108,4.03098047 L45.1470937,4.03098047 L44.6306015,5.90453516 C44.5289687,6.29890234 44.4245194,6.70926953 44.3228866,7.12437109 L44.2908866,7.12437109 C44.1892538,6.70926953 44.0848046,6.29890234 43.9831718,5.90453516 L43.4666796,4.03098047 L42.2850116,4.03098047 L43.6223593,8 Z" id="Path" fill-rule="nonzero"></path>
                <path d="M48.7021711,8.096 C49.1712929,8.096 49.7050494,7.936 50.108887,7.65312183 L49.7261712,6.93568286 C49.4452118,7.10273071 49.1591306,7.18977136 48.8589683,7.18977136 C48.3316029,7.18977136 47.8144811,6.91520312 47.7965623,6.0140813 C47.7786435,5.10655359 48.204887,4.83839124 48.5901712,4.83839124 C49.0554554,4.83839124 49.2397801,5.14559424 49.2397801,5.56224365 L47.5904812,5.56224365 L47.5994406,6.37375659 L50.2004074,6.37375659 C50.2279276,6.25663489 50.252887,6.05183789 50.252887,5.84000024 C50.252887,4.76095959 49.6999275,3.93568286 48.5652117,3.93568286 C47.6103335,3.93568286 46.6874554,4.72512195 46.6874554,6.0140813 C46.6874554,7.33504065 47.5623335,8.096 48.7021712,8.096 L48.7021711,8.096 Z" id="Path" fill-rule="nonzero"></path>
                <path d="M51.161919,8 L52.3379542,8 L52.3379542,5.32248828 C52.5966495,5.07416016 52.7772628,4.9368125 53.0726925,4.9368125 C53.4122862,4.9368125 53.5656339,5.11550781 53.5656339,5.68665234 L53.5656339,8 L54.741669,8 L54.741669,5.536 C54.741669,4.544 54.373669,3.93498047 53.5105675,3.93498047 C52.9693839,3.93498047 52.5693839,4.21261328 52.2353018,4.53351172 L52.2061183,4.53351172 L52.1213839,4.03098047 L51.161919,4.03098047 L51.161919,8 Z" id="Path" fill-rule="nonzero"></path>
                <path d="M57.3701826,8.08895935 C57.7439391,8.08895935 58.0463375,8.01247974 58.2543375,7.92543909 L58.0639391,7.10273059 C57.9538579,7.14881177 57.8188172,7.16481177 57.6872968,7.16481177 C57.3784924,7.16481177 57.1756142,6.98560876 57.1756142,6.53504785 L57.1756142,4.95230994 L58.1263375,4.95230994 L58.1263375,4.03168262 L57.1756142,4.03168262 L57.1756142,2.81760144 L56.2015478,2.81760144 L56.0626696,4.03168262 L55.4546696,4.07616223 L55.4546696,4.95230981 L55.9967508,4.95230981 L55.9967508,6.54848682 C55.9967508,7.46816211 56.3865073,8.08895935 57.3701826,8.08895935 L57.3701826,8.08895935 Z" id="Path" fill-rule="nonzero"></path>
                <path d="M59.0017682,8 L60.1778034,8 L60.1778034,4.03098047 L59.0017682,4.03098047 L59.0017682,8 Z M59.5883776,3.45048828 C59.9828659,3.45048828 60.253069,3.20665234 60.253069,2.83289844 C60.253069,2.46196094 59.9828659,2.218125 59.5883776,2.218125 C59.1938893,2.218125 58.9236862,2.46196094 58.9236862,2.83289844 C58.9236862,3.20665234 59.1938893,3.45048828 59.5883776,3.45048828 Z" id="Shape" fill-rule="nonzero"></path>
                <path d="M63.0156003,8.096 C64.0198854,8.096 64.948905,7.33363281 64.948905,6.01689844 C64.948905,4.69734766 64.0198854,3.93498047 63.0156003,3.93498047 C62.0113151,3.93498047 61.0822956,4.69734766 61.0822956,6.01689844 C61.0822956,7.33363281 62.0113151,8.096 63.0156003,8.096 Z M63.0156003,7.14690234 C62.5291901,7.14690234 62.2875143,6.70375781 62.2875143,6.01689844 C62.2875143,5.33003906 62.5291901,4.88407813 63.0156003,4.88407813 C63.5020104,4.88407813 63.7436862,5.33003906 63.7436862,6.01689844 C63.7436862,6.70375781 63.5020104,7.14690234 63.0156003,7.14690234 Z" id="Shape" fill-rule="nonzero"></path>
                <path d="M65.8533971,8 L67.0294323,8 L67.0294323,5.32248828 C67.2881276,5.07416016 67.4687409,4.9368125 67.7641706,4.9368125 C68.1037643,4.9368125 68.257112,5.11550781 68.257112,5.68665234 L68.257112,8 L69.4331471,8 L69.4331471,5.536 C69.4331471,4.544 69.0651471,3.93498047 68.2020456,3.93498047 C67.660862,3.93498047 67.260862,4.21261328 66.92678,4.53351172 L66.8975964,4.53351172 L66.812862,4.03098047 L65.8533971,4.03098047 L65.8533971,8 Z" id="Path" fill-rule="nonzero"></path>
                <path d="M71.7033932,8.096 C72.7670651,8.096 73.3337175,7.53408203 73.3337175,6.81587891 C73.3337175,6.15616406 72.8462878,5.80736914 72.2382878,5.60832812 C71.734737,5.44551172 71.5004909,5.34861328 71.5004909,5.12191797 C71.5004909,4.93708008 71.6434714,4.80497656 71.9538815,4.80497656 C72.2352292,4.80497656 72.5270046,4.88824219 72.8159635,5.09860938 L73.3159206,4.43763281 C72.9780026,4.14771484 72.4913503,3.93498047 71.9171471,3.93498047 C71.0013112,3.93498047 70.4007409,4.43853125 70.4007409,5.17746875 C70.4007409,5.79391797 70.892905,6.14975391 71.4585378,6.35775391 C71.8867624,6.51775391 72.2339675,6.62310156 72.2339675,6.88461328 C72.2339675,7.09249219 72.0825378,7.22600391 71.7325768,7.22600391 C71.4014323,7.22600391 71.0390651,7.12628906 70.6795143,6.84110547 L70.1795573,7.50208203 C70.5786589,7.888 71.1744948,8.096 71.7033932,8.096 Z" id="Path" fill-rule="nonzero"></path>
            </g>
            <g id="Usability" stroke-width="1" fill-rule="evenodd" transform="translate(201, 107)" fill="color(display-p3 0.498 0.573 0.514)">
                <path d="M2.95126201,8.096 C4.30165312,8.096 5.01237639,7.35488562 5.01237639,5.6489668 L5.01237639,2.78591882 L3.8779926,2.78591882 L3.8779926,5.77024353 C3.8779926,6.74433203 3.53750554,7.07745386 2.95126201,7.07745386 C2.36853874,7.07745386 2.04757194,6.74433203 2.04757194,5.77024353 L2.04757194,2.78591882 L0.868708417,2.78591882 L0.868708417,5.6489668 C0.868708417,7.35488562 1.60439116,8.096 2.95126201,8.096 Z" id="Path" fill-rule="nonzero"></path>
                <path d="M7.32306925,8.096 C8.38674112,8.096 8.95339347,7.53408203 8.95339347,6.81587891 C8.95339347,6.15616406 8.46596378,5.80736914 7.85796378,5.60832812 C7.354413,5.44551172 7.1201669,5.34861328 7.1201669,5.12191797 C7.1201669,4.93708008 7.26314737,4.80497656 7.57355753,4.80497656 C7.85490518,4.80497656 8.14668058,4.88824219 8.43563956,5.09860937 L8.93559659,4.43763281 C8.59767862,4.14771484 8.11102628,3.93498047 7.53682315,3.93498047 C6.62098722,3.93498047 6.0204169,4.43853125 6.0204169,5.17746875 C6.0204169,5.79391797 6.51258097,6.14975391 7.07821378,6.35775391 C7.50643839,6.51775391 7.85364347,6.62310156 7.85364347,6.88461328 C7.85364347,7.09249219 7.70221378,7.22600391 7.35225284,7.22600391 C7.02110831,7.22600391 6.65874112,7.12628906 6.29919034,6.84110547 L5.79923331,7.50208203 C6.19833487,7.888 6.79417081,8.096 7.32306925,8.096 Z" id="Path" fill-rule="nonzero"></path>
                <path d="M10.7935567,8.09600024 C11.2396379,8.09600024 11.605719,7.88991882 11.9468409,7.59487817 L11.9788409,7.59487817 L12.0607597,8 L13.0223465,8 L13.0223465,5.73375647 C13.0223465,4.51328418 12.4581916,3.93568262 11.4463539,3.93568262 C10.8223539,3.93568262 10.2533946,4.14528418 9.74971927,4.45312183 L10.1663539,5.22047241 C10.5541916,5.00351306 10.8863539,4.87935071 11.2165974,4.87935071 C11.646044,4.87935071 11.822044,5.09887842 11.8470033,5.4361626 C10.2758003,5.60320325 9.60763797,6.04608142 9.60763797,6.89920325 C9.60763797,7.56928442 10.0697191,8.09600024 10.7935568,8.09600024 L10.7935567,8.09600024 Z M11.1890697,7.17377148 C10.9138667,7.17377148 10.7365826,7.05921057 10.7365826,6.80832495 C10.7365826,6.50687842 11.0079479,6.28479724 11.8470032,6.17471606 L11.8470032,6.84544666 C11.6396379,7.05473083 11.4553131,7.17377148 11.1890696,7.17377148 L11.1890697,7.17377148 Z" id="Shape" fill-rule="nonzero"></path>
                <path d="M16.193761,8.096 C17.0530267,8.096 17.8633939,7.31481641 17.8633939,5.94630664 C17.8633939,4.72934766 17.2685169,3.93498047 16.3076185,3.93498047 C15.9330872,3.93498047 15.558556,4.10432812 15.2574329,4.37441016 L15.2866165,3.76461328 L15.2866165,2.39538672 L14.1105814,2.39538672 L14.1105814,8 L15.0304954,8 L15.1284134,7.57644922 L15.157597,7.57644922 C15.4728626,7.91718359 15.8389446,8.096 16.193761,8.096 Z M15.919722,7.13371875 C15.7211907,7.13371875 15.4973118,7.06882031 15.2866165,6.88257422 L15.2866165,5.25285547 C15.5161282,5.00542578 15.7268235,4.89726172 15.9686204,4.89726172 C16.438011,4.89726172 16.6581751,5.25375391 16.6581751,5.96608203 C16.6581751,6.78759375 16.329847,7.13371875 15.919722,7.13371875 Z" id="Shape" fill-rule="nonzero"></path>
                <path d="M18.7914368,8 L19.967472,8 L19.967472,4.03098047 L18.7914368,4.03098047 L18.7914368,8 Z M19.3780462,3.45048828 C19.7725345,3.45048828 20.0427376,3.20665234 20.0427376,2.83289844 C20.0427376,2.46196094 19.7725345,2.218125 19.3780462,2.218125 C18.9835579,2.218125 18.7133548,2.46196094 18.7133548,2.83289844 C18.7133548,3.20665234 18.9835579,3.45048828 19.3780462,3.45048828 Z" id="Shape" fill-rule="nonzero"></path>
                <path d="M22.1859357,8.08895959 C22.4512125,8.08895959 22.6470501,8.048 22.7769689,7.99104065 L22.6345705,7.12385242 C22.5705705,7.13985242 22.5385705,7.13985242 22.4940909,7.13985242 C22.3945705,7.13985242 22.2771314,7.0633728 22.2771314,6.80897437 L22.2771314,2.39679736 L21.1017881,2.39679736 L21.1017881,6.76097437 C21.1017881,7.56544666 21.3776258,8.08895959 22.1859357,8.08895959 L22.1859357,8.08895959 Z" id="Path" fill-rule="nonzero"></path>
                <path d="M23.4914475,8 L24.6674827,8 L24.6674827,4.03098047 L23.4914475,4.03098047 L23.4914475,8 Z M24.0780569,3.45048828 C24.4725452,3.45048828 24.7427483,3.20665234 24.7427483,2.83289844 C24.7427483,2.46196094 24.4725452,2.218125 24.0780569,2.218125 C23.6835686,2.218125 23.4133655,2.46196094 23.4133655,2.83289844 C23.4133655,3.20665234 23.6835686,3.45048828 24.0780569,3.45048828 Z" id="Shape" fill-rule="nonzero"></path>
                <path d="M27.333629,8.08895935 C27.7073855,8.08895935 28.0097839,8.01247974 28.2177839,7.92543909 L28.0273855,7.10273059 C27.9173043,7.14881177 27.7822637,7.16481177 27.6507433,7.16481177 C27.3419388,7.16481177 27.1390607,6.98560876 27.1390607,6.53504785 L27.1390607,4.95230994 L28.0897839,4.95230994 L28.0897839,4.03168262 L27.1390607,4.03168262 L27.1390607,2.81760144 L26.1649943,2.81760144 L26.0261161,4.03168262 L25.4181161,4.07616223 L25.4181161,4.95230981 L25.9601973,4.95230981 L25.9601973,6.54848682 C25.9601973,7.46816211 26.3499537,8.08895935 27.333629,8.08895935 L27.333629,8.08895935 Z" id="Path" fill-rule="nonzero"></path>
                <path d="M29.4107616,9.55187891 C30.343617,9.55187891 30.7671678,9.03712305 31.1437381,8.04302344 L32.521535,4.03098047 L31.3954178,4.03098047 L30.913742,5.73878125 C30.8149256,6.11151562 30.7264764,6.48796484 30.6380272,6.86351563 L30.6060272,6.86351563 C30.501578,6.47478125 30.4074959,6.09833203 30.2926795,5.73878125 L29.7253709,4.03098047 L28.543703,4.03098047 L30.0749686,7.89824609 L30.015703,8.10522656 C29.9131717,8.41282031 29.7090076,8.62633203 29.3212928,8.62633203 C29.2384764,8.62633203 29.1763944,8.62069922 29.0568436,8.58869922 L28.8450076,9.45869531 C29.0069256,9.51987891 29.1641092,9.55187891 29.4107616,9.55187891 Z" id="Path" fill-rule="nonzero"></path>
            </g>
            <g id="Own-Taste" stroke-width="1" fill-rule="evenodd" transform="translate(44, 205)" fill="color(display-p3 0.498 0.573 0.514)">
                <path d="M3.05806527,8.09600012 C4.46638253,8.09600012 5.42830135,7.07391882 5.42830135,5.36895947 C5.42830135,3.67200012 4.46638253,2.68991895 3.05806527,2.68991895 C1.65326827,2.68991895 0.691349447,3.66752051 0.691349447,5.36895959 C0.691349447,7.07391895 1.65326827,8.09600012 3.05806527,8.09600012 L3.05806527,8.09600012 Z M3.05806527,7.07745398 C2.34605794,7.07745398 1.89869259,6.4150481 1.89869259,5.36895959 C1.89869259,4.32639136 2.34605794,3.70846509 3.05806527,3.70846509 C3.77007259,3.70846509 4.21743795,4.32639136 4.21743795,5.36895959 C4.21743795,6.4150481 3.77007259,7.07745398 3.05806527,7.07745398 Z" id="Shape" fill-rule="nonzero"></path>
                <path d="M7.08158574,8.00000012 L8.45948991,8.00000012 L8.78781462,6.41790417 C8.85885527,6.0569447 8.92285527,5.71006641 8.97789592,5.23390417 L9.00989592,5.23390417 C9.07389592,5.71006641 9.13789592,6.0569447 9.20893657,6.41790417 L9.54622075,8.00000012 L10.9596452,8.00000012 L11.9103685,4.03168274 L10.8153426,4.03168274 L10.4409367,5.87009595 C10.369896,6.24897412 10.3308554,6.62785229 10.263335,7.064974 L10.231335,7.064974 C10.1548553,6.62785229 10.0873349,6.24897412 9.99485515,5.87009595 L9.56157097,4.03168274 L8.48509868,4.03168274 L8.0678145,5.87009595 C7.97885502,6.24001477 7.91485502,6.62785242 7.84733464,7.06497412 L7.81533464,7.06497412 C7.7548549,6.62785242 7.70877372,6.24897424 7.63773308,5.87009607 L7.26332719,4.03168274 L6.08638249,4.03168274 L7.08158549,8.00000012 L7.08158574,8.00000012 Z" id="Path" fill-rule="nonzero"></path>
                <path d="M12.7198798,8 L13.895915,8 L13.895915,5.32248828 C14.1546103,5.07416016 14.3352236,4.9368125 14.6306532,4.9368125 C14.970247,4.9368125 15.1235946,5.11550781 15.1235946,5.68665234 L15.1235946,8 L16.2996298,8 L16.2996298,5.536 C16.2996298,4.544 15.9316298,3.93498047 15.0685282,3.93498047 C14.5273446,3.93498047 14.1273446,4.21261328 13.7932626,4.53351172 L13.764079,4.53351172 L13.6793446,4.03098047 L12.7198798,4.03098047 L12.7198798,8 Z" id="Path" fill-rule="nonzero"></path>
                <polygon id="Path" fill-rule="nonzero" points="20.2143943 8 21.3932579 8 21.3932579 3.77598535 22.8291029 3.77598535 22.8291029 2.78591895 18.7785495 2.78591895 18.7785495 3.77598535 20.2143946 3.77598535 20.2143946 8"></polygon>
                <path d="M24.1380606,8.09600024 C24.5841417,8.09600024 24.9502229,7.88991882 25.2913447,7.59487817 L25.3233447,7.59487817 L25.4052636,8 L26.3668503,8 L26.3668503,5.73375647 C26.3668503,4.51328418 25.8026954,3.93568262 24.7908578,3.93568262 C24.1668578,3.93568262 23.5978984,4.14528418 23.0942231,4.45312183 L23.5108578,5.22047241 C23.8986954,5.00351306 24.2308578,4.87935071 24.5611013,4.87935071 C24.9905479,4.87935071 25.1665479,5.09887842 25.1915072,5.4361626 C23.6203042,5.60320325 22.9521419,6.04608142 22.9521419,6.89920325 C22.9521419,7.56928442 23.414223,8.09600024 24.1380607,8.09600024 L24.1380606,8.09600024 Z M24.5335736,7.17377148 C24.2583706,7.17377148 24.0810864,7.05921057 24.0810864,6.80832495 C24.0810864,6.50687842 24.3524518,6.28479724 25.1915071,6.17471606 L25.1915071,6.84544666 C24.9841417,7.05473083 24.799817,7.17377148 24.5335735,7.17377148 L24.5335736,7.17377148 Z" id="Shape" fill-rule="nonzero"></path>
                <path d="M28.6279407,8.096 C29.6916126,8.096 30.2582649,7.53408203 30.2582649,6.81587891 C30.2582649,6.15616406 29.7708352,5.80736914 29.1628352,5.60832813 C28.6592845,5.44551172 28.4250384,5.34861328 28.4250384,5.12191797 C28.4250384,4.93708008 28.5680188,4.80497656 28.878429,4.80497656 C29.1597766,4.80497656 29.451552,4.88824219 29.740511,5.09860937 L30.240468,4.43763281 C29.9025501,4.14771484 29.4158977,3.93498047 28.8416946,3.93498047 C27.9258587,3.93498047 27.3252884,4.43853125 27.3252884,5.17746875 C27.3252884,5.79391797 27.8174524,6.14975391 28.3830852,6.35775391 C28.8113098,6.51775391 29.1585149,6.62310156 29.1585149,6.88461328 C29.1585149,7.09249219 29.0070852,7.22600391 28.6571243,7.22600391 C28.3259798,7.22600391 27.9636126,7.12628906 27.6040618,6.84110547 L27.1041048,7.50208203 C27.5032063,7.888 28.0990423,8.096 28.6279407,8.096 Z" id="Path" fill-rule="nonzero"></path>
                <path d="M32.4689816,8.08895935 C32.8427381,8.08895935 33.1451365,8.01247974 33.3531365,7.92543909 L33.1627381,7.10273059 C33.0526569,7.14881177 32.9176162,7.16481177 32.7860959,7.16481177 C32.4772914,7.16481177 32.2744132,6.98560876 32.2744132,6.53504785 L32.2744132,4.95230994 L33.2251365,4.95230994 L33.2251365,4.03168262 L32.2744132,4.03168262 L32.2744132,2.81760144 L31.3003468,2.81760144 L31.1614687,4.03168262 L30.5534687,4.07616223 L30.5534687,4.95230981 L31.0955498,4.95230981 L31.0955498,6.54848682 C31.0955498,7.46816211 31.4853063,8.08895935 32.4689816,8.08895935 L32.4689816,8.08895935 Z" id="Path" fill-rule="nonzero"></path>
                <path d="M35.7360157,8.096 C36.2051376,8.096 36.738894,7.936 37.1427317,7.65312183 L36.7600159,6.93568286 C36.4790565,7.10273071 36.1929753,7.18977136 35.892813,7.18977136 C35.3654476,7.18977136 34.8483258,6.91520313 34.830407,6.0140813 C34.8124881,5.10655359 35.2387317,4.83839124 35.6240159,4.83839124 C36.0893,4.83839124 36.2736247,5.14559424 36.2736247,5.56224365 L34.6243259,5.56224365 L34.6332853,6.37375659 L37.2342521,6.37375659 C37.2617723,6.25663489 37.2867317,6.05183789 37.2867317,5.84000024 C37.2867317,4.76095959 36.7337722,3.93568286 35.5990564,3.93568286 C34.6441782,3.93568286 33.7213,4.72512195 33.7213,6.0140813 C33.7213,7.33504065 34.5961782,8.096 35.7360159,8.096 L35.7360157,8.096 Z" id="Path" fill-rule="nonzero"></path>
            </g>
            <g id="Apple’s-Design" stroke-width="1" fill-rule="evenodd" transform="translate(177, 205)" fill="color(display-p3 0.498 0.573 0.514)">
                <path d="M0.10912536,8 L1.31294836,8 L1.99999633,5.35935059 C2.14559789,4.8387085 2.28415881,4.22878967 2.41023998,3.67614758 L2.44223998,3.67614758 C2.5808009,4.22078967 2.71936181,4.8387085 2.86496337,5.35935059 L3.54849108,8 L4.79327343,8 L3.15646899,2.78591882 L1.74593017,2.78591882 L0.10912536,8 L0.10912536,8 Z M1.18880102,6.7587085 L3.69759802,6.7587085 L3.69759802,5.84256091 L1.18880102,5.84256091 L1.18880102,6.7587085 Z" id="Shape" fill-rule="nonzero"></path>
                <path d="M5.35894711,9.47277734 L6.53498227,9.47277734 L6.53498227,8.30963281 L6.49543148,7.68191797 C6.77959555,7.94636719 7.10049398,8.096 7.4421268,8.096 C8.30139242,8.096 9.11175961,7.31481641 9.11175961,5.95289844 C9.11175961,4.72934766 8.52347445,3.93498047 7.56257602,3.93498047 C7.14849398,3.93498047 6.74382016,4.14387891 6.43232992,4.42151172 L6.40314633,4.42151172 L6.31841195,4.03098047 L5.35894711,4.03098047 L5.35894711,9.47277734 Z M7.16808773,7.13371875 C6.96955648,7.13371875 6.74849398,7.06882031 6.53498227,6.88257422 L6.53498227,5.25285547 C6.76731039,5.00542578 6.9751893,4.89726172 7.21698617,4.89726172 C7.6863768,4.89726172 7.90654086,5.25375391 7.90654086,5.96608203 C7.90654086,6.78759375 7.57821273,7.13371875 7.16808773,7.13371875 Z" id="Shape" fill-rule="nonzero"></path>
                <path d="M10.042619,9.47277734 L11.2186541,9.47277734 L11.2186541,8.30963281 L11.1791034,7.68191797 C11.4632674,7.94636719 11.7841659,8.096 12.1257987,8.096 C12.9850643,8.096 13.7954315,7.31481641 13.7954315,5.95289844 C13.7954315,4.72934766 13.2071463,3.93498047 12.2462479,3.93498047 C11.8321659,3.93498047 11.427492,4.14387891 11.1160018,4.42151172 L11.0868182,4.42151172 L11.0020838,4.03098047 L10.042619,4.03098047 L10.042619,9.47277734 Z M11.8517596,7.13371875 C11.6532284,7.13371875 11.4321659,7.06882031 11.2186541,6.88257422 L11.2186541,5.25285547 C11.4509823,5.00542578 11.6588612,4.89726172 11.900658,4.89726172 C12.3700487,4.89726172 12.5902127,5.25375391 12.5902127,5.96608203 C12.5902127,6.78759375 12.2618846,7.13371875 11.8517596,7.13371875 Z" id="Shape" fill-rule="nonzero"></path>
                <path d="M15.8097312,8.08895959 C16.0750079,8.08895959 16.2708455,8.048 16.4007644,7.99104065 L16.2583659,7.12385242 C16.1943659,7.13985242 16.1623659,7.13985242 16.1178863,7.13985242 C16.0183659,7.13985242 15.9009268,7.0633728 15.9009268,6.80897437 L15.9009268,2.39679736 L14.7255836,2.39679736 L14.7255836,6.76097437 C14.7255836,7.56544666 15.0014212,8.08895959 15.8097312,8.08895959 L15.8097312,8.08895959 Z" id="Path" fill-rule="nonzero"></path>
                <path d="M18.8966094,8.096 C19.3657312,8.096 19.8994877,7.936 20.3033253,7.65312183 L19.9206095,6.93568286 C19.6396502,7.10273071 19.353569,7.18977136 19.0534066,7.18977136 C18.5260413,7.18977136 18.0089195,6.91520313 17.9910006,6.0140813 C17.9730818,5.10655359 18.3993253,4.83839124 18.7846095,4.83839124 C19.2498937,4.83839124 19.4342184,5.14559424 19.4342184,5.56224365 L17.7849196,5.56224365 L17.7938789,6.37375659 L20.3948457,6.37375659 C20.422366,6.25663489 20.4473253,6.05183789 20.4473253,5.84000024 C20.4473253,4.76095959 19.8943659,3.93568286 18.7596501,3.93568286 C17.8047719,3.93568286 16.8818937,4.72512195 16.8818937,6.0140813 C16.8818937,7.33504065 17.7567719,8.096 18.8966095,8.096 L18.8966094,8.096 Z" id="Path" fill-rule="nonzero"></path>
                <path d="M21.5853339,5.18178906 C22.3516582,4.80432031 22.7234941,4.22538281 22.7234941,3.47044531 C22.7234941,2.81048828 22.4636582,2.42636719 21.9712519,2.42636719 C21.613498,2.42636719 21.3564785,2.68057031 21.3564785,3.08069141 C21.3564785,3.44126172 21.6323144,3.66628125 21.9712519,3.66628125 C22.1331699,3.66628125 22.2838222,3.59095508 22.403373,3.49495508 L22.0164961,2.96024219 L22.0484355,3.65028125 C22.0484355,4.12464844 21.8065175,4.43338281 21.325498,4.66864844 L21.5853339,5.18178906 Z" id="Path" fill-rule="nonzero"></path>
                <path d="M24.76333,8.096 C25.8270019,8.096 26.3936543,7.53408203 26.3936543,6.81587891 C26.3936543,6.15616406 25.9062246,5.80736914 25.2982246,5.60832813 C24.7946738,5.44551172 24.5604277,5.34861328 24.5604277,5.12191797 C24.5604277,4.93708008 24.7034082,4.80497656 25.0138183,4.80497656 C25.295166,4.80497656 25.5869414,4.88824219 25.8759004,5.09860937 L26.3758574,4.43763281 C26.0379394,4.14771484 25.5512871,3.93498047 24.9770839,3.93498047 C24.061248,3.93498047 23.4606777,4.43853125 23.4606777,5.17746875 C23.4606777,5.79391797 23.9528418,6.14975391 24.5184746,6.35775391 C24.9466992,6.51775391 25.2939043,6.62310156 25.2939043,6.88461328 C25.2939043,7.09249219 25.1424746,7.22600391 24.7925136,7.22600391 C24.4613691,7.22600391 24.0990019,7.12628906 23.7394511,6.84110547 L23.2394941,7.50208203 C23.6385957,7.888 24.2344316,8.096 24.76333,8.096 Z" id="Path" fill-rule="nonzero"></path>
                <path d="M29.0304596,8.00000012 L30.5725333,8.00000012 C32.0976551,8.00000012 33.1222898,7.16319556 33.1222898,5.36895947 C33.1222898,3.57824365 32.0976551,2.78591895 30.5066145,2.78591895 L29.0304596,2.78591895 L29.0304596,8.00000012 L29.0304596,8.00000012 Z M30.2093231,7.05089319 L30.2093231,3.735026 L30.4336551,3.735026 C31.3194264,3.735026 31.9149467,4.12479724 31.9149467,5.36895959 C31.9149467,6.61664233 31.3194264,7.05089319 30.4336551,7.05089319 L30.2093231,7.05089319 L30.2093231,7.05089319 Z" id="Shape" fill-rule="nonzero"></path>
                <path d="M35.8907695,8.096 C36.3598913,8.096 36.8936478,7.936 37.2974854,7.65312183 L36.9147696,6.93568286 C36.6338103,7.10273071 36.3477291,7.18977136 36.0475667,7.18977136 C35.5202014,7.18977136 35.0030795,6.91520313 34.9851607,6.0140813 C34.9672419,5.10655359 35.3934854,4.83839124 35.7787696,4.83839124 C36.2440538,4.83839124 36.4283785,5.14559424 36.4283785,5.56224365 L34.7790797,5.56224365 L34.788039,6.37375659 L37.3890058,6.37375659 C37.4165261,6.25663489 37.4414854,6.05183789 37.4414854,5.84000024 C37.4414854,4.76095959 36.888526,3.93568286 35.7538101,3.93568286 C34.798932,3.93568286 33.8760538,4.72512195 33.8760538,6.0140813 C33.8760538,7.33504065 34.750932,8.096 35.8907696,8.096 L35.8907695,8.096 Z" id="Path" fill-rule="nonzero"></path>
                <path d="M39.5233729,8.096 C40.5870448,8.096 41.1536971,7.53408203 41.1536971,6.81587891 C41.1536971,6.15616406 40.6662675,5.80736914 40.0582675,5.60832813 C39.5547167,5.44551172 39.3204706,5.34861328 39.3204706,5.12191797 C39.3204706,4.93708008 39.4634511,4.80497656 39.7738612,4.80497656 C40.0552089,4.80497656 40.3469843,4.88824219 40.6359432,5.09860937 L41.1359003,4.43763281 C40.7979823,4.14771484 40.31133,3.93498047 39.7371268,3.93498047 C38.8212909,3.93498047 38.2207206,4.43853125 38.2207206,5.17746875 C38.2207206,5.79391797 38.7128846,6.14975391 39.2785175,6.35775391 C39.7067421,6.51775391 40.0539471,6.62310156 40.0539471,6.88461328 C40.0539471,7.09249219 39.9025175,7.22600391 39.5525565,7.22600391 C39.221412,7.22600391 38.8590448,7.12628906 38.499494,6.84110547 L37.999537,7.50208203 C38.3986386,7.888 38.9944745,8.096 39.5233729,8.096 Z" id="Path" fill-rule="nonzero"></path>
                <path d="M41.9932909,8 L43.1693261,8 L43.1693261,4.03098047 L41.9932909,4.03098047 L41.9932909,8 Z M42.5799003,3.45048828 C42.9743886,3.45048828 43.2445917,3.20665234 43.2445917,2.83289844 C43.2445917,2.46196094 42.9743886,2.218125 42.5799003,2.218125 C42.185412,2.218125 41.9152089,2.46196094 41.9152089,2.83289844 C41.9152089,3.20665234 42.185412,3.45048828 42.5799003,3.45048828 Z" id="Shape" fill-rule="nonzero"></path>
                <path d="M45.7209198,9.68742969 C47.0829589,9.68742969 47.9423456,9.08698047 47.9423456,8.26241016 C47.9423456,7.55175781 47.4001425,7.25339063 46.4268983,7.25339063 L45.783244,7.25339063 C45.3494471,7.25339063 45.1894471,7.15841016 45.1894471,6.96269531 C45.1894471,6.82253125 45.2307948,6.752 45.3276932,6.66732617 C45.5036932,6.72 45.6674081,6.74444922 45.8123065,6.74444922 C46.6801425,6.74444922 47.3747948,6.32383594 47.3747948,5.424 C47.3747948,5.22226367 47.3184061,5.05905859 47.2140175,4.91979297 L47.2140175,4.88779297 L47.8783456,4.88779297 L47.8783456,4.03098047 L46.4269589,4.03098047 C46.2490409,3.96979687 46.0334901,3.93498047 45.8123065,3.93498047 C44.9576542,3.93498047 44.1707167,4.41869531 44.1707167,5.37126563 C44.1707167,5.83526563 44.4239003,6.20608203 44.7034511,6.40089844 L44.7034511,6.43289844 C44.4511659,6.61081641 44.2610839,6.89036719 44.2610839,7.17644922 C44.2610839,7.504 44.4182675,7.712 44.6234511,7.85036719 L44.6234511,7.88236719 C44.2582675,8.08563281 44.0606346,8.35193945 44.0606346,8.68134766 C44.0606346,9.38726562 44.7976542,9.68742969 45.7209198,9.68742969 Z M45.8123065,6.03265625 C45.5027948,6.03265625 45.2704667,5.80596094 45.2704667,5.37126563 C45.2704667,4.9469375 45.4999784,4.725875 45.8123065,4.725875 C46.1246346,4.725875 46.3541464,4.9469375 46.3541464,5.37126563 C46.3541464,5.80596094 46.1218182,6.03265625 45.8123065,6.03265625 Z M45.9083065,8.94926953 C45.3767128,8.94926953 45.0285487,8.79502344 45.0285487,8.49396094 C45.0285487,8.35098047 45.0962636,8.22873437 45.2429589,8.10457031 C45.3718573,8.13938672 45.5271229,8.15538672 45.799244,8.15538672 L46.2112264,8.15538672 C46.6016971,8.15538672 46.8162284,8.21273437 46.8162284,8.46298047 C46.8162284,8.73767578 46.4379823,8.94926953 45.9083065,8.94926953 Z" id="Shape" fill-rule="nonzero"></path>
                <path d="M48.6794081,8 L49.8554432,8 L49.8554432,5.32248828 C50.1141386,5.07416016 50.2947518,4.9368125 50.5901815,4.9368125 C50.9297753,4.9368125 51.0831229,5.11550781 51.0831229,5.68665234 L51.0831229,8 L52.2591581,8 L52.2591581,5.536 C52.2591581,4.544 51.8911581,3.93498047 51.0280565,3.93498047 C50.4868729,3.93498047 50.0868729,4.21261328 49.7527909,4.53351172 L49.7236073,4.53351172 L49.6388729,4.03098047 L48.6794081,4.03098047 L48.6794081,8 Z" id="Path" fill-rule="nonzero"></path>
            </g>
            <line x1="162" y1="112" x2="104" y2="112" id="Path-2" stroke="color(display-p3 0.498 0.573 0.514)" stroke-width="1"></line>
            <line x1="129" y1="61.5" x2="90" y2="181" id="Path-2" stroke="color(display-p3 0.498 0.573 0.514)" stroke-width="1"></line>
            <line x1="173.5" y1="133" x2="107" y2="190" id="Path-2" stroke="color(display-p3 0.498 0.573 0.514)" stroke-width="1"></line>
            <line x1="158.5" y1="133" x2="92.5" y2="190" id="Path-2" stroke="color(display-p3 0.498 0.573 0.514)" stroke-width="1" transform="translate(125.5, 161.5) scale(-1, 1) translate(-125.5, -161.5)"></line>
            <line x1="176" y1="61.5" x2="137" y2="181" id="Path-2" stroke="color(display-p3 0.498 0.573 0.514)" stroke-width="1" transform="translate(156.5, 121.25) scale(-1, 1) translate(-156.5, -121.25)"></line>
            <path d="M149.485009,217 C144.138626,216.059322 138.628999,215.56789 133,215.56789 C127.497301,215.56789 122.108676,216.037517 116.875112,216.93736" id="Oval-2" stroke="color(display-p3 0.498 0.573 0.514)" stroke-width="1" transform="translate(133.1801, 216.2839) scale(1, -1) translate(-133.1801, -216.2839)"></path>
            <path d="M43.5001115,145.407182 C45.5876858,156.336382 49.7872203,166.55511 55.676848,175.657723" id="Oval-2" stroke="color(display-p3 0.498 0.573 0.514)" stroke-width="1"></path>
            <path d="M209.75702,176.52143 C215.985026,167.141484 220.40439,156.543701 222.542482,145.182533" id="Oval-2" stroke="color(display-p3 0.498 0.573 0.514)" stroke-width="1"></path>
            <path d="M206.657931,78.1077108 C197.966141,66.6099276 186.433564,57.2258557 173.051572,50.9087352" id="Oval-2" stroke="color(display-p3 0.498 0.573 0.514)" stroke-width="1"></path>
            <path d="M93.0192816,50.875325 C79.374434,57.3023576 67.6486798,66.9166503 58.8914275,78.7091568" id="Oval-2" stroke="color(display-p3 0.498 0.573 0.514)" stroke-width="1"></path>
            <polygon id="Path" fill="color(display-p3 0.498 0.573 0.514)" fill-rule="evenodd" transform="translate(93, 51) rotate(-28) translate(-93, -51)" points="95 51 91 47 91 55"></polygon>
            <polygon id="Path" fill="color(display-p3 0.498 0.573 0.514)" fill-rule="evenodd" transform="translate(59, 79) rotate(125) translate(-59, -79)" points="61 79 57 75 57 83"></polygon>
            <polygon id="Path" fill="color(display-p3 0.498 0.573 0.514)" fill-rule="evenodd" transform="translate(43.6865, 146) rotate(260) translate(-43.6865, -146)" points="45.6865274 146 41.6865274 142 41.6865274 150"></polygon>
            <polygon id="Path" fill="color(display-p3 0.498 0.573 0.514)" fill-rule="evenodd" transform="translate(55.6865, 176) rotate(423) translate(-55.6865, -176)" points="57.6865274 176 53.6865274 172 53.6865274 180"></polygon>
            <polygon id="Path" fill="color(display-p3 0.498 0.573 0.514)" fill-rule="evenodd" transform="translate(89.6865, 181) rotate(471) translate(-89.6865, -181)" points="91.6865274 181 87.6865274 177 87.6865274 185"></polygon>
            <polygon id="Path" fill="color(display-p3 0.498 0.573 0.514)" fill-rule="evenodd" transform="translate(91.8716, 132.5672) rotate(579) translate(-91.8716, -132.5672)" points="93.8715735 132.567225 89.8715735 128.567225 89.8715735 136.567225"></polygon>
            <polygon id="Path" fill="color(display-p3 0.498 0.573 0.514)" fill-rule="evenodd" transform="translate(103.8716, 112) rotate(540) translate(-103.8716, -112)" points="105.871573 112 101.871573 108 101.871573 116"></polygon>
            <polygon id="Path" fill="color(display-p3 0.498 0.573 0.514)" fill-rule="evenodd" transform="translate(128.8716, 62) rotate(649) translate(-128.8716, -62)" points="130.871573 62 126.871573 58 126.871573 66"></polygon>
            <polygon id="Path" fill="color(display-p3 0.498 0.573 0.514)" fill-rule="evenodd" transform="translate(106.8716, 190) rotate(501) translate(-106.8716, -190)" points="108.871573 190 104.871573 186 104.871573 194"></polygon>
            <polygon id="Path" fill="color(display-p3 0.498 0.573 0.514)" fill-rule="evenodd" transform="translate(176.3183, 181) scale(-1, 1) rotate(471) translate(-176.3183, -181)" points="178.318257 181 174.318257 177 174.318257 185"></polygon>
            <polygon id="Path" fill="color(display-p3 0.498 0.573 0.514)" fill-rule="evenodd" transform="translate(174.1332, 132.5672) scale(-1, 1) rotate(579) translate(-174.1332, -132.5672)" points="176.133211 132.567225 172.133211 128.567225 172.133211 136.567225"></polygon>
            <polygon id="Path" fill="color(display-p3 0.498 0.573 0.514)" fill-rule="evenodd" transform="translate(162.1332, 112) scale(-1, 1) rotate(540) translate(-162.1332, -112)" points="164.133211 112 160.133211 108 160.133211 116"></polygon>
            <polygon id="Path" fill="color(display-p3 0.498 0.573 0.514)" fill-rule="evenodd" transform="translate(137.1332, 62) scale(-1, 1) rotate(649) translate(-137.1332, -62)" points="139.133211 62 135.133211 58 135.133211 66"></polygon>
            <polygon id="Path" fill="color(display-p3 0.498 0.573 0.514)" fill-rule="evenodd" transform="translate(159.1332, 190) scale(-1, 1) rotate(501) translate(-159.1332, -190)" points="161.133211 190 157.133211 186 157.133211 194"></polygon>
            <polygon id="Path" fill="color(display-p3 0.498 0.573 0.514)" fill-rule="evenodd" transform="translate(116.6865, 215.6865) rotate(549) translate(-116.6865, -215.6865)" points="118.686527 215.686527 114.686527 211.686527 114.686527 219.686527"></polygon>
            <polygon id="Path" fill="color(display-p3 0.498 0.573 0.514)" fill-rule="evenodd" transform="translate(173.3731, 51) scale(-1, 1) rotate(-28) translate(-173.3731, -51)" points="175.373055 51 171.373055 47 171.373055 55"></polygon>
            <polygon id="Path" fill="color(display-p3 0.498 0.573 0.514)" fill-rule="evenodd" transform="translate(207.3731, 79) scale(-1, 1) rotate(125) translate(-207.3731, -79)" points="209.373055 79 205.373055 75 205.373055 83"></polygon>
            <polygon id="Path" fill="color(display-p3 0.498 0.573 0.514)" fill-rule="evenodd" transform="translate(222.5284, 146) scale(-1, 1) rotate(258) translate(-222.5284, -146)" points="224.528414 146 220.528414 142 220.528414 150"></polygon>
            <polygon id="Path" fill="color(display-p3 0.498 0.573 0.514)" fill-rule="evenodd" transform="translate(210.472, 176) scale(-1, 1) rotate(423) translate(-210.472, -176)" points="212.472007 176 208.472007 172 208.472007 180"></polygon>
            <polygon id="Path" fill="color(display-p3 0.498 0.573 0.514)" fill-rule="evenodd" transform="translate(149.6865, 215.6865) scale(-1, 1) rotate(549) translate(-149.6865, -215.6865)" points="151.686527 215.686527 147.686527 211.686527 147.686527 219.686527"></polygon>
        </g>
    </g>
</svg>