<?xml version="1.0" encoding="UTF-8"?>
<svg width="476px" height="209px" viewBox="0 0 476 209" version="1.1" xmlns="http://www.w3.org/2000/svg" xmlns:xlink="http://www.w3.org/1999/xlink">
    <title>Information Hierarchy</title>
    <defs>
        <path d="M0,0 L476,0 L476,209 L0,209 L0,0 Z" id="path-1"></path>
        <path d="M0,0 L476,0 L476,672 L0,672 L0,0 Z" id="path-2"></path>
        <path d="M0,0 L476,0 L476,59 L0,59 L0,0 Z" id="path-3"></path>
        <path d="M12.819426,0 L239.180574,1.81366828e-15 C243.638168,-1.0537935e-15 245.254599,0.464128056 246.884229,1.33566352 C248.513858,2.20719898 249.792801,3.48614185 250.664336,5.11577148 C251.535872,6.74540111 252,8.3618323 252,12.819426 L252,141.180574 C252,145.638168 251.535872,147.254599 250.664336,148.884229 C249.792801,150.513858 248.513858,151.792801 246.884229,152.664336 C245.254599,153.535872 243.638168,154 239.180574,154 L12.819426,154 C8.3618323,154 6.74540111,153.535872 5.11577148,152.664336 C3.48614185,151.792801 2.20719898,150.513858 1.33566352,148.884229 C0.464128056,147.254599 0,145.638168 0,141.180574 L0,12.819426 C0,8.3618323 0.464128056,6.74540111 1.33566352,5.11577148 C2.20719898,3.48614185 3.48614185,2.20719898 5.11577148,1.33566352 C6.74540111,0.464128056 8.3618323,0 12.819426,0 Z" id="path-4"></path>
        <path d="M12.819426,0 L239.180574,1.81366828e-15 C243.638168,-1.0537935e-15 245.254599,0.464128056 246.884229,1.33566352 C248.513858,2.20719898 249.792801,3.48614185 250.664336,5.11577148 C251.535872,6.74540111 252,8.3618323 252,12.819426 L252,141.180574 C252,145.638168 251.535872,147.254599 250.664336,148.884229 C249.792801,150.513858 248.513858,151.792801 246.884229,152.664336 C245.254599,153.535872 243.638168,154 239.180574,154 L12.819426,154 C8.3618323,154 6.74540111,153.535872 5.11577148,152.664336 C3.48614185,151.792801 2.20719898,150.513858 1.33566352,148.884229 C0.464128056,147.254599 0,145.638168 0,141.180574 L0,12.819426 C0,8.3618323 0.464128056,6.74540111 1.33566352,5.11577148 C2.20719898,3.48614185 3.48614185,2.20719898 5.11577148,1.33566352 C6.74540111,0.464128056 8.3618323,0 12.819426,0 Z" id="path-5"></path>
        <path d="M0,0 L252,0 L252,20 L0,20 L0,0 Z" id="path-7"></path>
        <path d="M7.89473684,14 C2.76315789,14 0,10.8659932 0,7 C0,3.11111111 2.76315789,0 7.89473684,0 L34.1052632,0 C39.2368421,0 42,3.13400675 42,7 C42,10.8888889 39.2368421,14 34.1052632,14 L7.89473684,14 Z" id="path-8"></path>
        <filter x="-21.4%" y="-64.3%" width="142.9%" height="228.6%" filterUnits="objectBoundingBox" id="filter-9">
            <feOffset dx="0" dy="0" in="SourceAlpha" result="shadowOffsetOuter1"></feOffset>
            <feGaussianBlur stdDeviation="3" in="shadowOffsetOuter1" result="shadowBlurOuter1"></feGaussianBlur>
            <feComposite in="shadowBlurOuter1" in2="SourceAlpha" operator="out" result="shadowBlurOuter1"></feComposite>
            <feColorMatrix values="0 0 0 0 0   0 0 0 0 0   0 0 0 0 0  0 0 0 0.05 0" type="matrix" in="shadowBlurOuter1" result="shadowMatrixOuter1"></feColorMatrix>
            <feOffset dx="0" dy="0" in="SourceAlpha" result="shadowOffsetOuter2"></feOffset>
            <feGaussianBlur stdDeviation="0.5" in="shadowOffsetOuter2" result="shadowBlurOuter2"></feGaussianBlur>
            <feComposite in="shadowBlurOuter2" in2="SourceAlpha" operator="out" result="shadowBlurOuter2"></feComposite>
            <feColorMatrix values="0 0 0 0 0   0 0 0 0 0   0 0 0 0 0  0 0 0 0.15 0" type="matrix" in="shadowBlurOuter2" result="shadowMatrixOuter2"></feColorMatrix>
            <feMerge>
                <feMergeNode in="shadowMatrixOuter1"></feMergeNode>
                <feMergeNode in="shadowMatrixOuter2"></feMergeNode>
            </feMerge>
        </filter>
        <filter x="-14.3%" y="-42.9%" width="128.6%" height="185.7%" filterUnits="objectBoundingBox" id="filter-10">
            <feOffset dx="0" dy="0" in="SourceAlpha" result="shadowOffsetInner1"></feOffset>
            <feComposite in="shadowOffsetInner1" in2="SourceAlpha" operator="arithmetic" k2="-1" k3="1" result="shadowInnerInner1"></feComposite>
            <feColorMatrix values="0 0 0 0 1   0 0 0 0 1   0 0 0 0 1  0 0 0 1 0" type="matrix" in="shadowInnerInner1"></feColorMatrix>
        </filter>
        <path d="M229.894737,17 C224.763158,17 222,13.8659932 222,10 C222,6.11111111 224.763158,3 229.894737,3 L241.105263,3 C246.236842,3 249,6.13400675 249,10 C249,13.8888889 246.236842,17 241.105263,17 L229.894737,17 Z" id="path-11"></path>
        <filter x="-33.3%" y="-64.3%" width="166.7%" height="228.6%" filterUnits="objectBoundingBox" id="filter-12">
            <feOffset dx="0" dy="0" in="SourceAlpha" result="shadowOffsetOuter1"></feOffset>
            <feGaussianBlur stdDeviation="3" in="shadowOffsetOuter1" result="shadowBlurOuter1"></feGaussianBlur>
            <feComposite in="shadowBlurOuter1" in2="SourceAlpha" operator="out" result="shadowBlurOuter1"></feComposite>
            <feColorMatrix values="0 0 0 0 0   0 0 0 0 0   0 0 0 0 0  0 0 0 0.05 0" type="matrix" in="shadowBlurOuter1" result="shadowMatrixOuter1"></feColorMatrix>
            <feOffset dx="0" dy="0" in="SourceAlpha" result="shadowOffsetOuter2"></feOffset>
            <feGaussianBlur stdDeviation="0.5" in="shadowOffsetOuter2" result="shadowBlurOuter2"></feGaussianBlur>
            <feComposite in="shadowBlurOuter2" in2="SourceAlpha" operator="out" result="shadowBlurOuter2"></feComposite>
            <feColorMatrix values="0 0 0 0 0   0 0 0 0 0   0 0 0 0 0  0 0 0 0.15 0" type="matrix" in="shadowBlurOuter2" result="shadowMatrixOuter2"></feColorMatrix>
            <feMerge>
                <feMergeNode in="shadowMatrixOuter1"></feMergeNode>
                <feMergeNode in="shadowMatrixOuter2"></feMergeNode>
            </feMerge>
        </filter>
        <filter x="-22.2%" y="-42.9%" width="144.4%" height="185.7%" filterUnits="objectBoundingBox" id="filter-13">
            <feOffset dx="0" dy="0" in="SourceAlpha" result="shadowOffsetInner1"></feOffset>
            <feComposite in="shadowOffsetInner1" in2="SourceAlpha" operator="arithmetic" k2="-1" k3="1" result="shadowInnerInner1"></feComposite>
            <feColorMatrix values="0 0 0 0 1   0 0 0 0 1   0 0 0 0 1  0 0 0 1 0" type="matrix" in="shadowInnerInner1"></feColorMatrix>
        </filter>
        <path d="M200.894737,17 C195.763158,17 193,13.8659932 193,10 C193,6.11111111 195.763158,3 200.894737,3 L212.105263,3 C217.236842,3 220,6.13400675 220,10 C220,13.8888889 217.236842,17 212.105263,17 L200.894737,17 Z" id="path-14"></path>
        <filter x="-33.3%" y="-64.3%" width="166.7%" height="228.6%" filterUnits="objectBoundingBox" id="filter-15">
            <feOffset dx="0" dy="0" in="SourceAlpha" result="shadowOffsetOuter1"></feOffset>
            <feGaussianBlur stdDeviation="3" in="shadowOffsetOuter1" result="shadowBlurOuter1"></feGaussianBlur>
            <feComposite in="shadowBlurOuter1" in2="SourceAlpha" operator="out" result="shadowBlurOuter1"></feComposite>
            <feColorMatrix values="0 0 0 0 0   0 0 0 0 0   0 0 0 0 0  0 0 0 0.05 0" type="matrix" in="shadowBlurOuter1" result="shadowMatrixOuter1"></feColorMatrix>
            <feOffset dx="0" dy="0" in="SourceAlpha" result="shadowOffsetOuter2"></feOffset>
            <feGaussianBlur stdDeviation="0.5" in="shadowOffsetOuter2" result="shadowBlurOuter2"></feGaussianBlur>
            <feComposite in="shadowBlurOuter2" in2="SourceAlpha" operator="out" result="shadowBlurOuter2"></feComposite>
            <feColorMatrix values="0 0 0 0 0   0 0 0 0 0   0 0 0 0 0  0 0 0 0.15 0" type="matrix" in="shadowBlurOuter2" result="shadowMatrixOuter2"></feColorMatrix>
            <feMerge>
                <feMergeNode in="shadowMatrixOuter1"></feMergeNode>
                <feMergeNode in="shadowMatrixOuter2"></feMergeNode>
            </feMerge>
        </filter>
        <filter x="-22.2%" y="-42.9%" width="144.4%" height="185.7%" filterUnits="objectBoundingBox" id="filter-16">
            <feOffset dx="0" dy="0" in="SourceAlpha" result="shadowOffsetInner1"></feOffset>
            <feComposite in="shadowOffsetInner1" in2="SourceAlpha" operator="arithmetic" k2="-1" k3="1" result="shadowInnerInner1"></feComposite>
            <feColorMatrix values="0 0 0 0 1   0 0 0 0 1   0 0 0 0 1  0 0 0 1 0" type="matrix" in="shadowInnerInner1"></feColorMatrix>
        </filter>
        <circle id="path-17" cx="10" cy="10" r="3"></circle>
        <filter x="-150.0%" y="-150.0%" width="400.0%" height="400.0%" filterUnits="objectBoundingBox" id="filter-18">
            <feOffset dx="0" dy="0" in="SourceAlpha" result="shadowOffsetOuter1"></feOffset>
            <feGaussianBlur stdDeviation="3" in="shadowOffsetOuter1" result="shadowBlurOuter1"></feGaussianBlur>
            <feComposite in="shadowBlurOuter1" in2="SourceAlpha" operator="out" result="shadowBlurOuter1"></feComposite>
            <feColorMatrix values="0 0 0 0 0   0 0 0 0 0   0 0 0 0 0  0 0 0 0.05 0" type="matrix" in="shadowBlurOuter1" result="shadowMatrixOuter1"></feColorMatrix>
            <feOffset dx="0" dy="0" in="SourceAlpha" result="shadowOffsetOuter2"></feOffset>
            <feGaussianBlur stdDeviation="0.5" in="shadowOffsetOuter2" result="shadowBlurOuter2"></feGaussianBlur>
            <feComposite in="shadowBlurOuter2" in2="SourceAlpha" operator="out" result="shadowBlurOuter2"></feComposite>
            <feColorMatrix values="0 0 0 0 0   0 0 0 0 0   0 0 0 0 0  0 0 0 0.15 0" type="matrix" in="shadowBlurOuter2" result="shadowMatrixOuter2"></feColorMatrix>
            <feMerge>
                <feMergeNode in="shadowMatrixOuter1"></feMergeNode>
                <feMergeNode in="shadowMatrixOuter2"></feMergeNode>
            </feMerge>
        </filter>
        <filter x="-100.0%" y="-100.0%" width="300.0%" height="300.0%" filterUnits="objectBoundingBox" id="filter-19">
            <feOffset dx="0" dy="0" in="SourceAlpha" result="shadowOffsetInner1"></feOffset>
            <feComposite in="shadowOffsetInner1" in2="SourceAlpha" operator="arithmetic" k2="-1" k3="1" result="shadowInnerInner1"></feComposite>
            <feColorMatrix values="0 0 0 0 1   0 0 0 0 1   0 0 0 0 1  0 0 0 1 0" type="matrix" in="shadowInnerInner1"></feColorMatrix>
        </filter>
        <circle id="path-20" cx="19" cy="10" r="3"></circle>
        <filter x="-150.0%" y="-150.0%" width="400.0%" height="400.0%" filterUnits="objectBoundingBox" id="filter-21">
            <feOffset dx="0" dy="0" in="SourceAlpha" result="shadowOffsetOuter1"></feOffset>
            <feGaussianBlur stdDeviation="3" in="shadowOffsetOuter1" result="shadowBlurOuter1"></feGaussianBlur>
            <feComposite in="shadowBlurOuter1" in2="SourceAlpha" operator="out" result="shadowBlurOuter1"></feComposite>
            <feColorMatrix values="0 0 0 0 0   0 0 0 0 0   0 0 0 0 0  0 0 0 0.05 0" type="matrix" in="shadowBlurOuter1" result="shadowMatrixOuter1"></feColorMatrix>
            <feOffset dx="0" dy="0" in="SourceAlpha" result="shadowOffsetOuter2"></feOffset>
            <feGaussianBlur stdDeviation="0.5" in="shadowOffsetOuter2" result="shadowBlurOuter2"></feGaussianBlur>
            <feComposite in="shadowBlurOuter2" in2="SourceAlpha" operator="out" result="shadowBlurOuter2"></feComposite>
            <feColorMatrix values="0 0 0 0 0   0 0 0 0 0   0 0 0 0 0  0 0 0 0.15 0" type="matrix" in="shadowBlurOuter2" result="shadowMatrixOuter2"></feColorMatrix>
            <feMerge>
                <feMergeNode in="shadowMatrixOuter1"></feMergeNode>
                <feMergeNode in="shadowMatrixOuter2"></feMergeNode>
            </feMerge>
        </filter>
        <filter x="-100.0%" y="-100.0%" width="300.0%" height="300.0%" filterUnits="objectBoundingBox" id="filter-22">
            <feOffset dx="0" dy="0" in="SourceAlpha" result="shadowOffsetInner1"></feOffset>
            <feComposite in="shadowOffsetInner1" in2="SourceAlpha" operator="arithmetic" k2="-1" k3="1" result="shadowInnerInner1"></feComposite>
            <feColorMatrix values="0 0 0 0 1   0 0 0 0 1   0 0 0 0 1  0 0 0 1 0" type="matrix" in="shadowInnerInner1"></feColorMatrix>
        </filter>
        <circle id="path-23" cx="28" cy="10" r="3"></circle>
        <filter x="-150.0%" y="-150.0%" width="400.0%" height="400.0%" filterUnits="objectBoundingBox" id="filter-24">
            <feOffset dx="0" dy="0" in="SourceAlpha" result="shadowOffsetOuter1"></feOffset>
            <feGaussianBlur stdDeviation="3" in="shadowOffsetOuter1" result="shadowBlurOuter1"></feGaussianBlur>
            <feComposite in="shadowBlurOuter1" in2="SourceAlpha" operator="out" result="shadowBlurOuter1"></feComposite>
            <feColorMatrix values="0 0 0 0 0   0 0 0 0 0   0 0 0 0 0  0 0 0 0.05 0" type="matrix" in="shadowBlurOuter1" result="shadowMatrixOuter1"></feColorMatrix>
            <feOffset dx="0" dy="0" in="SourceAlpha" result="shadowOffsetOuter2"></feOffset>
            <feGaussianBlur stdDeviation="0.5" in="shadowOffsetOuter2" result="shadowBlurOuter2"></feGaussianBlur>
            <feComposite in="shadowBlurOuter2" in2="SourceAlpha" operator="out" result="shadowBlurOuter2"></feComposite>
            <feColorMatrix values="0 0 0 0 0   0 0 0 0 0   0 0 0 0 0  0 0 0 0.15 0" type="matrix" in="shadowBlurOuter2" result="shadowMatrixOuter2"></feColorMatrix>
            <feMerge>
                <feMergeNode in="shadowMatrixOuter1"></feMergeNode>
                <feMergeNode in="shadowMatrixOuter2"></feMergeNode>
            </feMerge>
        </filter>
        <filter x="-100.0%" y="-100.0%" width="300.0%" height="300.0%" filterUnits="objectBoundingBox" id="filter-25">
            <feOffset dx="0" dy="0" in="SourceAlpha" result="shadowOffsetInner1"></feOffset>
            <feComposite in="shadowOffsetInner1" in2="SourceAlpha" operator="arithmetic" k2="-1" k3="1" result="shadowInnerInner1"></feComposite>
            <feColorMatrix values="0 0 0 0 1   0 0 0 0 1   0 0 0 0 1  0 0 0 1 0" type="matrix" in="shadowInnerInner1"></feColorMatrix>
        </filter>
        <circle id="path-26" cx="88" cy="10" r="7"></circle>
        <filter x="-64.3%" y="-64.3%" width="228.6%" height="228.6%" filterUnits="objectBoundingBox" id="filter-27">
            <feOffset dx="0" dy="0" in="SourceAlpha" result="shadowOffsetOuter1"></feOffset>
            <feGaussianBlur stdDeviation="3" in="shadowOffsetOuter1" result="shadowBlurOuter1"></feGaussianBlur>
            <feComposite in="shadowBlurOuter1" in2="SourceAlpha" operator="out" result="shadowBlurOuter1"></feComposite>
            <feColorMatrix values="0 0 0 0 0   0 0 0 0 0   0 0 0 0 0  0 0 0 0.05 0" type="matrix" in="shadowBlurOuter1" result="shadowMatrixOuter1"></feColorMatrix>
            <feOffset dx="0" dy="0" in="SourceAlpha" result="shadowOffsetOuter2"></feOffset>
            <feGaussianBlur stdDeviation="0.5" in="shadowOffsetOuter2" result="shadowBlurOuter2"></feGaussianBlur>
            <feComposite in="shadowBlurOuter2" in2="SourceAlpha" operator="out" result="shadowBlurOuter2"></feComposite>
            <feColorMatrix values="0 0 0 0 0   0 0 0 0 0   0 0 0 0 0  0 0 0 0.15 0" type="matrix" in="shadowBlurOuter2" result="shadowMatrixOuter2"></feColorMatrix>
            <feMerge>
                <feMergeNode in="shadowMatrixOuter1"></feMergeNode>
                <feMergeNode in="shadowMatrixOuter2"></feMergeNode>
            </feMerge>
        </filter>
        <filter x="-42.9%" y="-42.9%" width="185.7%" height="185.7%" filterUnits="objectBoundingBox" id="filter-28">
            <feOffset dx="0" dy="0" in="SourceAlpha" result="shadowOffsetInner1"></feOffset>
            <feComposite in="shadowOffsetInner1" in2="SourceAlpha" operator="arithmetic" k2="-1" k3="1" result="shadowInnerInner1"></feComposite>
            <feColorMatrix values="0 0 0 0 1   0 0 0 0 1   0 0 0 0 1  0 0 0 1 0" type="matrix" in="shadowInnerInner1"></feColorMatrix>
        </filter>
        <path d="M0,0 L146,0 L146,130 L0,130 L0,0 Z" id="path-29"></path>
        <path d="M0,0 L252,0 L252,20 L0,20 L0,0 Z" id="path-30"></path>
        <path d="M229.894737,17 C224.763158,17 222,13.8659932 222,10 C222,6.11111111 224.763158,3 229.894737,3 L241.105263,3 C246.236842,3 249,6.13400675 249,10 C249,13.8888889 246.236842,17 241.105263,17 L229.894737,17 Z" id="path-31"></path>
        <filter x="-33.3%" y="-64.3%" width="166.7%" height="228.6%" filterUnits="objectBoundingBox" id="filter-32">
            <feOffset dx="0" dy="0" in="SourceAlpha" result="shadowOffsetOuter1"></feOffset>
            <feGaussianBlur stdDeviation="3" in="shadowOffsetOuter1" result="shadowBlurOuter1"></feGaussianBlur>
            <feComposite in="shadowBlurOuter1" in2="SourceAlpha" operator="out" result="shadowBlurOuter1"></feComposite>
            <feColorMatrix values="0 0 0 0 0   0 0 0 0 0   0 0 0 0 0  0 0 0 0.05 0" type="matrix" in="shadowBlurOuter1" result="shadowMatrixOuter1"></feColorMatrix>
            <feOffset dx="0" dy="0" in="SourceAlpha" result="shadowOffsetOuter2"></feOffset>
            <feGaussianBlur stdDeviation="0.5" in="shadowOffsetOuter2" result="shadowBlurOuter2"></feGaussianBlur>
            <feComposite in="shadowBlurOuter2" in2="SourceAlpha" operator="out" result="shadowBlurOuter2"></feComposite>
            <feColorMatrix values="0 0 0 0 0   0 0 0 0 0   0 0 0 0 0  0 0 0 0.15 0" type="matrix" in="shadowBlurOuter2" result="shadowMatrixOuter2"></feColorMatrix>
            <feMerge>
                <feMergeNode in="shadowMatrixOuter1"></feMergeNode>
                <feMergeNode in="shadowMatrixOuter2"></feMergeNode>
            </feMerge>
        </filter>
        <filter x="-22.2%" y="-42.9%" width="144.4%" height="185.7%" filterUnits="objectBoundingBox" id="filter-33">
            <feOffset dx="0" dy="0" in="SourceAlpha" result="shadowOffsetInner1"></feOffset>
            <feComposite in="shadowOffsetInner1" in2="SourceAlpha" operator="arithmetic" k2="-1" k3="1" result="shadowInnerInner1"></feComposite>
            <feColorMatrix values="0 0 0 0 1   0 0 0 0 1   0 0 0 0 1  0 0 0 1 0" type="matrix" in="shadowInnerInner1"></feColorMatrix>
        </filter>
        <circle id="path-34" cx="88" cy="10" r="7"></circle>
        <filter x="-64.3%" y="-64.3%" width="228.6%" height="228.6%" filterUnits="objectBoundingBox" id="filter-35">
            <feOffset dx="0" dy="0" in="SourceAlpha" result="shadowOffsetOuter1"></feOffset>
            <feGaussianBlur stdDeviation="3" in="shadowOffsetOuter1" result="shadowBlurOuter1"></feGaussianBlur>
            <feComposite in="shadowBlurOuter1" in2="SourceAlpha" operator="out" result="shadowBlurOuter1"></feComposite>
            <feColorMatrix values="0 0 0 0 0   0 0 0 0 0   0 0 0 0 0  0 0 0 0.05 0" type="matrix" in="shadowBlurOuter1" result="shadowMatrixOuter1"></feColorMatrix>
            <feOffset dx="0" dy="0" in="SourceAlpha" result="shadowOffsetOuter2"></feOffset>
            <feGaussianBlur stdDeviation="0.5" in="shadowOffsetOuter2" result="shadowBlurOuter2"></feGaussianBlur>
            <feComposite in="shadowBlurOuter2" in2="SourceAlpha" operator="out" result="shadowBlurOuter2"></feComposite>
            <feColorMatrix values="0 0 0 0 0   0 0 0 0 0   0 0 0 0 0  0 0 0 0.15 0" type="matrix" in="shadowBlurOuter2" result="shadowMatrixOuter2"></feColorMatrix>
            <feMerge>
                <feMergeNode in="shadowMatrixOuter1"></feMergeNode>
                <feMergeNode in="shadowMatrixOuter2"></feMergeNode>
            </feMerge>
        </filter>
        <filter x="-42.9%" y="-42.9%" width="185.7%" height="185.7%" filterUnits="objectBoundingBox" id="filter-36">
            <feOffset dx="0" dy="0" in="SourceAlpha" result="shadowOffsetInner1"></feOffset>
            <feComposite in="shadowOffsetInner1" in2="SourceAlpha" operator="arithmetic" k2="-1" k3="1" result="shadowInnerInner1"></feComposite>
            <feColorMatrix values="0 0 0 0 1   0 0 0 0 1   0 0 0 0 1  0 0 0 1 0" type="matrix" in="shadowInnerInner1"></feColorMatrix>
        </filter>
        <circle id="path-37" cx="10" cy="10" r="7"></circle>
        <filter x="-64.3%" y="-64.3%" width="228.6%" height="228.6%" filterUnits="objectBoundingBox" id="filter-38">
            <feOffset dx="0" dy="0" in="SourceAlpha" result="shadowOffsetOuter1"></feOffset>
            <feGaussianBlur stdDeviation="3" in="shadowOffsetOuter1" result="shadowBlurOuter1"></feGaussianBlur>
            <feComposite in="shadowBlurOuter1" in2="SourceAlpha" operator="out" result="shadowBlurOuter1"></feComposite>
            <feColorMatrix values="0 0 0 0 0   0 0 0 0 0   0 0 0 0 0  0 0 0 0.05 0" type="matrix" in="shadowBlurOuter1" result="shadowMatrixOuter1"></feColorMatrix>
            <feOffset dx="0" dy="0" in="SourceAlpha" result="shadowOffsetOuter2"></feOffset>
            <feGaussianBlur stdDeviation="0.5" in="shadowOffsetOuter2" result="shadowBlurOuter2"></feGaussianBlur>
            <feComposite in="shadowBlurOuter2" in2="SourceAlpha" operator="out" result="shadowBlurOuter2"></feComposite>
            <feColorMatrix values="0 0 0 0 0   0 0 0 0 0   0 0 0 0 0  0 0 0 0.15 0" type="matrix" in="shadowBlurOuter2" result="shadowMatrixOuter2"></feColorMatrix>
            <feMerge>
                <feMergeNode in="shadowMatrixOuter1"></feMergeNode>
                <feMergeNode in="shadowMatrixOuter2"></feMergeNode>
            </feMerge>
        </filter>
        <filter x="-42.9%" y="-42.9%" width="185.7%" height="185.7%" filterUnits="objectBoundingBox" id="filter-39">
            <feOffset dx="0" dy="0" in="SourceAlpha" result="shadowOffsetInner1"></feOffset>
            <feComposite in="shadowOffsetInner1" in2="SourceAlpha" operator="arithmetic" k2="-1" k3="1" result="shadowInnerInner1"></feComposite>
            <feColorMatrix values="0 0 0 0 1   0 0 0 0 1   0 0 0 0 1  0 0 0 1 0" type="matrix" in="shadowInnerInner1"></feColorMatrix>
        </filter>
        <circle id="path-40" cx="72" cy="10" r="7"></circle>
        <filter x="-64.3%" y="-64.3%" width="228.6%" height="228.6%" filterUnits="objectBoundingBox" id="filter-41">
            <feOffset dx="0" dy="0" in="SourceAlpha" result="shadowOffsetOuter1"></feOffset>
            <feGaussianBlur stdDeviation="3" in="shadowOffsetOuter1" result="shadowBlurOuter1"></feGaussianBlur>
            <feComposite in="shadowBlurOuter1" in2="SourceAlpha" operator="out" result="shadowBlurOuter1"></feComposite>
            <feColorMatrix values="0 0 0 0 0   0 0 0 0 0   0 0 0 0 0  0 0 0 0.05 0" type="matrix" in="shadowBlurOuter1" result="shadowMatrixOuter1"></feColorMatrix>
            <feOffset dx="0" dy="0" in="SourceAlpha" result="shadowOffsetOuter2"></feOffset>
            <feGaussianBlur stdDeviation="0.5" in="shadowOffsetOuter2" result="shadowBlurOuter2"></feGaussianBlur>
            <feComposite in="shadowBlurOuter2" in2="SourceAlpha" operator="out" result="shadowBlurOuter2"></feComposite>
            <feColorMatrix values="0 0 0 0 0   0 0 0 0 0   0 0 0 0 0  0 0 0 0.15 0" type="matrix" in="shadowBlurOuter2" result="shadowMatrixOuter2"></feColorMatrix>
            <feMerge>
                <feMergeNode in="shadowMatrixOuter1"></feMergeNode>
                <feMergeNode in="shadowMatrixOuter2"></feMergeNode>
            </feMerge>
        </filter>
        <filter x="-42.9%" y="-42.9%" width="185.7%" height="185.7%" filterUnits="objectBoundingBox" id="filter-42">
            <feOffset dx="0" dy="0" in="SourceAlpha" result="shadowOffsetInner1"></feOffset>
            <feComposite in="shadowOffsetInner1" in2="SourceAlpha" operator="arithmetic" k2="-1" k3="1" result="shadowInnerInner1"></feComposite>
            <feColorMatrix values="0 0 0 0 1   0 0 0 0 1   0 0 0 0 1  0 0 0 1 0" type="matrix" in="shadowInnerInner1"></feColorMatrix>
        </filter>
    </defs>
    <g id="Information-Hierarchy" stroke="none" fill="none" xlink:href="#path-1">
        <use fill="color(display-p3 0.992 0.976 0.933)" fill-rule="evenodd" xlink:href="#path-1"></use>
        <use fill-opacity="0.06" fill="color(display-p3 0.494 0.549 0.514)" fill-rule="evenodd" xlink:href="#path-1"></use>
        <g id="Stack" opacity="0.0299999993" xlink:href="#path-2" stroke="color(display-p3 0.494 0.549 0.514)" stroke-width="1">
            <line x1="476" y1="196" x2="0" y2="196" id="Path"></line>
            <line x1="476" y1="182" x2="0" y2="182" id="Path"></line>
            <line x1="476" y1="168" x2="0" y2="168" id="Path"></line>
            <line x1="476" y1="154" x2="0" y2="154" id="Path"></line>
            <line x1="476" y1="140" x2="0" y2="140" id="Path"></line>
            <line x1="476" y1="126" x2="0" y2="126" id="Path"></line>
            <line x1="476" y1="112" x2="0" y2="112" id="Path"></line>
            <line x1="476" y1="98" x2="0" y2="98" id="Path"></line>
            <line x1="476" y1="84" x2="0" y2="84" id="Path"></line>
            <line x1="476" y1="70" x2="0" y2="70" id="Path"></line>
            <line x1="476" y1="56" x2="0" y2="56" id="Path"></line>
            <line x1="476" y1="42" x2="0" y2="42" id="Path"></line>
            <line x1="476" y1="28" x2="0" y2="28" id="Path"></line>
            <line x1="476" y1="14" x2="0" y2="14" id="Path"></line>
        </g>
        <g id="Stack" opacity="0.0299999993" xlink:href="#path-3" stroke="color(display-p3 0.494 0.549 0.514)" stroke-width="1">
            <line x1="462" y1="-510.5" x2="462" y2="569.5" id="Path"></line>
            <line x1="448" y1="-510.5" x2="448" y2="569.5" id="Path"></line>
            <line x1="434" y1="-510.5" x2="434" y2="569.5" id="Path"></line>
            <line x1="420" y1="-510.5" x2="420" y2="569.5" id="Path"></line>
            <line x1="406" y1="-510.5" x2="406" y2="569.5" id="Path"></line>
            <line x1="392" y1="-510.5" x2="392" y2="569.5" id="Path"></line>
            <line x1="378" y1="-510.5" x2="378" y2="569.5" id="Path"></line>
            <line x1="364" y1="-510.5" x2="364" y2="569.5" id="Path"></line>
            <line x1="350" y1="-510.5" x2="350" y2="569.5" id="Path"></line>
            <line x1="336" y1="-510.5" x2="336" y2="569.5" id="Path"></line>
            <line x1="322" y1="-510.5" x2="322" y2="569.5" id="Path"></line>
            <line x1="308" y1="-510.5" x2="308" y2="569.5" id="Path"></line>
            <line x1="294" y1="-510.5" x2="294" y2="569.5" id="Path"></line>
            <line x1="280" y1="-510.5" x2="280" y2="569.5" id="Path"></line>
            <line x1="266" y1="-510.5" x2="266" y2="569.5" id="Path"></line>
            <line x1="252" y1="-510.5" x2="252" y2="569.5" id="Path"></line>
            <line x1="238" y1="-510.5" x2="238" y2="569.5" id="Path"></line>
            <line x1="224" y1="-510.5" x2="224" y2="569.5" id="Path"></line>
            <line x1="210" y1="-510.5" x2="210" y2="569.5" id="Path"></line>
            <line x1="196" y1="-510.5" x2="196" y2="569.5" id="Path"></line>
            <line x1="182" y1="-510.5" x2="182" y2="569.5" id="Path"></line>
            <line x1="168" y1="-510.5" x2="168" y2="569.5" id="Path"></line>
            <line x1="154" y1="-510.5" x2="154" y2="569.5" id="Path"></line>
            <line x1="140" y1="-510.5" x2="140" y2="569.5" id="Path"></line>
            <line x1="126" y1="-510.5" x2="126" y2="569.5" id="Path"></line>
            <line x1="112" y1="-510.5" x2="112" y2="569.5" id="Path"></line>
            <line x1="98" y1="-510.5" x2="98" y2="569.5" id="Path"></line>
            <line x1="84" y1="-510.5" x2="84" y2="569.5" id="Path"></line>
            <line x1="70" y1="-510.5" x2="70" y2="569.5" id="Path"></line>
            <line x1="56" y1="-510.5" x2="56" y2="569.5" id="Path"></line>
            <line x1="42" y1="-510.5" x2="42" y2="569.5" id="Path"></line>
            <line x1="28" y1="-510.5" x2="28" y2="569.5" id="Path"></line>
            <line x1="14" y1="-510.5" x2="14" y2="569.5" id="Path"></line>
        </g>
        <g transform="translate(112, 28)" xlink:href="#path-4">
            <use fill="color(display-p3 0.867 0.875 0.827)" fill-rule="evenodd" xlink:href="#path-4"></use>
            <g id="Path-2-+-Path-2-+-Path-2-+-Path-2-+-Frame-2-+-Frame-2-+-Rectangle-+-Rectangle-+-Rectangle-+-Rectangle-+-Rectangle-+-Rectangle-+-Rectangle-+-Rectangle-+-Rectangle-+-Rectangle-+-Rectangle-+-Rectangle-+-Rectangle-+-Rectangle-+-Frame-2-+-Path-2-Mask" stroke-width="1" fill-rule="evenodd">
                <mask id="mask-6" fill="white">
                    <use xlink:href="#path-5"></use>
                </mask>
                <g id="Mask"></g>
                <line x1="0" y1="45" x2="97.5" y2="45" id="Path-2" stroke="color(display-p3 0.498 0.573 0.514)" opacity="0.25" mask="url(#mask-6)"></line>
                <line x1="0" y1="70" x2="97.5" y2="70" id="Path-2" stroke="color(display-p3 0.498 0.573 0.514)" opacity="0.25" mask="url(#mask-6)"></line>
                <line x1="0" y1="95" x2="97.5" y2="95" id="Path-2" stroke="color(display-p3 0.498 0.573 0.514)" opacity="0.25" mask="url(#mask-6)"></line>
                <line x1="0" y1="120" x2="97.5" y2="120" id="Path-2" stroke="color(display-p3 0.498 0.573 0.514)" opacity="0.25" mask="url(#mask-6)"></line>
                <g id="Frame-2" mask="url(#mask-6)" xlink:href="#path-7">
                    <use stroke="color(display-p3 0.729 0.761 0.710)" stroke-width="1" fill="color(display-p3 0.812 0.831 0.780)" fill-rule="evenodd" xlink:href="#path-7"></use>
                    <g id="Group" stroke-width="1" fill-rule="evenodd" transform="translate(37, 3)">
                        <g id="Path">
                            <use fill="black" fill-opacity="1" filter="url(#filter-9)" xlink:href="#path-8"></use>
                            <use fill-opacity="0.15" fill="color(display-p3 0.498 0.573 0.514)" fill-rule="evenodd" xlink:href="#path-8"></use>
                            <use fill="black" fill-opacity="1" filter="url(#filter-10)" xlink:href="#path-8"></use>
                            <path stroke="color(display-p3 0.498 0.573 0.514)" stroke-width="1" d="M34.1052632,0.5 C36.4196115,0.5 38.2296219,1.16397906 39.4804941,2.27308578 C40.8148836,3.45624445 41.5,5.13868435 41.5,7 C41.5,8.86965984 40.8173087,10.5498372 39.4864945,11.7298257 C38.2353302,12.8391915 36.4231677,13.5 34.1052632,13.5 L7.89473684,13.5 C5.58038851,13.5 3.7703781,12.8360209 2.51950586,11.7269142 C1.18511638,10.5437555 0.5,8.86131565 0.5,7 C0.5,5.13034016 1.1826913,3.45016281 2.51350546,2.27017426 C3.76466981,1.16080853 5.57683226,0.5 7.89473684,0.5 L34.1052632,0.5 Z" stroke-linejoin="square"></path>
                        </g>
                        <polyline id="Path-2" stroke="color(display-p3 0.498 0.573 0.514)" stroke-linecap="round" stroke-linejoin="round" points="33 6 35 8 37 6"></polyline>
                        <g id="Profile" transform="translate(5, 2)" fill="color(display-p3 0.498 0.573 0.514)" fill-rule="nonzero">
                            <path d="M0.538500977,7 L1.56999609,7 L1.56999609,5.45203271 L2.13392676,5.45203271 C3.10071289,5.45203271 3.91942578,4.97765796 3.91942578,3.90531982 C3.91942578,2.79674951 3.10978418,2.43767822 2.10592676,2.43767822 L0.538500977,2.43767822 L0.538500977,7 Z M1.56999609,4.63310791 L1.56999609,3.25660303 L2.04499805,3.25660303 C2.60310791,3.25660303 2.9085376,3.42785352 2.9085376,3.90531982 C2.9085376,4.38032178 2.6401792,4.63310791 2.07299805,4.63310791 L1.56999609,4.63310791 Z" id="Shape"></path>
                            <path d="M4.71499902,7 L5.74402979,7 L5.74402979,4.9874624 C5.92928027,4.51403271 6.2471377,4.34524658 6.50899512,4.34524658 C6.65806641,4.34524658 6.73960205,4.35924658 6.85820898,4.38724658 L7.05510107,3.51310791 C6.95463672,3.46864355 6.83933325,3.44310791 6.64081592,3.44310791 C6.28426196,3.44310791 5.90458374,3.6703584 5.65420898,4.13403662 L5.62867334,4.13403662 L5.55453076,3.52710791 L4.71499902,3.52710791 L4.71499902,7 Z" id="Path"></path>
                            <path d="M9.01042188,7.084 C9.88917139,7.084 10.7020635,6.41692871 10.7020635,5.26478613 C10.7020635,4.1101792 9.88917139,3.44310791 9.01042188,3.44310791 C8.13167236,3.44310791 7.31878027,4.1101792 7.31878027,5.26478613 C7.31878027,6.41692871 8.13167236,7.084 9.01042188,7.084 Z M9.01042188,6.25353955 C8.58481299,6.25353955 8.37334668,5.86578809 8.37334668,5.26478613 C8.37334668,4.66378418 8.58481299,4.27356836 9.01042188,4.27356836 C9.43603076,4.27356836 9.64749707,4.66378418 9.64749707,5.26478613 C9.64749707,5.86578809 9.43603076,6.25353955 9.01042188,6.25353955 Z" id="Shape"></path>
                            <path d="M11.6368506,7 L12.6658813,7 L12.6658813,3.31742578 C12.6658813,2.96338916 12.8108101,2.81935254 13.061918,2.81935254 C13.1763823,2.81935254 13.2920789,2.83581689 13.4102397,2.86874561 L13.6071318,2.13549902 C13.4555962,2.07703467 13.2043823,2.01196338 12.9144189,2.01196338 C11.9769932,2.01196338 11.6368506,2.61412231 11.6368506,3.347104 L11.6368506,7 Z M11.1237793,4.33449707 L13.2908467,4.33449707 L13.2908467,3.52710791 L11.7060645,3.52710791 L11.1237793,3.56664355 L11.1237793,4.33449707 Z" id="Shape"></path>
                            <path d="M13.933312,7 L14.9623428,7 L14.9623428,3.52710791 L13.933312,3.52710791 L13.933312,7 Z M14.4465952,3.01917725 C14.7917725,3.01917725 15.0282002,2.8058208 15.0282002,2.47878613 C15.0282002,2.15421582 14.7917725,1.94085937 14.4465952,1.94085937 C14.101418,1.94085937 13.8649902,2.15421582 13.8649902,2.47878613 C13.8649902,2.8058208 14.101418,3.01917725 14.4465952,3.01917725 Z" id="Shape"></path>
                            <path d="M16.9034986,7.07783965 C17.1356157,7.07783965 17.3069736,7.042 17.4206526,6.99216057 L17.296054,6.23337086 C17.240054,6.24737086 17.212054,6.24737086 17.1731343,6.24737086 C17.086054,6.24737086 16.9832948,6.1804512 16.9832948,5.95785257 L16.9832948,2.09719769 L15.9548694,2.09719769 L15.9548694,5.91585257 C15.9548694,6.61976582 16.1962274,7.07783965 16.9034986,7.07783965 L16.9034986,7.07783965 Z" id="Path"></path>
                            <path d="M19.604517,7.084 C20.0149986,7.084 20.4820355,6.944 20.8353935,6.6964816 L20.5005171,6.06872881 C20.2546777,6.21488937 20.0043567,6.29104994 19.7417146,6.29104994 C19.2802699,6.29104994 18.8277883,6.05080273 18.8121093,5.26232114 C18.7964304,4.46823439 19.1693935,4.23359233 19.5065171,4.23359233 C19.9136408,4.23359233 20.0749249,4.50239496 20.0749249,4.8669632 L18.6317884,4.8669632 L18.6396278,5.57703702 L20.9154738,5.57703702 C20.939554,5.47455553 20.9613935,5.29535815 20.9613935,5.11000021 C20.9613935,4.16583965 20.4775539,3.4437225 19.4846776,3.4437225 C18.6491592,3.4437225 17.8416408,4.1344817 17.8416408,5.26232114 C17.8416408,6.41816057 18.6071592,7.084 19.6045171,7.084 L19.604517,7.084 Z" id="Path"></path>
                        </g>
                    </g>
                    <g id="Path">
                        <use fill="black" fill-opacity="1" filter="url(#filter-12)" xlink:href="#path-11"></use>
                        <use fill-opacity="0.15" fill="color(display-p3 0.498 0.573 0.514)" fill-rule="evenodd" xlink:href="#path-11"></use>
                        <use fill="black" fill-opacity="1" filter="url(#filter-13)" xlink:href="#path-11"></use>
                        <path stroke="color(display-p3 0.498 0.573 0.514)" stroke-width="1" d="M241.105263,3.5 C243.419611,3.5 245.229622,4.16397906 246.480494,5.27308578 C247.814884,6.45624445 248.5,8.13868435 248.5,10 C248.5,11.8696598 247.817309,13.5498372 246.486495,14.7298257 C245.23533,15.8391915 243.423168,16.5 241.105263,16.5 L229.894737,16.5 C227.580389,16.5 225.770378,15.8360209 224.519506,14.7269142 C223.185116,13.5437555 222.5,11.8613157 222.5,10 C222.5,8.13034016 223.182691,6.45016281 224.513505,5.27017426 C225.76467,4.16080853 227.576832,3.5 229.894737,3.5 L241.105263,3.5 Z" stroke-linejoin="square"></path>
                    </g>
                    <g id="Path">
                        <use fill="black" fill-opacity="1" filter="url(#filter-15)" xlink:href="#path-14"></use>
                        <use fill-opacity="0.15" fill="color(display-p3 0.498 0.573 0.514)" fill-rule="evenodd" xlink:href="#path-14"></use>
                        <use fill="black" fill-opacity="1" filter="url(#filter-16)" xlink:href="#path-14"></use>
                        <path stroke="color(display-p3 0.498 0.573 0.514)" stroke-width="1" d="M212.105263,3.5 C214.419611,3.5 216.229622,4.16397906 217.480494,5.27308578 C218.814884,6.45624445 219.5,8.13868435 219.5,10 C219.5,11.8696598 218.817309,13.5498372 217.486495,14.7298257 C216.23533,15.8391915 214.423168,16.5 212.105263,16.5 L200.894737,16.5 C198.580389,16.5 196.770378,15.8360209 195.519506,14.7269142 C194.185116,13.5437555 193.5,11.8613157 193.5,10 C193.5,8.13034016 194.182691,6.45016281 195.513505,5.27017426 C196.76467,4.16080853 198.576832,3.5 200.894737,3.5 L212.105263,3.5 Z" stroke-linejoin="square"></path>
                    </g>
                    <g id="Oval">
                        <use fill="black" fill-opacity="1" filter="url(#filter-18)" xlink:href="#path-17"></use>
                        <use fill-opacity="0.15" fill="color(display-p3 0.498 0.573 0.514)" fill-rule="evenodd" xlink:href="#path-17"></use>
                        <use fill="black" fill-opacity="1" filter="url(#filter-19)" xlink:href="#path-17"></use>
                        <circle stroke="color(display-p3 0.498 0.573 0.514)" stroke-width="1" stroke-linejoin="square" cx="10" cy="10" r="2.5"></circle>
                    </g>
                    <g id="Oval">
                        <use fill="black" fill-opacity="1" filter="url(#filter-21)" xlink:href="#path-20"></use>
                        <use fill-opacity="0.15" fill="color(display-p3 0.498 0.573 0.514)" fill-rule="evenodd" xlink:href="#path-20"></use>
                        <use fill="black" fill-opacity="1" filter="url(#filter-22)" xlink:href="#path-20"></use>
                        <circle stroke="color(display-p3 0.498 0.573 0.514)" stroke-width="1" stroke-linejoin="square" cx="19" cy="10" r="2.5"></circle>
                    </g>
                    <g id="Oval">
                        <use fill="black" fill-opacity="1" filter="url(#filter-24)" xlink:href="#path-23"></use>
                        <use fill-opacity="0.15" fill="color(display-p3 0.498 0.573 0.514)" fill-rule="evenodd" xlink:href="#path-23"></use>
                        <use fill="black" fill-opacity="1" filter="url(#filter-25)" xlink:href="#path-23"></use>
                        <circle stroke="color(display-p3 0.498 0.573 0.514)" stroke-width="1" stroke-linejoin="square" cx="28" cy="10" r="2.5"></circle>
                    </g>
                    <g id="Oval">
                        <use fill="black" fill-opacity="1" filter="url(#filter-27)" xlink:href="#path-26"></use>
                        <use fill-opacity="0.15" fill="color(display-p3 0.498 0.573 0.514)" fill-rule="evenodd" xlink:href="#path-26"></use>
                        <use fill="black" fill-opacity="1" filter="url(#filter-28)" xlink:href="#path-26"></use>
                        <circle stroke="color(display-p3 0.498 0.573 0.514)" stroke-width="1" stroke-linejoin="square" cx="88" cy="10" r="6.5"></circle>
                    </g>
                    <path d="M102.254602,6 L120.745398,6 C121.158349,6 121.32546,6.04641281 121.488423,6.13356635 C121.651386,6.2207199 121.77928,6.34861419 121.866434,6.51157715 C121.953587,6.67454011 122,6.84165137 122,7.25460192 L122,7.74539808 C122,8.15834863 121.953587,8.32545989 121.866434,8.48842285 C121.77928,8.65138581 121.651386,8.7792801 121.488423,8.86643365 C121.32546,8.95358719 121.158349,9 120.745398,9 L102.254602,9 C101.841651,9 101.67454,8.95358719 101.511577,8.86643365 C101.348614,8.7792801 101.22072,8.65138581 101.133566,8.48842285 C101.046413,8.32545989 101,8.15834863 101,7.74539808 L101,7.25460192 C101,6.84165137 101.046413,6.67454011 101.133566,6.51157715 C101.22072,6.34861419 101.348614,6.2207199 101.511577,6.13356635 C101.67454,6.04641281 101.841651,6 102.254602,6 Z" id="Rectangle" fill="color(display-p3 0.498 0.573 0.514)" fill-rule="evenodd"></path>
                    <path d="M102.254602,11 L130.745398,11 C131.158349,11 131.32546,11.0464128 131.488423,11.1335664 C131.651386,11.2207199 131.77928,11.3486142 131.866434,11.5115771 C131.953587,11.6745401 132,11.8416514 132,12.2546019 L132,12.7453981 C132,13.1583486 131.953587,13.3254599 131.866434,13.4884229 C131.77928,13.6513858 131.651386,13.7792801 131.488423,13.8664336 C131.32546,13.9535872 131.158349,14 130.745398,14 L102.254602,14 C101.841651,14 101.67454,13.9535872 101.511577,13.8664336 C101.348614,13.7792801 101.22072,13.6513858 101.133566,13.4884229 C101.046413,13.3254599 101,13.1583486 101,12.7453981 L101,12.2546019 C101,11.8416514 101.046413,11.6745401 101.133566,11.5115771 C101.22072,11.3486142 101.348614,11.2207199 101.511577,11.1335664 C101.67454,11.0464128 101.841651,11 102.254602,11 Z" id="Rectangle" fill="color(display-p3 0.498 0.573 0.514)" fill-rule="evenodd"></path>
                </g>
                <g id="Frame-2" mask="url(#mask-6)" xlink:href="#path-29" fill="color(display-p3 0.498 0.573 0.514)" fill-opacity="0.05" stroke="color(display-p3 0.729 0.761 0.710)">
                    <g transform="translate(102, 24)">
                        <use xlink:href="#path-29"></use>
                    </g>
                </g>
                <path d="M7.2819426,27 L53.7180574,27 C54.1638168,27 54.3254599,27.0464128 54.4884229,27.1335664 C54.6513858,27.2207199 54.7792801,27.3486142 54.8664336,27.5115771 C54.9535872,27.6745401 55,27.8361832 55,28.2819426 L55,29.7180574 C55,30.1638168 54.9535872,30.3254599 54.8664336,30.4884229 C54.7792801,30.6513858 54.6513858,30.7792801 54.4884229,30.8664336 C54.3254599,30.9535872 54.1638168,31 53.7180574,31 L7.2819426,31 C6.83618323,31 6.67454011,30.9535872 6.51157715,30.8664336 C6.34861419,30.7792801 6.2207199,30.6513858 6.13356635,30.4884229 C6.04641281,30.3254599 6,30.1638168 6,29.7180574 L6,28.2819426 C6,27.8361832 6.04641281,27.6745401 6.13356635,27.5115771 C6.2207199,27.3486142 6.34861419,27.2207199 6.51157715,27.1335664 C6.67454011,27.0464128 6.83618323,27 7.2819426,27 Z" id="Rectangle" fill="color(display-p3 0.498 0.573 0.514)" opacity="0.25" mask="url(#mask-6)"></path>
                <path d="M79.2819426,27 L90.7180574,27 C91.1638168,27 91.3254599,27.0464128 91.4884229,27.1335664 C91.6513858,27.2207199 91.7792801,27.3486142 91.8664336,27.5115771 C91.9535872,27.6745401 92,27.8361832 92,28.2819426 L92,29.7180574 C92,30.1638168 91.9535872,30.3254599 91.8664336,30.4884229 C91.7792801,30.6513858 91.6513858,30.7792801 91.4884229,30.8664336 C91.3254599,30.9535872 91.1638168,31 90.7180574,31 L79.2819426,31 C78.8361832,31 78.6745401,30.9535872 78.5115771,30.8664336 C78.3486142,30.7792801 78.2207199,30.6513858 78.1335664,30.4884229 C78.0464128,30.3254599 78,30.1638168 78,29.7180574 L78,28.2819426 C78,27.8361832 78.0464128,27.6745401 78.1335664,27.5115771 C78.2207199,27.3486142 78.3486142,27.2207199 78.5115771,27.1335664 C78.6745401,27.0464128 78.8361832,27 79.2819426,27 Z" id="Rectangle" fill="color(display-p3 0.498 0.573 0.514)" opacity="0.25" mask="url(#mask-6)"></path>
                <path d="M79.2819426,52 L90.7180574,52 C91.1638168,52 91.3254599,52.0464128 91.4884229,52.1335664 C91.6513858,52.2207199 91.7792801,52.3486142 91.8664336,52.5115771 C91.9535872,52.6745401 92,52.8361832 92,53.2819426 L92,54.7180574 C92,55.1638168 91.9535872,55.3254599 91.8664336,55.4884229 C91.7792801,55.6513858 91.6513858,55.7792801 91.4884229,55.8664336 C91.3254599,55.9535872 91.1638168,56 90.7180574,56 L79.2819426,56 C78.8361832,56 78.6745401,55.9535872 78.5115771,55.8664336 C78.3486142,55.7792801 78.2207199,55.6513858 78.1335664,55.4884229 C78.0464128,55.3254599 78,55.1638168 78,54.7180574 L78,53.2819426 C78,52.8361832 78.0464128,52.6745401 78.1335664,52.5115771 C78.2207199,52.3486142 78.3486142,52.2207199 78.5115771,52.1335664 C78.6745401,52.0464128 78.8361832,52 79.2819426,52 Z" id="Rectangle" fill="color(display-p3 0.498 0.573 0.514)" opacity="0.25" mask="url(#mask-6)"></path>
                <path d="M79.2819426,77 L90.7180574,77 C91.1638168,77 91.3254599,77.0464128 91.4884229,77.1335664 C91.6513858,77.2207199 91.7792801,77.3486142 91.8664336,77.5115771 C91.9535872,77.6745401 92,77.8361832 92,78.2819426 L92,79.7180574 C92,80.1638168 91.9535872,80.3254599 91.8664336,80.4884229 C91.7792801,80.6513858 91.6513858,80.7792801 91.4884229,80.8664336 C91.3254599,80.9535872 91.1638168,81 90.7180574,81 L79.2819426,81 C78.8361832,81 78.6745401,80.9535872 78.5115771,80.8664336 C78.3486142,80.7792801 78.2207199,80.6513858 78.1335664,80.4884229 C78.0464128,80.3254599 78,80.1638168 78,79.7180574 L78,78.2819426 C78,77.8361832 78.0464128,77.6745401 78.1335664,77.5115771 C78.2207199,77.3486142 78.3486142,77.2207199 78.5115771,77.1335664 C78.6745401,77.0464128 78.8361832,77 79.2819426,77 Z" id="Rectangle" fill="color(display-p3 0.498 0.573 0.514)" opacity="0.25" mask="url(#mask-6)"></path>
                <path d="M79.2819426,102 L90.7180574,102 C91.1638168,102 91.3254599,102.046413 91.4884229,102.133566 C91.6513858,102.22072 91.7792801,102.348614 91.8664336,102.511577 C91.9535872,102.67454 92,102.836183 92,103.281943 L92,104.718057 C92,105.163817 91.9535872,105.32546 91.8664336,105.488423 C91.7792801,105.651386 91.6513858,105.77928 91.4884229,105.866434 C91.3254599,105.953587 91.1638168,106 90.7180574,106 L79.2819426,106 C78.8361832,106 78.6745401,105.953587 78.5115771,105.866434 C78.3486142,105.77928 78.2207199,105.651386 78.1335664,105.488423 C78.0464128,105.32546 78,105.163817 78,104.718057 L78,103.281943 C78,102.836183 78.0464128,102.67454 78.1335664,102.511577 C78.2207199,102.348614 78.3486142,102.22072 78.5115771,102.133566 C78.6745401,102.046413 78.8361832,102 79.2819426,102 Z" id="Rectangle" fill="color(display-p3 0.498 0.573 0.514)" opacity="0.25" mask="url(#mask-6)"></path>
                <path d="M79.2819426,127 L90.7180574,127 C91.1638168,127 91.3254599,127.046413 91.4884229,127.133566 C91.6513858,127.22072 91.7792801,127.348614 91.8664336,127.511577 C91.9535872,127.67454 92,127.836183 92,128.281943 L92,129.718057 C92,130.163817 91.9535872,130.32546 91.8664336,130.488423 C91.7792801,130.651386 91.6513858,130.77928 91.4884229,130.866434 C91.3254599,130.953587 91.1638168,131 90.7180574,131 L79.2819426,131 C78.8361832,131 78.6745401,130.953587 78.5115771,130.866434 C78.3486142,130.77928 78.2207199,130.651386 78.1335664,130.488423 C78.0464128,130.32546 78,130.163817 78,129.718057 L78,128.281943 C78,127.836183 78.0464128,127.67454 78.1335664,127.511577 C78.2207199,127.348614 78.3486142,127.22072 78.5115771,127.133566 C78.6745401,127.046413 78.8361832,127 79.2819426,127 Z" id="Rectangle" fill="color(display-p3 0.498 0.573 0.514)" opacity="0.25" mask="url(#mask-6)"></path>
                <path d="M7.2819426,34 L35.7180574,34 C36.1638168,34 36.3254599,34.0464128 36.4884229,34.1335664 C36.6513858,34.2207199 36.7792801,34.3486142 36.8664336,34.5115771 C36.9535872,34.6745401 37,34.8361832 37,35.2819426 L37,36.7180574 C37,37.1638168 36.9535872,37.3254599 36.8664336,37.4884229 C36.7792801,37.6513858 36.6513858,37.7792801 36.4884229,37.8664336 C36.3254599,37.9535872 36.1638168,38 35.7180574,38 L7.2819426,38 C6.83618323,38 6.67454011,37.9535872 6.51157715,37.8664336 C6.34861419,37.7792801 6.2207199,37.6513858 6.13356635,37.4884229 C6.04641281,37.3254599 6,37.1638168 6,36.7180574 L6,35.2819426 C6,34.8361832 6.04641281,34.6745401 6.13356635,34.5115771 C6.2207199,34.3486142 6.34861419,34.2207199 6.51157715,34.1335664 C6.67454011,34.0464128 6.83618323,34 7.2819426,34 Z" id="Rectangle" fill="color(display-p3 0.498 0.573 0.514)" opacity="0.25" mask="url(#mask-6)"></path>
                <path d="M7.2819426,52 L53.7180574,52 C54.1638168,52 54.3254599,52.0464128 54.4884229,52.1335664 C54.6513858,52.2207199 54.7792801,52.3486142 54.8664336,52.5115771 C54.9535872,52.6745401 55,52.8361832 55,53.2819426 L55,54.7180574 C55,55.1638168 54.9535872,55.3254599 54.8664336,55.4884229 C54.7792801,55.6513858 54.6513858,55.7792801 54.4884229,55.8664336 C54.3254599,55.9535872 54.1638168,56 53.7180574,56 L7.2819426,56 C6.83618323,56 6.67454011,55.9535872 6.51157715,55.8664336 C6.34861419,55.7792801 6.2207199,55.6513858 6.13356635,55.4884229 C6.04641281,55.3254599 6,55.1638168 6,54.7180574 L6,53.2819426 C6,52.8361832 6.04641281,52.6745401 6.13356635,52.5115771 C6.2207199,52.3486142 6.34861419,52.2207199 6.51157715,52.1335664 C6.67454011,52.0464128 6.83618323,52 7.2819426,52 Z" id="Rectangle" fill="color(display-p3 0.498 0.573 0.514)" opacity="0.25" mask="url(#mask-6)"></path>
                <path d="M7.2819426,59 L35.7180574,59 C36.1638168,59 36.3254599,59.0464128 36.4884229,59.1335664 C36.6513858,59.2207199 36.7792801,59.3486142 36.8664336,59.5115771 C36.9535872,59.6745401 37,59.8361832 37,60.2819426 L37,61.7180574 C37,62.1638168 36.9535872,62.3254599 36.8664336,62.4884229 C36.7792801,62.6513858 36.6513858,62.7792801 36.4884229,62.8664336 C36.3254599,62.9535872 36.1638168,63 35.7180574,63 L7.2819426,63 C6.83618323,63 6.67454011,62.9535872 6.51157715,62.8664336 C6.34861419,62.7792801 6.2207199,62.6513858 6.13356635,62.4884229 C6.04641281,62.3254599 6,62.1638168 6,61.7180574 L6,60.2819426 C6,59.8361832 6.04641281,59.6745401 6.13356635,59.5115771 C6.2207199,59.3486142 6.34861419,59.2207199 6.51157715,59.1335664 C6.67454011,59.0464128 6.83618323,59 7.2819426,59 Z" id="Rectangle" fill="color(display-p3 0.498 0.573 0.514)" opacity="0.25" mask="url(#mask-6)"></path>
                <path d="M7.2819426,77 L53.7180574,77 C54.1638168,77 54.3254599,77.0464128 54.4884229,77.1335664 C54.6513858,77.2207199 54.7792801,77.3486142 54.8664336,77.5115771 C54.9535872,77.6745401 55,77.8361832 55,78.2819426 L55,79.7180574 C55,80.1638168 54.9535872,80.3254599 54.8664336,80.4884229 C54.7792801,80.6513858 54.6513858,80.7792801 54.4884229,80.8664336 C54.3254599,80.9535872 54.1638168,81 53.7180574,81 L7.2819426,81 C6.83618323,81 6.67454011,80.9535872 6.51157715,80.8664336 C6.34861419,80.7792801 6.2207199,80.6513858 6.13356635,80.4884229 C6.04641281,80.3254599 6,80.1638168 6,79.7180574 L6,78.2819426 C6,77.8361832 6.04641281,77.6745401 6.13356635,77.5115771 C6.2207199,77.3486142 6.34861419,77.2207199 6.51157715,77.1335664 C6.67454011,77.0464128 6.83618323,77 7.2819426,77 Z" id="Rectangle" fill="color(display-p3 0.498 0.573 0.514)" opacity="0.25" mask="url(#mask-6)"></path>
                <path d="M7.2819426,84 L35.7180574,84 C36.1638168,84 36.3254599,84.0464128 36.4884229,84.1335664 C36.6513858,84.2207199 36.7792801,84.3486142 36.8664336,84.5115771 C36.9535872,84.6745401 37,84.8361832 37,85.2819426 L37,86.7180574 C37,87.1638168 36.9535872,87.3254599 36.8664336,87.4884229 C36.7792801,87.6513858 36.6513858,87.7792801 36.4884229,87.8664336 C36.3254599,87.9535872 36.1638168,88 35.7180574,88 L7.2819426,88 C6.83618323,88 6.67454011,87.9535872 6.51157715,87.8664336 C6.34861419,87.7792801 6.2207199,87.6513858 6.13356635,87.4884229 C6.04641281,87.3254599 6,87.1638168 6,86.7180574 L6,85.2819426 C6,84.8361832 6.04641281,84.6745401 6.13356635,84.5115771 C6.2207199,84.3486142 6.34861419,84.2207199 6.51157715,84.1335664 C6.67454011,84.0464128 6.83618323,84 7.2819426,84 Z" id="Rectangle" fill="color(display-p3 0.498 0.573 0.514)" opacity="0.25" mask="url(#mask-6)"></path>
                <path d="M7.2819426,102 L53.7180574,102 C54.1638168,102 54.3254599,102.046413 54.4884229,102.133566 C54.6513858,102.22072 54.7792801,102.348614 54.8664336,102.511577 C54.9535872,102.67454 55,102.836183 55,103.281943 L55,104.718057 C55,105.163817 54.9535872,105.32546 54.8664336,105.488423 C54.7792801,105.651386 54.6513858,105.77928 54.4884229,105.866434 C54.3254599,105.953587 54.1638168,106 53.7180574,106 L7.2819426,106 C6.83618323,106 6.67454011,105.953587 6.51157715,105.866434 C6.34861419,105.77928 6.2207199,105.651386 6.13356635,105.488423 C6.04641281,105.32546 6,105.163817 6,104.718057 L6,103.281943 C6,102.836183 6.04641281,102.67454 6.13356635,102.511577 C6.2207199,102.348614 6.34861419,102.22072 6.51157715,102.133566 C6.67454011,102.046413 6.83618323,102 7.2819426,102 Z" id="Rectangle" fill="color(display-p3 0.498 0.573 0.514)" opacity="0.25" mask="url(#mask-6)"></path>
                <path d="M7.2819426,109 L35.7180574,109 C36.1638168,109 36.3254599,109.046413 36.4884229,109.133566 C36.6513858,109.22072 36.7792801,109.348614 36.8664336,109.511577 C36.9535872,109.67454 37,109.836183 37,110.281943 L37,111.718057 C37,112.163817 36.9535872,112.32546 36.8664336,112.488423 C36.7792801,112.651386 36.6513858,112.77928 36.4884229,112.866434 C36.3254599,112.953587 36.1638168,113 35.7180574,113 L7.2819426,113 C6.83618323,113 6.67454011,112.953587 6.51157715,112.866434 C6.34861419,112.77928 6.2207199,112.651386 6.13356635,112.488423 C6.04641281,112.32546 6,112.163817 6,111.718057 L6,110.281943 C6,109.836183 6.04641281,109.67454 6.13356635,109.511577 C6.2207199,109.348614 6.34861419,109.22072 6.51157715,109.133566 C6.67454011,109.046413 6.83618323,109 7.2819426,109 Z" id="Rectangle" fill="color(display-p3 0.498 0.573 0.514)" opacity="0.25" mask="url(#mask-6)"></path>
                <path d="M7.2819426,127 L53.7180574,127 C54.1638168,127 54.3254599,127.046413 54.4884229,127.133566 C54.6513858,127.22072 54.7792801,127.348614 54.8664336,127.511577 C54.9535872,127.67454 55,127.836183 55,128.281943 L55,129.718057 C55,130.163817 54.9535872,130.32546 54.8664336,130.488423 C54.7792801,130.651386 54.6513858,130.77928 54.4884229,130.866434 C54.3254599,130.953587 54.1638168,131 53.7180574,131 L7.2819426,131 C6.83618323,131 6.67454011,130.953587 6.51157715,130.866434 C6.34861419,130.77928 6.2207199,130.651386 6.13356635,130.488423 C6.04641281,130.32546 6,130.163817 6,129.718057 L6,128.281943 C6,127.836183 6.04641281,127.67454 6.13356635,127.511577 C6.2207199,127.348614 6.34861419,127.22072 6.51157715,127.133566 C6.67454011,127.046413 6.83618323,127 7.2819426,127 Z" id="Rectangle" fill="color(display-p3 0.498 0.573 0.514)" opacity="0.25" mask="url(#mask-6)"></path>
                <g id="Frame-2" mask="url(#mask-6)" xlink:href="#path-30">
                    <g transform="translate(0, 134)">
                        <use stroke="color(display-p3 0.729 0.761 0.710)" stroke-width="1" fill="color(display-p3 0.812 0.831 0.780)" fill-rule="evenodd" xlink:href="#path-30"></use>
                        <g id="Path" stroke="none" fill="none">
                            <use fill="black" fill-opacity="1" filter="url(#filter-32)" xlink:href="#path-31"></use>
                            <use fill-opacity="0.15" fill="color(display-p3 0.498 0.573 0.514)" fill-rule="evenodd" xlink:href="#path-31"></use>
                            <use fill="black" fill-opacity="1" filter="url(#filter-33)" xlink:href="#path-31"></use>
                            <path stroke="color(display-p3 0.498 0.573 0.514)" stroke-width="1" d="M241.105263,3.5 C243.419611,3.5 245.229622,4.16397906 246.480494,5.27308578 C247.814884,6.45624445 248.5,8.13868435 248.5,10 C248.5,11.8696598 247.817309,13.5498372 246.486495,14.7298257 C245.23533,15.8391915 243.423168,16.5 241.105263,16.5 L229.894737,16.5 C227.580389,16.5 225.770378,15.8360209 224.519506,14.7269142 C223.185116,13.5437555 222.5,11.8613157 222.5,10 C222.5,8.13034016 223.182691,6.45016281 224.513505,5.27017426 C225.76467,4.16080853 227.576832,3.5 229.894737,3.5 L241.105263,3.5 Z" stroke-linejoin="square"></path>
                        </g>
                        <g id="Oval" stroke="none" fill="none">
                            <use fill="black" fill-opacity="1" filter="url(#filter-35)" xlink:href="#path-34"></use>
                            <use fill-opacity="0.15" fill="color(display-p3 0.498 0.573 0.514)" fill-rule="evenodd" xlink:href="#path-34"></use>
                            <use fill="black" fill-opacity="1" filter="url(#filter-36)" xlink:href="#path-34"></use>
                            <circle stroke="color(display-p3 0.498 0.573 0.514)" stroke-width="1" stroke-linejoin="square" cx="88" cy="10" r="6.5"></circle>
                        </g>
                        <g id="Oval" stroke="none" fill="none">
                            <use fill="black" fill-opacity="1" filter="url(#filter-38)" xlink:href="#path-37"></use>
                            <use fill-opacity="0.15" fill="color(display-p3 0.498 0.573 0.514)" fill-rule="evenodd" xlink:href="#path-37"></use>
                            <use fill="black" fill-opacity="1" filter="url(#filter-39)" xlink:href="#path-37"></use>
                            <circle stroke="color(display-p3 0.498 0.573 0.514)" stroke-width="1" stroke-linejoin="square" cx="10" cy="10" r="6.5"></circle>
                        </g>
                        <g id="Oval" stroke="none" fill="none">
                            <use fill="black" fill-opacity="1" filter="url(#filter-41)" xlink:href="#path-40"></use>
                            <use fill-opacity="0.15" fill="color(display-p3 0.498 0.573 0.514)" fill-rule="evenodd" xlink:href="#path-40"></use>
                            <use fill="black" fill-opacity="1" filter="url(#filter-42)" xlink:href="#path-40"></use>
                            <circle stroke="color(display-p3 0.498 0.573 0.514)" stroke-width="1" stroke-linejoin="square" cx="72" cy="10" r="6.5"></circle>
                        </g>
                        <g id="Edit" stroke="none" stroke-width="1" fill="none" fill-rule="evenodd" transform="translate(228.5, 5)">
                            <polygon id="Path" fill="color(display-p3 0.498 0.573 0.514)" fill-rule="nonzero" points="1.16821148 7 4.09688775 7 4.09688775 6.13493262 2.1997066 6.13493262 2.1997066 5.08389014 3.75517291 5.08389014 3.75517291 4.21882275 2.1997066 4.21882275 2.1997066 3.30274561 4.02688775 3.30274561 4.02688775 2.43767822 1.16821148 2.43767822"></polygon>
                            <path d="M6.17731646,7.084 C6.51242437,7.084 6.85581744,6.90121387 7.10121051,6.6558208 L7.12674615,6.6558208 L7.20088873,7 L8.04042047,7 L8.04042047,2.09596338 L7.01138971,2.09596338 L7.01138971,3.27925049 L7.04846099,3.80542969 C6.81381744,3.58557227 6.57996002,3.44310791 6.19703131,3.44310791 C5.46578082,3.44310791 4.75670953,4.12910791 4.75670953,5.26478613 C4.75670953,6.39878613 5.31424517,7.084 6.17731646,7.084 Z M6.44510064,6.24200391 C6.04670562,6.24200391 5.81127594,5.93500195 5.81127594,5.25325049 C5.81127594,4.59289209 6.10349176,4.285104 6.43681549,4.285104 C6.62531646,4.285104 6.82949566,4.34189014 7.01138971,4.50485547 L7.01138971,5.93085938 C6.84103131,6.158896 6.66406598,6.24200391 6.44510064,6.24200391 Z" id="Shape" fill="color(display-p3 0.498 0.573 0.514)" fill-rule="nonzero"></path>
                            <path d="M9.03356598,7 L10.0625967,7 L10.0625967,3.52710791 L9.03356598,3.52710791 L9.03356598,7 Z M9.54684918,3.01917725 C9.89202642,3.01917725 10.1284542,2.8058208 10.1284542,2.47878613 C10.1284542,2.15421582 9.89202642,1.94085937 9.54684918,1.94085937 C9.20167193,1.94085937 8.9652442,2.15421582 8.9652442,2.47878613 C8.9652442,2.8058208 9.20167193,3.01917725 9.54684918,3.01917725 Z" id="Shape" fill="color(display-p3 0.498 0.573 0.514)" fill-rule="nonzero"></path>
                            <path d="M12.3954748,7.07783943 C12.7225117,7.07783943 12.9871103,7.01091977 13.1691103,6.9347592 L13.0025117,6.21488927 C12.9061907,6.2552103 12.7880301,6.2692103 12.6729498,6.2692103 C12.4027459,6.2692103 12.2252275,6.11240767 12.2252275,5.71816687 L12.2252275,4.33327119 L13.0571103,4.33327119 L13.0571103,3.52772229 L12.2252275,3.52772229 L12.2252275,2.46540126 L11.3729194,2.46540126 L11.251401,3.52772229 L10.719401,3.56664195 L10.719401,4.33327109 L11.193722,4.33327109 L11.193722,5.72992596 C11.193722,6.53464185 11.5347589,7.07783943 12.3954748,7.07783943 L12.3954748,7.07783943 Z" id="Path" fill="color(display-p3 0.498 0.573 0.514)" fill-rule="nonzero"></path>
                        </g>
                    </g>
                </g>
                <polygon id="Path-2" fill-opacity="0.25" fill="color(display-p3 0.498 0.573 0.514)" fill-rule="nonzero" mask="url(#mask-6)" points="97.5 0 97.5 154 98.5 154 98.5 0"></polygon>
            </g>
            <path d="M12.819426,0 L239.180574,1.81366828e-15 C243.638168,-1.0537935e-15 245.254599,0.464128056 246.884229,1.33566352 C248.513858,2.20719898 249.792801,3.48614185 250.664336,5.11577148 C251.535872,6.74540111 252,8.3618323 252,12.819426 L252,141.180574 C252,145.638168 251.535872,147.254599 250.664336,148.884229 C249.792801,150.513858 248.513858,151.792801 246.884229,152.664336 C245.254599,153.535872 243.638168,154 239.180574,154 L12.819426,154 C8.3618323,154 6.74540111,153.535872 5.11577148,152.664336 C3.48614185,151.792801 2.20719898,150.513858 1.33566352,148.884229 C0.464128056,147.254599 0,145.638168 0,141.180574 L0,12.819426 C0,8.3618323 0.464128056,6.74540111 1.33566352,5.11577148 C2.20719898,3.48614185 3.48614185,2.20719898 5.11577148,1.33566352 C6.74540111,0.464128056 8.3618323,0 12.819426,0 Z" id="Mask" stroke="color(display-p3 0.498 0.573 0.514)" stroke-width="1"></path>
        </g>
    </g>
</svg>