<?xml version="1.0" encoding="UTF-8"?>
<svg width="476px" height="209px" viewBox="0 0 476 209" version="1.1" xmlns="http://www.w3.org/2000/svg" xmlns:xlink="http://www.w3.org/1999/xlink">
    <title>Invoice Styling</title>
    <defs>
        <path d="M0,0 L476,0 L476,209 L0,209 L0,0 Z" id="path-1"></path>
        <path d="M0,0 L476,0 L476,672 L0,672 L0,0 Z" id="path-2"></path>
        <path d="M0,0 L476,0 L476,59 L0,59 L0,0 Z" id="path-3"></path>
        <path d="M8.9735982,-4.5341707e-16 L243.026402,4.5341707e-16 C246.146717,-2.63448375e-16 247.278219,0.324889639 248.41896,0.934964463 C249.559701,1.54503929 250.454961,2.4402993 251.065036,3.58104004 C251.67511,4.72178078 252,5.85328261 252,8.9735982 L252,145.026402 C252,148.146717 251.67511,149.278219 251.065036,150.41896 C250.454961,151.559701 249.559701,152.454961 248.41896,153.065036 C247.278219,153.67511 246.146717,154 243.026402,154 L8.9735982,154 C5.85328261,154 4.72178078,153.67511 3.58104004,153.065036 C2.4402993,152.454961 1.54503929,151.559701 0.934964463,150.41896 C0.324889639,149.278219 0,148.146717 0,145.026402 L4.5341707e-16,8.9735982 C-2.63448375e-16,5.85328261 0.324889639,4.72178078 0.934964463,3.58104004 C1.54503929,2.4402993 2.4402993,1.54503929 3.58104004,0.934964463 C4.72178078,0.324889639 5.85328261,2.63448375e-16 8.9735982,-4.5341707e-16 Z" id="path-4"></path>
        <path d="M8.9735982,-4.5341707e-16 L243.026402,4.5341707e-16 C246.146717,-2.63448375e-16 247.278219,0.324889639 248.41896,0.934964463 C249.559701,1.54503929 250.454961,2.4402993 251.065036,3.58104004 C251.67511,4.72178078 252,5.85328261 252,8.9735982 L252,145.026402 C252,148.146717 251.67511,149.278219 251.065036,150.41896 C250.454961,151.559701 249.559701,152.454961 248.41896,153.065036 C247.278219,153.67511 246.146717,154 243.026402,154 L8.9735982,154 C5.85328261,154 4.72178078,153.67511 3.58104004,153.065036 C2.4402993,152.454961 1.54503929,151.559701 0.934964463,150.41896 C0.324889639,149.278219 0,148.146717 0,145.026402 L4.5341707e-16,8.9735982 C-2.63448375e-16,5.85328261 0.324889639,4.72178078 0.934964463,3.58104004 C1.54503929,2.4402993 2.4402993,1.54503929 3.58104004,0.934964463 C4.72178078,0.324889639 5.85328261,2.63448375e-16 8.9735982,-4.5341707e-16 Z" id="path-5"></path>
        <path d="M0,0 L85,0 L85,114 L0,114 L0,0 Z" id="path-7"></path>
        <circle id="path-8" cx="7" cy="7" r="3"></circle>
        <filter x="-150.0%" y="-150.0%" width="400.0%" height="400.0%" filterUnits="objectBoundingBox" id="filter-9">
            <feOffset dx="0" dy="0" in="SourceAlpha" result="shadowOffsetOuter1"></feOffset>
            <feGaussianBlur stdDeviation="3" in="shadowOffsetOuter1" result="shadowBlurOuter1"></feGaussianBlur>
            <feComposite in="shadowBlurOuter1" in2="SourceAlpha" operator="out" result="shadowBlurOuter1"></feComposite>
            <feColorMatrix values="0 0 0 0 0   0 0 0 0 0   0 0 0 0 0  0 0 0 0.05 0" type="matrix" in="shadowBlurOuter1" result="shadowMatrixOuter1"></feColorMatrix>
            <feOffset dx="0" dy="0" in="SourceAlpha" result="shadowOffsetOuter2"></feOffset>
            <feGaussianBlur stdDeviation="0.5" in="shadowOffsetOuter2" result="shadowBlurOuter2"></feGaussianBlur>
            <feComposite in="shadowBlurOuter2" in2="SourceAlpha" operator="out" result="shadowBlurOuter2"></feComposite>
            <feColorMatrix values="0 0 0 0 0   0 0 0 0 0   0 0 0 0 0  0 0 0 0.15 0" type="matrix" in="shadowBlurOuter2" result="shadowMatrixOuter2"></feColorMatrix>
            <feMerge>
                <feMergeNode in="shadowMatrixOuter1"></feMergeNode>
                <feMergeNode in="shadowMatrixOuter2"></feMergeNode>
            </feMerge>
        </filter>
        <filter x="-100.0%" y="-100.0%" width="300.0%" height="300.0%" filterUnits="objectBoundingBox" id="filter-10">
            <feOffset dx="0" dy="0" in="SourceAlpha" result="shadowOffsetInner1"></feOffset>
            <feComposite in="shadowOffsetInner1" in2="SourceAlpha" operator="arithmetic" k2="-1" k3="1" result="shadowInnerInner1"></feComposite>
            <feColorMatrix values="0 0 0 0 1   0 0 0 0 1   0 0 0 0 1  0 0 0 1 0" type="matrix" in="shadowInnerInner1"></feColorMatrix>
        </filter>
        <circle id="path-11" cx="16" cy="7" r="3"></circle>
        <filter x="-150.0%" y="-150.0%" width="400.0%" height="400.0%" filterUnits="objectBoundingBox" id="filter-12">
            <feOffset dx="0" dy="0" in="SourceAlpha" result="shadowOffsetOuter1"></feOffset>
            <feGaussianBlur stdDeviation="3" in="shadowOffsetOuter1" result="shadowBlurOuter1"></feGaussianBlur>
            <feComposite in="shadowBlurOuter1" in2="SourceAlpha" operator="out" result="shadowBlurOuter1"></feComposite>
            <feColorMatrix values="0 0 0 0 0   0 0 0 0 0   0 0 0 0 0  0 0 0 0.05 0" type="matrix" in="shadowBlurOuter1" result="shadowMatrixOuter1"></feColorMatrix>
            <feOffset dx="0" dy="0" in="SourceAlpha" result="shadowOffsetOuter2"></feOffset>
            <feGaussianBlur stdDeviation="0.5" in="shadowOffsetOuter2" result="shadowBlurOuter2"></feGaussianBlur>
            <feComposite in="shadowBlurOuter2" in2="SourceAlpha" operator="out" result="shadowBlurOuter2"></feComposite>
            <feColorMatrix values="0 0 0 0 0   0 0 0 0 0   0 0 0 0 0  0 0 0 0.15 0" type="matrix" in="shadowBlurOuter2" result="shadowMatrixOuter2"></feColorMatrix>
            <feMerge>
                <feMergeNode in="shadowMatrixOuter1"></feMergeNode>
                <feMergeNode in="shadowMatrixOuter2"></feMergeNode>
            </feMerge>
        </filter>
        <filter x="-100.0%" y="-100.0%" width="300.0%" height="300.0%" filterUnits="objectBoundingBox" id="filter-13">
            <feOffset dx="0" dy="0" in="SourceAlpha" result="shadowOffsetInner1"></feOffset>
            <feComposite in="shadowOffsetInner1" in2="SourceAlpha" operator="arithmetic" k2="-1" k3="1" result="shadowInnerInner1"></feComposite>
            <feColorMatrix values="0 0 0 0 1   0 0 0 0 1   0 0 0 0 1  0 0 0 1 0" type="matrix" in="shadowInnerInner1"></feColorMatrix>
        </filter>
        <circle id="path-14" cx="25" cy="7" r="3"></circle>
        <filter x="-150.0%" y="-150.0%" width="400.0%" height="400.0%" filterUnits="objectBoundingBox" id="filter-15">
            <feOffset dx="0" dy="0" in="SourceAlpha" result="shadowOffsetOuter1"></feOffset>
            <feGaussianBlur stdDeviation="3" in="shadowOffsetOuter1" result="shadowBlurOuter1"></feGaussianBlur>
            <feComposite in="shadowBlurOuter1" in2="SourceAlpha" operator="out" result="shadowBlurOuter1"></feComposite>
            <feColorMatrix values="0 0 0 0 0   0 0 0 0 0   0 0 0 0 0  0 0 0 0.05 0" type="matrix" in="shadowBlurOuter1" result="shadowMatrixOuter1"></feColorMatrix>
            <feOffset dx="0" dy="0" in="SourceAlpha" result="shadowOffsetOuter2"></feOffset>
            <feGaussianBlur stdDeviation="0.5" in="shadowOffsetOuter2" result="shadowBlurOuter2"></feGaussianBlur>
            <feComposite in="shadowBlurOuter2" in2="SourceAlpha" operator="out" result="shadowBlurOuter2"></feComposite>
            <feColorMatrix values="0 0 0 0 0   0 0 0 0 0   0 0 0 0 0  0 0 0 0.15 0" type="matrix" in="shadowBlurOuter2" result="shadowMatrixOuter2"></feColorMatrix>
            <feMerge>
                <feMergeNode in="shadowMatrixOuter1"></feMergeNode>
                <feMergeNode in="shadowMatrixOuter2"></feMergeNode>
            </feMerge>
        </filter>
        <filter x="-100.0%" y="-100.0%" width="300.0%" height="300.0%" filterUnits="objectBoundingBox" id="filter-16">
            <feOffset dx="0" dy="0" in="SourceAlpha" result="shadowOffsetInner1"></feOffset>
            <feComposite in="shadowOffsetInner1" in2="SourceAlpha" operator="arithmetic" k2="-1" k3="1" result="shadowInnerInner1"></feComposite>
            <feColorMatrix values="0 0 0 0 1   0 0 0 0 1   0 0 0 0 1  0 0 0 1 0" type="matrix" in="shadowInnerInner1"></feColorMatrix>
        </filter>
        <path d="M0,0 L126,0 L126,31 L0,31 L0,0 Z" id="path-17"></path>
    </defs>
    <g id="Invoice-Styling" stroke="none" fill="none" xlink:href="#path-1">
        <use fill="color(display-p3 0.992 0.976 0.933)" fill-rule="evenodd" xlink:href="#path-1"></use>
        <use fill-opacity="0.06" fill="color(display-p3 0.494 0.549 0.514)" fill-rule="evenodd" xlink:href="#path-1"></use>
        <g id="Stack" opacity="0.0299999993" xlink:href="#path-2" stroke="color(display-p3 0.494 0.549 0.514)" stroke-width="1">
            <line x1="476" y1="196" x2="0" y2="196" id="Path"></line>
            <line x1="476" y1="182" x2="0" y2="182" id="Path"></line>
            <line x1="476" y1="168" x2="0" y2="168" id="Path"></line>
            <line x1="476" y1="154" x2="0" y2="154" id="Path"></line>
            <line x1="476" y1="140" x2="0" y2="140" id="Path"></line>
            <line x1="476" y1="126" x2="0" y2="126" id="Path"></line>
            <line x1="476" y1="112" x2="0" y2="112" id="Path"></line>
            <line x1="476" y1="98" x2="0" y2="98" id="Path"></line>
            <line x1="476" y1="84" x2="0" y2="84" id="Path"></line>
            <line x1="476" y1="70" x2="0" y2="70" id="Path"></line>
            <line x1="476" y1="56" x2="0" y2="56" id="Path"></line>
            <line x1="476" y1="42" x2="0" y2="42" id="Path"></line>
            <line x1="476" y1="28" x2="0" y2="28" id="Path"></line>
            <line x1="476" y1="14" x2="0" y2="14" id="Path"></line>
        </g>
        <g id="Stack" opacity="0.0299999993" xlink:href="#path-3" stroke="color(display-p3 0.494 0.549 0.514)" stroke-width="1">
            <line x1="462" y1="-510.5" x2="462" y2="569.5" id="Path"></line>
            <line x1="448" y1="-510.5" x2="448" y2="569.5" id="Path"></line>
            <line x1="434" y1="-510.5" x2="434" y2="569.5" id="Path"></line>
            <line x1="420" y1="-510.5" x2="420" y2="569.5" id="Path"></line>
            <line x1="406" y1="-510.5" x2="406" y2="569.5" id="Path"></line>
            <line x1="392" y1="-510.5" x2="392" y2="569.5" id="Path"></line>
            <line x1="378" y1="-510.5" x2="378" y2="569.5" id="Path"></line>
            <line x1="364" y1="-510.5" x2="364" y2="569.5" id="Path"></line>
            <line x1="350" y1="-510.5" x2="350" y2="569.5" id="Path"></line>
            <line x1="336" y1="-510.5" x2="336" y2="569.5" id="Path"></line>
            <line x1="322" y1="-510.5" x2="322" y2="569.5" id="Path"></line>
            <line x1="308" y1="-510.5" x2="308" y2="569.5" id="Path"></line>
            <line x1="294" y1="-510.5" x2="294" y2="569.5" id="Path"></line>
            <line x1="280" y1="-510.5" x2="280" y2="569.5" id="Path"></line>
            <line x1="266" y1="-510.5" x2="266" y2="569.5" id="Path"></line>
            <line x1="252" y1="-510.5" x2="252" y2="569.5" id="Path"></line>
            <line x1="238" y1="-510.5" x2="238" y2="569.5" id="Path"></line>
            <line x1="224" y1="-510.5" x2="224" y2="569.5" id="Path"></line>
            <line x1="210" y1="-510.5" x2="210" y2="569.5" id="Path"></line>
            <line x1="196" y1="-510.5" x2="196" y2="569.5" id="Path"></line>
            <line x1="182" y1="-510.5" x2="182" y2="569.5" id="Path"></line>
            <line x1="168" y1="-510.5" x2="168" y2="569.5" id="Path"></line>
            <line x1="154" y1="-510.5" x2="154" y2="569.5" id="Path"></line>
            <line x1="140" y1="-510.5" x2="140" y2="569.5" id="Path"></line>
            <line x1="126" y1="-510.5" x2="126" y2="569.5" id="Path"></line>
            <line x1="112" y1="-510.5" x2="112" y2="569.5" id="Path"></line>
            <line x1="98" y1="-510.5" x2="98" y2="569.5" id="Path"></line>
            <line x1="84" y1="-510.5" x2="84" y2="569.5" id="Path"></line>
            <line x1="70" y1="-510.5" x2="70" y2="569.5" id="Path"></line>
            <line x1="56" y1="-510.5" x2="56" y2="569.5" id="Path"></line>
            <line x1="42" y1="-510.5" x2="42" y2="569.5" id="Path"></line>
            <line x1="28" y1="-510.5" x2="28" y2="569.5" id="Path"></line>
            <line x1="14" y1="-510.5" x2="14" y2="569.5" id="Path"></line>
        </g>
        <g transform="translate(112, 28)" xlink:href="#path-4">
            <use fill="color(display-p3 0.867 0.875 0.827)" fill-rule="evenodd" xlink:href="#path-4"></use>
            <path d="M8.9735982,-4.5341707e-16 L243.026402,4.5341707e-16 C246.146717,-2.63448375e-16 247.278219,0.324889639 248.41896,0.934964463 C249.559701,1.54503929 250.454961,2.4402993 251.065036,3.58104004 C251.67511,4.72178078 252,5.85328261 252,8.9735982 L252,145.026402 C252,148.146717 251.67511,149.278219 251.065036,150.41896 C250.454961,151.559701 249.559701,152.454961 248.41896,153.065036 C247.278219,153.67511 246.146717,154 243.026402,154 L8.9735982,154 C5.85328261,154 4.72178078,153.67511 3.58104004,153.065036 C2.4402993,152.454961 1.54503929,151.559701 0.934964463,150.41896 C0.324889639,149.278219 0,148.146717 0,145.026402 L4.5341707e-16,8.9735982 C-2.63448375e-16,5.85328261 0.324889639,4.72178078 0.934964463,3.58104004 C1.54503929,2.4402993 2.4402993,1.54503929 3.58104004,0.934964463 C4.72178078,0.324889639 5.85328261,2.63448375e-16 8.9735982,-4.5341707e-16 Z" id="Outline" stroke="color(display-p3 0.498 0.573 0.514)" stroke-width="1"></path>
            <g id="Path-2-+-Path-2-+-Path-2-+-Path-2-+-Frame-2-+-Frame-2-+-Rectangle-+-Rectangle-+-Rectangle-+-Rectangle-+-Rectangle-+-Rectangle-+-Rectangle-+-Rectangle-+-Rectangle-+-Rectangle-+-Rectangle-+-Rectangle-+-Rectangle-+-Rectangle-+-Frame-2-+-Path-2-Mask" stroke-width="1" fill-rule="evenodd">
                <mask id="mask-6" fill="white">
                    <use xlink:href="#path-5"></use>
                </mask>
                <g id="Mask"></g>
                <g id="Frame-2" mask="url(#mask-6)" xlink:href="#path-7">
                    <g transform="translate(20, 20)">
                        <use stroke-opacity="0.25" stroke="color(display-p3 0.498 0.573 0.514)" stroke-width="1" fill-opacity="0.05" fill="color(display-p3 0.498 0.573 0.514)" fill-rule="evenodd" xlink:href="#path-7"></use>
                        <line x1="63" y1="57.5" x2="23" y2="57.5" id="Path-2" stroke="color(display-p3 0.498 0.573 0.514)" stroke-width="1" fill="none"></line>
                        <polygon id="Path" stroke="none" fill="color(display-p3 0.498 0.573 0.514)" fill-rule="evenodd" transform="translate(21, 57) rotate(540) translate(-21, -57)" points="23 57 19 53 19 61"></polygon>
                        <polygon id="Path" stroke="none" fill="color(display-p3 0.498 0.573 0.514)" fill-rule="evenodd" transform="translate(64, 57) scale(-1, 1) rotate(540) translate(-64, -57)" points="66 57 62 53 62 61"></polygon>
                        <line x1="63" y1="57.5" x2="23" y2="57.5" id="Path-2" stroke="color(display-p3 0.498 0.573 0.514)" stroke-width="1" fill="none" transform="translate(43, 57.5) rotate(-90) translate(-43, -57.5)"></line>
                        <polygon id="Path" stroke="none" fill="color(display-p3 0.498 0.573 0.514)" fill-rule="evenodd" transform="translate(43, 79) rotate(450) translate(-43, -79)" points="45 79 41 75 41 83"></polygon>
                        <polygon id="Path" stroke="none" fill="color(display-p3 0.498 0.573 0.514)" fill-rule="evenodd" transform="translate(43, 36) scale(-1, 1) rotate(630) translate(-43, -36)" points="45 36 41 32 41 40"></polygon>
                    </g>
                </g>
                <g id="Oval" mask="url(#mask-6)">
                    <use fill="black" fill-opacity="1" filter="url(#filter-9)" xlink:href="#path-8"></use>
                    <use fill-opacity="0.15" fill="color(display-p3 0.498 0.573 0.514)" fill-rule="evenodd" xlink:href="#path-8"></use>
                    <use fill="black" fill-opacity="1" filter="url(#filter-10)" xlink:href="#path-8"></use>
                    <circle stroke="color(display-p3 0.498 0.573 0.514)" stroke-width="1" stroke-linejoin="square" cx="7" cy="7" r="2.5"></circle>
                </g>
                <g id="Oval" mask="url(#mask-6)">
                    <use fill="black" fill-opacity="1" filter="url(#filter-12)" xlink:href="#path-11"></use>
                    <use fill-opacity="0.15" fill="color(display-p3 0.498 0.573 0.514)" fill-rule="evenodd" xlink:href="#path-11"></use>
                    <use fill="black" fill-opacity="1" filter="url(#filter-13)" xlink:href="#path-11"></use>
                    <circle stroke="color(display-p3 0.498 0.573 0.514)" stroke-width="1" stroke-linejoin="square" cx="16" cy="7" r="2.5"></circle>
                </g>
                <g id="Oval" mask="url(#mask-6)">
                    <use fill="black" fill-opacity="1" filter="url(#filter-15)" xlink:href="#path-14"></use>
                    <use fill-opacity="0.15" fill="color(display-p3 0.498 0.573 0.514)" fill-rule="evenodd" xlink:href="#path-14"></use>
                    <use fill="black" fill-opacity="1" filter="url(#filter-16)" xlink:href="#path-14"></use>
                    <circle stroke="color(display-p3 0.498 0.573 0.514)" stroke-width="1" stroke-linejoin="square" cx="25" cy="7" r="2.5"></circle>
                </g>
                <g id="Frame-2" mask="url(#mask-6)" xlink:href="#path-17">
                    <g transform="translate(126, 0)">
                        <use stroke="color(display-p3 0.729 0.761 0.710)" stroke-width="1" fill="color(display-p3 0.812 0.831 0.780)" fill-rule="evenodd" xlink:href="#path-17"></use>
                        <path d="M60.1277704,8 L65.8722296,8 C67.6552671,8 68.3018396,8.18565122 68.9536914,8.53426541 C69.6055433,8.88287959 70.1171204,9.39445674 70.4657346,10.0463086 C70.8143488,10.6981604 71,11.3447329 71,13.1277704 L71,18.8722296 C71,20.6552671 70.8143488,21.3018396 70.4657346,21.9536914 C70.1171204,22.6055433 69.6055433,23.1171204 68.9536914,23.4657346 C68.3018396,23.8143488 67.6552671,24 65.8722296,24 L60.1277704,24 C58.3447329,24 57.6981604,23.8143488 57.0463086,23.4657346 C56.3944567,23.1171204 55.8828796,22.6055433 55.5342654,21.9536914 C55.1856512,21.3018396 55,20.6552671 55,18.8722296 L55,13.1277704 C55,11.3447329 55.1856512,10.6981604 55.5342654,10.0463086 C55.8828796,9.39445674 56.3944567,8.88287959 57.0463086,8.53426541 C57.6981604,8.18565122 58.3447329,8 60.1277704,8 Z" id="Rectangle" stroke="color(display-p3 0.498 0.573 0.514)" stroke-width="1" fill="none"></path>
                        <path d="M82.1277704,8 L87.8722296,8 C89.6552671,8 90.3018396,8.18565122 90.9536914,8.53426541 C91.6055433,8.88287959 92.1171204,9.39445674 92.4657346,10.0463086 C92.8143488,10.6981604 93,11.3447329 93,13.1277704 L93,18.8722296 C93,20.6552671 92.8143488,21.3018396 92.4657346,21.9536914 C92.1171204,22.6055433 91.6055433,23.1171204 90.9536914,23.4657346 C90.3018396,23.8143488 89.6552671,24 87.8722296,24 L82.1277704,24 C80.3447329,24 79.6981604,23.8143488 79.0463086,23.4657346 C78.3944567,23.1171204 77.8828796,22.6055433 77.5342654,21.9536914 C77.1856512,21.3018396 77,20.6552671 77,18.8722296 L77,13.1277704 C77,11.3447329 77.1856512,10.6981604 77.5342654,10.0463086 C77.8828796,9.39445674 78.3944567,8.88287959 79.0463086,8.53426541 C79.6981604,8.18565122 80.3447329,8 82.1277704,8 Z" id="Rectangle" stroke="color(display-p3 0.498 0.573 0.514)" stroke-width="1" fill="none"></path>
                        <path d="M104.12777,8 L109.87223,8 C111.655267,8 112.30184,8.18565122 112.953691,8.53426541 C113.605543,8.88287959 114.11712,9.39445674 114.465735,10.0463086 C114.814349,10.6981604 115,11.3447329 115,13.1277704 L115,18.8722296 C115,20.6552671 114.814349,21.3018396 114.465735,21.9536914 C114.11712,22.6055433 113.605543,23.1171204 112.953691,23.4657346 C112.30184,23.8143488 111.655267,24 109.87223,24 L104.12777,24 C102.344733,24 101.69816,23.8143488 101.046309,23.4657346 C100.394457,23.1171204 99.8828796,22.6055433 99.5342654,21.9536914 C99.1856512,21.3018396 99,20.6552671 99,18.8722296 L99,13.1277704 C99,11.3447329 99.1856512,10.6981604 99.5342654,10.0463086 C99.8828796,9.39445674 100.394457,8.88287959 101.046309,8.53426541 C101.69816,8.18565122 102.344733,8 104.12777,8 Z" id="Rectangle" stroke="color(display-p3 0.498 0.573 0.514)" stroke-width="1" fill="none"></path>
                        <path d="M16.1277704,8 L21.8722296,8 C23.6552671,8 24.3018396,8.18565122 24.9536914,8.53426541 C25.6055433,8.88287959 26.1171204,9.39445674 26.4657346,10.0463086 C26.8143488,10.6981604 27,11.3447329 27,13.1277704 L27,18.8722296 C27,20.6552671 26.8143488,21.3018396 26.4657346,21.9536914 C26.1171204,22.6055433 25.6055433,23.1171204 24.9536914,23.4657346 C24.3018396,23.8143488 23.6552671,24 21.8722296,24 L16.1277704,24 C14.3447329,24 13.6981604,23.8143488 13.0463086,23.4657346 C12.3944567,23.1171204 11.8828796,22.6055433 11.5342654,21.9536914 C11.1856512,21.3018396 11,20.6552671 11,18.8722296 L11,13.1277704 C11,11.3447329 11.1856512,10.6981604 11.5342654,10.0463086 C11.8828796,9.39445674 12.3944567,8.88287959 13.0463086,8.53426541 C13.6981604,8.18565122 14.3447329,8 16.1277704,8 Z" id="Rectangle" stroke="color(display-p3 0.498 0.573 0.514)" stroke-width="1" fill="none"></path>
                        <path d="M38.1277704,8 L43.8722296,8 C45.6552671,8 46.3018396,8.18565122 46.9536914,8.53426541 C47.6055433,8.88287959 48.1171204,9.39445674 48.4657346,10.0463086 C48.8143488,10.6981604 49,11.3447329 49,13.1277704 L49,18.8722296 C49,20.6552671 48.8143488,21.3018396 48.4657346,21.9536914 C48.1171204,22.6055433 47.6055433,23.1171204 46.9536914,23.4657346 C46.3018396,23.8143488 45.6552671,24 43.8722296,24 L38.1277704,24 C36.3447329,24 35.6981604,23.8143488 35.0463086,23.4657346 C34.3944567,23.1171204 33.8828796,22.6055433 33.5342654,21.9536914 C33.1856512,21.3018396 33,20.6552671 33,18.8722296 L33,13.1277704 C33,11.3447329 33.1856512,10.6981604 33.5342654,10.0463086 C33.8828796,9.39445674 34.3944567,8.88287959 35.0463086,8.53426541 C35.6981604,8.18565122 36.3447329,8 38.1277704,8 Z" id="Rectangle" stroke="color(display-p3 0.498 0.573 0.514)" stroke-width="1" fill="none"></path>
                        <path d="M38.9735982,5 L43.0264018,5 C46.1467174,5 47.2782192,5.32488964 48.41896,5.93496446 C49.5597007,6.54503929 50.4549607,7.4402993 51.0650355,8.58104004 C51.6751104,9.72178078 52,10.8532826 52,13.9735982 L52,18.0264018 C52,21.1467174 51.6751104,22.2782192 51.0650355,23.41896 C50.4549607,24.5597007 49.5597007,25.4549607 48.41896,26.0650355 C47.2782192,26.6751104 46.1467174,27 43.0264018,27 L38.9735982,27 C35.8532826,27 34.7217808,26.6751104 33.58104,26.0650355 C32.4402993,25.4549607 31.5450393,24.5597007 30.9349645,23.41896 C30.3248896,22.2782192 30,21.1467174 30,18.0264018 L30,13.9735982 C30,10.8532826 30.3248896,9.72178078 30.9349645,8.58104004 C31.5450393,7.4402993 32.4402993,6.54503929 33.58104,5.93496446 C34.7217808,5.32488964 35.8532826,5 38.9735982,5 Z" id="Rectangle" stroke="none" fill-opacity="0.25" fill="color(display-p3 0.498 0.573 0.514)" fill-rule="evenodd"></path>
                    </g>
                </g>
                <polygon id="Path-2" fill="color(display-p3 0.729 0.761 0.710)" fill-rule="nonzero" mask="url(#mask-6)" points="125.5 0 125.5 154 126.5 154 126.5 0"></polygon>
                <path d="M142.281943,46 L162.371904,46 C162.817663,46 162.979306,46.0464128 163.142269,46.1335664 C163.305232,46.2207199 163.433126,46.3486142 163.52028,46.5115771 C163.607433,46.6745401 163.653846,46.8361832 163.653846,47.2819426 L163.653846,48.7180574 C163.653846,49.1638168 163.607433,49.3254599 163.52028,49.4884229 C163.433126,49.6513858 163.305232,49.7792801 163.142269,49.8664336 C162.979306,49.9535872 162.817663,50 162.371904,50 L142.281943,50 C141.836183,50 141.67454,49.9535872 141.511577,49.8664336 C141.348614,49.7792801 141.22072,49.6513858 141.133566,49.4884229 C141.046413,49.3254599 141,49.1638168 141,48.7180574 L141,47.2819426 C141,46.8361832 141.046413,46.6745401 141.133566,46.5115771 C141.22072,46.3486142 141.348614,46.2207199 141.511577,46.1335664 C141.67454,46.0464128 141.836183,46 142.281943,46 Z" id="Rectangle" fill="color(display-p3 0.498 0.573 0.514)" opacity="0.25" mask="url(#mask-6)"></path>
                <path d="M180.281943,46 L200.371904,46 C200.817663,46 200.979306,46.0464128 201.142269,46.1335664 C201.305232,46.2207199 201.433126,46.3486142 201.52028,46.5115771 C201.607433,46.6745401 201.653846,46.8361832 201.653846,47.2819426 L201.653846,48.7180574 C201.653846,49.1638168 201.607433,49.3254599 201.52028,49.4884229 C201.433126,49.6513858 201.305232,49.7792801 201.142269,49.8664336 C200.979306,49.9535872 200.817663,50 200.371904,50 L180.281943,50 C179.836183,50 179.67454,49.9535872 179.511577,49.8664336 C179.348614,49.7792801 179.22072,49.6513858 179.133566,49.4884229 C179.046413,49.3254599 179,49.1638168 179,48.7180574 L179,47.2819426 C179,46.8361832 179.046413,46.6745401 179.133566,46.5115771 C179.22072,46.3486142 179.348614,46.2207199 179.511577,46.1335664 C179.67454,46.0464128 179.836183,46 180.281943,46 Z" id="Rectangle" fill="color(display-p3 0.498 0.573 0.514)" opacity="0.25" mask="url(#mask-6)"></path>
                <path d="M180.281943,54 L228.871904,54 C229.317663,54 229.479306,54.0464128 229.642269,54.1335664 C229.805232,54.2207199 229.933126,54.3486142 230.02028,54.5115771 C230.107433,54.6745401 230.153846,54.8361832 230.153846,55.2819426 L230.153846,56.7180574 C230.153846,57.1638168 230.107433,57.3254599 230.02028,57.4884229 C229.933126,57.6513858 229.805232,57.7792801 229.642269,57.8664336 C229.479306,57.9535872 229.317663,58 228.871904,58 L180.281943,58 C179.836183,58 179.67454,57.9535872 179.511577,57.8664336 C179.348614,57.7792801 179.22072,57.6513858 179.133566,57.4884229 C179.046413,57.3254599 179,57.1638168 179,56.7180574 L179,55.2819426 C179,54.8361832 179.046413,54.6745401 179.133566,54.5115771 C179.22072,54.3486142 179.348614,54.2207199 179.511577,54.1335664 C179.67454,54.0464128 179.836183,54 180.281943,54 Z" id="Rectangle" fill="color(display-p3 0.498 0.573 0.514)" opacity="0.25" mask="url(#mask-6)"></path>
                <path d="M180.281943,62 L220.833442,62 C221.279201,62 221.440845,62.0464128 221.603807,62.1335664 C221.76677,62.2207199 221.894665,62.3486142 221.981818,62.5115771 C222.068972,62.6745401 222.115385,62.8361832 222.115385,63.2819426 L222.115385,64.7180574 C222.115385,65.1638168 222.068972,65.3254599 221.981818,65.4884229 C221.894665,65.6513858 221.76677,65.7792801 221.603807,65.8664336 C221.440845,65.9535872 221.279201,66 220.833442,66 L180.281943,66 C179.836183,66 179.67454,65.9535872 179.511577,65.8664336 C179.348614,65.7792801 179.22072,65.6513858 179.133566,65.4884229 C179.046413,65.3254599 179,65.1638168 179,64.7180574 L179,63.2819426 C179,62.8361832 179.046413,62.6745401 179.133566,62.5115771 C179.22072,62.3486142 179.348614,62.2207199 179.511577,62.1335664 C179.67454,62.0464128 179.836183,62 180.281943,62 Z" id="Rectangle" fill="color(display-p3 0.498 0.573 0.514)" opacity="0.25" mask="url(#mask-6)"></path>
                <path d="M142.281943,78 L158.718057,78 C159.163817,78 159.32546,78.0464128 159.488423,78.1335664 C159.651386,78.2207199 159.77928,78.3486142 159.866434,78.5115771 C159.953587,78.6745401 160,78.8361832 160,79.2819426 L160,80.7180574 C160,81.1638168 159.953587,81.3254599 159.866434,81.4884229 C159.77928,81.6513858 159.651386,81.7792801 159.488423,81.8664336 C159.32546,81.9535872 159.163817,82 158.718057,82 L142.281943,82 C141.836183,82 141.67454,81.9535872 141.511577,81.8664336 C141.348614,81.7792801 141.22072,81.6513858 141.133566,81.4884229 C141.046413,81.3254599 141,81.1638168 141,80.7180574 L141,79.2819426 C141,78.8361832 141.046413,78.6745401 141.133566,78.5115771 C141.22072,78.3486142 141.348614,78.2207199 141.511577,78.1335664 C141.67454,78.0464128 141.836183,78 142.281943,78 Z" id="Rectangle" fill="color(display-p3 0.498 0.573 0.514)" opacity="0.25" mask="url(#mask-6)"></path>
                <path d="M180.281943,78 L213.52575,78 C213.971509,78 214.133152,78.0464128 214.296115,78.1335664 C214.459078,78.2207199 214.586972,78.3486142 214.674126,78.5115771 C214.76128,78.6745401 214.807692,78.8361832 214.807692,79.2819426 L214.807692,80.7180574 C214.807692,81.1638168 214.76128,81.3254599 214.674126,81.4884229 C214.586972,81.6513858 214.459078,81.7792801 214.296115,81.8664336 C214.133152,81.9535872 213.971509,82 213.52575,82 L180.281943,82 C179.836183,82 179.67454,81.9535872 179.511577,81.8664336 C179.348614,81.7792801 179.22072,81.6513858 179.133566,81.4884229 C179.046413,81.3254599 179,81.1638168 179,80.7180574 L179,79.2819426 C179,78.8361832 179.046413,78.6745401 179.133566,78.5115771 C179.22072,78.3486142 179.348614,78.2207199 179.511577,78.1335664 C179.67454,78.0464128 179.836183,78 180.281943,78 Z" id="Rectangle" fill="color(display-p3 0.498 0.573 0.514)" opacity="0.25" mask="url(#mask-6)"></path>
                <path d="M180.281943,86 L200.371904,86 C200.817663,86 200.979306,86.0464128 201.142269,86.1335664 C201.305232,86.2207199 201.433126,86.3486142 201.52028,86.5115771 C201.607433,86.6745401 201.653846,86.8361832 201.653846,87.2819426 L201.653846,88.7180574 C201.653846,89.1638168 201.607433,89.3254599 201.52028,89.4884229 C201.433126,89.6513858 201.305232,89.7792801 201.142269,89.8664336 C200.979306,89.9535872 200.817663,90 200.371904,90 L180.281943,90 C179.836183,90 179.67454,89.9535872 179.511577,89.8664336 C179.348614,89.7792801 179.22072,89.6513858 179.133566,89.4884229 C179.046413,89.3254599 179,89.1638168 179,88.7180574 L179,87.2819426 C179,86.8361832 179.046413,86.6745401 179.133566,86.5115771 C179.22072,86.3486142 179.348614,86.2207199 179.511577,86.1335664 C179.67454,86.0464128 179.836183,86 180.281943,86 Z" id="Rectangle" fill="color(display-p3 0.498 0.573 0.514)" opacity="0.25" mask="url(#mask-6)"></path>
                <path d="M180.281943,94 L234.718057,94 C235.163817,94 235.32546,94.0464128 235.488423,94.1335664 C235.651386,94.2207199 235.77928,94.3486142 235.866434,94.5115771 C235.953587,94.6745401 236,94.8361832 236,95.2819426 L236,96.7180574 C236,97.1638168 235.953587,97.3254599 235.866434,97.4884229 C235.77928,97.6513858 235.651386,97.7792801 235.488423,97.8664336 C235.32546,97.9535872 235.163817,98 234.718057,98 L180.281943,98 C179.836183,98 179.67454,97.9535872 179.511577,97.8664336 C179.348614,97.7792801 179.22072,97.6513858 179.133566,97.4884229 C179.046413,97.3254599 179,97.1638168 179,96.7180574 L179,95.2819426 C179,94.8361832 179.046413,94.6745401 179.133566,94.5115771 C179.22072,94.3486142 179.348614,94.2207199 179.511577,94.1335664 C179.67454,94.0464128 179.836183,94 180.281943,94 Z" id="Rectangle" fill="color(display-p3 0.498 0.573 0.514)" opacity="0.25" mask="url(#mask-6)"></path>
                <path d="M180.281943,102 L225.948827,102 C226.394586,102 226.556229,102.046413 226.719192,102.133566 C226.882155,102.22072 227.010049,102.348614 227.097203,102.511577 C227.184356,102.67454 227.230769,102.836183 227.230769,103.281943 L227.230769,104.718057 C227.230769,105.163817 227.184356,105.32546 227.097203,105.488423 C227.010049,105.651386 226.882155,105.77928 226.719192,105.866434 C226.556229,105.953587 226.394586,106 225.948827,106 L180.281943,106 C179.836183,106 179.67454,105.953587 179.511577,105.866434 C179.348614,105.77928 179.22072,105.651386 179.133566,105.488423 C179.046413,105.32546 179,105.163817 179,104.718057 L179,103.281943 C179,102.836183 179.046413,102.67454 179.133566,102.511577 C179.22072,102.348614 179.348614,102.22072 179.511577,102.133566 C179.67454,102.046413 179.836183,102 180.281943,102 Z" id="Rectangle" fill="color(display-p3 0.498 0.573 0.514)" opacity="0.25" mask="url(#mask-6)"></path>
                <path d="M180.281943,110 L206.218057,110 C206.663817,110 206.82546,110.046413 206.988423,110.133566 C207.151386,110.22072 207.27928,110.348614 207.366434,110.511577 C207.453587,110.67454 207.5,110.836183 207.5,111.281943 L207.5,112.718057 C207.5,113.163817 207.453587,113.32546 207.366434,113.488423 C207.27928,113.651386 207.151386,113.77928 206.988423,113.866434 C206.82546,113.953587 206.663817,114 206.218057,114 L180.281943,114 C179.836183,114 179.67454,113.953587 179.511577,113.866434 C179.348614,113.77928 179.22072,113.651386 179.133566,113.488423 C179.046413,113.32546 179,113.163817 179,112.718057 L179,111.281943 C179,110.836183 179.046413,110.67454 179.133566,110.511577 C179.22072,110.348614 179.348614,110.22072 179.511577,110.133566 C179.67454,110.046413 179.836183,110 180.281943,110 Z" id="Rectangle" fill="color(display-p3 0.498 0.573 0.514)" opacity="0.25" mask="url(#mask-6)"></path>
            </g>
        </g>
    </g>
</svg>