<?xml version="1.0" encoding="UTF-8"?>
<svg width="476px" height="280px" viewBox="0 0 476 280" version="1.1" xmlns="http://www.w3.org/2000/svg" xmlns:xlink="http://www.w3.org/1999/xlink">
    <title>Quality of Frameworks</title>
    <defs>
        <path d="M0,0 L476,0 L476,280 L0,280 L0,0 Z" id="path-1"></path>
        <path d="M0,0 L476,0 L476,672 L0,672 L0,0 Z" id="path-2"></path>
        <path d="M0,0 L476,0 L476,15 L0,15 L0,0 Z" id="path-3"></path>
        <path d="M0,0 L350,0 L350,182 L0,182 L0,0 Z" id="path-4"></path>
    </defs>
    <g id="Quality-of-Frameworks" stroke="none" fill="none" xlink:href="#path-1">
        <use fill="color(display-p3 0.992 0.976 0.933)" fill-rule="evenodd" xlink:href="#path-1"></use>
        <use fill-opacity="0.06" fill="color(display-p3 0.494 0.549 0.514)" fill-rule="evenodd" xlink:href="#path-1"></use>
        <g id="Stack" opacity="0.0299999993" xlink:href="#path-2" stroke="color(display-p3 0.494 0.549 0.514)" stroke-width="1">
            <line x1="476" y1="280" x2="0" y2="280" id="Path"></line>
            <line x1="476" y1="266" x2="0" y2="266" id="Path"></line>
            <line x1="476" y1="252" x2="0" y2="252" id="Path"></line>
            <line x1="476" y1="238" x2="0" y2="238" id="Path"></line>
            <line x1="476" y1="224" x2="0" y2="224" id="Path"></line>
            <line x1="476" y1="210" x2="0" y2="210" id="Path"></line>
            <line x1="476" y1="196" x2="0" y2="196" id="Path"></line>
            <line x1="476" y1="182" x2="0" y2="182" id="Path"></line>
            <line x1="476" y1="168" x2="0" y2="168" id="Path"></line>
            <line x1="476" y1="154" x2="0" y2="154" id="Path"></line>
            <line x1="476" y1="140" x2="0" y2="140" id="Path"></line>
            <line x1="476" y1="126" x2="0" y2="126" id="Path"></line>
            <line x1="476" y1="112" x2="0" y2="112" id="Path"></line>
            <line x1="476" y1="98" x2="0" y2="98" id="Path"></line>
            <line x1="476" y1="84" x2="0" y2="84" id="Path"></line>
            <line x1="476" y1="70" x2="0" y2="70" id="Path"></line>
            <line x1="476" y1="56" x2="0" y2="56" id="Path"></line>
            <line x1="476" y1="42" x2="0" y2="42" id="Path"></line>
            <line x1="476" y1="28" x2="0" y2="28" id="Path"></line>
            <line x1="476" y1="14" x2="0" y2="14" id="Path"></line>
        </g>
        <g id="Stack" opacity="0.0299999993" xlink:href="#path-3" stroke="color(display-p3 0.494 0.549 0.514)" stroke-width="1">
            <line x1="462" y1="-532.5" x2="462" y2="547.5" id="Path"></line>
            <line x1="448" y1="-532.5" x2="448" y2="547.5" id="Path"></line>
            <line x1="434" y1="-532.5" x2="434" y2="547.5" id="Path"></line>
            <line x1="420" y1="-532.5" x2="420" y2="547.5" id="Path"></line>
            <line x1="406" y1="-532.5" x2="406" y2="547.5" id="Path"></line>
            <line x1="392" y1="-532.5" x2="392" y2="547.5" id="Path"></line>
            <line x1="378" y1="-532.5" x2="378" y2="547.5" id="Path"></line>
            <line x1="364" y1="-532.5" x2="364" y2="547.5" id="Path"></line>
            <line x1="350" y1="-532.5" x2="350" y2="547.5" id="Path"></line>
            <line x1="336" y1="-532.5" x2="336" y2="547.5" id="Path"></line>
            <line x1="322" y1="-532.5" x2="322" y2="547.5" id="Path"></line>
            <line x1="308" y1="-532.5" x2="308" y2="547.5" id="Path"></line>
            <line x1="294" y1="-532.5" x2="294" y2="547.5" id="Path"></line>
            <line x1="280" y1="-532.5" x2="280" y2="547.5" id="Path"></line>
            <line x1="266" y1="-532.5" x2="266" y2="547.5" id="Path"></line>
            <line x1="252" y1="-532.5" x2="252" y2="547.5" id="Path"></line>
            <line x1="238" y1="-532.5" x2="238" y2="547.5" id="Path"></line>
            <line x1="224" y1="-532.5" x2="224" y2="547.5" id="Path"></line>
            <line x1="210" y1="-532.5" x2="210" y2="547.5" id="Path"></line>
            <line x1="196" y1="-532.5" x2="196" y2="547.5" id="Path"></line>
            <line x1="182" y1="-532.5" x2="182" y2="547.5" id="Path"></line>
            <line x1="168" y1="-532.5" x2="168" y2="547.5" id="Path"></line>
            <line x1="154" y1="-532.5" x2="154" y2="547.5" id="Path"></line>
            <line x1="140" y1="-532.5" x2="140" y2="547.5" id="Path"></line>
            <line x1="126" y1="-532.5" x2="126" y2="547.5" id="Path"></line>
            <line x1="112" y1="-532.5" x2="112" y2="547.5" id="Path"></line>
            <line x1="98" y1="-532.5" x2="98" y2="547.5" id="Path"></line>
            <line x1="84" y1="-532.5" x2="84" y2="547.5" id="Path"></line>
            <line x1="70" y1="-532.5" x2="70" y2="547.5" id="Path"></line>
            <line x1="56" y1="-532.5" x2="56" y2="547.5" id="Path"></line>
            <line x1="42" y1="-532.5" x2="42" y2="547.5" id="Path"></line>
            <line x1="28" y1="-532.5" x2="28" y2="547.5" id="Path"></line>
            <line x1="14" y1="-532.5" x2="14" y2="547.5" id="Path"></line>
        </g>
        <text id="How-is-the-relation" fill-rule="nonzero" font-family="NiceVAR-MicroBoldItalic, Nice VAR" font-size="11" font-style="italic" font-weight="bold" fill="color(display-p3 0.498 0.573 0.514)">
            <tspan x="131.846207" y="39">How is the relation between quality for </tspan>
            <tspan x="176.697777" y="53">different frameworks?</tspan>
        </text>
        <g transform="translate(84, 70)" xlink:href="#path-4">
            <g id="Quality-(on-Mac)" stroke-width="1" fill-rule="evenodd" transform="translate(4.5, 46.5) rotate(-90) translate(-4.5, -46.5)translate(-28, 41)" fill="color(display-p3 0.498 0.573 0.514)" opacity="0.600000024">
                <path d="M2.41292373,8.096 C3.57390469,8.096 4.39245108,7.26377637 4.39245108,5.90145361 C4.39245108,4.54301904 3.57390469,3.73845996 2.41292373,3.73845996 C1.24005459,3.73845996 0.425620022,4.53913086 0.425620022,5.90145361 C0.425620022,7.26377637 1.24005459,8.096 2.41292373,8.096 Z M2.41292373,7.47540527 C1.6985502,7.47540527 1.24974209,6.87893262 1.24974209,5.90145361 C1.24974209,4.96285645 1.6985502,4.40616016 2.41292373,4.40616016 C3.11540908,4.40616016 3.56832901,4.96285645 3.56832901,5.90145361 C3.56832901,6.87893262 3.11540908,7.47540527 2.41292373,7.47540527 Z M3.78624014,9.25952734 C4.08755655,9.25952734 4.34610293,9.20419824 4.50087295,9.12509277 L4.35133291,8.55115625 C4.21989199,8.59093262 4.06833926,8.62293262 3.87222744,8.62293262 C3.3538793,8.62293262 2.94132022,8.44380176 2.76898477,7.90668359 L1.97596817,7.9766709 C2.24573184,8.72531641 2.83205459,9.25952734 3.78624014,9.25952734 Z" id="Shape" fill-rule="nonzero"></path>
                <path d="M7.66644302,8.096 C8.67310745,8.096 9.33934073,7.5949469 9.33934073,6.2177384 L9.33934073,3.83575256 L8.58089517,3.83575256 L8.58089517,6.23454407 C8.58089517,7.1406853 8.21075393,7.42828247 7.66644302,7.42828247 C7.12213211,7.42828247 6.75502969,7.1406853 6.75502969,6.23454407 L6.75502969,3.83575256 L5.96114248,3.83575256 L5.96114248,6.2177384 C5.96114248,7.5949469 6.65177859,8.096 7.66644302,8.096 Z" id="Path" fill-rule="nonzero"></path>
                <path d="M10.4289238,8 L11.2357722,8 L11.9304718,5.80130042 C12.0626273,5.3571449 12.1807051,4.90833923 12.3098218,4.45922253 L12.3418218,4.45922253 C12.4774189,4.90033923 12.5954967,5.35562549 12.7341328,5.80130042 L13.419313,8 L14.2551224,8 L12.8007337,3.83575269 L11.8817934,3.83575269 L10.4289238,8 L10.4289238,8 Z M11.2869383,6.9289895 L13.3875885,6.9289895 L13.3875885,6.30319421 L11.2869383,6.30319421 L11.2869383,6.9289895 Z" id="Shape" fill-rule="nonzero"></path>
                <polygon id="Path" fill-rule="nonzero" points="15.4471854 8 18.0847332 8 18.0847332 7.34180188 16.247553 7.34180188 16.247553 3.83575256 15.4471852 3.83575256 15.4471852 7.99999988"></polygon>
                <polygon id="Path" fill-rule="nonzero" points="19.5123304 8 20.3126982 8 20.3126982 3.83575269 19.5123304 3.83575269"></polygon>
                <polygon id="Path" fill-rule="nonzero" points="22.9980338 8 23.7984016 8 23.7984016 4.49395068 25.0733485 4.49395068 25.0733485 3.83575256 21.7166063 3.83575256 21.7166063 4.49395068 22.9980338 4.49395068"></polygon>
                <path d="M27.0220623,8 L27.8224301,8 L27.8224301,6.46561133 L29.1584301,3.83575256 L28.3306207,3.83575256 L27.8499989,4.87101038 C27.7174405,5.17997144 27.5833628,5.4664519 27.4477656,5.78189355 L27.4157656,5.78189355 C27.2721684,5.4664519 27.1380907,5.17997144 27.0104935,4.87101038 L26.5298717,3.83575256 L25.6875816,3.83575256 L27.0220621,6.46561133 L27.0220621,8 L27.0220623,8 Z" id="Path" fill-rule="nonzero"></path>
                <path d="M33.4290455,9.0153291 L33.922982,8.79490723 C33.3140875,7.95168994 33.0247457,6.95834814 33.0247457,5.97711816 C33.0247457,4.99588818 33.3140875,4.00254639 33.922982,3.1593291 L33.4290455,2.93890723 C32.7652691,3.83790088 32.3730455,4.80956543 32.3730455,5.97711816 C32.3730455,7.1446709 32.7652691,8.11633545 33.4290455,9.0153291 Z" id="Path" fill-rule="nonzero"></path>
                <path d="M37.1371722,8.096 C38.2968613,8.096 39.1167058,7.264 39.1167058,5.90663611 C39.1167058,4.53631104 38.2968613,3.73975269 37.1371722,3.73975269 C35.9710025,3.73975269 35.1511581,4.53631104 35.1511581,5.90663611 C35.1511581,7.264 35.9710025,8.096 37.1371722,8.096 Z M37.1371722,7.42828247 C36.4295116,7.42828247 35.9740063,6.84133557 35.9740063,5.90663599 C35.9740063,4.96545581 36.4295116,4.40746997 37.1371722,4.40746997 C37.8383524,4.40746997 38.2938576,4.96545581 38.2938576,5.90663599 C38.2938576,6.84133557 37.8383524,7.42828247 37.1371722,7.42828247 Z" id="Shape" fill-rule="nonzero"></path>
                <path d="M40.7091723,8 L41.4481761,8 L41.4481761,6.250474 C41.4481761,5.78222668 41.3932928,5.20036792 41.34489,4.76148462 L41.37689,4.76148462 C41.5204872,5.10436792 41.6999288,5.46709583 41.8534483,5.73301807 L43.1867555,8 L44.0549679,8 L44.0549679,3.82927209 L43.3094835,3.82927209 L43.3094835,5.58527869 C43.3094835,6.053526 43.3708474,6.62890417 43.4127696,7.06778748 L43.3807696,7.06778748 C43.2436529,6.72490417 43.0642113,6.36217627 42.9106917,6.09625403 L41.5709041,3.82927209 L40.7091723,3.82927209 L40.7091723,8 Z" id="Path" fill-rule="nonzero"></path>
                <path d="M48.034628,8.00000012 L48.760671,8.00000012 L48.760671,6.17472144 C48.760671,5.78191577 48.6928265,5.18294043 48.6509043,4.78213477 L48.6829043,4.78213477 L49.0448265,5.80774609 L49.7585649,7.61680579 L50.1830597,7.61680579 L50.8967981,5.80774609 L51.2587203,4.78213477 L51.2907203,4.78213477 C51.235837,5.18294043 51.1874342,5.78191577 51.1874342,6.17472144 L51.1874342,8.00000012 L51.9134769,8.00000012 L51.9134769,3.82927209 L51.0110314,3.82927209 L50.2515261,5.84651575 C50.1524872,6.11163245 50.0664094,6.37674915 49.9932927,6.64186584 L49.9612927,6.64186584 C49.888176,6.37674915 49.7956177,6.09867139 49.7030593,5.84651587 L48.9435541,3.82927209 L48.034628,3.82927209 L48.034628,8.00000012 L48.034628,8.00000012 Z" id="Path" fill-rule="nonzero"></path>
                <path d="M53.0990597,8 L53.9059081,8 L54.6006077,5.80130042 C54.7327632,5.3571449 54.850841,4.90833923 54.9799577,4.45922253 L55.0119577,4.45922253 C55.1475548,4.90033923 55.2656326,5.35562549 55.4042687,5.80130042 L56.0894489,8 L56.9252583,8 L55.4708697,3.83575269 L54.5519294,3.83575269 L53.0990597,8 L53.0990597,8 Z M53.9570742,6.9289895 L56.0577244,6.9289895 L56.0577244,6.30319421 L53.9570742,6.30319421 L53.9570742,6.9289895 Z" id="Shape" fill-rule="nonzero"></path>
                <path d="M59.8401411,8.09600037 C60.4226216,8.09600037 60.8569466,7.89103894 61.2348689,7.47159729 L60.8156461,7.02301062 C60.5684518,7.27628271 60.2747768,7.42828271 59.8740631,7.42828271 C59.1233635,7.42828271 58.6464942,6.87373865 58.6464942,5.90663623 C58.6464942,4.97345605 59.1622469,4.40747021 59.9060631,4.40747021 C60.2507768,4.40747021 60.5124518,4.54458691 60.7330101,4.75866467 L61.1651939,4.28759741 C60.8927911,3.98623352 60.4569466,3.73975305 59.8995827,3.73975305 C58.7441411,3.73975305 57.8301269,4.55879199 57.8301269,5.93255872 C57.8301269,7.33528662 58.7102188,8.09600037 59.8401411,8.09600037 L59.8401411,8.09600037 Z" id="Path" fill-rule="nonzero"></path>
                <path d="M62.80954,9.0153291 C63.4733164,8.11633545 63.86554,7.1446709 63.86554,5.97711816 C63.86554,4.80956543 63.4733164,3.83790088 62.80954,2.93890723 L62.3156035,3.1593291 C62.924498,4.00254639 63.2138398,4.99588818 63.2138398,5.97711816 C63.2138398,6.95834814 62.924498,7.95168994 62.3156035,8.79490723 L62.80954,9.0153291 Z" id="Path" fill-rule="nonzero"></path>
            </g>
            <g id="Effort-to-Make-Mac-A" stroke-width="1" fill-rule="evenodd" transform="translate(150, 172)" fill="color(display-p3 0.498 0.573 0.514)" opacity="0.600000024">
                <polygon id="Path" fill-rule="nonzero" points="1.43283523 8 4.19149966 8 4.19149966 7.33532129 2.2332029 7.33532129 2.2332029 6.15633936 3.82734414 6.15633936 3.82734414 5.50462183 2.2332029 5.50462183 2.2332029 4.49395081 4.11149966 4.49395081 4.11149966 3.83575269 1.43283523 3.83575269"></polygon>
                <polygon id="Path" fill-rule="nonzero" points="5.78173289 8 6.58210069 8 6.58210069 6.3141062 8.20064475 6.3141062 8.20064475 5.66390808 6.58210069 5.66390808 6.58210069 4.50539246 8.47183909 4.50539246 8.47183909 3.83575269 5.78173289 3.83575269"></polygon>
                <polygon id="Path" fill-rule="nonzero" points="9.89639739 8 10.6967652 8 10.6967652 6.3141062 12.3153093 6.3141062 12.3153093 5.66390808 10.6967652 5.66390808 10.6967652 4.50539246 12.5865036 4.50539246 12.5865036 3.83575269 9.89639739 3.83575269"></polygon>
                <path d="M15.7098817,8.096 C16.8695708,8.096 17.6894153,7.264 17.6894153,5.90663611 C17.6894153,4.53631104 16.8695708,3.73975269 15.7098817,3.73975269 C14.543712,3.73975269 13.7238675,4.53631104 13.7238675,5.90663611 C13.7238675,7.264 14.543712,8.096 15.7098817,8.096 Z M15.7098817,7.42828247 C15.0022211,7.42828247 14.5467158,6.84133557 14.5467158,5.90663599 C14.5467158,4.96545581 15.0022211,4.40746997 15.7098817,4.40746997 C16.4110619,4.40746997 16.8665671,4.96545581 16.8665671,5.90663599 C16.8665671,6.84133557 16.4110619,7.42828247 15.7098817,7.42828247 Z" id="Shape" fill-rule="nonzero"></path>
                <path d="M19.2818818,8 L20.0822496,8 L20.0822496,6.42458667 L20.7971046,6.42458667 C21.7274297,6.42458667 22.4284828,5.94833936 22.4284828,5.08424744 C22.4284828,4.13327209 21.7129492,3.83575256 20.7811047,3.83575256 L19.2818818,3.83575256 L19.2818818,8 L19.2818818,8 Z M20.0822497,5.81327209 L20.0822497,4.49243127 L20.7011047,4.49243127 C21.3162071,4.49243127 21.6669986,4.65314502 21.6669986,5.12313086 C21.6669986,5.58855835 21.3482071,5.81327209 20.7075853,5.81327209 L20.0822497,5.81327209 L20.0822497,5.81327209 Z M21.7394014,8 L22.5976914,8 L21.3504971,5.99696106 L20.6522989,6.20201416 L21.7394014,8 Z" id="Shape" fill-rule="nonzero"></path>
                <polygon id="Path" fill-rule="nonzero" points="24.7394282 8 25.539796 8 25.539796 4.49395068 26.8147429 4.49395068 26.8147429 3.83575256 23.4580007 3.83575256 23.4580007 4.49395068 24.7394282 4.49395068"></polygon>
                <polygon id="Path" fill-rule="nonzero" points="31.1243259 8 31.9246937 8 31.9246937 4.49395068 33.1996406 4.49395068 33.1996406 3.83575256 29.8428984 3.83575256 29.8428984 4.49395068 31.1243259 4.49395068"></polygon>
                <path d="M36.1012503,8.096 C37.2609393,8.096 38.0807838,7.264 38.0807838,5.90663611 C38.0807838,4.53631104 37.2609393,3.73975269 36.1012503,3.73975269 C34.9350806,3.73975269 34.1152361,4.53631104 34.1152361,5.90663611 C34.1152361,7.264 34.9350806,8.096 36.1012503,8.096 Z M36.1012503,7.42828247 C35.3935896,7.42828247 34.9380844,6.84133557 34.9380844,5.90663599 C34.9380844,4.96545581 35.3935896,4.40746997 36.1012503,4.40746997 C36.8024304,4.40746997 37.2579357,4.96545581 37.2579357,5.90663599 C37.2579357,6.84133557 36.8024304,7.42828247 36.1012503,7.42828247 Z" id="Shape" fill-rule="nonzero"></path>
                <path d="M41.7732501,8.00000012 L42.4992931,8.00000012 L42.4992931,6.17472144 C42.4992931,5.78191577 42.4314486,5.18294043 42.3895264,4.78213477 L42.4215264,4.78213477 L42.7834486,5.80774609 L43.497187,7.61680579 L43.9216818,7.61680579 L44.6354202,5.80774609 L44.9973424,4.78213477 L45.0293424,4.78213477 C44.9744591,5.18294043 44.9260563,5.78191577 44.9260563,6.17472144 L44.9260563,8.00000012 L45.652099,8.00000012 L45.652099,3.82927209 L44.7496535,3.82927209 L43.9901482,5.84651575 C43.8911093,6.11163245 43.8050315,6.37674915 43.7319148,6.64186584 L43.6999148,6.64186584 C43.6267981,6.37674915 43.5342398,6.09867139 43.4416814,5.84651587 L42.6821762,3.82927209 L41.7732501,3.82927209 L41.7732501,8.00000012 L41.7732501,8.00000012 Z" id="Path" fill-rule="nonzero"></path>
                <path d="M46.8376818,8 L47.6445302,8 L48.3392298,5.80130042 C48.4713853,5.3571449 48.5894631,4.90833923 48.7185798,4.45922253 L48.7505798,4.45922253 C48.8861769,4.90033923 49.0042547,5.35562549 49.1428908,5.80130042 L49.828071,8 L50.6638804,8 L49.2094918,3.83575269 L48.2905514,3.83575269 L46.8376818,8 L46.8376818,8 Z M47.6956963,6.9289895 L49.7963465,6.9289895 L49.7963465,6.30319421 L47.6956963,6.30319421 L47.6956963,6.9289895 Z" id="Shape" fill-rule="nonzero"></path>
                <polygon id="Path" fill-rule="nonzero" points="51.8572439 8 52.6575896 8 52.6575896 6.71552734 53.3060876 6.01992383 54.4981384 8 55.3538132 8 53.7775896 5.4706582 55.147155 3.83445996 54.2754802 3.83445996 52.681366 5.69520703 52.6575896 5.69520703 52.6575896 3.83445996 51.8572439 3.83445996"></polygon>
                <polygon id="Path" fill-rule="nonzero" points="56.5541035 8 59.3127679 8 59.3127679 7.33532129 57.3544712 7.33532129 57.3544712 6.15633936 58.9486124 6.15633936 58.9486124 5.50462183 57.3544712 5.50462183 57.3544712 4.49395081 59.2327679 4.49395081 59.2327679 3.83575269 56.5541035 3.83575269"></polygon>
                <path d="M63.0030009,8.00000012 L63.7290439,8.00000012 L63.7290439,6.17472144 C63.7290439,5.78191577 63.6611994,5.18294043 63.6192772,4.78213477 L63.6512772,4.78213477 L64.0131994,5.80774609 L64.7269378,7.61680579 L65.1514326,7.61680579 L65.865171,5.80774609 L66.2270932,4.78213477 L66.2590932,4.78213477 C66.2042099,5.18294043 66.1558071,5.78191577 66.1558071,6.17472144 L66.1558071,8.00000012 L66.8818498,8.00000012 L66.8818498,3.82927209 L65.9794042,3.82927209 L65.219899,5.84651575 C65.1208601,6.11163245 65.0347823,6.37674915 64.9616656,6.64186584 L64.9296656,6.64186584 C64.8565489,6.37674915 64.7639906,6.09867139 64.6714322,5.84651587 L63.911927,3.82927209 L63.0030009,3.82927209 L63.0030009,8.00000012 L63.0030009,8.00000012 Z" id="Path" fill-rule="nonzero"></path>
                <path d="M68.0674326,8 L68.874281,8 L69.5689806,5.80130042 C69.7011361,5.3571449 69.8192139,4.90833923 69.9483306,4.45922253 L69.9803306,4.45922253 C70.1159277,4.90033923 70.2340055,5.35562549 70.3726416,5.80130042 L71.0578218,8 L71.8936312,8 L70.4392425,3.83575269 L69.5203022,3.83575269 L68.0674326,8 L68.0674326,8 Z M68.9254471,6.9289895 L71.0260973,6.9289895 L71.0260973,6.30319421 L68.9254471,6.30319421 L68.9254471,6.9289895 Z" id="Shape" fill-rule="nonzero"></path>
                <path d="M74.808514,8.09600037 C75.3909944,8.09600037 75.8253195,7.89103894 76.2032418,7.47159729 L75.784019,7.02301062 C75.5368246,7.27628271 75.2431497,7.42828271 74.842436,7.42828271 C74.0917364,7.42828271 73.6148671,6.87373865 73.6148671,5.90663623 C73.6148671,4.97345605 74.1306198,4.40747021 74.874436,4.40747021 C75.2191497,4.40747021 75.4808246,4.54458691 75.701383,4.75866467 L76.1335668,4.28759741 C75.861164,3.98623352 75.4253195,3.73975305 74.8679556,3.73975305 C73.712514,3.73975305 72.7984998,4.55879199 72.7984998,5.93255872 C72.7984998,7.33528662 73.6785917,8.09600037 74.808514,8.09600037 L74.808514,8.09600037 Z" id="Path" fill-rule="nonzero"></path>
                <polygon id="Path" fill-rule="nonzero" points="77.0562254 6.13085645 78.9242 6.13085645 78.9242 5.54091992 77.0562254 5.54091992"></polygon>
                <path d="M79.7537624,8 L80.5606108,8 L81.2553104,5.80130042 C81.3874659,5.3571449 81.5055437,4.90833923 81.6346604,4.45922253 L81.6666604,4.45922253 C81.8022575,4.90033923 81.9203353,5.35562549 82.0589714,5.80130042 L82.7441516,8 L83.579961,8 L82.1255724,3.83575269 L81.206632,3.83575269 L79.7537624,8 L79.7537624,8 Z M80.6117769,6.9289895 L82.7124271,6.9289895 L82.7124271,6.30319421 L80.6117769,6.30319421 L80.6117769,6.9289895 Z" id="Shape" fill-rule="nonzero"></path>
                <path d="M86.0027273,8.096 C86.9865901,8.096 87.5850247,7.5620127 87.5850247,6.84469629 C87.5850247,6.17314355 87.1818074,5.92259717 86.531261,5.67070898 L86.0325774,5.47325537 C85.6372229,5.31557813 85.4032102,5.18623633 85.4032102,4.87821094 C85.4032102,4.5578501 85.6632356,4.36683105 86.0770501,4.36683105 C86.4667273,4.36683105 86.8228391,4.52727832 87.1099446,4.75994922 L87.4954593,4.27289453 C87.1616956,3.96245996 86.6674847,3.73457178 86.0926028,3.73457178 C85.2129637,3.73457178 84.6028645,4.20844727 84.6028645,4.92531641 C84.6028645,5.53930371 85.0815227,5.85063281 85.6492991,6.07463281 L86.1475354,6.27575098 C86.5104427,6.42109277 86.784679,6.5499873 86.784679,6.91513086 C86.784679,7.24438623 86.5082063,7.46762891 86.0338328,7.46762891 C85.5520437,7.46762891 85.1154847,7.29028711 84.7488264,6.96939258 L84.3706409,7.48022363 C84.7770755,7.8633291 85.3348391,8.096 86.0027273,8.096 Z" id="Path" fill-rule="nonzero"></path>
                <path d="M90.2715711,8.096 C91.2554339,8.096 91.8538684,7.5620127 91.8538684,6.84469629 C91.8538684,6.17314355 91.4506512,5.92259717 90.8001048,5.67070898 L90.3014212,5.47325537 C89.9060667,5.31557813 89.672054,5.18623633 89.672054,4.87821094 C89.672054,4.5578501 89.9320794,4.36683105 90.3458938,4.36683105 C90.7355711,4.36683105 91.0916829,4.52727832 91.3787884,4.75994922 L91.764303,4.27289453 C91.4305393,3.96245996 90.9363284,3.73457178 90.3614466,3.73457178 C89.4818074,3.73457178 88.8717083,4.20844727 88.8717083,4.92531641 C88.8717083,5.53930371 89.3503665,5.85063281 89.9181429,6.07463281 L90.4163792,6.27575098 C90.7792864,6.42109277 91.0535227,6.5499873 91.0535227,6.91513086 C91.0535227,7.24438623 90.7770501,7.46762891 90.3026765,7.46762891 C89.8208875,7.46762891 89.3843284,7.29028711 89.0176702,6.96939258 L88.6394847,7.48022363 C89.0459192,7.8633291 89.6036829,8.096 90.2715711,8.096 Z" id="Path" fill-rule="nonzero"></path>
                <polygon id="Path" fill-rule="nonzero" points="93.3485933 8 96.1072577 8 96.1072577 7.33532129 94.148961 7.33532129 94.148961 6.15633936 95.7431022 6.15633936 95.7431022 5.50462183 94.148961 5.50462183 94.148961 4.49395081 96.0272577 4.49395081 96.0272577 3.83575269 93.3485933 3.83575269"></polygon>
                <path d="M97.697491,8 L98.9387914,8 C100.256466,8 101.097364,7.30561133 101.097364,5.9001554 C101.097364,4.50118005 100.256466,3.83575256 98.8934274,3.83575256 L97.697491,3.83575256 L97.697491,8 L97.697491,8 Z M98.4978588,7.37724377 L98.4978588,4.46002844 L98.9197525,4.46002844 C99.8242825,4.46002844 100.274516,4.95928625 100.274516,5.90015552 C100.274516,6.88214136 99.8242825,7.37724377 98.9197525,7.37724377 L98.4978588,7.37724377 L98.4978588,7.37724377 Z" id="Shape" fill-rule="nonzero"></path>
            </g>
            <rect id="Rectangle" fill-opacity="0.15" fill="color(display-p3 0.498 0.573 0.514)" fill-rule="evenodd" x="14" y="14" width="168" height="154"></rect>
            <text id="Most-apps-are-in-thi" opacity="0.600000024" font-family="SourceSans3VF-Medium, SourceSans3VF" font-size="8" font-weight="400" letter-spacing="0.1" fill="color(display-p3 0.498 0.573 0.514)">
                <tspan x="72.0667526" y="25">Most apps are in this spectrum</tspan>
            </text>
            <line x1="14" y1="15" x2="14" y2="168" id="Path" stroke="color(display-p3 0.498 0.573 0.514)" stroke-width="0.8" stroke-linecap="square"></line>
            <line x1="132.5" y1="49.5" x2="132.5" y2="286.5" id="Path" stroke="color(display-p3 0.498 0.573 0.514)" stroke-width="0.8" stroke-linecap="square" transform="translate(132.5, 168) rotate(-90) translate(-132.5, -168)"></line>
            <polygon id="Path" fill="color(display-p3 0.498 0.573 0.514)" fill-rule="evenodd" points="252 168 248 164 248 172"></polygon>
            <polygon id="Path" fill="color(display-p3 0.498 0.573 0.514)" fill-rule="evenodd" transform="translate(14, 16) rotate(-90) translate(-14, -16)" points="16 16 12 12 12 20"></polygon>
            <line x1="105.25" y1="-77.25" x2="160.75" y2="160.75" id="Path" stroke="color(display-p3 0.498 0.573 0.514)" stroke-width="0.8" opacity="0.300000012" stroke-linecap="square" transform="translate(133, 41.75) rotate(-90) translate(-133, -41.75)"></line>
            <line x1="84.25" y1="-42.25" x2="181.75" y2="195.75" id="Path" stroke="color(display-p3 0.498 0.573 0.514)" stroke-width="0.8" opacity="0.300000012" stroke-linecap="square" transform="translate(133, 76.75) rotate(-90) translate(-133, -76.75)"></line>
            <line x1="98.25" y1="13.75" x2="167.75" y2="251.75" id="Path" stroke="color(display-p3 0.498 0.573 0.514)" stroke-width="0.8" opacity="0.300000012" stroke-linecap="square" transform="translate(133, 132.75) rotate(-90) translate(-133, -132.75)"></line>
            <line x1="91.25" y1="6.75" x2="174.75" y2="244.75" id="Path" stroke="color(display-p3 0.498 0.573 0.514)" stroke-width="0.8" opacity="0.300000012" stroke-linecap="square" transform="translate(133, 125.75) rotate(-90) translate(-133, -125.75)"></line>
            <line x1="105.25" y1="-21.25" x2="160.75" y2="216.75" id="Path" stroke="color(display-p3 0.498 0.573 0.514)" stroke-width="0.8" opacity="0.300000012" stroke-linecap="square" transform="translate(133, 97.75) rotate(-90) translate(-133, -97.75)"></line>
            <text id="AppKit" font-family="SourceSans3VF-Medium, SourceSans3VF" font-size="8" font-weight="400" fill="color(display-p3 0.498 0.573 0.514)">
                <tspan x="257" y="16">AppKit</tspan>
            </text>
            <text id="SwiftUI" font-family="SourceSans3VF-Medium, SourceSans3VF" font-size="8" font-weight="400" fill="color(display-p3 0.498 0.573 0.514)">
                <tspan x="257" y="30">SwiftUI</tspan>
            </text>
            <text id="Flutter-/-React-Nati" font-family="SourceSans3VF-Medium, SourceSans3VF" font-size="8" font-weight="400" fill="color(display-p3 0.498 0.573 0.514)">
                <tspan x="257" y="86">Flutter / React Native</tspan>
            </text>
            <text id="Electron" font-family="SourceSans3VF-Medium, SourceSans3VF" font-size="8" font-weight="400" fill="color(display-p3 0.498 0.573 0.514)">
                <tspan x="257" y="100">Electron</tspan>
            </text>
            <text id="Mac-Catalyst" font-family="SourceSans3VF-Medium, SourceSans3VF" font-size="8" font-weight="400" fill="color(display-p3 0.498 0.573 0.514)">
                <tspan x="257" y="72">Mac Catalyst</tspan>
            </text>
        </g>
    </g>
</svg>