<?xml version="1.0" encoding="UTF-8"?>
<svg width="476px" height="224px" viewBox="0 0 476 224" version="1.1" xmlns="http://www.w3.org/2000/svg" xmlns:xlink="http://www.w3.org/1999/xlink">
    <title>Quality Potential of Frameworks</title>
    <defs>
        <path d="M0,0 L476,0 L476,224 L0,224 L0,0 Z" id="path-1"></path>
        <path d="M0,0 L476,0 L476,672 L0,672 L0,0 Z" id="path-2"></path>
        <path d="M0,0 L476,0 L476,15 L0,15 L0,0 Z" id="path-3"></path>
        <path d="M0,0 L350,0 L350,126 L0,126 L0,0 Z" id="path-4"></path>
    </defs>
    <g id="Quality-Potential-of-Frameworks" stroke="none" fill="none" xlink:href="#path-1">
        <use fill="color(display-p3 0.992 0.976 0.933)" fill-rule="evenodd" xlink:href="#path-1"></use>
        <use fill-opacity="0.06" fill="color(display-p3 0.494 0.549 0.514)" fill-rule="evenodd" xlink:href="#path-1"></use>
        <g id="Stack" opacity="0.0299999993" xlink:href="#path-2" stroke="color(display-p3 0.494 0.549 0.514)" stroke-width="1">
            <line x1="476" y1="224" x2="0" y2="224" id="Path"></line>
            <line x1="476" y1="210" x2="0" y2="210" id="Path"></line>
            <line x1="476" y1="196" x2="0" y2="196" id="Path"></line>
            <line x1="476" y1="182" x2="0" y2="182" id="Path"></line>
            <line x1="476" y1="168" x2="0" y2="168" id="Path"></line>
            <line x1="476" y1="154" x2="0" y2="154" id="Path"></line>
            <line x1="476" y1="140" x2="0" y2="140" id="Path"></line>
            <line x1="476" y1="126" x2="0" y2="126" id="Path"></line>
            <line x1="476" y1="112" x2="0" y2="112" id="Path"></line>
            <line x1="476" y1="98" x2="0" y2="98" id="Path"></line>
            <line x1="476" y1="84" x2="0" y2="84" id="Path"></line>
            <line x1="476" y1="70" x2="0" y2="70" id="Path"></line>
            <line x1="476" y1="56" x2="0" y2="56" id="Path"></line>
            <line x1="476" y1="42" x2="0" y2="42" id="Path"></line>
            <line x1="476" y1="28" x2="0" y2="28" id="Path"></line>
            <line x1="476" y1="14" x2="0" y2="14" id="Path"></line>
        </g>
        <g id="Stack" opacity="0.0299999993" xlink:href="#path-3" stroke="color(display-p3 0.494 0.549 0.514)" stroke-width="1">
            <line x1="462" y1="-532.5" x2="462" y2="547.5" id="Path"></line>
            <line x1="448" y1="-532.5" x2="448" y2="547.5" id="Path"></line>
            <line x1="434" y1="-532.5" x2="434" y2="547.5" id="Path"></line>
            <line x1="420" y1="-532.5" x2="420" y2="547.5" id="Path"></line>
            <line x1="406" y1="-532.5" x2="406" y2="547.5" id="Path"></line>
            <line x1="392" y1="-532.5" x2="392" y2="547.5" id="Path"></line>
            <line x1="378" y1="-532.5" x2="378" y2="547.5" id="Path"></line>
            <line x1="364" y1="-532.5" x2="364" y2="547.5" id="Path"></line>
            <line x1="350" y1="-532.5" x2="350" y2="547.5" id="Path"></line>
            <line x1="336" y1="-532.5" x2="336" y2="547.5" id="Path"></line>
            <line x1="322" y1="-532.5" x2="322" y2="547.5" id="Path"></line>
            <line x1="308" y1="-532.5" x2="308" y2="547.5" id="Path"></line>
            <line x1="294" y1="-532.5" x2="294" y2="547.5" id="Path"></line>
            <line x1="280" y1="-532.5" x2="280" y2="547.5" id="Path"></line>
            <line x1="266" y1="-532.5" x2="266" y2="547.5" id="Path"></line>
            <line x1="252" y1="-532.5" x2="252" y2="547.5" id="Path"></line>
            <line x1="238" y1="-532.5" x2="238" y2="547.5" id="Path"></line>
            <line x1="224" y1="-532.5" x2="224" y2="547.5" id="Path"></line>
            <line x1="210" y1="-532.5" x2="210" y2="547.5" id="Path"></line>
            <line x1="196" y1="-532.5" x2="196" y2="547.5" id="Path"></line>
            <line x1="182" y1="-532.5" x2="182" y2="547.5" id="Path"></line>
            <line x1="168" y1="-532.5" x2="168" y2="547.5" id="Path"></line>
            <line x1="154" y1="-532.5" x2="154" y2="547.5" id="Path"></line>
            <line x1="140" y1="-532.5" x2="140" y2="547.5" id="Path"></line>
            <line x1="126" y1="-532.5" x2="126" y2="547.5" id="Path"></line>
            <line x1="112" y1="-532.5" x2="112" y2="547.5" id="Path"></line>
            <line x1="98" y1="-532.5" x2="98" y2="547.5" id="Path"></line>
            <line x1="84" y1="-532.5" x2="84" y2="547.5" id="Path"></line>
            <line x1="70" y1="-532.5" x2="70" y2="547.5" id="Path"></line>
            <line x1="56" y1="-532.5" x2="56" y2="547.5" id="Path"></line>
            <line x1="42" y1="-532.5" x2="42" y2="547.5" id="Path"></line>
            <line x1="28" y1="-532.5" x2="28" y2="547.5" id="Path"></line>
            <line x1="14" y1="-532.5" x2="14" y2="547.5" id="Path"></line>
        </g>
        <text id="How-does-effort-to-m" fill-rule="nonzero" font-family="NiceVAR-MicroBoldItalic, Nice VAR" font-size="11" font-style="italic" font-weight="bold" fill="color(display-p3 0.498 0.573 0.514)">
            <tspan x="151.898682" y="39">How does effort to make an app</tspan>
            <tspan x="160.990097" y="53">Mac-assed affect its quality?</tspan>
        </text>
        <g transform="translate(84, 70)" xlink:href="#path-4">
            <g id="Quality-Potential" stroke-width="1" fill-rule="evenodd" transform="translate(4.5, 49.5) rotate(-90) translate(-4.5, -49.5)translate(-31, 44)" fill="color(display-p3 0.498 0.573 0.514)" opacity="0.600000024">
                <path d="M2.66998493,8.096 C3.83096589,8.096 4.64951228,7.26377637 4.64951228,5.90145361 C4.64951228,4.54301904 3.83096589,3.73845996 2.66998493,3.73845996 C1.49711579,3.73845996 0.682681223,4.53913086 0.682681223,5.90145361 C0.682681223,7.26377637 1.49711579,8.096 2.66998493,8.096 Z M2.66998493,7.47540527 C1.9556114,7.47540527 1.50680329,6.87893262 1.50680329,5.90145361 C1.50680329,4.96285645 1.9556114,4.40616016 2.66998493,4.40616016 C3.37247029,4.40616016 3.82539021,4.96285645 3.82539021,5.90145361 C3.82539021,6.87893262 3.37247029,7.47540527 2.66998493,7.47540527 Z M4.04330134,9.25952734 C4.34461775,9.25952734 4.60316413,9.20419824 4.75793415,9.12509277 L4.60839411,8.55115625 C4.4769532,8.59093262 4.32540046,8.62293262 4.12928864,8.62293262 C3.6109405,8.62293262 3.19838142,8.44380176 3.02604597,7.90668359 L2.23302937,7.9766709 C2.50279304,8.72531641 3.08911579,9.25952734 4.04330134,9.25952734 Z" id="Shape" fill-rule="nonzero"></path>
                <path d="M7.92350422,8.096 C8.93016865,8.096 9.59640193,7.5949469 9.59640193,6.2177384 L9.59640193,3.83575256 L8.83795637,3.83575256 L8.83795637,6.23454407 C8.83795637,7.1406853 8.46781513,7.42828247 7.92350422,7.42828247 C7.37919331,7.42828247 7.01209089,7.1406853 7.01209089,6.23454407 L7.01209089,3.83575256 L6.21820368,3.83575256 L6.21820368,6.2177384 C6.21820368,7.5949469 6.90883979,8.096 7.92350422,8.096 Z" id="Path" fill-rule="nonzero"></path>
                <path d="M10.685985,8 L11.4928334,8 L12.187533,5.80130042 C12.3196885,5.3571449 12.4377663,4.90833923 12.566883,4.45922253 L12.598883,4.45922253 C12.7344801,4.90033923 12.8525579,5.35562549 12.991194,5.80130042 L13.6763742,8 L14.5121836,8 L13.0577949,3.83575269 L12.1388546,3.83575269 L10.685985,8 L10.685985,8 Z M11.5439995,6.9289895 L13.6446497,6.9289895 L13.6446497,6.30319421 L11.5439995,6.30319421 L11.5439995,6.9289895 Z" id="Shape" fill-rule="nonzero"></path>
                <polygon id="Path" fill-rule="nonzero" points="15.7042466 8 18.3417944 8 18.3417944 7.34180188 16.5046142 7.34180188 16.5046142 3.83575256 15.7042464 3.83575256 15.7042464 7.99999988"></polygon>
                <polygon id="Path" fill-rule="nonzero" points="19.7693916 8 20.5697594 8 20.5697594 3.83575269 19.7693916 3.83575269"></polygon>
                <polygon id="Path" fill-rule="nonzero" points="23.255095 8 24.0554628 8 24.0554628 4.49395068 25.3304097 4.49395068 25.3304097 3.83575256 21.9736675 3.83575256 21.9736675 4.49395068 23.255095 4.49395068"></polygon>
                <path d="M27.2791236,8 L28.0794913,8 L28.0794913,6.46561133 L29.4154913,3.83575256 L28.5876819,3.83575256 L28.1070601,4.87101038 C27.9745017,5.17997144 27.840424,5.4664519 27.7048268,5.78189355 L27.6728268,5.78189355 C27.5292296,5.4664519 27.3951519,5.17997144 27.2675547,4.87101038 L26.7869329,3.83575256 L25.9446428,3.83575256 L27.2791233,6.46561133 L27.2791233,8 L27.2791236,8 Z" id="Path" fill-rule="nonzero"></path>
                <path d="M32.6854771,8 L33.4858449,8 L33.4858449,6.52514502 L34.1725445,6.52514502 C35.1531028,6.52514502 35.8846364,6.07481995 35.8846364,5.13376685 C35.8846364,4.15919434 35.1531028,3.83575269 34.1725445,3.83575269 L32.6854771,3.83575269 L32.6854771,8 L32.6854771,8 Z M33.485845,5.90086951 L33.485845,4.4924314 L34.1184668,4.4924314 C34.790283,4.4924314 35.1071522,4.65162573 35.1071522,5.17265039 C35.1071522,5.6662334 34.8093219,5.90086951 34.1245447,5.90086951 L33.485845,5.90086951 L33.485845,5.90086951 Z" id="Shape" fill-rule="nonzero"></path>
                <path d="M39.0989614,8.096 C40.2586505,8.096 41.078495,7.264 41.078495,5.90663611 C41.078495,4.53631104 40.2586505,3.73975269 39.0989614,3.73975269 C37.9327917,3.73975269 37.1129472,4.53631104 37.1129472,5.90663611 C37.1129472,7.264 37.9327917,8.096 39.0989614,8.096 Z M39.0989614,7.42828247 C38.3913007,7.42828247 37.9357955,6.84133557 37.9357955,5.90663599 C37.9357955,4.96545581 38.3913007,4.40746997 39.0989614,4.40746997 C39.8001416,4.40746997 40.2556468,4.96545581 40.2556468,5.90663599 C40.2556468,6.84133557 39.8001416,7.42828247 39.0989614,7.42828247 Z" id="Shape" fill-rule="nonzero"></path>
                <polygon id="Path" fill-rule="nonzero" points="43.2755183 8 44.0758861 8 44.0758861 4.49395068 45.350833 4.49395068 45.350833 3.83575256 41.9940908 3.83575256 41.9940908 4.49395068 43.2755183 4.49395068"></polygon>
                <polygon id="Path" fill-rule="nonzero" points="46.754741 8 49.5134054 8 49.5134054 7.33532129 47.5551087 7.33532129 47.5551087 6.15633936 49.1492499 6.15633936 49.1492499 5.50462183 47.5551087 5.50462183 47.5551087 4.49395081 49.4334054 4.49395081 49.4334054 3.83575269 46.754741 3.83575269"></polygon>
                <path d="M51.1036387,8 L51.8426424,8 L51.8426424,6.250474 C51.8426424,5.78222668 51.7877591,5.20036792 51.7393563,4.76148462 L51.7713563,4.76148462 C51.9149535,5.10436792 52.0943951,5.46709583 52.2479147,5.73301807 L53.5812218,8 L54.4494342,8 L54.4494342,3.82927209 L53.7039498,3.82927209 L53.7039498,5.58527869 C53.7039498,6.053526 53.7653137,6.62890417 53.807236,7.06778748 L53.775236,7.06778748 C53.6381193,6.72490417 53.4586776,6.36217627 53.3051581,6.09625403 L51.9653705,3.82927209 L51.1036387,3.82927209 L51.1036387,8 Z" id="Path" fill-rule="nonzero"></path>
                <polygon id="Path" fill-rule="nonzero" points="57.1347695 8 57.9351373 8 57.9351373 4.49395068 59.2100842 4.49395068 59.2100842 3.83575256 55.8533421 3.83575256 55.8533421 4.49395068 57.1347695 4.49395068"></polygon>
                <polygon id="Path" fill-rule="nonzero" points="60.6139923 8 61.4143601 8 61.4143601 3.83575269 60.6139923 3.83575269"></polygon>
                <path d="M62.6064237,8 L63.4132721,8 L64.1079717,5.80130042 C64.2401272,5.3571449 64.358205,4.90833923 64.4873217,4.45922253 L64.5193217,4.45922253 C64.6549188,4.90033923 64.7729966,5.35562549 64.9116327,5.80130042 L65.5968129,8 L66.4326223,8 L64.9782337,3.83575269 L64.0592933,3.83575269 L62.6064237,8 L62.6064237,8 Z M63.4644382,6.9289895 L65.5650884,6.9289895 L65.5650884,6.30319421 L63.4644382,6.30319421 L63.4644382,6.9289895 Z" id="Shape" fill-rule="nonzero"></path>
                <polygon id="Path" fill-rule="nonzero" points="67.6246853 8 70.2622331 8 70.2622331 7.34180188 68.4250529 7.34180188 68.4250529 3.83575256 67.6246851 3.83575256 67.6246851 7.99999988"></polygon>
            </g>
            <g id="Effort-to-Make-Mac-A" stroke-width="1" fill-rule="evenodd" transform="translate(150, 116)" fill="color(display-p3 0.498 0.573 0.514)" opacity="0.600000024">
                <polygon id="Path" fill-rule="nonzero" points="1.43283523 8 4.19149966 8 4.19149966 7.33532129 2.2332029 7.33532129 2.2332029 6.15633936 3.82734414 6.15633936 3.82734414 5.50462183 2.2332029 5.50462183 2.2332029 4.49395081 4.11149966 4.49395081 4.11149966 3.83575269 1.43283523 3.83575269"></polygon>
                <polygon id="Path" fill-rule="nonzero" points="5.78173289 8 6.58210069 8 6.58210069 6.3141062 8.20064475 6.3141062 8.20064475 5.66390808 6.58210069 5.66390808 6.58210069 4.50539246 8.47183909 4.50539246 8.47183909 3.83575269 5.78173289 3.83575269"></polygon>
                <polygon id="Path" fill-rule="nonzero" points="9.89639739 8 10.6967652 8 10.6967652 6.3141062 12.3153093 6.3141062 12.3153093 5.66390808 10.6967652 5.66390808 10.6967652 4.50539246 12.5865036 4.50539246 12.5865036 3.83575269 9.89639739 3.83575269"></polygon>
                <path d="M15.7098817,8.096 C16.8695708,8.096 17.6894153,7.264 17.6894153,5.90663611 C17.6894153,4.53631104 16.8695708,3.73975269 15.7098817,3.73975269 C14.543712,3.73975269 13.7238675,4.53631104 13.7238675,5.90663611 C13.7238675,7.264 14.543712,8.096 15.7098817,8.096 Z M15.7098817,7.42828247 C15.0022211,7.42828247 14.5467158,6.84133557 14.5467158,5.90663599 C14.5467158,4.96545581 15.0022211,4.40746997 15.7098817,4.40746997 C16.4110619,4.40746997 16.8665671,4.96545581 16.8665671,5.90663599 C16.8665671,6.84133557 16.4110619,7.42828247 15.7098817,7.42828247 Z" id="Shape" fill-rule="nonzero"></path>
                <path d="M19.2818818,8 L20.0822496,8 L20.0822496,6.42458667 L20.7971046,6.42458667 C21.7274297,6.42458667 22.4284828,5.94833936 22.4284828,5.08424744 C22.4284828,4.13327209 21.7129492,3.83575256 20.7811047,3.83575256 L19.2818818,3.83575256 L19.2818818,8 L19.2818818,8 Z M20.0822497,5.81327209 L20.0822497,4.49243127 L20.7011047,4.49243127 C21.3162071,4.49243127 21.6669986,4.65314502 21.6669986,5.12313086 C21.6669986,5.58855835 21.3482071,5.81327209 20.7075853,5.81327209 L20.0822497,5.81327209 L20.0822497,5.81327209 Z M21.7394014,8 L22.5976914,8 L21.3504971,5.99696106 L20.6522989,6.20201416 L21.7394014,8 Z" id="Shape" fill-rule="nonzero"></path>
                <polygon id="Path" fill-rule="nonzero" points="24.7394282 8 25.539796 8 25.539796 4.49395068 26.8147429 4.49395068 26.8147429 3.83575256 23.4580007 3.83575256 23.4580007 4.49395068 24.7394282 4.49395068"></polygon>
                <polygon id="Path" fill-rule="nonzero" points="31.1243259 8 31.9246937 8 31.9246937 4.49395068 33.1996406 4.49395068 33.1996406 3.83575256 29.8428984 3.83575256 29.8428984 4.49395068 31.1243259 4.49395068"></polygon>
                <path d="M36.1012503,8.096 C37.2609393,8.096 38.0807838,7.264 38.0807838,5.90663611 C38.0807838,4.53631104 37.2609393,3.73975269 36.1012503,3.73975269 C34.9350806,3.73975269 34.1152361,4.53631104 34.1152361,5.90663611 C34.1152361,7.264 34.9350806,8.096 36.1012503,8.096 Z M36.1012503,7.42828247 C35.3935896,7.42828247 34.9380844,6.84133557 34.9380844,5.90663599 C34.9380844,4.96545581 35.3935896,4.40746997 36.1012503,4.40746997 C36.8024304,4.40746997 37.2579357,4.96545581 37.2579357,5.90663599 C37.2579357,6.84133557 36.8024304,7.42828247 36.1012503,7.42828247 Z" id="Shape" fill-rule="nonzero"></path>
                <path d="M41.7732501,8.00000012 L42.4992931,8.00000012 L42.4992931,6.17472144 C42.4992931,5.78191577 42.4314486,5.18294043 42.3895264,4.78213477 L42.4215264,4.78213477 L42.7834486,5.80774609 L43.497187,7.61680579 L43.9216818,7.61680579 L44.6354202,5.80774609 L44.9973424,4.78213477 L45.0293424,4.78213477 C44.9744591,5.18294043 44.9260563,5.78191577 44.9260563,6.17472144 L44.9260563,8.00000012 L45.652099,8.00000012 L45.652099,3.82927209 L44.7496535,3.82927209 L43.9901482,5.84651575 C43.8911093,6.11163245 43.8050315,6.37674915 43.7319148,6.64186584 L43.6999148,6.64186584 C43.6267981,6.37674915 43.5342398,6.09867139 43.4416814,5.84651587 L42.6821762,3.82927209 L41.7732501,3.82927209 L41.7732501,8.00000012 L41.7732501,8.00000012 Z" id="Path" fill-rule="nonzero"></path>
                <path d="M46.8376818,8 L47.6445302,8 L48.3392298,5.80130042 C48.4713853,5.3571449 48.5894631,4.90833923 48.7185798,4.45922253 L48.7505798,4.45922253 C48.8861769,4.90033923 49.0042547,5.35562549 49.1428908,5.80130042 L49.828071,8 L50.6638804,8 L49.2094918,3.83575269 L48.2905514,3.83575269 L46.8376818,8 L46.8376818,8 Z M47.6956963,6.9289895 L49.7963465,6.9289895 L49.7963465,6.30319421 L47.6956963,6.30319421 L47.6956963,6.9289895 Z" id="Shape" fill-rule="nonzero"></path>
                <polygon id="Path" fill-rule="nonzero" points="51.8572439 8 52.6575896 8 52.6575896 6.71552734 53.3060876 6.01992383 54.4981384 8 55.3538132 8 53.7775896 5.4706582 55.147155 3.83445996 54.2754802 3.83445996 52.681366 5.69520703 52.6575896 5.69520703 52.6575896 3.83445996 51.8572439 3.83445996"></polygon>
                <polygon id="Path" fill-rule="nonzero" points="56.5541035 8 59.3127679 8 59.3127679 7.33532129 57.3544712 7.33532129 57.3544712 6.15633936 58.9486124 6.15633936 58.9486124 5.50462183 57.3544712 5.50462183 57.3544712 4.49395081 59.2327679 4.49395081 59.2327679 3.83575269 56.5541035 3.83575269"></polygon>
                <path d="M63.0030009,8.00000012 L63.7290439,8.00000012 L63.7290439,6.17472144 C63.7290439,5.78191577 63.6611994,5.18294043 63.6192772,4.78213477 L63.6512772,4.78213477 L64.0131994,5.80774609 L64.7269378,7.61680579 L65.1514326,7.61680579 L65.865171,5.80774609 L66.2270932,4.78213477 L66.2590932,4.78213477 C66.2042099,5.18294043 66.1558071,5.78191577 66.1558071,6.17472144 L66.1558071,8.00000012 L66.8818498,8.00000012 L66.8818498,3.82927209 L65.9794042,3.82927209 L65.219899,5.84651575 C65.1208601,6.11163245 65.0347823,6.37674915 64.9616656,6.64186584 L64.9296656,6.64186584 C64.8565489,6.37674915 64.7639906,6.09867139 64.6714322,5.84651587 L63.911927,3.82927209 L63.0030009,3.82927209 L63.0030009,8.00000012 L63.0030009,8.00000012 Z" id="Path" fill-rule="nonzero"></path>
                <path d="M68.0674326,8 L68.874281,8 L69.5689806,5.80130042 C69.7011361,5.3571449 69.8192139,4.90833923 69.9483306,4.45922253 L69.9803306,4.45922253 C70.1159277,4.90033923 70.2340055,5.35562549 70.3726416,5.80130042 L71.0578218,8 L71.8936312,8 L70.4392425,3.83575269 L69.5203022,3.83575269 L68.0674326,8 L68.0674326,8 Z M68.9254471,6.9289895 L71.0260973,6.9289895 L71.0260973,6.30319421 L68.9254471,6.30319421 L68.9254471,6.9289895 Z" id="Shape" fill-rule="nonzero"></path>
                <path d="M74.808514,8.09600037 C75.3909944,8.09600037 75.8253195,7.89103894 76.2032418,7.47159729 L75.784019,7.02301062 C75.5368246,7.27628271 75.2431497,7.42828271 74.842436,7.42828271 C74.0917364,7.42828271 73.6148671,6.87373865 73.6148671,5.90663623 C73.6148671,4.97345605 74.1306198,4.40747021 74.874436,4.40747021 C75.2191497,4.40747021 75.4808246,4.54458691 75.701383,4.75866467 L76.1335668,4.28759741 C75.861164,3.98623352 75.4253195,3.73975305 74.8679556,3.73975305 C73.712514,3.73975305 72.7984998,4.55879199 72.7984998,5.93255872 C72.7984998,7.33528662 73.6785917,8.09600037 74.808514,8.09600037 L74.808514,8.09600037 Z" id="Path" fill-rule="nonzero"></path>
                <polygon id="Path" fill-rule="nonzero" points="77.0562254 6.13085645 78.9242 6.13085645 78.9242 5.54091992 77.0562254 5.54091992"></polygon>
                <path d="M79.7537624,8 L80.5606108,8 L81.2553104,5.80130042 C81.3874659,5.3571449 81.5055437,4.90833923 81.6346604,4.45922253 L81.6666604,4.45922253 C81.8022575,4.90033923 81.9203353,5.35562549 82.0589714,5.80130042 L82.7441516,8 L83.579961,8 L82.1255724,3.83575269 L81.206632,3.83575269 L79.7537624,8 L79.7537624,8 Z M80.6117769,6.9289895 L82.7124271,6.9289895 L82.7124271,6.30319421 L80.6117769,6.30319421 L80.6117769,6.9289895 Z" id="Shape" fill-rule="nonzero"></path>
                <path d="M86.0027273,8.096 C86.9865901,8.096 87.5850247,7.5620127 87.5850247,6.84469629 C87.5850247,6.17314355 87.1818074,5.92259717 86.531261,5.67070898 L86.0325774,5.47325537 C85.6372229,5.31557813 85.4032102,5.18623633 85.4032102,4.87821094 C85.4032102,4.5578501 85.6632356,4.36683105 86.0770501,4.36683105 C86.4667273,4.36683105 86.8228391,4.52727832 87.1099446,4.75994922 L87.4954593,4.27289453 C87.1616956,3.96245996 86.6674847,3.73457178 86.0926028,3.73457178 C85.2129637,3.73457178 84.6028645,4.20844727 84.6028645,4.92531641 C84.6028645,5.53930371 85.0815227,5.85063281 85.6492991,6.07463281 L86.1475354,6.27575098 C86.5104427,6.42109277 86.784679,6.5499873 86.784679,6.91513086 C86.784679,7.24438623 86.5082063,7.46762891 86.0338328,7.46762891 C85.5520437,7.46762891 85.1154847,7.29028711 84.7488264,6.96939258 L84.3706409,7.48022363 C84.7770755,7.8633291 85.3348391,8.096 86.0027273,8.096 Z" id="Path" fill-rule="nonzero"></path>
                <path d="M90.2715711,8.096 C91.2554339,8.096 91.8538684,7.5620127 91.8538684,6.84469629 C91.8538684,6.17314355 91.4506512,5.92259717 90.8001048,5.67070898 L90.3014212,5.47325537 C89.9060667,5.31557813 89.672054,5.18623633 89.672054,4.87821094 C89.672054,4.5578501 89.9320794,4.36683105 90.3458938,4.36683105 C90.7355711,4.36683105 91.0916829,4.52727832 91.3787884,4.75994922 L91.764303,4.27289453 C91.4305393,3.96245996 90.9363284,3.73457178 90.3614466,3.73457178 C89.4818074,3.73457178 88.8717083,4.20844727 88.8717083,4.92531641 C88.8717083,5.53930371 89.3503665,5.85063281 89.9181429,6.07463281 L90.4163792,6.27575098 C90.7792864,6.42109277 91.0535227,6.5499873 91.0535227,6.91513086 C91.0535227,7.24438623 90.7770501,7.46762891 90.3026765,7.46762891 C89.8208875,7.46762891 89.3843284,7.29028711 89.0176702,6.96939258 L88.6394847,7.48022363 C89.0459192,7.8633291 89.6036829,8.096 90.2715711,8.096 Z" id="Path" fill-rule="nonzero"></path>
                <polygon id="Path" fill-rule="nonzero" points="93.3485933 8 96.1072577 8 96.1072577 7.33532129 94.148961 7.33532129 94.148961 6.15633936 95.7431022 6.15633936 95.7431022 5.50462183 94.148961 5.50462183 94.148961 4.49395081 96.0272577 4.49395081 96.0272577 3.83575269 93.3485933 3.83575269"></polygon>
                <path d="M97.697491,8 L98.9387914,8 C100.256466,8 101.097364,7.30561133 101.097364,5.9001554 C101.097364,4.50118005 100.256466,3.83575256 98.8934274,3.83575256 L97.697491,3.83575256 L97.697491,8 L97.697491,8 Z M98.4978588,7.37724377 L98.4978588,4.46002844 L98.9197525,4.46002844 C99.8242825,4.46002844 100.274516,4.95928625 100.274516,5.90015552 C100.274516,6.88214136 99.8242825,7.37724377 98.9197525,7.37724377 L98.4978588,7.37724377 L98.4978588,7.37724377 Z" id="Shape" fill-rule="nonzero"></path>
            </g>
            <line x1="14" y1="15" x2="14" y2="112" id="Path" stroke="color(display-p3 0.498 0.573 0.514)" stroke-width="0.8" stroke-linecap="square"></line>
            <line x1="132.5" y1="-6.5" x2="132.5" y2="230.5" id="Path" stroke="color(display-p3 0.498 0.573 0.514)" stroke-width="0.8" stroke-linecap="square" transform="translate(132.5, 112) rotate(-90) translate(-132.5, -112)"></line>
            <polygon id="Path" fill="color(display-p3 0.498 0.573 0.514)" fill-rule="evenodd" points="252 112 248 108 248 116"></polygon>
            <polygon id="Path" fill="color(display-p3 0.498 0.573 0.514)" fill-rule="evenodd" transform="translate(14, 16) rotate(-90) translate(-14, -16)" points="16 16 12 12 12 20"></polygon>
            <line x1="105" y1="-35" x2="161" y2="203" id="Path" stroke="color(display-p3 0.498 0.573 0.514)" stroke-width="0.8" opacity="0.300000012" stroke-linecap="square" transform="translate(133, 84) rotate(-90) translate(-133, -84)"></line>
            <line x1="84" y1="-56" x2="182" y2="182" id="Path" stroke="color(display-p3 0.498 0.573 0.514)" stroke-width="0.8" opacity="0.300000012" stroke-linecap="square" transform="translate(133, 63) rotate(-90) translate(-133, -63)"></line>
            <line x1="98" y1="-42" x2="168" y2="196" id="Path" stroke="color(display-p3 0.498 0.573 0.514)" stroke-width="0.8" opacity="0.300000012" stroke-linecap="square" transform="translate(133, 77) rotate(-90) translate(-133, -77)"></line>
            <line x1="91" y1="-49" x2="175" y2="189" id="Path" stroke="color(display-p3 0.498 0.573 0.514)" stroke-width="0.8" opacity="0.300000012" stroke-linecap="square" transform="translate(133, 70) rotate(-90) translate(-133, -70)"></line>
            <text id="AppKit-&amp;-Catalyst" font-family="SourceSans3VF-Medium, SourceSans3VF" font-size="8" font-weight="400" fill="color(display-p3 0.498 0.573 0.514)">
                <tspan x="257" y="57">AppKit &amp; Catalyst</tspan>
            </text>
            <text id="SwiftUI" font-family="SourceSans3VF-Medium, SourceSans3VF" font-size="8" font-weight="400" fill="color(display-p3 0.498 0.573 0.514)">
                <tspan x="257" y="15">SwiftUI</tspan>
            </text>
            <text id="Flutter-/-React-Nati" font-family="SourceSans3VF-Medium, SourceSans3VF" font-size="8" font-weight="400" fill="color(display-p3 0.498 0.573 0.514)">
                <tspan x="257" y="43">Flutter / React Native</tspan>
            </text>
            <text id="Electron" font-family="SourceSans3VF-Medium, SourceSans3VF" font-size="8" font-weight="400" fill="color(display-p3 0.498 0.573 0.514)">
                <tspan x="257" y="29">Electron</tspan>
            </text>
        </g>
    </g>
</svg>