<?xml version="1.0" encoding="UTF-8"?>
<svg width="476px" height="392px" viewBox="0 0 476 392" version="1.1" xmlns="http://www.w3.org/2000/svg" xmlns:xlink="http://www.w3.org/1999/xlink">
    <title>Settings Layout</title>
    <defs>
        <path d="M0,0 L476,0 L476,392 L0,392 L0,0 Z" id="path-1"></path>
        <path d="M0,0 L476,0 L476,672 L0,672 L0,0 Z" id="path-2"></path>
        <path d="M0,0 L476,0 L476,242 L0,242 L0,0 Z" id="path-3"></path>
        <path d="M12.819426,0 L225.180574,1.81366828e-15 C229.638168,-1.0537935e-15 231.254599,0.464128056 232.884229,1.33566352 C234.513858,2.20719898 235.792801,3.48614185 236.664336,5.11577148 C237.535872,6.74540111 238,8.3618323 238,12.819426 L238,141.180574 C238,145.638168 237.535872,147.254599 236.664336,148.884229 C235.792801,150.513858 234.513858,151.792801 232.884229,152.664336 C231.254599,153.535872 229.638168,154 225.180574,154 L12.819426,154 C8.3618323,154 6.74540111,153.535872 5.11577148,152.664336 C3.48614185,151.792801 2.20719898,150.513858 1.33566352,148.884229 C0.464128056,147.254599 0,145.638168 0,141.180574 L0,12.819426 C0,8.3618323 0.464128056,6.74540111 1.33566352,5.11577148 C2.20719898,3.48614185 3.48614185,2.20719898 5.11577148,1.33566352 C6.74540111,0.464128056 8.3618323,0 12.819426,0 Z" id="path-4"></path>
        <path d="M12.819426,0 L225.180574,1.81366828e-15 C229.638168,-1.0537935e-15 231.254599,0.464128056 232.884229,1.33566352 C234.513858,2.20719898 235.792801,3.48614185 236.664336,5.11577148 C237.535872,6.74540111 238,8.3618323 238,12.819426 L238,141.180574 C238,145.638168 237.535872,147.254599 236.664336,148.884229 C235.792801,150.513858 234.513858,151.792801 232.884229,152.664336 C231.254599,153.535872 229.638168,154 225.180574,154 L12.819426,154 C8.3618323,154 6.74540111,153.535872 5.11577148,152.664336 C3.48614185,151.792801 2.20719898,150.513858 1.33566352,148.884229 C0.464128056,147.254599 0,145.638168 0,141.180574 L0,12.819426 C0,8.3618323 0.464128056,6.74540111 1.33566352,5.11577148 C2.20719898,3.48614185 3.48614185,2.20719898 5.11577148,1.33566352 C6.74540111,0.464128056 8.3618323,0 12.819426,0 Z" id="path-5"></path>
        <path d="M0,0 L238,0 L238,39 L0,39 L0,0 Z" id="path-7"></path>
        <circle id="path-8" cx="10" cy="10" r="3"></circle>
        <filter x="-150.0%" y="-150.0%" width="400.0%" height="400.0%" filterUnits="objectBoundingBox" id="filter-9">
            <feOffset dx="0" dy="0" in="SourceAlpha" result="shadowOffsetOuter1"></feOffset>
            <feGaussianBlur stdDeviation="3" in="shadowOffsetOuter1" result="shadowBlurOuter1"></feGaussianBlur>
            <feComposite in="shadowBlurOuter1" in2="SourceAlpha" operator="out" result="shadowBlurOuter1"></feComposite>
            <feColorMatrix values="0 0 0 0 0   0 0 0 0 0   0 0 0 0 0  0 0 0 0.05 0" type="matrix" in="shadowBlurOuter1" result="shadowMatrixOuter1"></feColorMatrix>
            <feOffset dx="0" dy="0" in="SourceAlpha" result="shadowOffsetOuter2"></feOffset>
            <feGaussianBlur stdDeviation="0.5" in="shadowOffsetOuter2" result="shadowBlurOuter2"></feGaussianBlur>
            <feComposite in="shadowBlurOuter2" in2="SourceAlpha" operator="out" result="shadowBlurOuter2"></feComposite>
            <feColorMatrix values="0 0 0 0 0   0 0 0 0 0   0 0 0 0 0  0 0 0 0.15 0" type="matrix" in="shadowBlurOuter2" result="shadowMatrixOuter2"></feColorMatrix>
            <feMerge>
                <feMergeNode in="shadowMatrixOuter1"></feMergeNode>
                <feMergeNode in="shadowMatrixOuter2"></feMergeNode>
            </feMerge>
        </filter>
        <filter x="-100.0%" y="-100.0%" width="300.0%" height="300.0%" filterUnits="objectBoundingBox" id="filter-10">
            <feOffset dx="0" dy="0" in="SourceAlpha" result="shadowOffsetInner1"></feOffset>
            <feComposite in="shadowOffsetInner1" in2="SourceAlpha" operator="arithmetic" k2="-1" k3="1" result="shadowInnerInner1"></feComposite>
            <feColorMatrix values="0 0 0 0 1   0 0 0 0 1   0 0 0 0 1  0 0 0 1 0" type="matrix" in="shadowInnerInner1"></feColorMatrix>
        </filter>
        <circle id="path-11" cx="19" cy="10" r="3"></circle>
        <filter x="-150.0%" y="-150.0%" width="400.0%" height="400.0%" filterUnits="objectBoundingBox" id="filter-12">
            <feOffset dx="0" dy="0" in="SourceAlpha" result="shadowOffsetOuter1"></feOffset>
            <feGaussianBlur stdDeviation="3" in="shadowOffsetOuter1" result="shadowBlurOuter1"></feGaussianBlur>
            <feComposite in="shadowBlurOuter1" in2="SourceAlpha" operator="out" result="shadowBlurOuter1"></feComposite>
            <feColorMatrix values="0 0 0 0 0   0 0 0 0 0   0 0 0 0 0  0 0 0 0.05 0" type="matrix" in="shadowBlurOuter1" result="shadowMatrixOuter1"></feColorMatrix>
            <feOffset dx="0" dy="0" in="SourceAlpha" result="shadowOffsetOuter2"></feOffset>
            <feGaussianBlur stdDeviation="0.5" in="shadowOffsetOuter2" result="shadowBlurOuter2"></feGaussianBlur>
            <feComposite in="shadowBlurOuter2" in2="SourceAlpha" operator="out" result="shadowBlurOuter2"></feComposite>
            <feColorMatrix values="0 0 0 0 0   0 0 0 0 0   0 0 0 0 0  0 0 0 0.15 0" type="matrix" in="shadowBlurOuter2" result="shadowMatrixOuter2"></feColorMatrix>
            <feMerge>
                <feMergeNode in="shadowMatrixOuter1"></feMergeNode>
                <feMergeNode in="shadowMatrixOuter2"></feMergeNode>
            </feMerge>
        </filter>
        <filter x="-100.0%" y="-100.0%" width="300.0%" height="300.0%" filterUnits="objectBoundingBox" id="filter-13">
            <feOffset dx="0" dy="0" in="SourceAlpha" result="shadowOffsetInner1"></feOffset>
            <feComposite in="shadowOffsetInner1" in2="SourceAlpha" operator="arithmetic" k2="-1" k3="1" result="shadowInnerInner1"></feComposite>
            <feColorMatrix values="0 0 0 0 1   0 0 0 0 1   0 0 0 0 1  0 0 0 1 0" type="matrix" in="shadowInnerInner1"></feColorMatrix>
        </filter>
        <circle id="path-14" cx="28" cy="10" r="3"></circle>
        <filter x="-150.0%" y="-150.0%" width="400.0%" height="400.0%" filterUnits="objectBoundingBox" id="filter-15">
            <feOffset dx="0" dy="0" in="SourceAlpha" result="shadowOffsetOuter1"></feOffset>
            <feGaussianBlur stdDeviation="3" in="shadowOffsetOuter1" result="shadowBlurOuter1"></feGaussianBlur>
            <feComposite in="shadowBlurOuter1" in2="SourceAlpha" operator="out" result="shadowBlurOuter1"></feComposite>
            <feColorMatrix values="0 0 0 0 0   0 0 0 0 0   0 0 0 0 0  0 0 0 0.05 0" type="matrix" in="shadowBlurOuter1" result="shadowMatrixOuter1"></feColorMatrix>
            <feOffset dx="0" dy="0" in="SourceAlpha" result="shadowOffsetOuter2"></feOffset>
            <feGaussianBlur stdDeviation="0.5" in="shadowOffsetOuter2" result="shadowBlurOuter2"></feGaussianBlur>
            <feComposite in="shadowBlurOuter2" in2="SourceAlpha" operator="out" result="shadowBlurOuter2"></feComposite>
            <feColorMatrix values="0 0 0 0 0   0 0 0 0 0   0 0 0 0 0  0 0 0 0.15 0" type="matrix" in="shadowBlurOuter2" result="shadowMatrixOuter2"></feColorMatrix>
            <feMerge>
                <feMergeNode in="shadowMatrixOuter1"></feMergeNode>
                <feMergeNode in="shadowMatrixOuter2"></feMergeNode>
            </feMerge>
        </filter>
        <filter x="-100.0%" y="-100.0%" width="300.0%" height="300.0%" filterUnits="objectBoundingBox" id="filter-16">
            <feOffset dx="0" dy="0" in="SourceAlpha" result="shadowOffsetInner1"></feOffset>
            <feComposite in="shadowOffsetInner1" in2="SourceAlpha" operator="arithmetic" k2="-1" k3="1" result="shadowInnerInner1"></feComposite>
            <feColorMatrix values="0 0 0 0 1   0 0 0 0 1   0 0 0 0 1  0 0 0 1 0" type="matrix" in="shadowInnerInner1"></feColorMatrix>
        </filter>
        <path d="M12.819426,0 L225.180574,1.81366828e-15 C229.638168,-1.0537935e-15 231.254599,0.464128056 232.884229,1.33566352 C234.513858,2.20719898 235.792801,3.48614185 236.664336,5.11577148 C237.535872,6.74540111 238,8.3618323 238,12.819426 L238,141.180574 C238,145.638168 237.535872,147.254599 236.664336,148.884229 C235.792801,150.513858 234.513858,151.792801 232.884229,152.664336 C231.254599,153.535872 229.638168,154 225.180574,154 L12.819426,154 C8.3618323,154 6.74540111,153.535872 5.11577148,152.664336 C3.48614185,151.792801 2.20719898,150.513858 1.33566352,148.884229 C0.464128056,147.254599 0,145.638168 0,141.180574 L0,12.819426 C0,8.3618323 0.464128056,6.74540111 1.33566352,5.11577148 C2.20719898,3.48614185 3.48614185,2.20719898 5.11577148,1.33566352 C6.74540111,0.464128056 8.3618323,0 12.819426,0 Z" id="path-17"></path>
        <path d="M12.819426,0 L225.180574,1.81366828e-15 C229.638168,-1.0537935e-15 231.254599,0.464128056 232.884229,1.33566352 C234.513858,2.20719898 235.792801,3.48614185 236.664336,5.11577148 C237.535872,6.74540111 238,8.3618323 238,12.819426 L238,141.180574 C238,145.638168 237.535872,147.254599 236.664336,148.884229 C235.792801,150.513858 234.513858,151.792801 232.884229,152.664336 C231.254599,153.535872 229.638168,154 225.180574,154 L12.819426,154 C8.3618323,154 6.74540111,153.535872 5.11577148,152.664336 C3.48614185,151.792801 2.20719898,150.513858 1.33566352,148.884229 C0.464128056,147.254599 0,145.638168 0,141.180574 L0,12.819426 C0,8.3618323 0.464128056,6.74540111 1.33566352,5.11577148 C2.20719898,3.48614185 3.48614185,2.20719898 5.11577148,1.33566352 C6.74540111,0.464128056 8.3618323,0 12.819426,0 Z" id="path-18"></path>
        <path d="M0,0 L238,0 L238,20 L0,20 L0,0 Z" id="path-20"></path>
        <path d="M183.894737,17 C178.763158,17 176,13.8659932 176,10 C176,6.11111111 178.763158,3 183.894737,3 L227.105263,3 C232.236842,3 235,6.13400675 235,10 C235,13.8888889 232.236842,17 227.105263,17 L183.894737,17 Z" id="path-21"></path>
        <filter x="-15.3%" y="-64.3%" width="130.5%" height="228.6%" filterUnits="objectBoundingBox" id="filter-22">
            <feOffset dx="0" dy="0" in="SourceAlpha" result="shadowOffsetOuter1"></feOffset>
            <feGaussianBlur stdDeviation="3" in="shadowOffsetOuter1" result="shadowBlurOuter1"></feGaussianBlur>
            <feComposite in="shadowBlurOuter1" in2="SourceAlpha" operator="out" result="shadowBlurOuter1"></feComposite>
            <feColorMatrix values="0 0 0 0 0   0 0 0 0 0   0 0 0 0 0  0 0 0 0.05 0" type="matrix" in="shadowBlurOuter1" result="shadowMatrixOuter1"></feColorMatrix>
            <feOffset dx="0" dy="0" in="SourceAlpha" result="shadowOffsetOuter2"></feOffset>
            <feGaussianBlur stdDeviation="0.5" in="shadowOffsetOuter2" result="shadowBlurOuter2"></feGaussianBlur>
            <feComposite in="shadowBlurOuter2" in2="SourceAlpha" operator="out" result="shadowBlurOuter2"></feComposite>
            <feColorMatrix values="0 0 0 0 0   0 0 0 0 0   0 0 0 0 0  0 0 0 0.15 0" type="matrix" in="shadowBlurOuter2" result="shadowMatrixOuter2"></feColorMatrix>
            <feMerge>
                <feMergeNode in="shadowMatrixOuter1"></feMergeNode>
                <feMergeNode in="shadowMatrixOuter2"></feMergeNode>
            </feMerge>
        </filter>
        <filter x="-10.2%" y="-42.9%" width="120.3%" height="185.7%" filterUnits="objectBoundingBox" id="filter-23">
            <feOffset dx="0" dy="0" in="SourceAlpha" result="shadowOffsetInner1"></feOffset>
            <feComposite in="shadowOffsetInner1" in2="SourceAlpha" operator="arithmetic" k2="-1" k3="1" result="shadowInnerInner1"></feComposite>
            <feColorMatrix values="0 0 0 0 1   0 0 0 0 1   0 0 0 0 1  0 0 0 1 0" type="matrix" in="shadowInnerInner1"></feColorMatrix>
        </filter>
        <circle id="path-24" cx="10" cy="10" r="3"></circle>
        <filter x="-150.0%" y="-150.0%" width="400.0%" height="400.0%" filterUnits="objectBoundingBox" id="filter-25">
            <feOffset dx="0" dy="0" in="SourceAlpha" result="shadowOffsetOuter1"></feOffset>
            <feGaussianBlur stdDeviation="3" in="shadowOffsetOuter1" result="shadowBlurOuter1"></feGaussianBlur>
            <feComposite in="shadowBlurOuter1" in2="SourceAlpha" operator="out" result="shadowBlurOuter1"></feComposite>
            <feColorMatrix values="0 0 0 0 0   0 0 0 0 0   0 0 0 0 0  0 0 0 0.05 0" type="matrix" in="shadowBlurOuter1" result="shadowMatrixOuter1"></feColorMatrix>
            <feOffset dx="0" dy="0" in="SourceAlpha" result="shadowOffsetOuter2"></feOffset>
            <feGaussianBlur stdDeviation="0.5" in="shadowOffsetOuter2" result="shadowBlurOuter2"></feGaussianBlur>
            <feComposite in="shadowBlurOuter2" in2="SourceAlpha" operator="out" result="shadowBlurOuter2"></feComposite>
            <feColorMatrix values="0 0 0 0 0   0 0 0 0 0   0 0 0 0 0  0 0 0 0.15 0" type="matrix" in="shadowBlurOuter2" result="shadowMatrixOuter2"></feColorMatrix>
            <feMerge>
                <feMergeNode in="shadowMatrixOuter1"></feMergeNode>
                <feMergeNode in="shadowMatrixOuter2"></feMergeNode>
            </feMerge>
        </filter>
        <filter x="-100.0%" y="-100.0%" width="300.0%" height="300.0%" filterUnits="objectBoundingBox" id="filter-26">
            <feOffset dx="0" dy="0" in="SourceAlpha" result="shadowOffsetInner1"></feOffset>
            <feComposite in="shadowOffsetInner1" in2="SourceAlpha" operator="arithmetic" k2="-1" k3="1" result="shadowInnerInner1"></feComposite>
            <feColorMatrix values="0 0 0 0 1   0 0 0 0 1   0 0 0 0 1  0 0 0 1 0" type="matrix" in="shadowInnerInner1"></feColorMatrix>
        </filter>
        <circle id="path-27" cx="19" cy="10" r="3"></circle>
        <filter x="-150.0%" y="-150.0%" width="400.0%" height="400.0%" filterUnits="objectBoundingBox" id="filter-28">
            <feOffset dx="0" dy="0" in="SourceAlpha" result="shadowOffsetOuter1"></feOffset>
            <feGaussianBlur stdDeviation="3" in="shadowOffsetOuter1" result="shadowBlurOuter1"></feGaussianBlur>
            <feComposite in="shadowBlurOuter1" in2="SourceAlpha" operator="out" result="shadowBlurOuter1"></feComposite>
            <feColorMatrix values="0 0 0 0 0   0 0 0 0 0   0 0 0 0 0  0 0 0 0.05 0" type="matrix" in="shadowBlurOuter1" result="shadowMatrixOuter1"></feColorMatrix>
            <feOffset dx="0" dy="0" in="SourceAlpha" result="shadowOffsetOuter2"></feOffset>
            <feGaussianBlur stdDeviation="0.5" in="shadowOffsetOuter2" result="shadowBlurOuter2"></feGaussianBlur>
            <feComposite in="shadowBlurOuter2" in2="SourceAlpha" operator="out" result="shadowBlurOuter2"></feComposite>
            <feColorMatrix values="0 0 0 0 0   0 0 0 0 0   0 0 0 0 0  0 0 0 0.15 0" type="matrix" in="shadowBlurOuter2" result="shadowMatrixOuter2"></feColorMatrix>
            <feMerge>
                <feMergeNode in="shadowMatrixOuter1"></feMergeNode>
                <feMergeNode in="shadowMatrixOuter2"></feMergeNode>
            </feMerge>
        </filter>
        <filter x="-100.0%" y="-100.0%" width="300.0%" height="300.0%" filterUnits="objectBoundingBox" id="filter-29">
            <feOffset dx="0" dy="0" in="SourceAlpha" result="shadowOffsetInner1"></feOffset>
            <feComposite in="shadowOffsetInner1" in2="SourceAlpha" operator="arithmetic" k2="-1" k3="1" result="shadowInnerInner1"></feComposite>
            <feColorMatrix values="0 0 0 0 1   0 0 0 0 1   0 0 0 0 1  0 0 0 1 0" type="matrix" in="shadowInnerInner1"></feColorMatrix>
        </filter>
        <circle id="path-30" cx="28" cy="10" r="3"></circle>
        <filter x="-150.0%" y="-150.0%" width="400.0%" height="400.0%" filterUnits="objectBoundingBox" id="filter-31">
            <feOffset dx="0" dy="0" in="SourceAlpha" result="shadowOffsetOuter1"></feOffset>
            <feGaussianBlur stdDeviation="3" in="shadowOffsetOuter1" result="shadowBlurOuter1"></feGaussianBlur>
            <feComposite in="shadowBlurOuter1" in2="SourceAlpha" operator="out" result="shadowBlurOuter1"></feComposite>
            <feColorMatrix values="0 0 0 0 0   0 0 0 0 0   0 0 0 0 0  0 0 0 0.05 0" type="matrix" in="shadowBlurOuter1" result="shadowMatrixOuter1"></feColorMatrix>
            <feOffset dx="0" dy="0" in="SourceAlpha" result="shadowOffsetOuter2"></feOffset>
            <feGaussianBlur stdDeviation="0.5" in="shadowOffsetOuter2" result="shadowBlurOuter2"></feGaussianBlur>
            <feComposite in="shadowBlurOuter2" in2="SourceAlpha" operator="out" result="shadowBlurOuter2"></feComposite>
            <feColorMatrix values="0 0 0 0 0   0 0 0 0 0   0 0 0 0 0  0 0 0 0.15 0" type="matrix" in="shadowBlurOuter2" result="shadowMatrixOuter2"></feColorMatrix>
            <feMerge>
                <feMergeNode in="shadowMatrixOuter1"></feMergeNode>
                <feMergeNode in="shadowMatrixOuter2"></feMergeNode>
            </feMerge>
        </filter>
        <filter x="-100.0%" y="-100.0%" width="300.0%" height="300.0%" filterUnits="objectBoundingBox" id="filter-32">
            <feOffset dx="0" dy="0" in="SourceAlpha" result="shadowOffsetInner1"></feOffset>
            <feComposite in="shadowOffsetInner1" in2="SourceAlpha" operator="arithmetic" k2="-1" k3="1" result="shadowInnerInner1"></feComposite>
            <feColorMatrix values="0 0 0 0 1   0 0 0 0 1   0 0 0 0 1  0 0 0 1 0" type="matrix" in="shadowInnerInner1"></feColorMatrix>
        </filter>
        <circle id="path-33" cx="3.25" cy="3.25" r="3.25"></circle>
        <filter x="-138.5%" y="-138.5%" width="376.9%" height="376.9%" filterUnits="objectBoundingBox" id="filter-34">
            <feOffset dx="0" dy="0" in="SourceAlpha" result="shadowOffsetOuter1"></feOffset>
            <feMorphology radius="1" operator="erode" in="SourceAlpha" result="shadowInner"></feMorphology>
            <feOffset dx="0" dy="0" in="shadowInner" result="shadowInner"></feOffset>
            <feComposite in="shadowOffsetOuter1" in2="shadowInner" operator="out" result="shadowOffsetOuter1"></feComposite>
            <feGaussianBlur stdDeviation="3" in="shadowOffsetOuter1" result="shadowBlurOuter1"></feGaussianBlur>
            <feColorMatrix values="0 0 0 0 0   0 0 0 0 0   0 0 0 0 0  0 0 0 0.05 0" type="matrix" in="shadowBlurOuter1" result="shadowMatrixOuter1"></feColorMatrix>
            <feOffset dx="0" dy="0" in="SourceAlpha" result="shadowOffsetOuter2"></feOffset>
            <feMorphology radius="1" operator="erode" in="SourceAlpha" result="shadowInner"></feMorphology>
            <feOffset dx="0" dy="0" in="shadowInner" result="shadowInner"></feOffset>
            <feComposite in="shadowOffsetOuter2" in2="shadowInner" operator="out" result="shadowOffsetOuter2"></feComposite>
            <feGaussianBlur stdDeviation="0.5" in="shadowOffsetOuter2" result="shadowBlurOuter2"></feGaussianBlur>
            <feColorMatrix values="0 0 0 0 0   0 0 0 0 0   0 0 0 0 0  0 0 0 0.15 0" type="matrix" in="shadowBlurOuter2" result="shadowMatrixOuter2"></feColorMatrix>
            <feMerge>
                <feMergeNode in="shadowMatrixOuter1"></feMergeNode>
                <feMergeNode in="shadowMatrixOuter2"></feMergeNode>
            </feMerge>
        </filter>
        <filter x="-92.3%" y="-92.3%" width="284.6%" height="284.6%" filterUnits="objectBoundingBox" id="filter-35">
            <feOffset dx="0" dy="0" in="SourceAlpha" result="shadowOffsetInner1"></feOffset>
            <feComposite in="shadowOffsetInner1" in2="SourceAlpha" operator="arithmetic" k2="-1" k3="1" result="shadowInnerInner1"></feComposite>
            <feColorMatrix values="0 0 0 0 1   0 0 0 0 1   0 0 0 0 1  0 0 0 1 0" type="matrix" in="shadowInnerInner1"></feColorMatrix>
        </filter>
    </defs>
    <g id="Settings-Layout" stroke="none" fill="none" xlink:href="#path-1">
        <use fill="color(display-p3 0.992 0.976 0.933)" fill-rule="evenodd" xlink:href="#path-1"></use>
        <use fill-opacity="0.06" fill="color(display-p3 0.494 0.549 0.514)" fill-rule="evenodd" xlink:href="#path-1"></use>
        <g id="Stack" opacity="0.0299999993" xlink:href="#path-2" stroke="color(display-p3 0.494 0.549 0.514)" stroke-width="1">
            <line x1="476" y1="392" x2="0" y2="392" id="Path" opacity="0"></line>
            <line x1="476" y1="378" x2="0" y2="378" id="Path"></line>
            <line x1="476" y1="364" x2="0" y2="364" id="Path"></line>
            <line x1="476" y1="350" x2="0" y2="350" id="Path"></line>
            <line x1="476" y1="336" x2="0" y2="336" id="Path"></line>
            <line x1="476" y1="322" x2="0" y2="322" id="Path"></line>
            <line x1="476" y1="308" x2="0" y2="308" id="Path"></line>
            <line x1="476" y1="294" x2="0" y2="294" id="Path"></line>
            <line x1="476" y1="280" x2="0" y2="280" id="Path"></line>
            <line x1="476" y1="266" x2="0" y2="266" id="Path"></line>
            <line x1="476" y1="252" x2="0" y2="252" id="Path"></line>
            <line x1="476" y1="238" x2="0" y2="238" id="Path"></line>
            <line x1="476" y1="224" x2="0" y2="224" id="Path"></line>
            <line x1="476" y1="210" x2="0" y2="210" id="Path"></line>
            <line x1="476" y1="196" x2="0" y2="196" id="Path"></line>
            <line x1="476" y1="182" x2="0" y2="182" id="Path"></line>
            <line x1="476" y1="168" x2="0" y2="168" id="Path"></line>
            <line x1="476" y1="154" x2="0" y2="154" id="Path"></line>
            <line x1="476" y1="140" x2="0" y2="140" id="Path"></line>
            <line x1="476" y1="126" x2="0" y2="126" id="Path"></line>
            <line x1="476" y1="112" x2="0" y2="112" id="Path"></line>
            <line x1="476" y1="98" x2="0" y2="98" id="Path"></line>
            <line x1="476" y1="84" x2="0" y2="84" id="Path"></line>
            <line x1="476" y1="70" x2="0" y2="70" id="Path"></line>
            <line x1="476" y1="56" x2="0" y2="56" id="Path"></line>
            <line x1="476" y1="42" x2="0" y2="42" id="Path"></line>
            <line x1="476" y1="28" x2="0" y2="28" id="Path"></line>
            <line x1="476" y1="14" x2="0" y2="14" id="Path"></line>
        </g>
        <g id="Stack" opacity="0.0299999993" xlink:href="#path-3" stroke="color(display-p3 0.494 0.549 0.514)" stroke-width="1">
            <line x1="462" y1="-419" x2="462" y2="661" id="Path"></line>
            <line x1="448" y1="-419" x2="448" y2="661" id="Path"></line>
            <line x1="434" y1="-419" x2="434" y2="661" id="Path"></line>
            <line x1="420" y1="-419" x2="420" y2="661" id="Path"></line>
            <line x1="406" y1="-419" x2="406" y2="661" id="Path"></line>
            <line x1="392" y1="-419" x2="392" y2="661" id="Path"></line>
            <line x1="378" y1="-419" x2="378" y2="661" id="Path"></line>
            <line x1="364" y1="-419" x2="364" y2="661" id="Path"></line>
            <line x1="350" y1="-419" x2="350" y2="661" id="Path"></line>
            <line x1="336" y1="-419" x2="336" y2="661" id="Path"></line>
            <line x1="322" y1="-419" x2="322" y2="661" id="Path"></line>
            <line x1="308" y1="-419" x2="308" y2="661" id="Path"></line>
            <line x1="294" y1="-419" x2="294" y2="661" id="Path"></line>
            <line x1="280" y1="-419" x2="280" y2="661" id="Path"></line>
            <line x1="266" y1="-419" x2="266" y2="661" id="Path"></line>
            <line x1="252" y1="-419" x2="252" y2="661" id="Path"></line>
            <line x1="238" y1="-419" x2="238" y2="661" id="Path"></line>
            <line x1="224" y1="-419" x2="224" y2="661" id="Path"></line>
            <line x1="210" y1="-419" x2="210" y2="661" id="Path"></line>
            <line x1="196" y1="-419" x2="196" y2="661" id="Path"></line>
            <line x1="182" y1="-419" x2="182" y2="661" id="Path"></line>
            <line x1="168" y1="-419" x2="168" y2="661" id="Path"></line>
            <line x1="154" y1="-419" x2="154" y2="661" id="Path"></line>
            <line x1="140" y1="-419" x2="140" y2="661" id="Path"></line>
            <line x1="126" y1="-419" x2="126" y2="661" id="Path"></line>
            <line x1="112" y1="-419" x2="112" y2="661" id="Path"></line>
            <line x1="98" y1="-419" x2="98" y2="661" id="Path"></line>
            <line x1="84" y1="-419" x2="84" y2="661" id="Path"></line>
            <line x1="70" y1="-419" x2="70" y2="661" id="Path"></line>
            <line x1="56" y1="-419" x2="56" y2="661" id="Path"></line>
            <line x1="42" y1="-419" x2="42" y2="661" id="Path"></line>
            <line x1="28" y1="-419" x2="28" y2="661" id="Path"></line>
            <line x1="14" y1="-419" x2="14" y2="661" id="Path"></line>
        </g>
        <g id="Default" stroke-width="1" fill-rule="evenodd" transform="translate(28, 30)" fill="color(display-p3 0.498 0.573 0.514)">
            <path d="M0.689830322,8.00000012 L2.08768909,8.00000012 C3.65488342,8.00000012 4.55937817,7.0610531 4.55937817,5.35696118 C4.55937817,3.65934985 3.65488342,2.75888342 2.04880566,2.75888342 L0.689830322,2.75888342 L0.689830322,8.00000012 L0.689830322,8.00000012 Z M1.49019812,7.34828284 L1.49019812,3.4106012 L1.99088342,3.4106012 C3.13197156,3.4106012 3.73652991,4.05568933 3.73652991,5.35696143 C3.73652991,6.66471411 3.13197156,7.34828284 1.99088342,7.34828284 L1.49019812,7.34828284 L1.49019812,7.34828284 Z" id="Shape" fill-rule="nonzero"></path>
            <path d="M7.21578097,8.096 C7.7269753,8.096 8.17658663,7.93296106 8.52939229,7.68911658 L8.24889754,7.17612708 C7.97689754,7.35516602 7.66378084,7.45724377 7.30954757,7.45724377 C6.65444515,7.45724377 6.09069246,6.99950537 6.09069246,6.0411167 C6.09069246,4.98672803 6.61627547,4.62802844 7.10681954,4.62802844 C7.67128597,4.62802844 7.96983004,5.01041711 7.96983004,5.66462183 L5.88492586,5.66462183 L5.88492586,6.27745593 L8.63450887,6.27745593 C8.66346993,6.14257263 8.67643099,5.99776697 8.67643099,5.84000024 C8.67643099,4.74288354 8.12939205,3.99575281 7.09385848,3.99575281 C6.18105282,3.99575281 5.30328609,4.77023328 5.30328609,6.04415552 C5.30328609,7.344 6.13913058,8.096 7.21578072,8.096 L7.21578097,8.096 Z" id="Path" fill-rule="nonzero"></path>
            <path d="M9.70396346,8 L10.4960855,8 L10.4960855,3.57505469 C10.4960855,3.10014746 10.6725328,2.86524023 11.0189928,2.86524023 C11.1552164,2.86524023 11.2955518,2.88946387 11.4441109,2.93791113 L11.609651,2.36486914 C11.4418746,2.29264551 11.1872164,2.22909277 10.9261236,2.22909277 C10.0710689,2.22909277 9.70396346,2.77939014 9.70396346,3.58193652 L9.70396346,8 Z M9.12841072,4.72660742 L11.29144,4.72660742 L11.29144,4.09045996 L9.75062166,4.09045996 L9.12841072,4.13023633 L9.12841072,4.72660742 Z" id="Shape" fill-rule="nonzero"></path>
            <path d="M12.7716622,8.096 C13.2447789,8.096 13.6470122,7.85984448 14.0210899,7.55280554 L14.050051,7.55280554 L14.1079732,7.99999988 L14.7631325,7.99999988 L14.7631325,5.64961121 C14.7631325,4.60942737 14.3161572,3.99575244 13.3553515,3.99575244 C12.7313515,3.99575244 12.1774293,4.24142737 11.7818957,4.49823303 L12.0783905,5.0371449 C12.4091184,4.83522266 12.7953516,4.65395056 13.2097403,4.65395056 C13.789401,4.65395056 13.962362,5.05680554 13.9722843,5.49934961 C12.3350122,5.67838855 11.6158178,6.09134961 11.6158178,6.96679126 C11.6158178,7.66238843 12.1018956,8.096 12.7716623,8.096 L12.7716622,8.096 Z M13.0080017,7.44428223 C12.6606518,7.44428223 12.3902631,7.29804895 12.3902631,6.91342712 C12.3902631,6.4648053 12.7848072,6.19745544 13.972284,6.05729993 L13.972284,6.99566016 C13.6417399,7.29804883 13.3553513,7.44428223 13.0080014,7.44428223 L13.0080017,7.44428223 Z" id="Shape" fill-rule="nonzero"></path>
            <path d="M17.0807153,8.09600012 C17.6151957,8.09600012 18.0022347,7.82440283 18.3538318,7.40880566 L18.3763123,7.40880566 L18.4407151,8 L19.0893939,8 L19.0893939,4.09175269 L18.2985455,4.09175269 L18.2985455,6.81318018 C17.9675986,7.23364661 17.7128071,7.41187988 17.3429767,7.41187988 C16.8749131,7.41187988 16.6741994,7.13845239 16.6741994,6.45246655 L16.6741994,4.09175269 L15.883351,4.09175269 L15.883351,6.55575281 C15.883351,7.54775281 16.251351,8.09600012 17.0807149,8.09600012 L17.0807153,8.09600012 Z" id="Path" fill-rule="nonzero"></path>
            <path d="M21.1260441,8.07696143 C21.3162137,8.07696143 21.4579805,8.048 21.5608638,8.00303894 L21.4545387,7.40924365 C21.3905387,7.42524365 21.3585387,7.42524365 21.3200582,7.42524365 C21.2145387,7.42524365 21.1181359,7.35476318 21.1181359,7.13339929 L21.1181359,2.32768933 L20.3272875,2.32768933 L20.3272875,7.08539929 C20.3272875,7.71262207 20.5490542,8.07696143 21.1260437,8.07696143 L21.1260441,8.07696143 Z" id="Path" fill-rule="nonzero"></path>
            <path d="M23.7395001,8.07696106 C24.0321502,8.07696106 24.3015141,8.00648059 24.5095141,7.90744165 L24.3551891,7.34908813 C24.2150335,7.41916589 24.0679946,7.43820483 23.9304751,7.43820483 C23.5195282,7.43820483 23.3556837,7.18989392 23.3556837,6.71981616 L23.3556837,4.72402856 L24.381514,4.72402856 L24.381514,4.09175269 L23.3556837,4.09175269 L23.3556837,2.85063599 L22.6940439,2.85063599 L22.5972383,4.09175269 L21.9892383,4.13023315 L21.9892383,4.72402844 L22.558355,4.72402844 L22.558355,6.7137384 C22.558355,7.52527197 22.8670051,8.07696106 23.7394999,8.07696106 L23.7395001,8.07696106 Z" id="Path" fill-rule="nonzero"></path>
        </g>
        <g id="System-Preferences" stroke-width="1" fill-rule="evenodd" transform="translate(28, 212)" fill="color(display-p3 0.498 0.573 0.514)">
            <path d="M2.18288184,8.096 C3.33085645,8.096 4.01751465,7.41068359 4.01751465,6.57180176 C4.01751465,5.80245996 3.57550195,5.42847266 2.94806104,5.16424902 L2.22148926,4.85457178 C1.79883105,4.67879541 1.37125293,4.50855908 1.37125293,4.05085645 C1.37125293,3.62560107 1.72727832,3.3616875 2.26886914,3.3616875 C2.70033545,3.3616875 3.0893418,3.5390293 3.42489453,3.82014746 L3.84884375,3.30243457 C3.46319189,2.92388818 2.90109277,2.66288184 2.26886914,2.66288184 C1.2726709,2.66288184 0.563130859,3.27986279 0.563130859,4.09796191 C0.563130859,4.85818555 1.11280811,5.25206104 1.62346631,5.47172559 L2.35781445,5.7891792 C2.84304443,5.99807373 3.20161621,6.15208643 3.20161621,6.63445996 C3.20161621,7.09260986 2.83647266,7.39719434 2.19843457,7.39719434 C1.66730371,7.39719434 1.13429736,7.17551709 0.762185547,6.80161621 L0.321789062,7.3193291 C0.799552734,7.81443457 1.44554004,8.096 2.18288184,8.096 Z" id="Path" fill-rule="nonzero"></path>
            <path d="M5.09925293,9.64380176 C5.91855664,9.64380176 6.32588574,9.07767725 6.62675488,8.24849805 L8.06943848,4.09045996 L7.30019824,4.09045996 L6.66171289,6.12810156 C6.55748926,6.47920703 6.45281836,6.87187793 6.34814746,7.23120703 L6.31614746,7.23120703 C6.19547656,6.86410156 6.0743584,6.47143066 5.95413477,6.12810156 L5.21920215,4.09045996 L4.41063281,4.09045996 L5.96352734,7.97935449 L5.88263281,8.24581445 C5.73684375,8.68318164 5.47860742,8.99943066 5.05304199,8.99943066 C4.96481836,8.99943066 4.8757002,8.9829834 4.77237109,8.9509834 L4.61460742,9.55602539 C4.74948926,9.61180176 4.90126563,9.64380176 5.09925293,9.64380176 Z" id="Path" fill-rule="nonzero"></path>
            <path d="M9.84499121,8.096 C10.8005186,8.096 11.3185059,7.56111816 11.3185059,6.90780176 C11.3185059,6.21023633 10.755375,5.92903174 10.147375,5.71647266 C9.6600459,5.54824902 9.34469141,5.41890723 9.34469141,5.09488184 C9.34469141,4.83163916 9.54715137,4.59950195 9.99274219,4.59950195 C10.3227549,4.59950195 10.6064194,4.70439648 10.8818604,4.90394922 L11.2358223,4.44844727 C10.9249404,4.18556543 10.4869531,3.99445996 9.97763672,3.99445996 C9.11587305,3.99445996 8.59100391,4.48178906 8.59100391,5.13421094 C8.59100391,5.76688184 9.13724023,6.06864551 9.7136875,6.27664551 C10.1500229,6.43664551 10.5648184,6.5906582 10.5648184,6.95490723 C10.5648184,7.25470898 10.3376875,7.49095801 9.86876758,7.49095801 C9.42407129,7.49095801 9.07251855,7.35339258 8.72918945,7.07361621 L8.37522754,7.52911816 C8.74188574,7.888 9.28364941,8.096 9.84499121,8.096 Z" id="Path" fill-rule="nonzero"></path>
            <path d="M13.33308,8.07696106 C13.6257301,8.07696106 13.895094,8.00648059 14.103094,7.90744165 L13.9487689,7.34908813 C13.8086134,7.41916589 13.6615745,7.43820483 13.5240549,7.43820483 C13.113108,7.43820483 12.9492635,7.18989392 12.9492635,6.71981616 L12.9492635,4.72402856 L13.9750939,4.72402856 L13.9750939,4.09175269 L12.9492635,4.09175269 L12.9492635,2.85063599 L12.2876238,2.85063599 L12.1908181,4.09175269 L11.5828181,4.13023315 L11.5828181,4.72402844 L12.1519348,4.72402844 L12.1519348,6.7137384 C12.1519348,7.52527197 12.460585,8.07696106 13.3330797,8.07696106 L13.33308,8.07696106 Z" id="Path" fill-rule="nonzero"></path>
            <path d="M16.3408625,8.096 C16.8520569,8.096 17.3016682,7.93296106 17.6544739,7.68911658 L17.3739791,7.17612708 C17.1019791,7.35516602 16.7888624,7.45724377 16.4346291,7.45724377 C15.7795267,7.45724377 15.215774,6.99950537 15.215774,6.0411167 C15.215774,4.98672803 15.741357,4.62802844 16.2319011,4.62802844 C16.7963675,4.62802844 17.0949116,5.01041711 17.0949116,5.66462183 L15.0100074,5.66462183 L15.0100074,6.27745593 L17.7595904,6.27745593 C17.7885515,6.14257263 17.8015125,5.99776697 17.8015125,5.84000024 C17.8015125,4.74288354 17.2544736,3.99575281 16.21894,3.99575281 C15.3061344,3.99575281 14.4283676,4.77023328 14.4283676,6.04415552 C14.4283676,7.344 15.2642121,8.096 16.3408623,8.096 L16.3408625,8.096 Z" id="Path" fill-rule="nonzero"></path>
            <path d="M18.7192813,8 L19.5114034,8 L19.5114034,5.21975098 C19.8427579,4.85550195 20.1416651,4.67726562 20.4085724,4.67726562 C20.8614923,4.67726562 21.0717286,4.95329102 21.0717286,5.6379873 L21.0717286,8 L21.8638507,8 L21.8638507,5.21975098 C22.1952052,4.85550195 22.4858888,4.67726562 22.7610196,4.67726562 C23.2139395,4.67726562 23.4241759,4.95329102 23.4241759,5.6379873 L23.4241759,8 L24.2162979,8 L24.2162979,5.536 C24.2162979,4.544 23.8322979,3.99445996 23.018087,3.99445996 C22.5316524,3.99445996 22.1346461,4.29845996 21.7449688,4.71669629 C21.5741988,4.26780176 21.2507579,3.99445996 20.6656397,3.99445996 C20.1874288,3.99445996 19.7938634,4.28290723 19.4574161,4.64013721 L19.4336397,4.64013721 L19.3705343,4.09045996 L18.7192813,4.09045996 L18.7192813,8 Z" id="Path" fill-rule="nonzero"></path>
            <path d="M27.0792306,8 L27.8795763,8 L27.8795763,5.99838379 L28.6862852,5.99838379 C29.823627,5.99838379 30.6511544,5.4751665 30.6511544,4.33885645 C30.6511544,3.15843457 29.8231798,2.75888184 28.6542852,2.75888184 L27.0792306,2.75888184 L27.0792306,8 Z M27.8795763,5.35445996 L27.8795763,3.40280566 L28.573838,3.40280566 C29.4225597,3.40280566 29.8581378,3.63637109 29.8581378,4.33885645 C29.8581378,5.03311816 29.4541124,5.35445996 28.605838,5.35445996 L27.8795763,5.35445996 Z" id="Shape" fill-rule="nonzero"></path>
            <path d="M31.6009688,8 L32.3930909,8 L32.3930909,5.55396191 C32.6426563,4.92638379 33.0275509,4.70104199 33.3484454,4.70104199 C33.5079981,4.70104199 33.5957745,4.71704199 33.7151036,4.74904199 L33.8806436,4.07445996 C33.76042,4.01823633 33.6367555,3.99445996 33.4504327,3.99445996 C33.0132027,3.99445996 32.6063209,4.29202539 32.3391036,4.79490723 L32.3153272,4.79490723 L32.2522218,4.09045996 L31.6009688,4.09045996 L31.6009688,8 Z" id="Path" fill-rule="nonzero"></path>
            <path d="M36.0379631,8.096 C36.5491574,8.096 36.9987688,7.93296106 37.3515744,7.68911658 L37.0710797,7.17612708 C36.7990797,7.35516602 36.485963,7.45724377 36.1317297,7.45724377 C35.4766273,7.45724377 34.9128746,6.99950537 34.9128746,6.0411167 C34.9128746,4.98672803 35.4384576,4.62802844 35.9290017,4.62802844 C36.4934681,4.62802844 36.7920122,5.01041711 36.7920122,5.66462183 L34.707108,5.66462183 L34.707108,6.27745593 L37.456691,6.27745593 C37.4856521,6.14257263 37.4986131,5.99776697 37.4986131,5.84000024 C37.4986131,4.74288354 36.9515742,3.99575281 35.9160406,3.99575281 C35.003235,3.99575281 34.1254682,4.77023328 34.1254682,6.04415552 C34.1254682,7.344 34.9613127,8.096 36.0379629,8.096 L36.0379631,8.096 Z" id="Path" fill-rule="nonzero"></path>
            <path d="M38.5261456,8 L39.3182677,8 L39.3182677,3.57505469 C39.3182677,3.10014746 39.4947149,2.86524023 39.8411749,2.86524023 C39.9773985,2.86524023 40.117734,2.88946387 40.2662931,2.93791113 L40.4318331,2.36486914 C40.2640567,2.29264551 40.0093985,2.22909277 39.7483058,2.22909277 C38.8932511,2.22909277 38.5261456,2.77939014 38.5261456,3.58193652 L38.5261456,8 Z M37.9505929,4.72660742 L40.1136222,4.72660742 L40.1136222,4.09045996 L38.5728038,4.09045996 L37.9505929,4.13023633 L37.9505929,4.72660742 Z" id="Shape" fill-rule="nonzero"></path>
            <path d="M42.3824944,8.096 C42.8936887,8.096 43.3433,7.93296106 43.6961057,7.68911658 L43.4156109,7.17612708 C43.1436109,7.35516602 42.8304942,7.45724377 42.476261,7.45724377 C41.8211585,7.45724377 41.2574059,6.99950537 41.2574059,6.0411167 C41.2574059,4.98672803 41.7829889,4.62802844 42.2735329,4.62802844 C42.8379994,4.62802844 43.1365434,5.01041711 43.1365434,5.66462183 L41.0516393,5.66462183 L41.0516393,6.27745593 L43.8012223,6.27745593 C43.8301833,6.14257263 43.8431444,5.99776697 43.8431444,5.84000024 C43.8431444,4.74288354 43.2961054,3.99575281 42.2605719,3.99575281 C41.3477662,3.99575281 40.4699995,4.77023328 40.4699995,6.04415552 C40.4699995,7.344 41.305844,8.096 42.3824941,8.096 L42.3824944,8.096 Z" id="Path" fill-rule="nonzero"></path>
            <path d="M44.7609132,8 L45.5530352,8 L45.5530352,5.55396191 C45.8026007,4.92638379 46.1874952,4.70104199 46.5083897,4.70104199 C46.6679425,4.70104199 46.7557188,4.71704199 46.8750479,4.74904199 L47.040588,4.07445996 C46.9203643,4.01823633 46.7966998,3.99445996 46.610377,3.99445996 C46.1731471,3.99445996 45.7662652,4.29202539 45.4990479,4.79490723 L45.4752716,4.79490723 L45.4121661,4.09045996 L44.7609132,4.09045996 L44.7609132,8 Z" id="Path" fill-rule="nonzero"></path>
            <path d="M49.1979074,8.096 C49.7091018,8.096 50.1587131,7.93296106 50.5115188,7.68911658 L50.231024,7.17612708 C49.959024,7.35516602 49.6459073,7.45724377 49.291674,7.45724377 C48.6365716,7.45724377 48.0728189,6.99950537 48.0728189,6.0411167 C48.0728189,4.98672803 48.5984019,4.62802844 49.088946,4.62802844 C49.6534124,4.62802844 49.9519565,5.01041711 49.9519565,5.66462183 L47.8670523,5.66462183 L47.8670523,6.27745593 L50.6166353,6.27745593 C50.6455964,6.14257263 50.6585575,5.99776697 50.6585575,5.84000024 C50.6585575,4.74288354 50.1115185,3.99575281 49.075985,3.99575281 C48.1631793,3.99575281 47.2854126,4.77023328 47.2854126,6.04415552 C47.2854126,7.344 48.121257,8.096 49.1979072,8.096 L49.1979074,8.096 Z" id="Path" fill-rule="nonzero"></path>
            <path d="M51.5763263,8 L52.3684483,8 L52.3684483,5.21975098 C52.7244737,4.86327832 52.9753809,4.67726562 53.3465118,4.67726562 C53.815879,4.67726562 54.0178917,4.95329102 54.0178917,5.6379873 L54.0178917,8 L54.8100138,8 L54.8100138,5.536 C54.8100138,4.544 54.4420138,3.99445996 53.6113556,3.99445996 C53.0755792,3.99445996 52.6755792,4.28290723 52.314461,4.63624902 L52.2906847,4.63624902 L52.2275792,4.09045996 L51.5763263,4.09045996 L51.5763263,8 Z" id="Path" fill-rule="nonzero"></path>
            <path d="M57.6035822,8.096 C58.0931018,8.096 58.5319851,7.90096106 58.8584655,7.59392212 L58.5265291,7.10645203 C58.302932,7.30564636 58.0031793,7.44428247 57.6748684,7.44428247 C57.0022465,7.44428247 56.5428967,6.88629663 56.5428967,6.05063599 C56.5428967,5.20849475 57.0273631,4.64747009 57.6878296,4.64747009 C57.9936599,4.64747009 58.222932,4.7621062 58.4110875,4.93730054 L58.7948685,4.44334985 C58.5194268,4.18431091 58.1575046,3.99575256 57.6489463,3.99575256 C56.6267766,3.99575256 55.7295681,4.74471362 55.7295681,6.05063586 C55.7295681,7.3470387 56.5368543,8.096 57.6035822,8.096 L57.6035822,8.096 Z" id="Path" fill-rule="nonzero"></path>
            <path d="M61.1248368,8.096 C61.6360311,8.096 62.0856424,7.93296106 62.4384481,7.68911658 L62.1579534,7.17612708 C61.8859534,7.35516602 61.5728367,7.45724377 61.2186034,7.45724377 C60.563501,7.45724377 59.9997483,6.99950537 59.9997483,6.0411167 C59.9997483,4.98672803 60.5253313,4.62802844 61.0158754,4.62802844 C61.5803418,4.62802844 61.8788859,5.01041711 61.8788859,5.66462183 L59.7939817,5.66462183 L59.7939817,6.27745593 L62.5435647,6.27745593 C62.5725257,6.14257263 62.5854868,5.99776697 62.5854868,5.84000024 C62.5854868,4.74288354 62.0384479,3.99575281 61.0029143,3.99575281 C60.0901086,3.99575281 59.2123419,4.77023328 59.2123419,6.04415552 C59.2123419,7.344 60.0481864,8.096 61.1248365,8.096 L61.1248368,8.096 Z" id="Path" fill-rule="nonzero"></path>
            <path d="M64.5625593,8.096 C65.5180867,8.096 66.036074,7.56111816 66.036074,6.90780176 C66.036074,6.21023633 65.4729431,5.92903174 64.8649431,5.71647266 C64.377614,5.54824902 64.0622595,5.41890723 64.0622595,5.09488184 C64.0622595,4.83163916 64.2647195,4.59950195 64.7103103,4.59950195 C65.040323,4.59950195 65.3239875,4.70439648 65.5994285,4.90394922 L65.9533904,4.44844727 C65.6425085,4.18556543 65.2045212,3.99445996 64.6952048,3.99445996 C63.8334412,3.99445996 63.308572,4.48178906 63.308572,5.13421094 C63.308572,5.76688184 63.8548083,6.06864551 64.4312556,6.27664551 C64.8675911,6.43664551 65.2823865,6.5906582 65.2823865,6.95490723 C65.2823865,7.25470898 65.0552556,7.49095801 64.5863357,7.49095801 C64.1416394,7.49095801 63.7900867,7.35339258 63.4467576,7.07361621 L63.0927956,7.52911816 C63.4594538,7.888 64.0012175,8.096 64.5625593,8.096 Z" id="Path" fill-rule="nonzero"></path>
        </g>
        <g id="Default" transform="translate(140, 28)" xlink:href="#path-4">
            <use fill="color(display-p3 0.867 0.875 0.827)" fill-rule="evenodd" xlink:href="#path-4"></use>
            <g id="Path-2-+-Path-2-+-Path-2-+-Path-2-+-Frame-2-+-Frame-2-+-Rectangle-+-Rectangle-+-Rectangle-+-Rectangle-+-Rectangle-+-Rectangle-+-Rectangle-+-Rectangle-+-Rectangle-+-Rectangle-+-Rectangle-+-Rectangle-+-Rectangle-+-Rectangle-+-Frame-2-+-Path-2-Mask" stroke-width="1" fill-rule="evenodd">
                <mask id="mask-6" fill="white">
                    <use xlink:href="#path-5"></use>
                </mask>
                <g id="Mask"></g>
                <g id="Frame-2" mask="url(#mask-6)" xlink:href="#path-7">
                    <use stroke-opacity="0.25" stroke="color(display-p3 0.498 0.573 0.514)" stroke-width="1" fill-opacity="0.15" fill="color(display-p3 0.498 0.573 0.514)" fill-rule="evenodd" xlink:href="#path-7"></use>
                    <g id="Settings" stroke-width="1" fill-rule="evenodd" transform="translate(105.5, 2)" fill="color(display-p3 0.498 0.573 0.514)">
                        <path d="M2.36250425,7.084 C3.45214585,7.084 4.08135972,6.42757227 4.08135972,5.66989404 C4.08135972,5.02510791 3.73718052,4.65528711 3.17634141,4.42882275 L2.59500132,4.19334009 C2.19678745,4.03480444 1.89835776,3.93316089 1.89835776,3.65331982 C1.89835776,3.39240747 2.12471616,3.24428125 2.48032505,3.24428125 C2.78452256,3.24428125 3.10361216,3.37106738 3.40668345,3.59338916 L3.94796665,2.92274951 C3.56084238,2.56076782 3.0287894,2.35367822 2.48032505,2.35367822 C1.52821909,2.35367822 0.855327002,2.95740942 0.855327002,3.7134624 C0.855327002,4.37392676 1.30080967,4.76351538 1.77602354,4.96281885 L2.36889927,5.20983716 C2.76745322,5.37369458 3.02679331,5.46587378 3.02679331,5.75310791 C3.02679331,6.02387769 2.81611314,6.19339697 2.38557554,6.19339697 C1.98707456,6.19339697 1.54198496,6.03491431 1.21875278,5.74796729 L0.67254087,6.41860693 C1.13789731,6.87074951 1.74571812,7.084 2.36250425,7.084 Z" id="Path" fill-rule="nonzero"></path>
                        <path d="M6.4166999,7.084 C6.82718149,7.084 7.29421841,6.944 7.64757635,6.6964816 L7.3127,6.06872881 C7.06686057,6.21488937 6.81653954,6.29104994 6.55389748,6.29104994 C6.0924528,6.29104994 5.6399712,6.05080273 5.62429223,5.26232114 C5.60861326,4.46823439 5.98157635,4.23359233 6.3187,4.23359233 C6.72582366,4.23359233 6.88710778,4.50239496 6.88710778,4.8669632 L5.4439713,4.8669632 L5.45181074,5.57703702 L7.72765668,5.57703702 C7.75173691,5.47455553 7.77357635,5.29535815 7.77357635,5.11000021 C7.77357635,4.16583965 7.28973681,3.4437225 6.29686046,3.4437225 C5.46134206,3.4437225 4.65382366,4.1344817 4.65382366,5.26232114 C4.65382366,6.41816057 5.41934206,7.084 6.4167,7.084 L6.4166999,7.084 Z" id="Path" fill-rule="nonzero"></path>
                        <path d="M9.83871194,7.07783943 C10.1657488,7.07783943 10.4303475,7.01091977 10.6123475,6.9347592 L10.4457488,6.21488927 C10.3494278,6.2552103 10.2312673,6.2692103 10.1161869,6.2692103 C9.84598303,6.2692103 9.66846462,6.11240767 9.66846462,5.71816687 L9.66846462,4.33327119 L10.5003475,4.33327119 L10.5003475,3.52772229 L9.66846462,3.52772229 L9.66846462,2.46540126 L8.81615652,2.46540126 L8.69463812,3.52772229 L8.16263812,3.56664195 L8.16263812,4.33327109 L8.63695915,4.33327109 L8.63695915,5.72992596 C8.63695915,6.53464185 8.97799606,7.07783943 9.83871194,7.07783943 L9.83871194,7.07783943 Z" id="Path" fill-rule="nonzero"></path>
                        <path d="M12.4660819,7.07783943 C12.7931189,7.07783943 13.0577175,7.01091977 13.2397175,6.9347592 L13.0731189,6.21488927 C12.9767978,6.2552103 12.8586373,6.2692103 12.7435569,6.2692103 C12.473353,6.2692103 12.2958346,6.11240767 12.2958346,5.71816687 L12.2958346,4.33327119 L13.1277175,4.33327119 L13.1277175,3.52772229 L12.2958346,3.52772229 L12.2958346,2.46540126 L11.4435265,2.46540126 L11.3220081,3.52772229 L10.7900081,3.56664195 L10.7900081,4.33327109 L11.2643291,4.33327109 L11.2643291,5.72992596 C11.2643291,6.53464185 11.6053661,7.07783943 12.4660819,7.07783943 L12.4660819,7.07783943 Z" id="Path" fill-rule="nonzero"></path>
                        <path d="M13.8937194,7 L14.9227501,7 L14.9227501,3.52710791 L13.8937194,3.52710791 L13.8937194,7 Z M14.4070026,3.01917725 C14.7521798,3.01917725 14.9886076,2.8058208 14.9886076,2.47878613 C14.9886076,2.15421582 14.7521798,1.94085937 14.4070026,1.94085937 C14.0618253,1.94085937 13.8253976,2.15421582 13.8253976,2.47878613 C13.8253976,2.8058208 14.0618253,3.01917725 14.4070026,3.01917725 Z" id="Shape" fill-rule="nonzero"></path>
                        <path d="M15.9158957,7 L16.9449264,7 L16.9449264,4.65717725 C17.1712848,4.43989014 17.3293214,4.31971094 17.5878224,4.31971094 C17.8849669,4.31971094 18.0191461,4.47606934 18.0191461,4.9758208 L18.0191461,7 L19.0481769,7 L19.0481769,4.844 C19.0481769,3.976 18.7261769,3.44310791 17.970963,3.44310791 C17.4974274,3.44310791 17.1474274,3.68603662 16.8551056,3.96682275 L16.82957,3.96682275 L16.7554274,3.52710791 L15.9158957,3.52710791 L15.9158957,7 Z" id="Path" fill-rule="nonzero"></path>
                        <path d="M21.2478927,8.47650098 C22.4396769,8.47650098 23.1916403,7.95110791 23.1916403,7.22960889 C23.1916403,6.60778809 22.7172125,6.3467168 21.8656239,6.3467168 L21.3024264,6.3467168 C20.9228541,6.3467168 20.7828541,6.26360889 20.7828541,6.0923584 C20.7828541,5.96971484 20.8190333,5.908 20.9038195,5.8339104 C21.0578195,5.88 21.20107,5.90139307 21.3278561,5.90139307 C22.0872125,5.90139307 22.6950333,5.53335645 22.6950333,4.746 C22.6950333,4.56948071 22.6456933,4.42667627 22.5543532,4.30481885 L22.5543532,4.27681885 L23.1356403,4.27681885 L23.1356403,3.52710791 L21.8656769,3.52710791 C21.7099987,3.47357227 21.5213917,3.44310791 21.3278561,3.44310791 C20.5800353,3.44310791 19.891465,3.8663584 19.891465,4.69985742 C19.891465,5.10585742 20.1130006,5.43032178 20.3576076,5.60078613 L20.3576076,5.62878613 C20.1368581,5.78446436 19.9705363,6.02907129 19.9705363,6.27939307 C19.9705363,6.566 20.1080719,6.748 20.2876076,6.86907129 L20.2876076,6.89707129 C19.9680719,7.07492871 19.7951432,7.30794702 19.7951432,7.5961792 C19.7951432,8.21385742 20.4400353,8.47650098 21.2478927,8.47650098 Z M21.3278561,5.27857422 C21.0570333,5.27857422 20.8537462,5.08021582 20.8537462,4.69985742 C20.8537462,4.32857031 21.054569,4.13514063 21.3278561,4.13514063 C21.6011432,4.13514063 21.801966,4.32857031 21.801966,4.69985742 C21.801966,5.08021582 21.5986789,5.27857422 21.3278561,5.27857422 Z M21.4118561,7.83061084 C20.9467116,7.83061084 20.642068,7.69564551 20.642068,7.43221582 C20.642068,7.30710791 20.7013185,7.20014258 20.8296769,7.09149902 C20.942463,7.12196338 21.0783205,7.13596338 21.3164264,7.13596338 L21.676911,7.13596338 C22.0185729,7.13596338 22.2062877,7.18614258 22.2062877,7.40510791 C22.2062877,7.64546631 21.8753224,7.83061084 21.4118561,7.83061084 Z" id="Shape" fill-rule="nonzero"></path>
                        <path d="M24.8628185,7.084 C25.7935314,7.084 26.2893522,6.59232178 26.2893522,5.96389404 C26.2893522,5.38664355 25.8628512,5.081448 25.3308512,4.90728711 C24.8902443,4.76482275 24.685279,4.68003662 24.685279,4.48167822 C24.685279,4.31994507 24.8103869,4.20435449 25.0819958,4.20435449 C25.328175,4.20435449 25.5834784,4.27721191 25.8363175,4.4612832 L26.2737799,3.88292871 C25.9781017,3.62925049 25.5522809,3.44310791 25.0498532,3.44310791 C24.2484967,3.44310791 23.7229977,3.88371484 23.7229977,4.53028516 C23.7229977,5.06967822 24.1536413,5.38103467 24.64857,5.56303467 C25.0232665,5.70303467 25.3270709,5.79521387 25.3270709,6.02403662 C25.3270709,6.20593066 25.19457,6.32275342 24.8883541,6.32275342 C24.5986027,6.32275342 24.2815314,6.23550293 23.9669245,5.98596729 L23.5294621,6.56432178 C23.8786759,6.902 24.4000324,7.084 24.8628185,7.084 Z" id="Path" fill-rule="nonzero"></path>
                    </g>
                    <g id="Oval">
                        <use fill="black" fill-opacity="1" filter="url(#filter-9)" xlink:href="#path-8"></use>
                        <use fill-opacity="0.15" fill="color(display-p3 0.498 0.573 0.514)" fill-rule="evenodd" xlink:href="#path-8"></use>
                        <use fill="black" fill-opacity="1" filter="url(#filter-10)" xlink:href="#path-8"></use>
                        <circle stroke="color(display-p3 0.498 0.573 0.514)" stroke-width="1" stroke-linejoin="square" cx="10" cy="10" r="2.5"></circle>
                    </g>
                    <g id="Oval">
                        <use fill="black" fill-opacity="1" filter="url(#filter-12)" xlink:href="#path-11"></use>
                        <use fill-opacity="0.15" fill="color(display-p3 0.498 0.573 0.514)" fill-rule="evenodd" xlink:href="#path-11"></use>
                        <use fill="black" fill-opacity="1" filter="url(#filter-13)" xlink:href="#path-11"></use>
                        <circle stroke="color(display-p3 0.498 0.573 0.514)" stroke-width="1" stroke-linejoin="square" cx="19" cy="10" r="2.5"></circle>
                    </g>
                    <g id="Oval">
                        <use fill="black" fill-opacity="1" filter="url(#filter-15)" xlink:href="#path-14"></use>
                        <use fill-opacity="0.15" fill="color(display-p3 0.498 0.573 0.514)" fill-rule="evenodd" xlink:href="#path-14"></use>
                        <use fill="black" fill-opacity="1" filter="url(#filter-16)" xlink:href="#path-14"></use>
                        <circle stroke="color(display-p3 0.498 0.573 0.514)" stroke-width="1" stroke-linejoin="square" cx="28" cy="10" r="2.5"></circle>
                    </g>
                    <path d="M116.12777,16 L121.87223,16 C123.655267,16 124.30184,16.1856512 124.953691,16.5342654 C125.605543,16.8828796 126.11712,17.3944567 126.465735,18.0463086 C126.814349,18.6981604 127,19.3447329 127,21.1277704 L127,26.8722296 C127,28.6552671 126.814349,29.3018396 126.465735,29.9536914 C126.11712,30.6055433 125.605543,31.1171204 124.953691,31.4657346 C124.30184,31.8143488 123.655267,32 121.87223,32 L116.12777,32 C114.344733,32 113.69816,31.8143488 113.046309,31.4657346 C112.394457,31.1171204 111.88288,30.6055433 111.534265,29.9536914 C111.185651,29.3018396 111,28.6552671 111,26.8722296 L111,21.1277704 C111,19.3447329 111.185651,18.6981604 111.534265,18.0463086 C111.88288,17.3944567 112.394457,16.8828796 113.046309,16.5342654 C113.69816,16.1856512 114.344733,16 116.12777,16 Z" id="Rectangle" stroke="color(display-p3 0.498 0.573 0.514)" stroke-width="1"></path>
                    <path d="M138.12777,16 L143.87223,16 C145.655267,16 146.30184,16.1856512 146.953691,16.5342654 C147.605543,16.8828796 148.11712,17.3944567 148.465735,18.0463086 C148.814349,18.6981604 149,19.3447329 149,21.1277704 L149,26.8722296 C149,28.6552671 148.814349,29.3018396 148.465735,29.9536914 C148.11712,30.6055433 147.605543,31.1171204 146.953691,31.4657346 C146.30184,31.8143488 145.655267,32 143.87223,32 L138.12777,32 C136.344733,32 135.69816,31.8143488 135.046309,31.4657346 C134.394457,31.1171204 133.88288,30.6055433 133.534265,29.9536914 C133.185651,29.3018396 133,28.6552671 133,26.8722296 L133,21.1277704 C133,19.3447329 133.185651,18.6981604 133.534265,18.0463086 C133.88288,17.3944567 134.394457,16.8828796 135.046309,16.5342654 C135.69816,16.1856512 136.344733,16 138.12777,16 Z" id="Rectangle" stroke="color(display-p3 0.498 0.573 0.514)" stroke-width="1"></path>
                    <path d="M160.12777,16 L165.87223,16 C167.655267,16 168.30184,16.1856512 168.953691,16.5342654 C169.605543,16.8828796 170.11712,17.3944567 170.465735,18.0463086 C170.814349,18.6981604 171,19.3447329 171,21.1277704 L171,26.8722296 C171,28.6552671 170.814349,29.3018396 170.465735,29.9536914 C170.11712,30.6055433 169.605543,31.1171204 168.953691,31.4657346 C168.30184,31.8143488 167.655267,32 165.87223,32 L160.12777,32 C158.344733,32 157.69816,31.8143488 157.046309,31.4657346 C156.394457,31.1171204 155.88288,30.6055433 155.534265,29.9536914 C155.185651,29.3018396 155,28.6552671 155,26.8722296 L155,21.1277704 C155,19.3447329 155.185651,18.6981604 155.534265,18.0463086 C155.88288,17.3944567 156.394457,16.8828796 157.046309,16.5342654 C157.69816,16.1856512 158.344733,16 160.12777,16 Z" id="Rectangle" stroke="color(display-p3 0.498 0.573 0.514)" stroke-width="1"></path>
                    <path d="M72.1277704,16 L77.8722296,16 C79.6552671,16 80.3018396,16.1856512 80.9536914,16.5342654 C81.6055433,16.8828796 82.1171204,17.3944567 82.4657346,18.0463086 C82.8143488,18.6981604 83,19.3447329 83,21.1277704 L83,26.8722296 C83,28.6552671 82.8143488,29.3018396 82.4657346,29.9536914 C82.1171204,30.6055433 81.6055433,31.1171204 80.9536914,31.4657346 C80.3018396,31.8143488 79.6552671,32 77.8722296,32 L72.1277704,32 C70.3447329,32 69.6981604,31.8143488 69.0463086,31.4657346 C68.3944567,31.1171204 67.8828796,30.6055433 67.5342654,29.9536914 C67.1856512,29.3018396 67,28.6552671 67,26.8722296 L67,21.1277704 C67,19.3447329 67.1856512,18.6981604 67.5342654,18.0463086 C67.8828796,17.3944567 68.3944567,16.8828796 69.0463086,16.5342654 C69.6981604,16.1856512 70.3447329,16 72.1277704,16 Z" id="Rectangle" stroke="color(display-p3 0.498 0.573 0.514)" stroke-width="1"></path>
                    <path d="M94.1277704,16 L99.8722296,16 C101.655267,16 102.30184,16.1856512 102.953691,16.5342654 C103.605543,16.8828796 104.11712,17.3944567 104.465735,18.0463086 C104.814349,18.6981604 105,19.3447329 105,21.1277704 L105,26.8722296 C105,28.6552671 104.814349,29.3018396 104.465735,29.9536914 C104.11712,30.6055433 103.605543,31.1171204 102.953691,31.4657346 C102.30184,31.8143488 101.655267,32 99.8722296,32 L94.1277704,32 C92.3447329,32 91.6981604,31.8143488 91.0463086,31.4657346 C90.3944567,31.1171204 89.8828796,30.6055433 89.5342654,29.9536914 C89.1856512,29.3018396 89,28.6552671 89,26.8722296 L89,21.1277704 C89,19.3447329 89.1856512,18.6981604 89.5342654,18.0463086 C89.8828796,17.3944567 90.3944567,16.8828796 91.0463086,16.5342654 C91.6981604,16.1856512 92.3447329,16 94.1277704,16 Z" id="Rectangle" stroke="color(display-p3 0.498 0.573 0.514)" stroke-width="1"></path>
                    <path d="M94.9735982,13 L99.0264018,13 C102.146717,13 103.278219,13.3248896 104.41896,13.9349645 C105.559701,14.5450393 106.454961,15.4402993 107.065036,16.58104 C107.67511,17.7217808 108,18.8532826 108,21.9735982 L108,26.0264018 C108,29.1467174 107.67511,30.2782192 107.065036,31.41896 C106.454961,32.5597007 105.559701,33.4549607 104.41896,34.0650355 C103.278219,34.6751104 102.146717,35 99.0264018,35 L94.9735982,35 C91.8532826,35 90.7217808,34.6751104 89.58104,34.0650355 C88.4402993,33.4549607 87.5450393,32.5597007 86.9349645,31.41896 C86.3248896,30.2782192 86,29.1467174 86,26.0264018 L86,21.9735982 C86,18.8532826 86.3248896,17.7217808 86.9349645,16.58104 C87.5450393,15.4402993 88.4402993,14.5450393 89.58104,13.9349645 C90.7217808,13.3248896 91.8532826,13 94.9735982,13 Z" id="Rectangle" fill-opacity="0.25" fill="color(display-p3 0.498 0.573 0.514)" fill-rule="evenodd"></path>
                </g>
                <path d="M52.2819426,57 L80.7180574,57 C81.1638168,57 81.3254599,57.0464128 81.4884229,57.1335664 C81.6513858,57.2207199 81.7792801,57.3486142 81.8664336,57.5115771 C81.9535872,57.6745401 82,57.8361832 82,58.2819426 L82,59.7180574 C82,60.1638168 81.9535872,60.3254599 81.8664336,60.4884229 C81.7792801,60.6513858 81.6513858,60.7792801 81.4884229,60.8664336 C81.3254599,60.9535872 81.1638168,61 80.7180574,61 L52.2819426,61 C51.8361832,61 51.6745401,60.9535872 51.5115771,60.8664336 C51.3486142,60.7792801 51.2207199,60.6513858 51.1335664,60.4884229 C51.0464128,60.3254599 51,60.1638168 51,59.7180574 L51,58.2819426 C51,57.8361832 51.0464128,57.6745401 51.1335664,57.5115771 C51.2207199,57.3486142 51.3486142,57.2207199 51.5115771,57.1335664 C51.6745401,57.0464128 51.8361832,57 52.2819426,57 Z" id="Rectangle" fill="color(display-p3 0.498 0.573 0.514)" opacity="0.25" mask="url(#mask-6)"></path>
                <path d="M104.281943,57 L132.718057,57 C133.163817,57 133.32546,57.0464128 133.488423,57.1335664 C133.651386,57.2207199 133.77928,57.3486142 133.866434,57.5115771 C133.953587,57.6745401 134,57.8361832 134,58.2819426 L134,59.7180574 C134,60.1638168 133.953587,60.3254599 133.866434,60.4884229 C133.77928,60.6513858 133.651386,60.7792801 133.488423,60.8664336 C133.32546,60.9535872 133.163817,61 132.718057,61 L104.281943,61 C103.836183,61 103.67454,60.9535872 103.511577,60.8664336 C103.348614,60.7792801 103.22072,60.6513858 103.133566,60.4884229 C103.046413,60.3254599 103,60.1638168 103,59.7180574 L103,58.2819426 C103,57.8361832 103.046413,57.6745401 103.133566,57.5115771 C103.22072,57.3486142 103.348614,57.2207199 103.511577,57.1335664 C103.67454,57.0464128 103.836183,57 104.281943,57 Z" id="Rectangle" fill="color(display-p3 0.498 0.573 0.514)" opacity="0.25" mask="url(#mask-6)"></path>
                <path d="M104.281943,65 L171.718057,65 C172.163817,65 172.32546,65.0464128 172.488423,65.1335664 C172.651386,65.2207199 172.77928,65.3486142 172.866434,65.5115771 C172.953587,65.6745401 173,65.8361832 173,66.2819426 L173,67.7180574 C173,68.1638168 172.953587,68.3254599 172.866434,68.4884229 C172.77928,68.6513858 172.651386,68.7792801 172.488423,68.8664336 C172.32546,68.9535872 172.163817,69 171.718057,69 L104.281943,69 C103.836183,69 103.67454,68.9535872 103.511577,68.8664336 C103.348614,68.7792801 103.22072,68.6513858 103.133566,68.4884229 C103.046413,68.3254599 103,68.1638168 103,67.7180574 L103,66.2819426 C103,65.8361832 103.046413,65.6745401 103.133566,65.5115771 C103.22072,65.3486142 103.348614,65.2207199 103.511577,65.1335664 C103.67454,65.0464128 103.836183,65 104.281943,65 Z" id="Rectangle" fill="color(display-p3 0.498 0.573 0.514)" opacity="0.25" mask="url(#mask-6)"></path>
                <path d="M104.281943,73 L160.718057,73 C161.163817,73 161.32546,73.0464128 161.488423,73.1335664 C161.651386,73.2207199 161.77928,73.3486142 161.866434,73.5115771 C161.953587,73.6745401 162,73.8361832 162,74.2819426 L162,75.7180574 C162,76.1638168 161.953587,76.3254599 161.866434,76.4884229 C161.77928,76.6513858 161.651386,76.7792801 161.488423,76.8664336 C161.32546,76.9535872 161.163817,77 160.718057,77 L104.281943,77 C103.836183,77 103.67454,76.9535872 103.511577,76.8664336 C103.348614,76.7792801 103.22072,76.6513858 103.133566,76.4884229 C103.046413,76.3254599 103,76.1638168 103,75.7180574 L103,74.2819426 C103,73.8361832 103.046413,73.6745401 103.133566,73.5115771 C103.22072,73.3486142 103.348614,73.2207199 103.511577,73.1335664 C103.67454,73.0464128 103.836183,73 104.281943,73 Z" id="Rectangle" fill="color(display-p3 0.498 0.573 0.514)" opacity="0.25" mask="url(#mask-6)"></path>
                <path d="M52.2819426,89 L75.7180574,89 C76.1638168,89 76.3254599,89.0464128 76.4884229,89.1335664 C76.6513858,89.2207199 76.7792801,89.3486142 76.8664336,89.5115771 C76.9535872,89.6745401 77,89.8361832 77,90.2819426 L77,91.7180574 C77,92.1638168 76.9535872,92.3254599 76.8664336,92.4884229 C76.7792801,92.6513858 76.6513858,92.7792801 76.4884229,92.8664336 C76.3254599,92.9535872 76.1638168,93 75.7180574,93 L52.2819426,93 C51.8361832,93 51.6745401,92.9535872 51.5115771,92.8664336 C51.3486142,92.7792801 51.2207199,92.6513858 51.1335664,92.4884229 C51.0464128,92.3254599 51,92.1638168 51,91.7180574 L51,90.2819426 C51,89.8361832 51.0464128,89.6745401 51.1335664,89.5115771 C51.2207199,89.3486142 51.3486142,89.2207199 51.5115771,89.1335664 C51.6745401,89.0464128 51.8361832,89 52.2819426,89 Z" id="Rectangle" fill="color(display-p3 0.498 0.573 0.514)" opacity="0.25" mask="url(#mask-6)"></path>
                <path d="M104.281943,89 L150.718057,89 C151.163817,89 151.32546,89.0464128 151.488423,89.1335664 C151.651386,89.2207199 151.77928,89.3486142 151.866434,89.5115771 C151.953587,89.6745401 152,89.8361832 152,90.2819426 L152,91.7180574 C152,92.1638168 151.953587,92.3254599 151.866434,92.4884229 C151.77928,92.6513858 151.651386,92.7792801 151.488423,92.8664336 C151.32546,92.9535872 151.163817,93 150.718057,93 L104.281943,93 C103.836183,93 103.67454,92.9535872 103.511577,92.8664336 C103.348614,92.7792801 103.22072,92.6513858 103.133566,92.4884229 C103.046413,92.3254599 103,92.1638168 103,91.7180574 L103,90.2819426 C103,89.8361832 103.046413,89.6745401 103.133566,89.5115771 C103.22072,89.3486142 103.348614,89.2207199 103.511577,89.1335664 C103.67454,89.0464128 103.836183,89 104.281943,89 Z" id="Rectangle" fill="color(display-p3 0.498 0.573 0.514)" opacity="0.25" mask="url(#mask-6)"></path>
                <path d="M104.281943,97 L132.718057,97 C133.163817,97 133.32546,97.0464128 133.488423,97.1335664 C133.651386,97.2207199 133.77928,97.3486142 133.866434,97.5115771 C133.953587,97.6745401 134,97.8361832 134,98.2819426 L134,99.7180574 C134,100.163817 133.953587,100.32546 133.866434,100.488423 C133.77928,100.651386 133.651386,100.77928 133.488423,100.866434 C133.32546,100.953587 133.163817,101 132.718057,101 L104.281943,101 C103.836183,101 103.67454,100.953587 103.511577,100.866434 C103.348614,100.77928 103.22072,100.651386 103.133566,100.488423 C103.046413,100.32546 103,100.163817 103,99.7180574 L103,98.2819426 C103,97.8361832 103.046413,97.6745401 103.133566,97.5115771 C103.22072,97.3486142 103.348614,97.2207199 103.511577,97.1335664 C103.67454,97.0464128 103.836183,97 104.281943,97 Z" id="Rectangle" fill="color(display-p3 0.498 0.573 0.514)" opacity="0.25" mask="url(#mask-6)"></path>
                <path d="M104.281943,105 L179.718057,105 C180.163817,105 180.32546,105.046413 180.488423,105.133566 C180.651386,105.22072 180.77928,105.348614 180.866434,105.511577 C180.953587,105.67454 181,105.836183 181,106.281943 L181,107.718057 C181,108.163817 180.953587,108.32546 180.866434,108.488423 C180.77928,108.651386 180.651386,108.77928 180.488423,108.866434 C180.32546,108.953587 180.163817,109 179.718057,109 L104.281943,109 C103.836183,109 103.67454,108.953587 103.511577,108.866434 C103.348614,108.77928 103.22072,108.651386 103.133566,108.488423 C103.046413,108.32546 103,108.163817 103,107.718057 L103,106.281943 C103,105.836183 103.046413,105.67454 103.133566,105.511577 C103.22072,105.348614 103.348614,105.22072 103.511577,105.133566 C103.67454,105.046413 103.836183,105 104.281943,105 Z" id="Rectangle" fill="color(display-p3 0.498 0.573 0.514)" opacity="0.25" mask="url(#mask-6)"></path>
                <path d="M104.281943,113 L167.718057,113 C168.163817,113 168.32546,113.046413 168.488423,113.133566 C168.651386,113.22072 168.77928,113.348614 168.866434,113.511577 C168.953587,113.67454 169,113.836183 169,114.281943 L169,115.718057 C169,116.163817 168.953587,116.32546 168.866434,116.488423 C168.77928,116.651386 168.651386,116.77928 168.488423,116.866434 C168.32546,116.953587 168.163817,117 167.718057,117 L104.281943,117 C103.836183,117 103.67454,116.953587 103.511577,116.866434 C103.348614,116.77928 103.22072,116.651386 103.133566,116.488423 C103.046413,116.32546 103,116.163817 103,115.718057 L103,114.281943 C103,113.836183 103.046413,113.67454 103.133566,113.511577 C103.22072,113.348614 103.348614,113.22072 103.511577,113.133566 C103.67454,113.046413 103.836183,113 104.281943,113 Z" id="Rectangle" fill="color(display-p3 0.498 0.573 0.514)" opacity="0.25" mask="url(#mask-6)"></path>
                <path d="M104.281943,121 L140.718057,121 C141.163817,121 141.32546,121.046413 141.488423,121.133566 C141.651386,121.22072 141.77928,121.348614 141.866434,121.511577 C141.953587,121.67454 142,121.836183 142,122.281943 L142,123.718057 C142,124.163817 141.953587,124.32546 141.866434,124.488423 C141.77928,124.651386 141.651386,124.77928 141.488423,124.866434 C141.32546,124.953587 141.163817,125 140.718057,125 L104.281943,125 C103.836183,125 103.67454,124.953587 103.511577,124.866434 C103.348614,124.77928 103.22072,124.651386 103.133566,124.488423 C103.046413,124.32546 103,124.163817 103,123.718057 L103,122.281943 C103,121.836183 103.046413,121.67454 103.133566,121.511577 C103.22072,121.348614 103.348614,121.22072 103.511577,121.133566 C103.67454,121.046413 103.836183,121 104.281943,121 Z" id="Rectangle" fill="color(display-p3 0.498 0.573 0.514)" opacity="0.25" mask="url(#mask-6)"></path>
            </g>
            <path d="M12.819426,0 L225.180574,1.81366828e-15 C229.638168,-1.0537935e-15 231.254599,0.464128056 232.884229,1.33566352 C234.513858,2.20719898 235.792801,3.48614185 236.664336,5.11577148 C237.535872,6.74540111 238,8.3618323 238,12.819426 L238,141.180574 C238,145.638168 237.535872,147.254599 236.664336,148.884229 C235.792801,150.513858 234.513858,151.792801 232.884229,152.664336 C231.254599,153.535872 229.638168,154 225.180574,154 L12.819426,154 C8.3618323,154 6.74540111,153.535872 5.11577148,152.664336 C3.48614185,151.792801 2.20719898,150.513858 1.33566352,148.884229 C0.464128056,147.254599 0,145.638168 0,141.180574 L0,12.819426 C0,8.3618323 0.464128056,6.74540111 1.33566352,5.11577148 C2.20719898,3.48614185 3.48614185,2.20719898 5.11577148,1.33566352 C6.74540111,0.464128056 8.3618323,0 12.819426,0 Z" id="Outline" stroke="color(display-p3 0.498 0.573 0.514)" stroke-width="1"></path>
        </g>
        <g id="System-Preferences" transform="translate(140, 210)" xlink:href="#path-17">
            <use fill="color(display-p3 0.867 0.875 0.827)" fill-rule="evenodd" xlink:href="#path-17"></use>
            <g id="Path-2-+-Path-2-+-Path-2-+-Path-2-+-Frame-2-+-Frame-2-+-Rectangle-+-Rectangle-+-Rectangle-+-Rectangle-+-Rectangle-+-Rectangle-+-Rectangle-+-Rectangle-+-Rectangle-+-Rectangle-+-Rectangle-+-Rectangle-+-Rectangle-+-Rectangle-+-Frame-2-+-Path-2-Mask" stroke-width="1" fill-rule="evenodd">
                <mask id="mask-19" fill="white">
                    <use xlink:href="#path-18"></use>
                </mask>
                <g id="Mask"></g>
                <g id="Frame-2" mask="url(#mask-19)" xlink:href="#path-20">
                    <use stroke-opacity="0.25" stroke="color(display-p3 0.498 0.573 0.514)" stroke-width="1" fill-opacity="0.15" fill="color(display-p3 0.498 0.573 0.514)" fill-rule="evenodd" xlink:href="#path-20"></use>
                    <g id="Path">
                        <use fill="black" fill-opacity="1" filter="url(#filter-22)" xlink:href="#path-21"></use>
                        <use fill-opacity="0.15" fill="color(display-p3 0.498 0.573 0.514)" fill-rule="evenodd" xlink:href="#path-21"></use>
                        <use fill="black" fill-opacity="1" filter="url(#filter-23)" xlink:href="#path-21"></use>
                        <path stroke="color(display-p3 0.498 0.573 0.514)" stroke-width="1" d="M227.105263,3.5 C229.419611,3.5 231.229622,4.16397906 232.480494,5.27308578 C233.814884,6.45624445 234.5,8.13868435 234.5,10 C234.5,11.8696598 233.817309,13.5498372 232.486495,14.7298257 C231.23533,15.8391915 229.423168,16.5 227.105263,16.5 L183.894737,16.5 C181.580389,16.5 179.770378,15.8360209 178.519506,14.7269142 C177.185116,13.5437555 176.5,11.8613157 176.5,10 C176.5,8.13034016 177.182691,6.45016281 178.513505,5.27017426 C179.76467,4.16080853 181.576832,3.5 183.894737,3.5 Z" stroke-linejoin="square"></path>
                    </g>
                    <polyline id="Path-2" stroke="color(display-p3 0.498 0.573 0.514)" stroke-width="1" stroke-linecap="round" stroke-linejoin="round" transform="translate(43.5, 10) rotate(90) translate(-43.5, -10)" points="39.5 8 43.5 12 47.5 8"></polyline>
                    <polyline id="Path-2" stroke="color(display-p3 0.498 0.573 0.514)" stroke-width="1" opacity="0.5" stroke-linecap="round" stroke-linejoin="round" transform="translate(54.5, 10) scale(-1, 1) rotate(90) translate(-54.5, -10)" points="50.5 8 54.5 12 58.5 8"></polyline>
                    <g id="Settings" stroke-width="1" fill-rule="evenodd" transform="translate(105, 5)" fill="color(display-p3 0.498 0.573 0.514)">
                        <path d="M2.86250425,7.084 C3.95214585,7.084 4.58135972,6.42757227 4.58135972,5.66989404 C4.58135972,5.02510791 4.23718052,4.65528711 3.67634141,4.42882275 L3.09500132,4.19334009 C2.69678745,4.03480444 2.39835776,3.93316089 2.39835776,3.65331982 C2.39835776,3.39240747 2.62471616,3.24428125 2.98032505,3.24428125 C3.28452256,3.24428125 3.60361216,3.37106738 3.90668345,3.59338916 L4.44796665,2.92274951 C4.06084238,2.56076782 3.5287894,2.35367822 2.98032505,2.35367822 C2.02821909,2.35367822 1.355327,2.95740942 1.355327,3.7134624 C1.355327,4.37392676 1.80080967,4.76351538 2.27602354,4.96281885 L2.86889927,5.20983716 C3.26745322,5.37369458 3.52679331,5.46587378 3.52679331,5.75310791 C3.52679331,6.02387769 3.31611314,6.19339697 2.88557554,6.19339697 C2.48707456,6.19339697 2.04198496,6.03491431 1.71875278,5.74796729 L1.17254087,6.41860693 C1.63789731,6.87074951 2.24571812,7.084 2.86250425,7.084 Z" id="Path" fill-rule="nonzero"></path>
                        <path d="M6.9166999,7.084 C7.32718149,7.084 7.79421841,6.944 8.14757635,6.6964816 L7.8127,6.06872881 C7.56686057,6.21488937 7.31653954,6.29104994 7.05389748,6.29104994 C6.5924528,6.29104994 6.1399712,6.05080273 6.12429223,5.26232114 C6.10861326,4.46823439 6.48157635,4.23359233 6.8187,4.23359233 C7.22582366,4.23359233 7.38710778,4.50239496 7.38710778,4.8669632 L5.9439713,4.8669632 L5.95181074,5.57703702 L8.22765668,5.57703702 C8.25173691,5.47455553 8.27357635,5.29535815 8.27357635,5.11000021 C8.27357635,4.16583965 7.78973681,3.4437225 6.79686046,3.4437225 C5.96134206,3.4437225 5.15382366,4.1344817 5.15382366,5.26232114 C5.15382366,6.41816057 5.91934206,7.084 6.9167,7.084 L6.9166999,7.084 Z" id="Path" fill-rule="nonzero"></path>
                        <path d="M10.3387119,7.07783943 C10.6657488,7.07783943 10.9303475,7.01091977 11.1123475,6.9347592 L10.9457488,6.21488927 C10.8494278,6.2552103 10.7312673,6.2692103 10.6161869,6.2692103 C10.345983,6.2692103 10.1684646,6.11240767 10.1684646,5.71816687 L10.1684646,4.33327119 L11.0003475,4.33327119 L11.0003475,3.52772229 L10.1684646,3.52772229 L10.1684646,2.46540126 L9.31615652,2.46540126 L9.19463812,3.52772229 L8.66263812,3.56664195 L8.66263812,4.33327109 L9.13695915,4.33327109 L9.13695915,5.72992596 C9.13695915,6.53464185 9.47799606,7.07783943 10.3387119,7.07783943 L10.3387119,7.07783943 Z" id="Path" fill-rule="nonzero"></path>
                        <path d="M12.9660819,7.07783943 C13.2931189,7.07783943 13.5577175,7.01091977 13.7397175,6.9347592 L13.5731189,6.21488927 C13.4767978,6.2552103 13.3586373,6.2692103 13.2435569,6.2692103 C12.973353,6.2692103 12.7958346,6.11240767 12.7958346,5.71816687 L12.7958346,4.33327119 L13.6277175,4.33327119 L13.6277175,3.52772229 L12.7958346,3.52772229 L12.7958346,2.46540126 L11.9435265,2.46540126 L11.8220081,3.52772229 L11.2900081,3.56664195 L11.2900081,4.33327109 L11.7643291,4.33327109 L11.7643291,5.72992596 C11.7643291,6.53464185 12.1053661,7.07783943 12.9660819,7.07783943 L12.9660819,7.07783943 Z" id="Path" fill-rule="nonzero"></path>
                        <path d="M14.3937194,7 L15.4227501,7 L15.4227501,3.52710791 L14.3937194,3.52710791 L14.3937194,7 Z M14.9070026,3.01917725 C15.2521798,3.01917725 15.4886076,2.8058208 15.4886076,2.47878613 C15.4886076,2.15421582 15.2521798,1.94085937 14.9070026,1.94085937 C14.5618253,1.94085937 14.3253976,2.15421582 14.3253976,2.47878613 C14.3253976,2.8058208 14.5618253,3.01917725 14.9070026,3.01917725 Z" id="Shape" fill-rule="nonzero"></path>
                        <path d="M16.4158957,7 L17.4449264,7 L17.4449264,4.65717725 C17.6712848,4.43989014 17.8293214,4.31971094 18.0878224,4.31971094 C18.3849669,4.31971094 18.5191461,4.47606934 18.5191461,4.9758208 L18.5191461,7 L19.5481769,7 L19.5481769,4.844 C19.5481769,3.976 19.2261769,3.44310791 18.470963,3.44310791 C17.9974274,3.44310791 17.6474274,3.68603662 17.3551056,3.96682275 L17.32957,3.96682275 L17.2554274,3.52710791 L16.4158957,3.52710791 L16.4158957,7 Z" id="Path" fill-rule="nonzero"></path>
                        <path d="M21.7478927,8.47650098 C22.9396769,8.47650098 23.6916403,7.95110791 23.6916403,7.22960889 C23.6916403,6.60778809 23.2172125,6.3467168 22.3656239,6.3467168 L21.8024264,6.3467168 C21.4228541,6.3467168 21.2828541,6.26360889 21.2828541,6.0923584 C21.2828541,5.96971484 21.3190333,5.908 21.4038195,5.8339104 C21.5578195,5.88 21.70107,5.90139307 21.8278561,5.90139307 C22.5872125,5.90139307 23.1950333,5.53335645 23.1950333,4.746 C23.1950333,4.56948071 23.1456933,4.42667627 23.0543532,4.30481885 L23.0543532,4.27681885 L23.6356403,4.27681885 L23.6356403,3.52710791 L22.3656769,3.52710791 C22.2099987,3.47357227 22.0213917,3.44310791 21.8278561,3.44310791 C21.0800353,3.44310791 20.391465,3.8663584 20.391465,4.69985742 C20.391465,5.10585742 20.6130006,5.43032178 20.8576076,5.60078613 L20.8576076,5.62878613 C20.6368581,5.78446436 20.4705363,6.02907129 20.4705363,6.27939307 C20.4705363,6.566 20.6080719,6.748 20.7876076,6.86907129 L20.7876076,6.89707129 C20.4680719,7.07492871 20.2951432,7.30794702 20.2951432,7.5961792 C20.2951432,8.21385742 20.9400353,8.47650098 21.7478927,8.47650098 Z M21.8278561,5.27857422 C21.5570333,5.27857422 21.3537462,5.08021582 21.3537462,4.69985742 C21.3537462,4.32857031 21.554569,4.13514063 21.8278561,4.13514063 C22.1011432,4.13514063 22.301966,4.32857031 22.301966,4.69985742 C22.301966,5.08021582 22.0986789,5.27857422 21.8278561,5.27857422 Z M21.9118561,7.83061084 C21.4467116,7.83061084 21.142068,7.69564551 21.142068,7.43221582 C21.142068,7.30710791 21.2013185,7.20014258 21.3296769,7.09149902 C21.442463,7.12196338 21.5783205,7.13596338 21.8164264,7.13596338 L22.176911,7.13596338 C22.5185729,7.13596338 22.7062877,7.18614258 22.7062877,7.40510791 C22.7062877,7.64546631 22.3753224,7.83061084 21.9118561,7.83061084 Z" id="Shape" fill-rule="nonzero"></path>
                        <path d="M25.3628185,7.084 C26.2935314,7.084 26.7893522,6.59232178 26.7893522,5.96389404 C26.7893522,5.38664355 26.3628512,5.081448 25.8308512,4.90728711 C25.3902443,4.76482275 25.185279,4.68003662 25.185279,4.48167822 C25.185279,4.31994507 25.3103869,4.20435449 25.5819958,4.20435449 C25.828175,4.20435449 26.0834784,4.27721191 26.3363175,4.4612832 L26.7737799,3.88292871 C26.4781017,3.62925049 26.0522809,3.44310791 25.5498532,3.44310791 C24.7484967,3.44310791 24.2229977,3.88371484 24.2229977,4.53028516 C24.2229977,5.06967822 24.6536413,5.38103467 25.14857,5.56303467 C25.5232665,5.70303467 25.8270709,5.79521387 25.8270709,6.02403662 C25.8270709,6.20593066 25.69457,6.32275342 25.3883541,6.32275342 C25.0986027,6.32275342 24.7815314,6.23550293 24.4669245,5.98596729 L24.0294621,6.56432178 C24.3786759,6.902 24.9000324,7.084 25.3628185,7.084 Z" id="Path" fill-rule="nonzero"></path>
                    </g>
                    <g id="Oval">
                        <use fill="black" fill-opacity="1" filter="url(#filter-25)" xlink:href="#path-24"></use>
                        <use fill-opacity="0.15" fill="color(display-p3 0.498 0.573 0.514)" fill-rule="evenodd" xlink:href="#path-24"></use>
                        <use fill="black" fill-opacity="1" filter="url(#filter-26)" xlink:href="#path-24"></use>
                        <circle stroke="color(display-p3 0.498 0.573 0.514)" stroke-width="1" stroke-linejoin="square" cx="10" cy="10" r="2.5"></circle>
                    </g>
                    <g id="Oval">
                        <use fill="black" fill-opacity="1" filter="url(#filter-28)" xlink:href="#path-27"></use>
                        <use fill-opacity="0.15" fill="color(display-p3 0.498 0.573 0.514)" fill-rule="evenodd" xlink:href="#path-27"></use>
                        <use fill="black" fill-opacity="1" filter="url(#filter-29)" xlink:href="#path-27"></use>
                        <circle stroke="color(display-p3 0.498 0.573 0.514)" stroke-width="1" stroke-linejoin="square" cx="19" cy="10" r="2.5"></circle>
                    </g>
                    <g id="Oval">
                        <use fill="black" fill-opacity="1" filter="url(#filter-31)" xlink:href="#path-30"></use>
                        <use fill-opacity="0.15" fill="color(display-p3 0.498 0.573 0.514)" fill-rule="evenodd" xlink:href="#path-30"></use>
                        <use fill="black" fill-opacity="1" filter="url(#filter-32)" xlink:href="#path-30"></use>
                        <circle stroke="color(display-p3 0.498 0.573 0.514)" stroke-width="1" stroke-linejoin="square" cx="28" cy="10" r="2.5"></circle>
                    </g>
                    <g id="Group" stroke-width="1" fill-rule="evenodd" transform="translate(180, 6.5)">
                        <g id="Oval">
                            <use fill="black" fill-opacity="1" filter="url(#filter-34)" xlink:href="#path-33"></use>
                            <use fill="black" fill-opacity="1" filter="url(#filter-35)" xlink:href="#path-33"></use>
                            <circle stroke="color(display-p3 0.498 0.573 0.514)" stroke-width="1" stroke-linejoin="square" cx="3.25" cy="3.25" r="2.75"></circle>
                        </g>
                        <line x1="5.5" y1="5.5" x2="7.5" y2="7.5" id="Path" stroke="color(display-p3 0.498 0.573 0.514)"></line>
                    </g>
                    <g id="Group" stroke-width="1" fill-rule="evenodd" transform="translate(67, 5)" stroke="color(display-p3 0.498 0.573 0.514)" stroke-linejoin="round">
                        <path d="M0.6409713,-2.83385669e-17 L3.3590287,0 C3.58190838,0 3.66272994,0.0232064028 3.74421143,0.0667831759 C3.82569291,0.110359949 3.88964005,0.174307093 3.93321682,0.255788574 C3.9767936,0.337270056 4,0.418091615 4,0.6409713 L4,3.3590287 C4,3.58190838 3.9767936,3.66272994 3.93321682,3.74421143 C3.88964005,3.82569291 3.82569291,3.88964005 3.74421143,3.93321682 C3.66272994,3.9767936 3.58190838,4 3.3590287,4 L0.6409713,4 C0.418091615,4 0.337270056,3.9767936 0.255788574,3.93321682 C0.174307093,3.88964005 0.110359949,3.82569291 0.0667831759,3.74421143 C0.0232064028,3.66272994 0,3.58190838 0,3.3590287 L0,0.6409713 C0,0.418091615 0.0232064028,0.337270056 0.0667831759,0.255788574 C0.110359949,0.174307093 0.174307093,0.110359949 0.255788574,0.0667831759 C0.337270056,0.0232064028 0.418091615,1.64655234e-17 0.6409713,-2.83385669e-17 Z" id="Rectangle"></path>
                        <path d="M0.6409713,6.5 L3.3590287,6.5 C3.58190838,6.5 3.66272994,6.5232064 3.74421143,6.56678318 C3.82569291,6.61035995 3.88964005,6.67430709 3.93321682,6.75578857 C3.9767936,6.83727006 4,6.91809162 4,7.1409713 L4,9.8590287 C4,10.0819084 3.9767936,10.1627299 3.93321682,10.2442114 C3.88964005,10.3256929 3.82569291,10.3896401 3.74421143,10.4332168 C3.66272994,10.4767936 3.58190838,10.5 3.3590287,10.5 L0.6409713,10.5 C0.418091615,10.5 0.337270056,10.4767936 0.255788574,10.4332168 C0.174307093,10.3896401 0.110359949,10.3256929 0.0667831759,10.2442114 C0.0232064028,10.1627299 0,10.0819084 0,9.8590287 L0,7.1409713 C0,6.91809162 0.0232064028,6.83727006 0.0667831759,6.75578857 C0.110359949,6.67430709 0.174307093,6.61035995 0.255788574,6.56678318 C0.337270056,6.5232064 0.418091615,6.5 0.6409713,6.5 Z" id="Rectangle"></path>
                        <path d="M7.1409713,-2.83385669e-17 L9.8590287,0 C10.0819084,0 10.1627299,0.0232064028 10.2442114,0.0667831759 C10.3256929,0.110359949 10.3896401,0.174307093 10.4332168,0.255788574 C10.4767936,0.337270056 10.5,0.418091615 10.5,0.6409713 L10.5,3.3590287 C10.5,3.58190838 10.4767936,3.66272994 10.4332168,3.74421143 C10.3896401,3.82569291 10.3256929,3.88964005 10.2442114,3.93321682 C10.1627299,3.9767936 10.0819084,4 9.8590287,4 L7.1409713,4 C6.91809162,4 6.83727006,3.9767936 6.75578857,3.93321682 C6.67430709,3.88964005 6.61035995,3.82569291 6.56678318,3.74421143 C6.5232064,3.66272994 6.5,3.58190838 6.5,3.3590287 L6.5,0.6409713 C6.5,0.418091615 6.5232064,0.337270056 6.56678318,0.255788574 C6.61035995,0.174307093 6.67430709,0.110359949 6.75578857,0.0667831759 C6.83727006,0.0232064028 6.91809162,1.64655234e-17 7.1409713,-2.83385669e-17 Z" id="Rectangle"></path>
                        <path d="M7.1409713,6.5 L9.8590287,6.5 C10.0819084,6.5 10.1627299,6.5232064 10.2442114,6.56678318 C10.3256929,6.61035995 10.3896401,6.67430709 10.4332168,6.75578857 C10.4767936,6.83727006 10.5,6.91809162 10.5,7.1409713 L10.5,9.8590287 C10.5,10.0819084 10.4767936,10.1627299 10.4332168,10.2442114 C10.3896401,10.3256929 10.3256929,10.3896401 10.2442114,10.4332168 C10.1627299,10.4767936 10.0819084,10.5 9.8590287,10.5 L7.1409713,10.5 C6.91809162,10.5 6.83727006,10.4767936 6.75578857,10.4332168 C6.67430709,10.3896401 6.61035995,10.3256929 6.56678318,10.2442114 C6.5232064,10.1627299 6.5,10.0819084 6.5,9.8590287 L6.5,7.1409713 C6.5,6.91809162 6.5232064,6.83727006 6.56678318,6.75578857 C6.61035995,6.67430709 6.67430709,6.61035995 6.75578857,6.56678318 C6.83727006,6.5232064 6.91809162,6.5 7.1409713,6.5 Z" id="Rectangle"></path>
                    </g>
                </g>
                <path d="M79.1277704,34 L84.8722296,34 C86.6552671,34 87.3018396,34.1856512 87.9536914,34.5342654 C88.6055433,34.8828796 89.1171204,35.3944567 89.4657346,36.0463086 C89.8143488,36.6981604 90,37.3447329 90,39.1277704 L90,44.8722296 C90,46.6552671 89.8143488,47.3018396 89.4657346,47.9536914 C89.1171204,48.6055433 88.6055433,49.1171204 87.9536914,49.4657346 C87.3018396,49.8143488 86.6552671,50 84.8722296,50 L79.1277704,50 C77.3447329,50 76.6981604,49.8143488 76.0463086,49.4657346 C75.3944567,49.1171204 74.8828796,48.6055433 74.5342654,47.9536914 C74.1856512,47.3018396 74,46.6552671 74,44.8722296 L74,39.1277704 C74,37.3447329 74.1856512,36.6981604 74.5342654,36.0463086 C74.8828796,35.3944567 75.3944567,34.8828796 76.0463086,34.5342654 C76.6981604,34.1856512 77.3447329,34 79.1277704,34 Z" id="Rectangle" stroke="color(display-p3 0.498 0.573 0.514)" mask="url(#mask-19)"></path>
                <path d="M19.1277704,34 L24.8722296,34 C26.6552671,34 27.3018396,34.1856512 27.9536914,34.5342654 C28.6055433,34.8828796 29.1171204,35.3944567 29.4657346,36.0463086 C29.8143488,36.6981604 30,37.3447329 30,39.1277704 L30,44.8722296 C30,46.6552671 29.8143488,47.3018396 29.4657346,47.9536914 C29.1171204,48.6055433 28.6055433,49.1171204 27.9536914,49.4657346 C27.3018396,49.8143488 26.6552671,50 24.8722296,50 L19.1277704,50 C17.3447329,50 16.6981604,49.8143488 16.0463086,49.4657346 C15.3944567,49.1171204 14.8828796,48.6055433 14.5342654,47.9536914 C14.1856512,47.3018396 14,46.6552671 14,44.8722296 L14,39.1277704 C14,37.3447329 14.1856512,36.6981604 14.5342654,36.0463086 C14.8828796,35.3944567 15.3944567,34.8828796 16.0463086,34.5342654 C16.6981604,34.1856512 17.3447329,34 19.1277704,34 Z" id="Rectangle" stroke="color(display-p3 0.498 0.573 0.514)" mask="url(#mask-19)"></path>
                <path d="M49.1277704,34 L54.8722296,34 C56.6552671,34 57.3018396,34.1856512 57.9536914,34.5342654 C58.6055433,34.8828796 59.1171204,35.3944567 59.4657346,36.0463086 C59.8143488,36.6981604 60,37.3447329 60,39.1277704 L60,44.8722296 C60,46.6552671 59.8143488,47.3018396 59.4657346,47.9536914 C59.1171204,48.6055433 58.6055433,49.1171204 57.9536914,49.4657346 C57.3018396,49.8143488 56.6552671,50 54.8722296,50 L49.1277704,50 C47.3447329,50 46.6981604,49.8143488 46.0463086,49.4657346 C45.3944567,49.1171204 44.8828796,48.6055433 44.5342654,47.9536914 C44.1856512,47.3018396 44,46.6552671 44,44.8722296 L44,39.1277704 C44,37.3447329 44.1856512,36.6981604 44.5342654,36.0463086 C44.8828796,35.3944567 45.3944567,34.8828796 46.0463086,34.5342654 C46.6981604,34.1856512 47.3447329,34 49.1277704,34 Z" id="Rectangle" stroke="color(display-p3 0.498 0.573 0.514)" mask="url(#mask-19)"></path>
                <path d="M79.1277704,79 L84.8722296,79 C86.6552671,79 87.3018396,79.1856512 87.9536914,79.5342654 C88.6055433,79.8828796 89.1171204,80.3944567 89.4657346,81.0463086 C89.8143488,81.6981604 90,82.3447329 90,84.1277704 L90,89.8722296 C90,91.6552671 89.8143488,92.3018396 89.4657346,92.9536914 C89.1171204,93.6055433 88.6055433,94.1171204 87.9536914,94.4657346 C87.3018396,94.8143488 86.6552671,95 84.8722296,95 L79.1277704,95 C77.3447329,95 76.6981604,94.8143488 76.0463086,94.4657346 C75.3944567,94.1171204 74.8828796,93.6055433 74.5342654,92.9536914 C74.1856512,92.3018396 74,91.6552671 74,89.8722296 L74,84.1277704 C74,82.3447329 74.1856512,81.6981604 74.5342654,81.0463086 C74.8828796,80.3944567 75.3944567,79.8828796 76.0463086,79.5342654 C76.6981604,79.1856512 77.3447329,79 79.1277704,79 Z" id="Rectangle" stroke="color(display-p3 0.498 0.573 0.514)" mask="url(#mask-19)"></path>
                <path d="M109.12777,79 L114.87223,79 C116.655267,79 117.30184,79.1856512 117.953691,79.5342654 C118.605543,79.8828796 119.11712,80.3944567 119.465735,81.0463086 C119.814349,81.6981604 120,82.3447329 120,84.1277704 L120,89.8722296 C120,91.6552671 119.814349,92.3018396 119.465735,92.9536914 C119.11712,93.6055433 118.605543,94.1171204 117.953691,94.4657346 C117.30184,94.8143488 116.655267,95 114.87223,95 L109.12777,95 C107.344733,95 106.69816,94.8143488 106.046309,94.4657346 C105.394457,94.1171204 104.88288,93.6055433 104.534265,92.9536914 C104.185651,92.3018396 104,91.6552671 104,89.8722296 L104,84.1277704 C104,82.3447329 104.185651,81.6981604 104.534265,81.0463086 C104.88288,80.3944567 105.394457,79.8828796 106.046309,79.5342654 C106.69816,79.1856512 107.344733,79 109.12777,79 Z" id="Rectangle" stroke="color(display-p3 0.498 0.573 0.514)" mask="url(#mask-19)"></path>
                <path d="M139.12777,79 L144.87223,79 C146.655267,79 147.30184,79.1856512 147.953691,79.5342654 C148.605543,79.8828796 149.11712,80.3944567 149.465735,81.0463086 C149.814349,81.6981604 150,82.3447329 150,84.1277704 L150,89.8722296 C150,91.6552671 149.814349,92.3018396 149.465735,92.9536914 C149.11712,93.6055433 148.605543,94.1171204 147.953691,94.4657346 C147.30184,94.8143488 146.655267,95 144.87223,95 L139.12777,95 C137.344733,95 136.69816,94.8143488 136.046309,94.4657346 C135.394457,94.1171204 134.88288,93.6055433 134.534265,92.9536914 C134.185651,92.3018396 134,91.6552671 134,89.8722296 L134,84.1277704 C134,82.3447329 134.185651,81.6981604 134.534265,81.0463086 C134.88288,80.3944567 135.394457,79.8828796 136.046309,79.5342654 C136.69816,79.1856512 137.344733,79 139.12777,79 Z" id="Rectangle" stroke="color(display-p3 0.498 0.573 0.514)" mask="url(#mask-19)"></path>
                <path d="M19.1277704,79 L24.8722296,79 C26.6552671,79 27.3018396,79.1856512 27.9536914,79.5342654 C28.6055433,79.8828796 29.1171204,80.3944567 29.4657346,81.0463086 C29.8143488,81.6981604 30,82.3447329 30,84.1277704 L30,89.8722296 C30,91.6552671 29.8143488,92.3018396 29.4657346,92.9536914 C29.1171204,93.6055433 28.6055433,94.1171204 27.9536914,94.4657346 C27.3018396,94.8143488 26.6552671,95 24.8722296,95 L19.1277704,95 C17.3447329,95 16.6981604,94.8143488 16.0463086,94.4657346 C15.3944567,94.1171204 14.8828796,93.6055433 14.5342654,92.9536914 C14.1856512,92.3018396 14,91.6552671 14,89.8722296 L14,84.1277704 C14,82.3447329 14.1856512,81.6981604 14.5342654,81.0463086 C14.8828796,80.3944567 15.3944567,79.8828796 16.0463086,79.5342654 C16.6981604,79.1856512 17.3447329,79 19.1277704,79 Z" id="Rectangle" stroke="color(display-p3 0.498 0.573 0.514)" mask="url(#mask-19)"></path>
                <path d="M49.1277704,79 L54.8722296,79 C56.6552671,79 57.3018396,79.1856512 57.9536914,79.5342654 C58.6055433,79.8828796 59.1171204,80.3944567 59.4657346,81.0463086 C59.8143488,81.6981604 60,82.3447329 60,84.1277704 L60,89.8722296 C60,91.6552671 59.8143488,92.3018396 59.4657346,92.9536914 C59.1171204,93.6055433 58.6055433,94.1171204 57.9536914,94.4657346 C57.3018396,94.8143488 56.6552671,95 54.8722296,95 L49.1277704,95 C47.3447329,95 46.6981604,94.8143488 46.0463086,94.4657346 C45.3944567,94.1171204 44.8828796,93.6055433 44.5342654,92.9536914 C44.1856512,92.3018396 44,91.6552671 44,89.8722296 L44,84.1277704 C44,82.3447329 44.1856512,81.6981604 44.5342654,81.0463086 C44.8828796,80.3944567 45.3944567,79.8828796 46.0463086,79.5342654 C46.6981604,79.1856512 47.3447329,79 49.1277704,79 Z" id="Rectangle" stroke="color(display-p3 0.498 0.573 0.514)" mask="url(#mask-19)"></path>
                <path d="M79.1277704,124 L84.8722296,124 C86.6552671,124 87.3018396,124.185651 87.9536914,124.534265 C88.6055433,124.88288 89.1171204,125.394457 89.4657346,126.046309 C89.8143488,126.69816 90,127.344733 90,129.12777 L90,134.87223 C90,136.655267 89.8143488,137.30184 89.4657346,137.953691 C89.1171204,138.605543 88.6055433,139.11712 87.9536914,139.465735 C87.3018396,139.814349 86.6552671,140 84.8722296,140 L79.1277704,140 C77.3447329,140 76.6981604,139.814349 76.0463086,139.465735 C75.3944567,139.11712 74.8828796,138.605543 74.5342654,137.953691 C74.1856512,137.30184 74,136.655267 74,134.87223 L74,129.12777 C74,127.344733 74.1856512,126.69816 74.5342654,126.046309 C74.8828796,125.394457 75.3944567,124.88288 76.0463086,124.534265 C76.6981604,124.185651 77.3447329,124 79.1277704,124 Z" id="Rectangle" stroke="color(display-p3 0.498 0.573 0.514)" mask="url(#mask-19)"></path>
                <path d="M109.12777,124 L114.87223,124 C116.655267,124 117.30184,124.185651 117.953691,124.534265 C118.605543,124.88288 119.11712,125.394457 119.465735,126.046309 C119.814349,126.69816 120,127.344733 120,129.12777 L120,134.87223 C120,136.655267 119.814349,137.30184 119.465735,137.953691 C119.11712,138.605543 118.605543,139.11712 117.953691,139.465735 C117.30184,139.814349 116.655267,140 114.87223,140 L109.12777,140 C107.344733,140 106.69816,139.814349 106.046309,139.465735 C105.394457,139.11712 104.88288,138.605543 104.534265,137.953691 C104.185651,137.30184 104,136.655267 104,134.87223 L104,129.12777 C104,127.344733 104.185651,126.69816 104.534265,126.046309 C104.88288,125.394457 105.394457,124.88288 106.046309,124.534265 C106.69816,124.185651 107.344733,124 109.12777,124 Z" id="Rectangle" stroke="color(display-p3 0.498 0.573 0.514)" mask="url(#mask-19)"></path>
                <path d="M139.12777,124 L144.87223,124 C146.655267,124 147.30184,124.185651 147.953691,124.534265 C148.605543,124.88288 149.11712,125.394457 149.465735,126.046309 C149.814349,126.69816 150,127.344733 150,129.12777 L150,134.87223 C150,136.655267 149.814349,137.30184 149.465735,137.953691 C149.11712,138.605543 148.605543,139.11712 147.953691,139.465735 C147.30184,139.814349 146.655267,140 144.87223,140 L139.12777,140 C137.344733,140 136.69816,139.814349 136.046309,139.465735 C135.394457,139.11712 134.88288,138.605543 134.534265,137.953691 C134.185651,137.30184 134,136.655267 134,134.87223 L134,129.12777 C134,127.344733 134.185651,126.69816 134.534265,126.046309 C134.88288,125.394457 135.394457,124.88288 136.046309,124.534265 C136.69816,124.185651 137.344733,124 139.12777,124 Z" id="Rectangle" stroke="color(display-p3 0.498 0.573 0.514)" mask="url(#mask-19)"></path>
                <path d="M19.1277704,124 L24.8722296,124 C26.6552671,124 27.3018396,124.185651 27.9536914,124.534265 C28.6055433,124.88288 29.1171204,125.394457 29.4657346,126.046309 C29.8143488,126.69816 30,127.344733 30,129.12777 L30,134.87223 C30,136.655267 29.8143488,137.30184 29.4657346,137.953691 C29.1171204,138.605543 28.6055433,139.11712 27.9536914,139.465735 C27.3018396,139.814349 26.6552671,140 24.8722296,140 L19.1277704,140 C17.3447329,140 16.6981604,139.814349 16.0463086,139.465735 C15.3944567,139.11712 14.8828796,138.605543 14.5342654,137.953691 C14.1856512,137.30184 14,136.655267 14,134.87223 L14,129.12777 C14,127.344733 14.1856512,126.69816 14.5342654,126.046309 C14.8828796,125.394457 15.3944567,124.88288 16.0463086,124.534265 C16.6981604,124.185651 17.3447329,124 19.1277704,124 Z" id="Rectangle" stroke="color(display-p3 0.498 0.573 0.514)" mask="url(#mask-19)"></path>
                <path d="M49.1277704,124 L54.8722296,124 C56.6552671,124 57.3018396,124.185651 57.9536914,124.534265 C58.6055433,124.88288 59.1171204,125.394457 59.4657346,126.046309 C59.8143488,126.69816 60,127.344733 60,129.12777 L60,134.87223 C60,136.655267 59.8143488,137.30184 59.4657346,137.953691 C59.1171204,138.605543 58.6055433,139.11712 57.9536914,139.465735 C57.3018396,139.814349 56.6552671,140 54.8722296,140 L49.1277704,140 C47.3447329,140 46.6981604,139.814349 46.0463086,139.465735 C45.3944567,139.11712 44.8828796,138.605543 44.5342654,137.953691 C44.1856512,137.30184 44,136.655267 44,134.87223 L44,129.12777 C44,127.344733 44.1856512,126.69816 44.5342654,126.046309 C44.8828796,125.394457 45.3944567,124.88288 46.0463086,124.534265 C46.6981604,124.185651 47.3447329,124 49.1277704,124 Z" id="Rectangle" stroke="color(display-p3 0.498 0.573 0.514)" mask="url(#mask-19)"></path>
                <polygon id="Path-2" fill-opacity="0.25" fill="color(display-p3 0.498 0.573 0.514)" fill-rule="nonzero" mask="url(#mask-19)" points="0 64.5 238 64.5 238 63.5 0 63.5"></polygon>
                <polygon id="Path-2" fill-opacity="0.25" fill="color(display-p3 0.498 0.573 0.514)" fill-rule="nonzero" mask="url(#mask-19)" points="0 112.5 238 112.5 238 111.5 0 111.5"></polygon>
                <rect id="Rectangle-2" fill-opacity="0.05" fill="color(display-p3 0.992 0.976 0.933)" mask="url(#mask-19)" x="0" y="65" width="238" height="47"></rect>
            </g>
            <path d="M12.819426,0 L225.180574,1.81366828e-15 C229.638168,-1.0537935e-15 231.254599,0.464128056 232.884229,1.33566352 C234.513858,2.20719898 235.792801,3.48614185 236.664336,5.11577148 C237.535872,6.74540111 238,8.3618323 238,12.819426 L238,141.180574 C238,145.638168 237.535872,147.254599 236.664336,148.884229 C235.792801,150.513858 234.513858,151.792801 232.884229,152.664336 C231.254599,153.535872 229.638168,154 225.180574,154 L12.819426,154 C8.3618323,154 6.74540111,153.535872 5.11577148,152.664336 C3.48614185,151.792801 2.20719898,150.513858 1.33566352,148.884229 C0.464128056,147.254599 0,145.638168 0,141.180574 L0,12.819426 C0,8.3618323 0.464128056,6.74540111 1.33566352,5.11577148 C2.20719898,3.48614185 3.48614185,2.20719898 5.11577148,1.33566352 C6.74540111,0.464128056 8.3618323,0 12.819426,0 Z" id="Outline" stroke="color(display-p3 0.498 0.573 0.514)" stroke-width="1"></path>
        </g>
    </g>
</svg>