<?xml version="1.0" encoding="UTF-8"?>
<svg width="476px" height="280px" viewBox="0 0 476 280" version="1.1" xmlns="http://www.w3.org/2000/svg" xmlns:xlink="http://www.w3.org/1999/xlink">
    <title>UI frameworks in macOS</title>
    <defs>
        <path d="M0,0 L476,0 L476,280 L0,280 L0,0 Z" id="path-1"></path>
        <path d="M0,0 L476,0 L476,672 L0,672 L0,0 Z" id="path-2"></path>
        <path d="M0,0 L476,0 L476,1 L0,1 L0,0 Z" id="path-3"></path>
        <path d="M0,0 L266,0 L266,210 L0,210 L0,0 Z" id="path-4"></path>
        <path d="M0,0 L238,0 L238,154 L0,154 L0,0 Z" id="path-5"></path>
        <path d="M0,0 L20.889,0 L20.889,154 L0,154 L0,0 Z" id="path-6"></path>
        <path d="M0,0 L20.889,0 L20.889,18 L0,18 L0,0 Z" id="path-7"></path>
        <path d="M0,0 L20.889,0 L20.889,35 L0,35 L0,0 Z" id="path-8"></path>
        <path d="M0,0 L20.889,0 L20.889,97 L0,97 L0,0 Z" id="path-9"></path>
        <path d="M0,0 L20.889,0 L20.889,154 L0,154 L0,0 Z" id="path-10"></path>
        <path d="M0,0 L20.889,0 L20.889,15 L0,15 L0,0 Z" id="path-11"></path>
        <path d="M0,0 L20.889,0 L20.889,32 L0,32 L0,0 Z" id="path-12"></path>
        <path d="M0,0 L20.889,0 L20.889,103 L0,103 L0,0 Z" id="path-13"></path>
        <path d="M0,0 L20.889,0 L20.889,154 L0,154 L0,0 Z" id="path-14"></path>
        <path d="M0,0 L20.889,0 L20.889,6 L0,6 L0,0 Z" id="path-15"></path>
        <path d="M0,0 L20.889,0 L20.889,32 L0,32 L0,0 Z" id="path-16"></path>
        <path d="M0,0 L20.889,0 L20.889,112 L0,112 L0,0 Z" id="path-17"></path>
        <path d="M0,0 L20.889,0 L20.889,154 L0,154 L0,0 Z" id="path-18"></path>
        <path d="M0,0 L20.889,0 L20.889,3 L0,3 L0,0 Z" id="path-19"></path>
        <path d="M0,0 L20.889,0 L20.889,28 L0,28 L0,0 Z" id="path-20"></path>
        <path d="M0,0 L20.889,0 L20.889,119 L0,119 L0,0 Z" id="path-21"></path>
        <path d="M0,0 L20.889,0 L20.889,154 L0,154 L0,0 Z" id="path-22"></path>
        <path d="M0,0 L20.889,0 L20.889,22 L0,22 L0,0 Z" id="path-23"></path>
        <path d="M0,0 L20.889,0 L20.889,130 L0,130 L0,0 Z" id="path-24"></path>
        <path d="M0,0 L20.889,0 L20.889,154 L0,154 L0,0 Z" id="path-25"></path>
        <path d="M0,0 L20.889,0 L20.889,12 L0,12 L0,0 Z" id="path-26"></path>
        <path d="M0,0 L20.889,0 L20.889,140 L0,140 L0,0 Z" id="path-27"></path>
        <path d="M0,0 L20.889,0 L20.889,154 L0,154 L0,0 Z" id="path-28"></path>
        <path d="M0,0 L20.889,0 L20.889,154 L0,154 L0,0 Z" id="path-29"></path>
        <path d="M0,0 L20.889,0 L20.889,154 L0,154 L0,0 Z" id="path-30"></path>
        <path d="M0,0 L20.889,0 L20.889,154 L0,154 L0,0 Z" id="path-31"></path>
        <path d="M0,0 L20.889,0 L20.889,154 L0,154 L0,0 Z" id="path-32"></path>
        <path d="M0,0 L20.889,0 L20.889,154 L0,154 L0,0 Z" id="path-33"></path>
    </defs>
    <g id="UI-frameworks-in-macOS" stroke="none" fill="none" xlink:href="#path-1">
        <use fill="color(display-p3 0.992 0.976 0.933)" fill-rule="evenodd" xlink:href="#path-1"></use>
        <use fill-opacity="0.06" fill="color(display-p3 0.494 0.549 0.514)" fill-rule="evenodd" xlink:href="#path-1"></use>
        <g id="Stack" opacity="0.0299999993" xlink:href="#path-2" stroke="color(display-p3 0.494 0.549 0.514)" stroke-width="1">
            <line x1="476" y1="280" x2="0" y2="280" id="Path" opacity="0"></line>
            <line x1="476" y1="266" x2="0" y2="266" id="Path"></line>
            <line x1="476" y1="252" x2="0" y2="252" id="Path"></line>
            <line x1="476" y1="238" x2="0" y2="238" id="Path"></line>
            <line x1="476" y1="224" x2="0" y2="224" id="Path"></line>
            <line x1="476" y1="210" x2="0" y2="210" id="Path"></line>
            <line x1="476" y1="196" x2="0" y2="196" id="Path"></line>
            <line x1="476" y1="182" x2="0" y2="182" id="Path"></line>
            <line x1="476" y1="168" x2="0" y2="168" id="Path"></line>
            <line x1="476" y1="154" x2="0" y2="154" id="Path"></line>
            <line x1="476" y1="140" x2="0" y2="140" id="Path"></line>
            <line x1="476" y1="126" x2="0" y2="126" id="Path"></line>
            <line x1="476" y1="112" x2="0" y2="112" id="Path"></line>
            <line x1="476" y1="98" x2="0" y2="98" id="Path"></line>
            <line x1="476" y1="84" x2="0" y2="84" id="Path"></line>
            <line x1="476" y1="70" x2="0" y2="70" id="Path"></line>
            <line x1="476" y1="56" x2="0" y2="56" id="Path"></line>
            <line x1="476" y1="42" x2="0" y2="42" id="Path"></line>
            <line x1="476" y1="28" x2="0" y2="28" id="Path"></line>
            <line x1="476" y1="14" x2="0" y2="14" id="Path"></line>
        </g>
        <g id="Stack" opacity="0.0299999993" xlink:href="#path-3" stroke="color(display-p3 0.494 0.549 0.514)" stroke-width="1">
            <line x1="462" y1="-539.5" x2="462" y2="540.5" id="Path"></line>
            <line x1="448" y1="-539.5" x2="448" y2="540.5" id="Path"></line>
            <line x1="434" y1="-539.5" x2="434" y2="540.5" id="Path"></line>
            <line x1="420" y1="-539.5" x2="420" y2="540.5" id="Path"></line>
            <line x1="406" y1="-539.5" x2="406" y2="540.5" id="Path"></line>
            <line x1="392" y1="-539.5" x2="392" y2="540.5" id="Path"></line>
            <line x1="378" y1="-539.5" x2="378" y2="540.5" id="Path"></line>
            <line x1="364" y1="-539.5" x2="364" y2="540.5" id="Path"></line>
            <line x1="350" y1="-539.5" x2="350" y2="540.5" id="Path"></line>
            <line x1="336" y1="-539.5" x2="336" y2="540.5" id="Path"></line>
            <line x1="322" y1="-539.5" x2="322" y2="540.5" id="Path"></line>
            <line x1="308" y1="-539.5" x2="308" y2="540.5" id="Path"></line>
            <line x1="294" y1="-539.5" x2="294" y2="540.5" id="Path"></line>
            <line x1="280" y1="-539.5" x2="280" y2="540.5" id="Path"></line>
            <line x1="266" y1="-539.5" x2="266" y2="540.5" id="Path"></line>
            <line x1="252" y1="-539.5" x2="252" y2="540.5" id="Path"></line>
            <line x1="238" y1="-539.5" x2="238" y2="540.5" id="Path"></line>
            <line x1="224" y1="-539.5" x2="224" y2="540.5" id="Path"></line>
            <line x1="210" y1="-539.5" x2="210" y2="540.5" id="Path"></line>
            <line x1="196" y1="-539.5" x2="196" y2="540.5" id="Path"></line>
            <line x1="182" y1="-539.5" x2="182" y2="540.5" id="Path"></line>
            <line x1="168" y1="-539.5" x2="168" y2="540.5" id="Path"></line>
            <line x1="154" y1="-539.5" x2="154" y2="540.5" id="Path"></line>
            <line x1="140" y1="-539.5" x2="140" y2="540.5" id="Path"></line>
            <line x1="126" y1="-539.5" x2="126" y2="540.5" id="Path"></line>
            <line x1="112" y1="-539.5" x2="112" y2="540.5" id="Path"></line>
            <line x1="98" y1="-539.5" x2="98" y2="540.5" id="Path"></line>
            <line x1="84" y1="-539.5" x2="84" y2="540.5" id="Path"></line>
            <line x1="70" y1="-539.5" x2="70" y2="540.5" id="Path"></line>
            <line x1="56" y1="-539.5" x2="56" y2="540.5" id="Path"></line>
            <line x1="42" y1="-539.5" x2="42" y2="540.5" id="Path"></line>
            <line x1="28" y1="-539.5" x2="28" y2="540.5" id="Path"></line>
            <line x1="14" y1="-539.5" x2="14" y2="540.5" id="Path"></line>
        </g>
        <text id="How-do-the-framework" fill-rule="nonzero" font-family="NiceVAR-MicroBoldItalic, Nice VAR" font-size="11" font-style="italic" font-weight="bold" fill="color(display-p3 0.498 0.573 0.514)">
            <tspan x="140" y="39">How do the frameworks Apple uses change </tspan>
            <tspan x="140" y="53">over time?</tspan>
        </text>
        <text id="AppKit" font-family="SourceSans3VF-Medium, SourceSans3VF" font-size="8" font-weight="400" fill="color(display-p3 0.498 0.573 0.514)">
            <tspan x="49" y="80">AppKit</tspan>
        </text>
        <text id="Mac-Catalyst" font-family="SourceSans3VF-Medium, SourceSans3VF" font-size="8" font-weight="400" fill="color(display-p3 0.498 0.573 0.514)">
            <tspan x="49" y="108">Mac Catalyst</tspan>
        </text>
        <text id="SwiftUI" font-family="SourceSans3VF-Medium, SourceSans3VF" font-size="8" font-weight="400" fill="color(display-p3 0.498 0.573 0.514)">
            <tspan x="49" y="136">SwiftUI</tspan>
        </text>
        <rect id="Rectangle" fill-opacity="0.8" fill="color(display-p3 0.498 0.573 0.514)" fill-rule="evenodd" x="28" y="126" width="14" height="14"></rect>
        <rect id="Rectangle" fill-opacity="0.45" fill="color(display-p3 0.498 0.573 0.514)" fill-rule="evenodd" x="28" y="98" width="14" height="14"></rect>
        <rect id="Rectangle" fill-opacity="0.2" fill="color(display-p3 0.498 0.573 0.514)" fill-rule="evenodd" x="28" y="70" width="14" height="14"></rect>
        <g transform="translate(126, 56)" xlink:href="#path-4">
            <g id="Percentage" stroke-width="1" fill-rule="evenodd" transform="translate(4.5, 37) rotate(-90) translate(-4.5, -37)translate(-18.5, 31.5)" fill="color(display-p3 0.498 0.573 0.514)" opacity="0.600000024">
                <path d="M1.04107264,8 L1.84144044,8 L1.84144044,6.52514502 L2.52814002,6.52514502 C3.50869837,6.52514502 4.24023194,6.07481995 4.24023194,5.13376685 C4.24023194,4.15919434 3.50869837,3.83575269 2.52814002,3.83575269 L1.04107264,3.83575269 L1.04107264,8 L1.04107264,8 Z M1.84144056,5.90086951 L1.84144056,4.4924314 L2.47406239,4.4924314 C3.14587855,4.4924314 3.46274781,4.65162573 3.46274781,5.17265039 C3.46274781,5.6662334 3.16491749,5.90086951 2.48014027,5.90086951 L1.84144056,5.90086951 L1.84144056,5.90086951 Z" id="Shape" fill-rule="nonzero"></path>
                <polygon id="Path" fill-rule="nonzero" points="5.75573714 8 8.51440157 8 8.51440157 7.33532129 6.55610481 7.33532129 6.55610481 6.15633936 8.15024605 6.15633936 8.15024605 5.50462183 6.55610481 5.50462183 6.55610481 4.49395081 8.43440157 4.49395081 8.43440157 3.83575269 5.75573714 3.83575269"></polygon>
                <path d="M10.1046348,8 L10.9050026,8 L10.9050026,6.42458667 L11.6198576,6.42458667 C12.5501826,6.42458667 13.2512358,5.94833936 13.2512358,5.08424744 C13.2512358,4.13327209 12.5357022,3.83575256 11.6038577,3.83575256 L10.1046348,3.83575256 L10.1046348,8 L10.1046348,8 Z M10.9050027,5.81327209 L10.9050027,4.49243127 L11.5238577,4.49243127 C12.1389601,4.49243127 12.4897516,4.65314502 12.4897516,5.12313086 C12.4897516,5.58855835 12.1709601,5.81327209 11.5303383,5.81327209 L10.9050027,5.81327209 L10.9050027,5.81327209 Z M12.5621543,8 L13.4204444,8 L12.17325,5.99696106 L11.4750519,6.20201416 L12.5621543,8 Z" id="Shape" fill-rule="nonzero"></path>
                <path d="M16.6004442,8.09600037 C17.1829247,8.09600037 17.6172498,7.89103894 17.995172,7.47159729 L17.5759493,7.02301062 C17.3287549,7.27628271 17.03508,7.42828271 16.6343662,7.42828271 C15.8836667,7.42828271 15.4067974,6.87373865 15.4067974,5.90663623 C15.4067974,4.97345605 15.9225501,4.40747021 16.6663662,4.40747021 C17.01108,4.40747021 17.2727549,4.54458691 17.4933133,4.75866467 L17.9254971,4.28759741 C17.6530943,3.98623352 17.2172498,3.73975305 16.6598859,3.73975305 C15.5044442,3.73975305 14.5904301,4.55879199 14.5904301,5.93255872 C14.5904301,7.33528662 15.470522,8.09600037 16.6004442,8.09600037 L16.6004442,8.09600037 Z" id="Path" fill-rule="nonzero"></path>
                <polygon id="Path" fill-rule="nonzero" points="19.440197 8 22.1988614 8 22.1988614 7.33532129 20.2405646 7.33532129 20.2405646 6.15633936 21.8347059 6.15633936 21.8347059 5.50462183 20.2405646 5.50462183 20.2405646 4.49395081 22.1188614 4.49395081 22.1188614 3.83575269 19.440197 3.83575269"></polygon>
                <path d="M23.7890946,8 L24.5280984,8 L24.5280984,6.250474 C24.5280984,5.78222668 24.4732151,5.20036792 24.4248123,4.76148462 L24.4568123,4.76148462 C24.6004094,5.10436792 24.7798511,5.46709583 24.9333706,5.73301807 L26.2666777,8 L27.1348901,8 L27.1348901,3.82927209 L26.3894058,3.82927209 L26.3894058,5.58527869 C26.3894058,6.053526 26.4507697,6.62890417 26.4926919,7.06778748 L26.4606919,7.06778748 C26.3235752,6.72490417 26.1441336,6.36217627 25.990614,6.09625403 L24.6508264,3.82927209 L23.7890946,3.82927209 L23.7890946,8 Z" id="Path" fill-rule="nonzero"></path>
                <polygon id="Path" fill-rule="nonzero" points="29.8202255 8 30.6205933 8 30.6205933 4.49395068 31.8955402 4.49395068 31.8955402 3.83575256 28.538798 3.83575256 28.538798 4.49395068 29.8202255 4.49395068"></polygon>
                <path d="M32.3718512,8 L33.1786996,8 L33.8733992,5.80130042 C34.0055547,5.3571449 34.1236324,4.90833923 34.2527491,4.45922253 L34.2847491,4.45922253 C34.4203463,4.90033923 34.5384241,5.35562549 34.6770602,5.80130042 L35.3622403,8 L36.1980498,8 L34.7436611,3.83575269 L33.8247208,3.83575269 L32.3718512,8 L32.3718512,8 Z M33.2298657,6.9289895 L35.3305159,6.9289895 L35.3305159,6.30319421 L33.2298657,6.30319421 L33.2298657,6.9289895 Z" id="Shape" fill-rule="nonzero"></path>
                <path d="M39.191816,8.09600024 C39.8002188,8.09600024 40.3195051,7.89255835 40.6368689,7.61215552 L40.6368689,5.7308551 L39.0820491,5.7308551 L39.0820491,6.34368921 L39.9207487,6.34368921 L39.9207487,7.25237451 C39.768035,7.37308826 39.5296463,7.44124377 39.2611799,7.44124377 C38.378233,7.44124377 37.9257665,6.86077734 37.9257665,5.92607776 C37.9257665,4.96545593 38.4475969,4.4009895 39.2428547,4.4009895 C39.6481268,4.4009895 39.9002823,4.54114502 40.1242823,4.75218396 L40.5564661,4.27807776 C40.2646216,3.96334985 39.847816,3.73975269 39.2363743,3.73975269 C38.0344521,3.73975269 37.0964379,4.55079163 37.0964379,5.92607788 C37.0964379,7.34176697 37.9959715,8.09600024 39.191816,8.09600024 L39.191816,8.09600024 Z" id="Path" fill-rule="nonzero"></path>
                <polygon id="Path" fill-rule="nonzero" points="42.3409327 8 45.0995971 8 45.0995971 7.33532129 43.1413003 7.33532129 43.1413003 6.15633936 44.7354416 6.15633936 44.7354416 5.50462183 43.1413003 5.50462183 43.1413003 4.49395081 45.0195971 4.49395081 45.0195971 3.83575269 42.3409327 3.83575269"></polygon>
            </g>
            <g id="Stack-2" transform="translate(14, 14)" xlink:href="#path-5">
                <g id="Stack" transform="translate(212.1111, 0)" xlink:href="#path-6">
                    <g id="Frame" transform="translate(0, 136)" xlink:href="#path-7">
                        <use fill-opacity="0.8" fill="color(display-p3 0.498 0.573 0.514)" fill-rule="evenodd" xlink:href="#path-7"></use>
                        <text id="12-%" font-family="SourceSans3VF-Medium, SourceSans3VF" font-size="6" font-weight="400" fill="color(display-p3 0.992 0.976 0.933)">
                            <tspan x="5.05962244" y="11.36">12 %</tspan>
                        </text>
                    </g>
                    <g id="Frame" transform="translate(0, 99)" xlink:href="#path-8" fill="color(display-p3 0.498 0.573 0.514)">
                        <use fill-opacity="0.45" fill-rule="evenodd" xlink:href="#path-8"></use>
                        <text id="23-%" font-family="SourceSans3VF-Medium, SourceSans3VF" font-size="6" font-weight="400">
                            <tspan x="5.17072168" y="19.5">23 %</tspan>
                        </text>
                    </g>
                    <g id="Frame" xlink:href="#path-9" fill="color(display-p3 0.498 0.573 0.514)">
                        <use fill-opacity="0.2" fill-rule="evenodd" xlink:href="#path-9"></use>
                        <text id="65-%" font-family="SourceSans3VF-Medium, SourceSans3VF" font-size="6" font-weight="400">
                            <tspan x="4.17072168" y="50">65 %</tspan>
                        </text>
                    </g>
                </g>
                <g id="Stack" transform="translate(186.2222, 0)" xlink:href="#path-10">
                    <g id="Frame" transform="translate(0, 139)" xlink:href="#path-11">
                        <use fill-opacity="0.8" fill="color(display-p3 0.498 0.573 0.514)" fill-rule="evenodd" xlink:href="#path-11"></use>
                        <text id="10-%" font-family="SourceSans3VF-Medium, SourceSans3VF" font-size="6" font-weight="400" fill="color(display-p3 0.992 0.976 0.933)">
                            <tspan x="5.05962244" y="9.8">10 %</tspan>
                        </text>
                    </g>
                    <g id="Frame" transform="translate(0, 105)" xlink:href="#path-12" fill="color(display-p3 0.498 0.573 0.514)">
                        <use fill-opacity="0.45" fill-rule="evenodd" xlink:href="#path-12"></use>
                        <text id="21-%" font-family="SourceSans3VF-Medium, SourceSans3VF" font-size="6" font-weight="400">
                            <tspan x="5.17072168" y="18">21 %</tspan>
                        </text>
                    </g>
                    <g id="Frame" xlink:href="#path-13" fill="color(display-p3 0.498 0.573 0.514)">
                        <use fill-opacity="0.2" fill-rule="evenodd" xlink:href="#path-13"></use>
                        <text id="69-%" font-family="SourceSans3VF-Medium, SourceSans3VF" font-size="6" font-weight="400">
                            <tspan x="4.55962244" y="50">69 %</tspan>
                        </text>
                    </g>
                </g>
                <g id="Stack" transform="translate(160.3333, 0)" xlink:href="#path-14">
                    <g id="Frame" transform="translate(0, 148)" xlink:href="#path-15">
                        <use fill-opacity="0.8" fill="color(display-p3 0.498 0.573 0.514)" fill-rule="evenodd" xlink:href="#path-15"></use>
                        <text id="4-%" font-family="SourceSans3VF-Medium, SourceSans3VF" font-size="6" font-weight="400" fill="color(display-p3 0.992 0.976 0.933)">
                            <tspan x="6.68587036" y="5">4 %</tspan>
                        </text>
                    </g>
                    <g id="Frame" transform="translate(0, 114)" xlink:href="#path-16" fill="color(display-p3 0.498 0.573 0.514)">
                        <use fill-opacity="0.45" fill-rule="evenodd" xlink:href="#path-16"></use>
                        <text id="21-%" font-family="SourceSans3VF-Medium, SourceSans3VF" font-size="6" font-weight="400">
                            <tspan x="5.17072168" y="18">21 %</tspan>
                        </text>
                    </g>
                    <g id="Frame" xlink:href="#path-17" fill="color(display-p3 0.498 0.573 0.514)">
                        <use fill-opacity="0.2" fill-rule="evenodd" xlink:href="#path-17"></use>
                        <text id="75-%" font-family="SourceSans3VF-Medium, SourceSans3VF" font-size="6" font-weight="400">
                            <tspan x="4.55962244" y="50">75 %</tspan>
                        </text>
                    </g>
                </g>
                <g id="Stack" transform="translate(134.4444, 0)" xlink:href="#path-18" fill="color(display-p3 0.498 0.573 0.514)">
                    <g id="Frame" transform="translate(0, 151)" xlink:href="#path-19" fill-opacity="0.8" fill-rule="evenodd">
                        <use xlink:href="#path-19"></use>
                    </g>
                    <g id="Frame" transform="translate(0, 121)" xlink:href="#path-20">
                        <use fill-opacity="0.45" fill-rule="evenodd" xlink:href="#path-20"></use>
                        <text id="18-%" font-family="SourceSans3VF-Medium, SourceSans3VF" font-size="6" font-weight="400">
                            <tspan x="4.17072168" y="16">18 %</tspan>
                        </text>
                    </g>
                    <g id="Frame" xlink:href="#path-21">
                        <use fill-opacity="0.2" fill-rule="evenodd" xlink:href="#path-21"></use>
                        <text id="80-%" font-family="SourceSans3VF-Medium, SourceSans3VF" font-size="6" font-weight="400">
                            <tspan x="4.55962244" y="50">80 %</tspan>
                        </text>
                    </g>
                </g>
                <g id="Stack" transform="translate(108.5556, 0)" xlink:href="#path-22" fill="color(display-p3 0.498 0.573 0.514)">
                    <g id="Frame" transform="translate(0, 132)" xlink:href="#path-23">
                        <use fill-opacity="0.45" fill-rule="evenodd" xlink:href="#path-23"></use>
                        <text id="14-%" font-family="SourceSans3VF-Medium, SourceSans3VF" font-size="6" font-weight="400">
                            <tspan x="5.17072168" y="13">14 %</tspan>
                        </text>
                    </g>
                    <g id="Frame" xlink:href="#path-24">
                        <use fill-opacity="0.2" fill-rule="evenodd" xlink:href="#path-24"></use>
                        <text id="86-%" font-family="SourceSans3VF-Medium, SourceSans3VF" font-size="6" font-weight="400">
                            <tspan x="4.55962244" y="50">86 %</tspan>
                        </text>
                    </g>
                </g>
                <g id="Stack" transform="translate(82.6667, 0)" xlink:href="#path-25" fill="color(display-p3 0.498 0.573 0.514)">
                    <g id="Frame" transform="translate(0, 142)" xlink:href="#path-26">
                        <use fill-opacity="0.45" fill-rule="evenodd" xlink:href="#path-26"></use>
                        <text id="8-%" font-family="SourceSans3VF-Medium, SourceSans3VF" font-size="6" font-weight="400">
                            <tspan x="5.68587036" y="8">8 %</tspan>
                        </text>
                    </g>
                    <g id="Frame" xlink:href="#path-27">
                        <use fill-opacity="0.2" fill-rule="evenodd" xlink:href="#path-27"></use>
                        <text id="92-%" font-family="SourceSans3VF-Medium, SourceSans3VF" font-size="6" font-weight="400">
                            <tspan x="4.55962244" y="50">92 %</tspan>
                        </text>
                    </g>
                </g>
                <g id="Stack" transform="translate(56.7778, 0)" xlink:href="#path-28" fill="color(display-p3 0.498 0.573 0.514)">
                    <g id="Frame" xlink:href="#path-29">
                        <use fill-opacity="0.2" fill-rule="evenodd" xlink:href="#path-29"></use>
                        <text id="100-%" font-family="SourceSans3VF-Medium, SourceSans3VF" font-size="6" font-weight="400">
                            <tspan x="3.04447375" y="50">100 %</tspan>
                        </text>
                    </g>
                </g>
                <g id="Stack" transform="translate(30.8889, 0)" xlink:href="#path-30" fill="color(display-p3 0.498 0.573 0.514)">
                    <g id="Frame" xlink:href="#path-31">
                        <use fill-opacity="0.2" fill-rule="evenodd" xlink:href="#path-31"></use>
                        <text id="100-%" font-family="SourceSans3VF-Medium, SourceSans3VF" font-size="6" font-weight="400">
                            <tspan x="3.04447375" y="50">100 %</tspan>
                        </text>
                    </g>
                </g>
                <g id="Stack" transform="translate(5, 0)" xlink:href="#path-32" fill="color(display-p3 0.498 0.573 0.514)">
                    <g id="Frame" xlink:href="#path-33">
                        <use fill-opacity="0.2" fill-rule="evenodd" xlink:href="#path-33"></use>
                        <text id="100-%" font-family="SourceSans3VF-Medium, SourceSans3VF" font-size="6" font-weight="400">
                            <tspan x="3.04447375" y="50">100 %</tspan>
                        </text>
                    </g>
                </g>
            </g>
            <g id="14-Sonoma" stroke-width="1" fill-rule="evenodd" transform="translate(237.2642, 185.5066) rotate(90) translate(-237.2642, -185.5066)translate(226.9989, 180.5593)" fill="color(display-p3 0.498 0.573 0.514)">
                <path d="M0.216335449,3.82250317 L2.44611694,3.82250317 L2.44611694,3.33372803 L1.6757688,3.33372803 L1.6757688,0 L1.22815503,0 C1.00183228,0.136825928 0.744335449,0.232490479 0.38018042,0.297987305 L0.38018042,0.674942871 L1.08167725,0.674942871 L1.08167725,3.33372803 L0.216335449,3.33372803 L0.216335449,3.82250317 Z" id="Path" fill-rule="nonzero"></path>
                <path d="M4.59680054,3.82250317 L5.15589844,3.82250317 L5.15589844,0 L4.47016772,0 L2.89662012,2.40469629 L2.89662012,2.80397461 L5.65641431,2.80397461 L5.65641431,2.33852856 L3.49855664,2.33852856 L4.29063281,1.15393652 C4.39863281,0.956775146 4.50663281,0.778116943 4.60263281,0.587123291 L4.62663281,0.587123291 C4.61463281,0.798865356 4.59680054,1.13969128 4.59680054,1.35143335 L4.59680054,3.82250317 Z" id="Path" fill-rule="nonzero"></path>
                <path d="M1.39581958,9.89450317 C2.25680054,9.89450317 2.77179419,9.38051587 2.77179419,8.75135449 C2.77179419,8.17434814 2.44028467,7.89385767 1.96970398,7.69568994 L1.42477515,7.46343201 C1.10778149,7.33159973 0.7870979,7.20392249 0.7870979,6.86064551 C0.7870979,6.54170398 1.05411694,6.3437688 1.46031006,6.3437688 C1.78390979,6.3437688 2.07566455,6.47677515 2.3273291,6.68761377 L2.64529102,6.2993291 C2.35605212,6.01541931 1.93447778,5.81966455 1.46031006,5.81966455 C0.713161377,5.81966455 0.181006348,6.28240027 0.181006348,6.89597461 C0.181006348,7.46614233 0.593264282,7.76154895 0.976257935,7.92629736 L1.52701904,8.16438757 C1.89094153,8.32105847 2.15987036,8.43656799 2.15987036,8.79834814 C2.15987036,9.14196057 1.8860127,9.37039893 1.40748413,9.37039893 C1.00913599,9.37039893 0.609381226,9.20414099 0.330297363,8.92371533 L0,9.312 C0.358322754,9.6833291 0.842813232,9.89450317 1.39581958,9.89450317 Z" id="Path" fill-rule="nonzero"></path>
                <path d="M4.63145874,9.89450317 C5.35628467,9.89450317 6.0084397,9.33083862 6.0084397,8.35950952 C6.0084397,7.3820127 5.35628467,6.81834814 4.63145874,6.81834814 C3.90663281,6.81834814 3.25447778,7.3820127 3.25447778,8.35950952 C3.25447778,9.33083862 3.90663281,9.89450317 4.63145874,9.89450317 Z M4.63145874,9.40572803 C4.16526563,9.40572803 3.86640161,8.98820581 3.86640161,8.35950952 C3.86640161,7.73081323 4.16526563,7.30712329 4.63145874,7.30712329 C5.09765186,7.30712329 5.39651587,7.73081323 5.39651587,8.35950952 C5.39651587,8.98820581 5.09765186,9.40572803 4.63145874,9.40572803 Z" id="Shape" fill-rule="nonzero"></path>
                <path d="M6.73347144,9.82250317 L7.32756299,9.82250317 L7.32756299,7.73731641 C7.59458203,7.46996191 7.78276245,7.33045239 8.0611106,7.33045239 C8.41313599,7.33045239 8.56464551,7.53747144 8.56464551,8.05099365 L8.56464551,9.82250317 L9.15873706,9.82250317 L9.15873706,7.97450317 C9.15873706,7.23050317 8.88273706,6.81834814 8.25974341,6.81834814 C7.85791113,6.81834814 7.55791113,7.03468359 7.28707251,7.29968994 L7.26924023,7.29968994 L7.22191113,6.89034814 L6.73347144,6.89034814 L6.73347144,9.82250317 Z" id="Path" fill-rule="nonzero"></path>
                <path d="M11.2244143,9.89450317 C11.9492402,9.89450317 12.6013953,9.33083862 12.6013953,8.35950952 C12.6013953,7.3820127 11.9492402,6.81834814 11.2244143,6.81834814 C10.4995884,6.81834814 9.84743335,7.3820127 9.84743335,8.35950952 C9.84743335,9.33083862 10.4995884,9.89450317 11.2244143,9.89450317 Z M11.2244143,9.40572803 C10.7582212,9.40572803 10.4593572,8.98820581 10.4593572,8.35950952 C10.4593572,7.73081323 10.7582212,7.30712329 11.2244143,7.30712329 C11.6906074,7.30712329 11.9894714,7.73081323 11.9894714,8.35950952 C11.9894714,8.98820581 11.6906074,9.40572803 11.2244143,9.40572803 Z" id="Shape" fill-rule="nonzero"></path>
                <path d="M13.326427,9.82250317 L13.9205186,9.82250317 L13.9205186,7.73731641 C14.1690344,7.46412964 14.3932148,7.33045239 14.5933953,7.33045239 C14.9330852,7.33045239 15.0907625,7.53747144 15.0907625,8.05099365 L15.0907625,9.82250317 L15.684854,9.82250317 L15.684854,7.73731641 C15.9333699,7.46412964 16.1513826,7.33045239 16.3577307,7.33045239 C16.6974207,7.33045239 16.8550979,7.53747144 16.8550979,8.05099365 L16.8550979,9.82250317 L17.4491895,9.82250317 L17.4491895,7.97450317 C17.4491895,7.23050317 17.1611895,6.81834814 16.5505313,6.81834814 C16.1857053,6.81834814 15.8879506,7.04634814 15.5956926,7.36002539 C15.4676151,7.02335449 15.2250344,6.81834814 14.7861958,6.81834814 C14.4275376,6.81834814 14.1323635,7.03468359 13.8800281,7.30260608 L13.8621958,7.30260608 L13.8148667,6.89034814 L13.326427,6.89034814 L13.326427,9.82250317 Z" id="Path" fill-rule="nonzero"></path>
                <path d="M19.0368783,9.89450317 C19.3917158,9.89450317 19.6933908,9.71738654 19.9739491,9.48710733 L19.9956699,9.48710733 L20.0391116,9.82250308 L20.530481,9.82250308 L20.530481,8.05971158 C20.530481,7.2795737 20.1952495,6.8193175 19.4746453,6.8193175 C19.0066453,6.8193175 18.5912036,7.0035737 18.2945534,7.19617795 L18.5169245,7.60036185 C18.7649704,7.44892017 19.0546454,7.31296609 19.3654369,7.31296609 C19.8001824,7.31296609 19.9299032,7.61510733 19.9373448,7.94701538 C18.7093908,8.08129459 18.169995,8.39101538 18.169995,9.04759662 C18.169995,9.56929449 18.5345533,9.89450317 19.0368784,9.89450317 L19.0368783,9.89450317 Z M19.2141329,9.40571484 C18.9536205,9.40571484 18.750829,9.29603989 18.750829,9.00757352 C18.750829,8.67110715 19.0467371,8.47059476 19.9373447,8.36547812 L19.9373447,9.06924829 C19.6894366,9.29603979 19.4746451,9.40571484 19.2141327,9.40571484 L19.2141329,9.40571484 Z" id="Shape" fill-rule="nonzero"></path>
            </g>
            <g id="13-Ventura" stroke-width="1" fill-rule="evenodd" transform="translate(211.2948, 184.7258) rotate(90) translate(-211.2948, -184.7258)translate(201.5637, 179.7425)" fill="color(display-p3 0.498 0.573 0.514)">
                <path d="M0.468335449,3.89450317 L2.69811694,3.89450317 L2.69811694,3.40572803 L1.9277688,3.40572803 L1.9277688,0.072 L1.48015503,0.072 C1.25383228,0.208825928 0.996335449,0.304490479 0.63218042,0.369987305 L0.63218042,0.746942871 L1.33367725,0.746942871 L1.33367725,3.40572803 L0.468335449,3.40572803 L0.468335449,3.89450317 Z" id="Path" fill-rule="nonzero"></path>
                <path d="M4.46761377,3.96650317 C5.18560107,3.96650317 5.77091748,3.55816772 5.77091748,2.86900635 C5.77091748,2.352 5.41540796,2.02116138 4.95873706,1.90766455 L4.95873706,1.88366455 C5.37290479,1.72525159 5.63858203,1.43383228 5.63858203,0.990735718 C5.63858203,0.359329102 5.14792383,0 4.44978149,0 C3.99411694,0 3.63512329,0.198503174 3.32480054,0.479664551 L3.63726563,0.850787842 C3.86493018,0.628284668 4.11894287,0.477110596 4.42645239,0.477110596 C4.80472302,0.477110596 5.03832275,0.689626465 5.03832275,1.03481323 C5.03832275,1.40983228 4.77847778,1.69501904 4.00062012,1.69501904 L4.00062012,2.13747144 C4.88805212,2.13747144 5.1706582,2.41649048 5.1706582,2.84018042 C5.1706582,3.23437354 4.86214233,3.47772803 4.42129102,3.47772803 C4.00634949,3.47772803 3.71184631,3.27821851 3.48093018,3.04371533 L3.19179419,3.42650317 C3.45512329,3.7193291 3.85269763,3.96650317 4.46761377,3.96650317 Z" id="Path" fill-rule="nonzero"></path>
                <path d="M1.21434814,9.89450317 L1.91958838,9.89450317 L3.1757688,5.96366455 L2.56384497,5.96366455 L1.95264551,8.01305713 C1.81672302,8.47331506 1.72330371,8.84139258 1.59063281,9.29839893 L1.56663281,9.29839893 C1.43396191,8.84139258 1.33145874,8.47331506 1.20462012,8.01305713 L0.635588379,5.96366455 L0,5.96366455 L1.21434814,9.89450317 Z" id="Path" fill-rule="nonzero"></path>
                <path d="M4.76010654,9.96650317 C5.14350229,9.96650317 5.48071078,9.84422397 5.74531503,9.66134061 L5.53494397,9.27659848 C5.33094397,9.41087769 5.09610645,9.487436 4.83043149,9.487436 C4.33910468,9.487436 3.91629016,9.1441322 3.91629016,8.4253407 C3.91629016,7.63454919 4.31047742,7.36552451 4.67838547,7.36552451 C5.10173529,7.36552451 5.32564334,7.65231601 5.32564334,8.14296954 L3.76196521,8.14296954 L3.76196521,8.60259512 L5.82415247,8.60259512 C5.84587326,8.50143265 5.85559406,8.3928284 5.85559406,8.27450336 C5.85559406,7.45166583 5.44531485,6.89131778 4.66866467,6.89131778 C3.98406042,6.89131778 3.32573538,7.47217813 3.32573538,8.42761981 C3.32573538,9.40250317 3.95261874,9.96650317 4.76010635,9.96650317 L4.76010654,9.96650317 Z" id="Path" fill-rule="nonzero"></path>
                <path d="M6.54392065,9.89450317 L7.13801221,9.89450317 L7.13801221,7.80931641 C7.40503125,7.54196191 7.59321167,7.40245239 7.87155981,7.40245239 C8.2235852,7.40245239 8.37509472,7.60947144 8.37509472,8.12299365 L8.37509472,9.89450317 L8.96918628,9.89450317 L8.96918628,8.04650317 C8.96918628,7.30250317 8.69318628,6.89034814 8.07019263,6.89034814 C7.66836035,6.89034814 7.36836035,7.10668359 7.09752173,7.37168994 L7.07968945,7.37168994 L7.03236035,6.96234814 L6.54392065,6.96234814 L6.54392065,9.89450317 Z" id="Path" fill-rule="nonzero"></path>
                <path d="M10.8421295,9.95222397 C11.0616172,9.95222397 11.2636401,9.89936362 11.4196401,9.82508441 L11.3038963,9.40631927 C11.1987796,9.45887759 11.0885004,9.4731568 10.9853608,9.4731568 C10.6771506,9.4731568 10.5542672,9.28692361 10.5542672,8.9343653 L10.5542672,7.4375246 L11.32364,7.4375246 L11.32364,6.96331769 L10.5542672,6.96331769 L10.5542672,6.03248016 L10.0580374,6.03248016 L9.98543316,6.96331769 L9.52943316,6.99217804 L9.52943316,7.43752451 L9.95627069,7.43752451 L9.95627069,8.92980698 C9.95627069,9.53845715 10.1877583,9.95222397 10.8421294,9.95222397 L10.8421295,9.95222397 Z" id="Path" fill-rule="nonzero"></path>
                <path d="M12.8256173,9.96650327 C13.2264777,9.96650327 13.5167569,9.7628053 13.7804548,9.45110742 L13.7973151,9.45110742 L13.8456172,9.89450317 L14.3321263,9.89450317 L14.3321263,6.96331769 L13.73899,6.96331769 L13.73899,9.00438831 C13.4907798,9.31973813 13.2996862,9.45341309 13.0223134,9.45341309 C12.6712657,9.45341309 12.5207304,9.24834247 12.5207304,8.73385309 L12.5207304,6.96331769 L11.9275941,6.96331769 L11.9275941,8.81131778 C11.9275941,9.55531778 12.2035941,9.96650327 12.825617,9.96650327 L12.8256173,9.96650327 Z" id="Path" fill-rule="nonzero"></path>
                <path d="M15.2615232,9.89450317 L15.8556148,9.89450317 L15.8556148,8.05997461 C16.0427889,7.58929102 16.3314598,7.42028467 16.5721307,7.42028467 C16.6917952,7.42028467 16.7576275,7.43228467 16.8471243,7.45628467 L16.9712793,6.95034814 C16.8811116,6.90818042 16.7883632,6.89034814 16.6486211,6.89034814 C16.3206987,6.89034814 16.0155373,7.11352222 15.8151243,7.49068359 L15.797292,7.49068359 L15.7499629,6.96234814 L15.2615232,6.96234814 L15.2615232,9.89450317 Z" id="Path" fill-rule="nonzero"></path>
                <path d="M17.96862,9.96650317 C18.3234576,9.96650317 18.6251325,9.78938654 18.9056908,9.55910733 L18.9274116,9.55910733 L18.9708533,9.89450308 L19.4622228,9.89450308 L19.4622228,8.13171158 C19.4622228,7.3515737 19.1269913,6.8913175 18.406387,6.8913175 C17.938387,6.8913175 17.5229454,7.0755737 17.2262952,7.26817795 L17.4486662,7.67236185 C17.6967122,7.52092017 17.9863871,7.38496609 18.2971786,7.38496609 C18.7319241,7.38496609 18.8616449,7.68710733 18.8690866,8.01901538 C17.6411325,8.15329459 17.1017368,8.46301538 17.1017368,9.11959662 C17.1017368,9.64129449 17.4662951,9.96650317 17.9686201,9.96650317 L17.96862,9.96650317 Z M18.1458747,9.47771484 C17.8853623,9.47771484 17.6825708,9.36803989 17.6825708,9.07957352 C17.6825708,8.74310715 17.9784788,8.54259476 18.8690864,8.43747812 L18.8690864,9.14124829 C18.6211784,9.36803979 18.4063869,9.47771484 18.1458745,9.47771484 L18.1458747,9.47771484 Z" id="Shape" fill-rule="nonzero"></path>
            </g>
            <g id="12-Monterey" stroke-width="1" fill-rule="evenodd" transform="translate(184.8362, 187.3301) rotate(90) translate(-184.8362, -187.3301)translate(173.0802, 181.7664)" fill="color(display-p3 0.498 0.573 0.514)">
                <path d="M0,3.89450317 L2.22978149,3.89450317 L2.22978149,3.40572803 L1.45943335,3.40572803 L1.45943335,0.072 L1.01181958,0.072 C0.785496826,0.208825928 0.528,0.304490479 0.163844971,0.369987305 L0.163844971,0.746942871 L0.865341797,0.746942871 L0.865341797,3.40572803 L0,3.40572803 L0,3.89450317 Z" id="Path" fill-rule="nonzero"></path>
                <path d="M2.80712329,3.89450317 L5.33274976,3.89450317 L5.33274976,3.3882312 L4.2615249,3.3882312 C4.068854,3.3882312 3.82369263,3.40606348 3.61935718,3.42389575 C4.48524023,2.54500635 5.14658203,1.87099365 5.14658203,1.14348413 C5.14658203,0.454993652 4.68676245,0 3.96810425,0 C3.46544604,0 3.11778149,0.228670898 2.78929102,0.598993652 L3.1137561,0.917291016 C3.32459473,0.67561377 3.5844397,0.477110596 3.89194922,0.477110596 C4.34064551,0.477110596 4.56965186,0.759381226 4.56965186,1.17847778 C4.56965186,1.77499365 3.90482593,2.47783228 2.80712329,3.52988306 L2.80712329,3.89450317 Z" id="Path" fill-rule="nonzero"></path>
                <path d="M0.0596954041,9.89450317 L0.604227539,9.89450317 L0.604227539,7.9218923 C0.604227539,7.56128806 0.563065063,7.00975443 0.521902588,6.65659195 L0.545902588,6.65659195 L0.848181793,7.62980045 L1.53432303,9.51854919 L1.95218179,9.51854919 L2.63718347,7.62980045 L2.94804382,6.65659195 L2.97204382,6.65659195 C2.93088135,7.00975443 2.88485843,7.56128806 2.88485843,7.9218923 L2.88485843,9.89450317 L3.44139047,9.89450317 L3.44139047,5.96366565 L2.71139374,5.96366565 L2.00520648,7.97483148 C1.91664816,8.23594812 1.84981064,8.47762308 1.77097311,8.76790228 L1.74697311,8.76790228 C1.66813559,8.47762308 1.58929807,8.23594812 1.50073975,7.97483148 L0.79455249,5.96366565 L0.0596954041,5.96366565 L0.0596954041,9.89450317 L0.0596954041,9.89450317 Z" id="Path" fill-rule="nonzero"></path>
                <path d="M5.59558876,9.96650317 C6.32041469,9.96650317 6.97256972,9.40283862 6.97256972,8.43150952 C6.97256972,7.4540127 6.32041469,6.89034814 5.59558876,6.89034814 C4.87076284,6.89034814 4.21860781,7.4540127 4.21860781,8.43150952 C4.21860781,9.40283862 4.87076284,9.96650317 5.59558876,9.96650317 Z M5.59558876,9.47772803 C5.12939565,9.47772803 4.83053163,9.06020581 4.83053163,8.43150952 C4.83053163,7.80281323 5.12939565,7.37912329 5.59558876,7.37912329 C6.06178188,7.37912329 6.36064589,7.80281323 6.36064589,8.43150952 C6.36064589,9.06020581 6.06178188,9.47772803 5.59558876,9.47772803 Z" id="Shape" fill-rule="nonzero"></path>
                <path d="M7.69760146,9.89450317 L8.29169301,9.89450317 L8.29169301,7.80931641 C8.55871205,7.54196191 8.74689247,7.40245239 9.02524062,7.40245239 C9.37726601,7.40245239 9.52877553,7.60947144 9.52877553,8.12299365 L9.52877553,9.89450317 L10.1228671,9.89450317 L10.1228671,8.04650317 C10.1228671,7.30250317 9.84686708,6.89034814 9.22387343,6.89034814 C8.82204116,6.89034814 8.52204116,7.10668359 8.25120253,7.37168994 L8.23337026,7.37168994 L8.18604116,6.96234814 L7.69760146,6.96234814 L7.69760146,9.89450317 Z" id="Path" fill-rule="nonzero"></path>
                <path d="M11.9958104,9.95222397 C12.215298,9.95222397 12.4173209,9.89936362 12.5733209,9.82508441 L12.4575771,9.40631927 C12.3524604,9.45887759 12.2421812,9.4731568 12.1390416,9.4731568 C11.8308314,9.4731568 11.707948,9.28692361 11.707948,8.9343653 L11.707948,7.4375246 L12.4773208,7.4375246 L12.4773208,6.96331769 L11.707948,6.96331769 L11.707948,6.03248016 L11.2117182,6.03248016 L11.139114,6.96331769 L10.683114,6.99217804 L10.683114,7.43752451 L11.1099515,7.43752451 L11.1099515,8.92980698 C11.1099515,9.53845715 11.3414391,9.95222397 11.9958102,9.95222397 L11.9958104,9.95222397 Z" id="Path" fill-rule="nonzero"></path>
                <path d="M14.2516473,9.96650317 C14.635043,9.96650317 14.9722515,9.84422397 15.2368558,9.66134061 L15.0264847,9.27659848 C14.8224847,9.41087769 14.5876472,9.487436 14.3219722,9.487436 C13.8306454,9.487436 13.4078309,9.1441322 13.4078309,8.4253407 C13.4078309,7.63454919 13.8020182,7.36552451 14.1699262,7.36552451 C14.593276,7.36552451 14.8171841,7.65231601 14.8171841,8.14296954 L13.2535059,8.14296954 L13.2535059,8.60259512 L15.3156932,8.60259512 C15.337414,8.50143265 15.3471348,8.3928284 15.3471348,8.27450336 C15.3471348,7.45166583 14.9368556,6.89131778 14.1602054,6.89131778 C13.4756012,6.89131778 12.8172761,7.47217813 12.8172761,8.42761981 C12.8172761,9.40250317 13.4441595,9.96650317 14.2516471,9.96650317 L14.2516473,9.96650317 Z" id="Path" fill-rule="nonzero"></path>
                <path d="M16.0354614,9.89450317 L16.6295529,9.89450317 L16.6295529,8.05997461 C16.816727,7.58929102 17.1053979,7.42028467 17.3460688,7.42028467 C17.4657334,7.42028467 17.5315656,7.43228467 17.6210625,7.45628467 L17.7452175,6.95034814 C17.6550498,6.90818042 17.5623014,6.89034814 17.4225593,6.89034814 C17.0946368,6.89034814 16.7894754,7.11352222 16.5890625,7.49068359 L16.5712302,7.49068359 L16.5239011,6.96234814 L16.0354614,6.96234814 L16.0354614,9.89450317 Z" id="Path" fill-rule="nonzero"></path>
                <path d="M19.3632071,9.96650317 C19.7466028,9.96650317 20.0838113,9.84422397 20.3484156,9.66134061 L20.1380445,9.27659848 C19.9340445,9.41087769 19.699207,9.487436 19.433532,9.487436 C18.9422052,9.487436 18.5193907,9.1441322 18.5193907,8.4253407 C18.5193907,7.63454919 18.913578,7.36552451 19.281486,7.36552451 C19.7048358,7.36552451 19.9287439,7.65231601 19.9287439,8.14296954 L18.3650658,8.14296954 L18.3650658,8.60259512 L20.427253,8.60259512 C20.4489738,8.50143265 20.4586946,8.3928284 20.4586946,8.27450336 C20.4586946,7.45166583 20.0484154,6.89131778 19.2717652,6.89131778 C18.587161,6.89131778 17.9288359,7.47217813 17.9288359,8.42761981 C17.9288359,9.40250317 18.5557193,9.96650317 19.3632069,9.96650317 L19.3632071,9.96650317 Z" id="Path" fill-rule="nonzero"></path>
                <path d="M21.2843122,11.1273545 C21.89879,11.1273545 22.2042868,10.7027611 22.4299387,10.0808767 L23.5119514,6.96234814 L22.9350212,6.96234814 L22.4561572,8.49057935 C22.3779895,8.75390845 22.2994863,9.04841162 22.2209831,9.31790845 L22.1969831,9.31790845 C22.1064799,9.04257935 22.0156413,8.74807617 21.9254736,8.49057935 L21.3742741,6.96234814 L20.7678471,6.96234814 L21.932518,9.87901904 L21.8718471,10.078864 C21.7625053,10.4068894 21.5688281,10.6440762 21.249654,10.6440762 C21.1834863,10.6440762 21.1166477,10.6317407 21.0391508,10.6077407 L20.9208281,11.0615222 C21.0219895,11.1033545 21.1358217,11.1273545 21.2843122,11.1273545 Z" id="Path" fill-rule="nonzero"></path>
            </g>
            <g id="11-Big-Sur" stroke-width="1" fill-rule="evenodd" transform="translate(158.8002, 184.4211) rotate(90) translate(-158.8002, -184.4211)translate(149.9979, 178.8487)" fill="color(display-p3 0.498 0.573 0.514)">
                <path d="M0,3.82250317 L2.22978149,3.82250317 L2.22978149,3.33372803 L1.45943335,3.33372803 L1.45943335,0 L1.01181958,0 C0.785496826,0.136825928 0.528,0.232490479 0.163844971,0.297987305 L0.163844971,0.674942871 L0.865341797,0.674942871 L0.865341797,3.33372803 L0,3.33372803 L0,3.82250317 Z" id="Path" fill-rule="nonzero"></path>
                <path d="M3.03029736,3.82250317 L5.26007886,3.82250317 L5.26007886,3.33372803 L4.48973071,3.33372803 L4.48973071,0 L4.04211694,0 C3.81579419,0.136825928 3.55829736,0.232490479 3.19414233,0.297987305 L3.19414233,0.674942871 L3.89563916,0.674942871 L3.89563916,3.33372803 L3.03029736,3.33372803 L3.03029736,3.82250317 Z" id="Path" fill-rule="nonzero"></path>
                <path d="M0.0606708984,9.82250317 L1.36880054,9.82250317 C2.23963916,9.82250317 2.86779419,9.444 2.86779419,8.64717407 C2.86779419,8.12433545 2.56645239,7.82949683 2.09094287,7.73383228 L2.09094287,7.70983228 C2.45228467,7.58983228 2.65078784,7.26 2.65078784,6.85749683 C2.65078784,6.15117407 2.07713599,5.89166455 1.27347144,5.89166455 L0.0606708984,5.89166455 L0.0606708984,9.82250317 Z M0.660930176,7.53901904 L0.660930176,6.36294287 L1.21863281,6.36294287 C1.7766709,6.36294287 2.06219312,6.52062012 2.06219312,6.93948413 C2.06219312,7.30900635 1.80750952,7.53901904 1.20012964,7.53901904 L0.660930176,7.53901904 Z M0.660930176,9.35122485 L0.660930176,7.99280054 L1.29680054,7.99280054 C1.93300635,7.99280054 2.27919946,8.19331641 2.27919946,8.64167725 C2.27919946,9.12704443 1.9206709,9.35122485 1.29680054,9.35122485 L0.660930176,9.35122485 Z" id="Shape" fill-rule="nonzero"></path>
                <path d="M3.56232275,9.82250317 L4.15641431,9.82250317 L4.15641431,6.89034814 L3.56232275,6.89034814 L3.56232275,9.82250317 Z M3.85628467,6.33331641 C4.0750979,6.33331641 4.22908521,6.19099365 4.22908521,5.97150952 C4.22908521,5.75819312 4.0750979,5.61587036 3.85628467,5.61587036 C3.63747144,5.61587036 3.48348413,5.75819312 3.48348413,5.97150952 C3.48348413,6.19099365 3.63747144,6.33331641 3.85628467,6.33331641 Z" id="Shape" fill-rule="nonzero"></path>
                <path d="M6.0924397,11.1448513 C7.02474976,11.1448513 7.61656934,10.6823481 7.61656934,10.1206963 C7.61656934,9.62420581 7.25858203,9.40854126 6.56717542,9.40854126 L6.02157568,9.40854126 C5.64756299,9.40854126 5.52756299,9.29269629 5.52756299,9.11752222 C5.52756299,8.97184497 5.59507251,8.88650317 5.69207886,8.80474841 C5.82407886,8.86250317 5.97525293,8.89300635 6.10825928,8.89300635 C6.71858203,8.89300635 7.20307251,8.52482593 7.20307251,7.89050317 C7.20307251,7.65606482 7.11414368,7.48296826 6.98921484,7.36229736 L6.98921484,7.33829736 L7.56856934,7.33829736 L7.56856934,6.89034814 L6.53274976,6.89034814 C6.41958838,6.84851587 6.27009155,6.81834814 6.10825928,6.81834814 C5.5037688,6.81834814 4.97845239,7.20952222 4.97845239,7.86717407 C4.97845239,8.21517407 5.16428467,8.4973418 5.36178149,8.64750952 L5.36178149,8.67150952 C5.20095557,8.7846709 5.03811694,8.98216772 5.03811694,9.21700635 C5.03811694,9.45050317 5.15194922,9.60650317 5.30178149,9.70216772 L5.30178149,9.72616772 C5.03194922,9.89483862 4.87561377,10.1209288 4.87561377,10.3700127 C4.87561377,10.8791741 5.3837688,11.1448513 6.0924397,11.1448513 Z M6.10825928,8.50921216 C5.79907251,8.50921216 5.54371802,8.26619312 5.54371802,7.86717407 C5.54371802,7.46781958 5.79290479,7.23713599 6.10825928,7.23713599 C6.42361377,7.23713599 6.67280054,7.46781958 6.67280054,7.86717407 C6.67280054,8.26619312 6.41744604,8.50921216 6.10825928,8.50921216 Z M6.18025928,10.7493926 C5.68423389,10.7493926 5.38255664,10.5728767 5.38255664,10.2821931 C5.38255664,10.1303481 5.46173071,9.97783228 5.64474976,9.84415503 C5.7657561,9.87432275 5.898427,9.88632275 6.03357568,9.88632275 L6.48652991,9.88632275 C6.84629736,9.88632275 7.03963916,9.96583228 7.03963916,10.2143481 C7.03963916,10.4933672 6.69512329,10.7493926 6.18025928,10.7493926 Z" id="Shape" fill-rule="nonzero"></path>
                <path d="M10.5312275,9.89450317 C11.3922085,9.89450317 11.9072021,9.38051587 11.9072021,8.75135449 C11.9072021,8.17434814 11.5756926,7.89385767 11.1051119,7.69568994 L10.5601831,7.46343201 C10.2431895,7.33159973 9.92250586,7.20392249 9.92250586,6.86064551 C9.92250586,6.54170398 10.1895249,6.3437688 10.595718,6.3437688 C10.9193177,6.3437688 11.2110725,6.47677515 11.4627371,6.68761377 L11.780699,6.2993291 C11.4914601,6.01541931 11.0698857,5.81966455 10.595718,5.81966455 C9.84856934,5.81966455 9.31641431,6.28240027 9.31641431,6.89597461 C9.31641431,7.46614233 9.72867224,7.76154895 10.1116659,7.92629736 L10.662427,8.16438757 C11.0263495,8.32105847 11.2952783,8.43656799 11.2952783,8.79834814 C11.2952783,9.14196057 11.0214207,9.37039893 10.5428921,9.37039893 C10.1445439,9.37039893 9.74478918,9.20414099 9.46570532,8.92371533 L9.13540796,9.312 C9.49373071,9.6833291 9.97822119,9.89450317 10.5312275,9.89450317 Z" id="Path" fill-rule="nonzero"></path>
                <path d="M13.4588553,9.89450327 C13.8597156,9.89450327 14.1499948,9.6908053 14.4136927,9.37910742 L14.4305531,9.37910742 L14.4788552,9.82250317 L14.9653642,9.82250317 L14.9653642,6.89131769 L14.3722279,6.89131769 L14.3722279,8.93238831 C14.1240178,9.24773813 13.9329241,9.38141309 13.6555514,9.38141309 C13.3045037,9.38141309 13.1539684,9.17634247 13.1539684,8.66185309 L13.1539684,6.89131769 L12.5608321,6.89131769 L12.5608321,8.73931778 C12.5608321,9.48331778 12.8368321,9.89450327 13.458855,9.89450327 L13.4588553,9.89450327 Z" id="Path" fill-rule="nonzero"></path>
                <path d="M15.8947612,9.82250317 L16.4888528,9.82250317 L16.4888528,7.98797461 C16.6760268,7.51729102 16.9646977,7.34828467 17.2053686,7.34828467 C17.3250332,7.34828467 17.3908655,7.36028467 17.4803623,7.38428467 L17.6045173,6.87834814 C17.5143496,6.83618042 17.4216012,6.81834814 17.2818591,6.81834814 C16.9539366,6.81834814 16.6487752,7.04152222 16.4483623,7.41868359 L16.43053,7.41868359 L16.3832009,6.89034814 L15.8947612,6.89034814 L15.8947612,9.82250317 Z" id="Path" fill-rule="nonzero"></path>
            </g>
            <g id="10.15-Catalina" stroke-width="1" fill-rule="evenodd" transform="translate(133.3002, 185.4123) rotate(90) translate(-133.3002, -185.4123)translate(123.1898, 180.429)" fill="color(display-p3 0.498 0.573 0.514)">
                <path d="M0.155700073,3.89450317 L2.38548157,3.89450317 L2.38548157,3.40572803 L1.61513342,3.40572803 L1.61513342,0.072 L1.16751965,0.072 C0.941196899,0.208825928 0.683700073,0.304490479 0.319545044,0.369987305 L0.319545044,0.746942871 L1.02104187,0.746942871 L1.02104187,3.40572803 L0.155700073,3.40572803 L0.155700073,3.89450317 Z" id="Path" fill-rule="nonzero"></path>
                <path d="M4.24346887,3.96650317 C5.02179163,3.96650317 5.50527576,3.25491614 5.50527576,1.96833545 C5.50527576,0.684670898 5.02179163,0 4.24346887,0 C3.46514612,0 2.98166199,0.681754761 2.98166199,1.96833545 C2.98166199,3.25491614 3.46514612,3.96650317 4.24346887,3.96650317 Z M4.24346887,3.49522485 C3.83694031,3.49522485 3.55275989,3.06885132 3.55275989,1.96833545 C3.55275989,0.86781958 3.83694031,0.47127832 4.24346887,0.47127832 C4.64999744,0.47127832 4.93417786,0.86781958 4.93417786,1.96833545 C4.93417786,3.06885132 4.64999744,3.49522485 4.24346887,3.49522485 Z" id="Shape" fill-rule="nonzero"></path>
                <path d="M6.54592126,3.96650317 C6.77056677,3.96650317 6.94855408,3.78918677 6.94855408,3.54603809 C6.94855408,3.29672168 6.77056677,3.11940527 6.54592126,3.11940527 C6.32127576,3.11940527 6.14328845,3.29672168 6.14328845,3.54603809 C6.14328845,3.78918677 6.32127576,3.96650317 6.54592126,3.96650317 Z" id="Path" fill-rule="nonzero"></path>
                <path d="M7.79090222,3.89450317 L10.0206837,3.89450317 L10.0206837,3.40572803 L9.25033557,3.40572803 L9.25033557,0.072 L8.8027218,0.072 C8.57639905,0.208825928 8.31890222,0.304490479 7.95474719,0.369987305 L7.95474719,0.746942871 L8.65624402,0.746942871 L8.65624402,3.40572803 L7.79090222,3.40572803 L7.79090222,3.89450317 Z" id="Path" fill-rule="nonzero"></path>
                <path d="M11.7891742,3.96650317 C12.4737422,3.96650317 13.1058197,3.49300635 13.1058197,2.65950952 C13.1058197,1.83700635 12.5664906,1.46500635 11.9126583,1.46500635 C11.6972263,1.46500635 11.5366329,1.51709656 11.3676266,1.60518677 L11.4588007,0.578271973 L12.9193165,0.578271973 L12.9193165,0.072 L10.9408641,0.072 L10.8201932,1.93548413 L11.1161678,2.12480054 C11.3441678,1.97463281 11.4956774,1.90162646 11.7490192,1.90162646 C12.2032123,1.90162646 12.5055604,2.18681323 12.5055604,2.6773418 C12.5055604,3.17370264 12.1658705,3.47772803 11.7195223,3.47772803 C11.3016647,3.47772803 11.0191615,3.27855396 10.7911615,3.05605078 L10.5078578,3.43883862 C10.7828514,3.71383228 11.1713419,3.96650317 11.7891742,3.96650317 Z" id="Path" fill-rule="nonzero"></path>
                <path d="M1.75351044,9.96650336 C2.25234796,9.96650336 2.63695221,9.76994485 2.95639389,9.40250317 L2.64797681,9.04776105 C2.41602274,9.29627344 2.14662698,9.44141309 1.79467291,9.44141309 C1.07678778,9.44141309 0.617135834,8.8626676 0.617135834,7.92194504 C0.617135834,6.9958038 1.1010899,6.4167561 1.7846499,6.4167561 C2.1009061,6.4167561 2.34972061,6.53873318 2.55599982,6.75184982 L2.8801377,6.38396805 C2.64211478,6.11738681 2.2529523,5.89166602 1.77006894,5.89166602 C0.776650177,5.89166602 0,6.65936389 0,7.93652637 C0,9.22827017 0.762068939,9.96650336 1.75351062,9.96650336 L1.75351044,9.96650336 Z" id="Path" fill-rule="nonzero"></path>
                <path d="M4.29690633,9.96650317 C4.65174386,9.96650317 4.95341881,9.78938654 5.23397713,9.55910733 L5.25569793,9.55910733 L5.29913961,9.89450308 L5.79050909,9.89450308 L5.79050909,8.13171158 C5.79050909,7.3515737 5.45527758,6.8913175 4.73467333,6.8913175 C4.26667333,6.8913175 3.85123165,7.0755737 3.55458147,7.26817795 L3.77695254,7.67236185 C4.02499847,7.52092017 4.31467342,7.38496609 4.62546493,7.38496609 C5.06021041,7.38496609 5.18993121,7.68710733 5.19737289,8.01901538 C3.96941881,8.15329459 3.43002306,8.46301538 3.43002306,9.11959662 C3.43002306,9.64129449 3.79458138,9.96650317 4.29690642,9.96650317 L4.29690633,9.96650317 Z M4.47416094,9.47771484 C4.21364855,9.47771484 4.01085705,9.36803989 4.01085705,9.07957352 C4.01085705,8.74310715 4.3067651,8.54259476 5.1973727,8.43747812 L5.1973727,9.14124829 C4.94946465,9.36803979 4.73467315,9.47771484 4.47416076,9.47771484 L4.47416094,9.47771484 Z" id="Shape" fill-rule="nonzero"></path>
                <path d="M7.5548122,9.95222397 C7.77429981,9.95222397 7.97632273,9.89936362 8.13232273,9.82508441 L8.01657892,9.40631927 C7.91146228,9.45887759 7.80118308,9.4731568 7.69804343,9.4731568 C7.38983326,9.4731568 7.26694989,9.28692361 7.26694989,8.9343653 L7.26694989,7.4375246 L8.03632264,7.4375246 L8.03632264,6.96331769 L7.26694989,6.96331769 L7.26694989,6.03248016 L6.77072007,6.03248016 L6.69811582,6.96331769 L6.24211582,6.99217804 L6.24211582,7.43752451 L6.66895334,7.43752451 L6.66895334,8.92980698 C6.66895334,9.53845715 6.90044095,9.95222397 7.55481202,9.95222397 L7.5548122,9.95222397 Z" id="Path" fill-rule="nonzero"></path>
                <path d="M9.24215526,9.96650317 C9.59699278,9.96650317 9.89866774,9.78938654 10.1792261,9.55910733 L10.2009469,9.55910733 L10.2443885,9.89450308 L10.735758,9.89450308 L10.735758,8.13171158 C10.735758,7.3515737 10.4005265,6.8913175 9.67992226,6.8913175 C9.21192226,6.8913175 8.79648058,7.0755737 8.4998304,7.26817795 L8.72220146,7.67236185 C8.97024739,7.52092017 9.25992235,7.38496609 9.57071385,7.38496609 C10.0054593,7.38496609 10.1351801,7.68710733 10.1426218,8.01901538 C8.91466774,8.15329459 8.37527199,8.46301538 8.37527199,9.11959662 C8.37527199,9.64129449 8.73983031,9.96650317 9.24215535,9.96650317 L9.24215526,9.96650317 Z M9.41940987,9.47771484 C9.15889748,9.47771484 8.95610597,9.36803989 8.95610597,9.07957352 C8.95610597,8.74310715 9.25201402,8.54259476 10.1426216,8.43747812 L10.1426216,9.14124829 C9.89471358,9.36803979 9.67992207,9.47771484 9.41940968,9.47771484 L9.41940987,9.47771484 Z" id="Shape" fill-rule="nonzero"></path>
                <path d="M12.208408,9.95222424 C12.3510352,9.95222424 12.4573603,9.93050317 12.5345228,9.89678238 L12.454779,9.45143591 C12.406779,9.46343591 12.382779,9.46343591 12.3539186,9.46343591 C12.274779,9.46343591 12.2024768,9.41057556 12.2024768,9.24455264 L12.2024768,5.64027017 L11.6093405,5.64027017 L11.6093405,9.20855264 C11.6093405,9.67896973 11.7756656,9.95222424 12.2084077,9.95222424 L12.208408,9.95222424 Z" id="Path" fill-rule="nonzero"></path>
                <path d="M13.1895948,9.89450317 L13.7836864,9.89450317 L13.7836864,6.96234814 L13.1895948,6.96234814 L13.1895948,9.89450317 Z M13.4835568,6.40531641 C13.70237,6.40531641 13.8563573,6.26299365 13.8563573,6.04350952 C13.8563573,5.83019312 13.70237,5.68787036 13.4835568,5.68787036 C13.2647435,5.68787036 13.1107562,5.83019312 13.1107562,6.04350952 C13.1107562,6.26299365 13.2647435,6.40531641 13.4835568,6.40531641 Z" id="Shape" fill-rule="nonzero"></path>
                <path d="M14.7140599,9.89450317 L15.3081515,9.89450317 L15.3081515,7.80931641 C15.5751705,7.54196191 15.7633509,7.40245239 16.0416991,7.40245239 C16.3937245,7.40245239 16.545234,7.60947144 16.545234,8.12299365 L16.545234,9.89450317 L17.1393255,9.89450317 L17.1393255,8.04650317 C17.1393255,7.30250317 16.8633255,6.89034814 16.2403319,6.89034814 C15.8384996,6.89034814 15.5384996,7.10668359 15.267661,7.37168994 L15.2498287,7.37168994 L15.2024996,6.96234814 L14.7140599,6.96234814 L14.7140599,9.89450317 Z" id="Path" fill-rule="nonzero"></path>
                <path d="M18.7270144,9.96650317 C19.0818519,9.96650317 19.3835269,9.78938654 19.6640852,9.55910733 L19.685806,9.55910733 L19.7292477,9.89450308 L20.2206171,9.89450308 L20.2206171,8.13171158 C20.2206171,7.3515737 19.8853856,6.8913175 19.1647814,6.8913175 C18.6967814,6.8913175 18.2813397,7.0755737 17.9846895,7.26817795 L18.2070606,7.67236185 C18.4551065,7.52092017 18.7447815,7.38496609 19.055573,7.38496609 C19.4903185,7.38496609 19.6200393,7.68710733 19.6274809,8.01901538 C18.3995269,8.15329459 17.8601311,8.46301538 17.8601311,9.11959662 C17.8601311,9.64129449 18.2246894,9.96650317 18.7270145,9.96650317 L18.7270144,9.96650317 Z M18.904269,9.47771484 C18.6437566,9.47771484 18.4409651,9.36803989 18.4409651,9.07957352 C18.4409651,8.74310715 18.7368732,8.54259476 19.6274808,8.43747812 L19.6274808,9.14124829 C19.3795727,9.36803979 19.1647812,9.47771484 18.9042688,9.47771484 L18.904269,9.47771484 Z" id="Shape" fill-rule="nonzero"></path>
            </g>
            <g id="10.14-Mojave" stroke-width="1" fill-rule="evenodd" transform="translate(106.8362, 184.3271) rotate(90) translate(-106.8362, -184.3271)translate(98.1017, 178.7449)" fill="color(display-p3 0.498 0.573 0.514)">
                <path d="M0,3.89450317 L2.22978149,3.89450317 L2.22978149,3.40572803 L1.45943335,3.40572803 L1.45943335,0.072 L1.01181958,0.072 C0.785496826,0.208825928 0.528,0.304490479 0.163844971,0.369987305 L0.163844971,0.746942871 L0.865341797,0.746942871 L0.865341797,3.40572803 L0,3.40572803 L0,3.89450317 Z" id="Path" fill-rule="nonzero"></path>
                <path d="M4.0877688,3.96650317 C4.86609155,3.96650317 5.34957568,3.25491614 5.34957568,1.96833545 C5.34957568,0.684670898 4.86609155,0 4.0877688,0 C3.30944604,0 2.82596191,0.681754761 2.82596191,1.96833545 C2.82596191,3.25491614 3.30944604,3.96650317 4.0877688,3.96650317 Z M4.0877688,3.49522485 C3.68124023,3.49522485 3.39705981,3.06885132 3.39705981,1.96833545 C3.39705981,0.86781958 3.68124023,0.47127832 4.0877688,0.47127832 C4.49429736,0.47127832 4.77847778,0.86781958 4.77847778,1.96833545 C4.77847778,3.06885132 4.49429736,3.49522485 4.0877688,3.49522485 Z" id="Shape" fill-rule="nonzero"></path>
                <path d="M6.39022119,3.96650317 C6.6148667,3.96650317 6.792854,3.78918677 6.792854,3.54603809 C6.792854,3.29672168 6.6148667,3.11940527 6.39022119,3.11940527 C6.16557568,3.11940527 5.98758838,3.29672168 5.98758838,3.54603809 C5.98758838,3.78918677 6.16557568,3.96650317 6.39022119,3.96650317 Z" id="Path" fill-rule="nonzero"></path>
                <path d="M7.63520215,3.89450317 L9.86498364,3.89450317 L9.86498364,3.40572803 L9.0946355,3.40572803 L9.0946355,0.072 L8.64702173,0.072 C8.42069897,0.208825928 8.16320215,0.304490479 7.79904712,0.369987305 L7.79904712,0.746942871 L8.50054395,0.746942871 L8.50054395,3.40572803 L7.63520215,3.40572803 L7.63520215,3.89450317 Z" id="Path" fill-rule="nonzero"></path>
                <path d="M12.0156672,3.89450317 L12.5747651,3.89450317 L12.5747651,0.072 L11.8890344,0.072 L10.3154868,2.47669629 L10.3154868,2.87597461 L13.075281,2.87597461 L13.075281,2.41052856 L10.9174233,2.41052856 L11.7094995,1.22593652 C11.8174995,1.02877515 11.9254995,0.850116943 12.0214995,0.659123291 L12.0454995,0.659123291 C12.0334995,0.870865356 12.0156672,1.21169128 12.0156672,1.42343335 L12.0156672,3.89450317 Z" id="Path" fill-rule="nonzero"></path>
                <path d="M0.0596954041,9.89450317 L0.604227539,9.89450317 L0.604227539,7.9218923 C0.604227539,7.56128806 0.563065063,7.00975443 0.521902588,6.65659195 L0.545902588,6.65659195 L0.848181793,7.62980045 L1.53432303,9.51854919 L1.95218179,9.51854919 L2.63718347,7.62980045 L2.94804382,6.65659195 L2.97204382,6.65659195 C2.93088135,7.00975443 2.88485843,7.56128806 2.88485843,7.9218923 L2.88485843,9.89450317 L3.44139047,9.89450317 L3.44139047,5.96366565 L2.71139374,5.96366565 L2.00520648,7.97483148 C1.91664816,8.23594812 1.84981064,8.47762308 1.77097311,8.76790228 L1.74697311,8.76790228 C1.66813559,8.47762308 1.58929807,8.23594812 1.50073975,7.97483148 L0.79455249,5.96366565 L0.0596954041,5.96366565 L0.0596954041,9.89450317 L0.0596954041,9.89450317 Z" id="Path" fill-rule="nonzero"></path>
                <path d="M5.59558876,9.96650317 C6.32041469,9.96650317 6.97256972,9.40283862 6.97256972,8.43150952 C6.97256972,7.4540127 6.32041469,6.89034814 5.59558876,6.89034814 C4.87076284,6.89034814 4.21860781,7.4540127 4.21860781,8.43150952 C4.21860781,9.40283862 4.87076284,9.96650317 5.59558876,9.96650317 Z M5.59558876,9.47772803 C5.12939565,9.47772803 4.83053163,9.06020581 4.83053163,8.43150952 C4.83053163,7.80281323 5.12939565,7.37912329 5.59558876,7.37912329 C6.06178188,7.37912329 6.36064589,7.80281323 6.36064589,8.43150952 C6.36064589,9.06020581 6.06178188,9.47772803 5.59558876,9.47772803 Z" id="Shape" fill-rule="nonzero"></path>
                <path d="M7.42957607,11.1643608 C8.07053163,11.1643608 8.29752529,10.7435603 8.29752529,10.1332375 L8.29752529,6.96234814 L7.70343373,6.96234814 L7.70343373,10.1383989 C7.70343373,10.4870698 7.63176918,10.6872502 7.35409194,10.6872502 C7.26358876,10.6872502 7.16658242,10.6629148 7.08875014,10.6389148 L6.97659511,11.0803608 C7.08392421,11.1283608 7.23992421,11.1643608 7.42957607,11.1643608 Z M7.99739565,6.40531641 C8.21620888,6.40531641 8.37019618,6.26299365 8.37019618,6.04350952 C8.37019618,5.83019312 8.21620888,5.68787036 7.99739565,5.68787036 C7.77858242,5.68787036 7.62459511,5.83019312 7.62459511,6.04350952 C7.62459511,6.26299365 7.77858242,6.40531641 7.99739565,6.40531641 Z" id="Shape" fill-rule="nonzero"></path>
                <path d="M9.92154958,9.96650317 C10.2763871,9.96650317 10.5780621,9.78938654 10.8586204,9.55910733 L10.8803412,9.55910733 L10.9237829,9.89450308 L11.4151523,9.89450308 L11.4151523,8.13171158 C11.4151523,7.3515737 11.0799208,6.8913175 10.3593166,6.8913175 C9.89131658,6.8913175 9.4758749,7.0755737 9.17922472,7.26817795 L9.40159578,7.67236185 C9.64964171,7.52092017 9.93931667,7.38496609 10.2501082,7.38496609 C10.6848537,7.38496609 10.8145745,7.68710733 10.8220161,8.01901538 C9.59406206,8.15329459 9.05466631,8.46301538 9.05466631,9.11959662 C9.05466631,9.64129449 9.41922463,9.96650317 9.92154967,9.96650317 L9.92154958,9.96650317 Z M10.0988042,9.47771484 C9.8382918,9.47771484 9.63550029,9.36803989 9.63550029,9.07957352 C9.63550029,8.74310715 9.93140834,8.54259476 10.8220159,8.43747812 L10.8220159,9.14124829 C10.5741079,9.36803979 10.3593164,9.47771484 10.098804,9.47771484 L10.0988042,9.47771484 Z" id="Shape" fill-rule="nonzero"></path>
                <path d="M12.9360344,9.89450317 L13.6244487,9.89450317 L14.6402937,6.96234814 L14.0633635,6.96234814 L13.5543318,8.55406348 C13.4699963,8.84172803 13.3794931,9.14139258 13.2951577,9.42838623 L13.2711577,9.42838623 C13.1868222,9.14139258 13.0963191,8.84172803 13.0119836,8.55406348 L12.5029519,6.96234814 L11.8965249,6.96234814 L12.9360344,9.89450317 Z" id="Path" fill-rule="nonzero"></path>
                <path d="M16.3734573,9.96650317 C16.7568531,9.96650317 17.0940616,9.84422397 17.3586658,9.66134061 L17.1482948,9.27659848 C16.9442948,9.41087769 16.7094572,9.487436 16.4437823,9.487436 C15.9524555,9.487436 15.529641,9.1441322 15.529641,8.4253407 C15.529641,7.63454919 15.9238282,7.36552451 16.2917363,7.36552451 C16.7150861,7.36552451 16.9389941,7.65231601 16.9389941,8.14296954 L15.375316,8.14296954 L15.375316,8.60259512 L17.4375033,8.60259512 C17.4592241,8.50143265 17.4689449,8.3928284 17.4689449,8.27450336 C17.4689449,7.45166583 17.0586656,6.89131778 16.2820155,6.89131778 C15.5974112,6.89131778 14.9390862,7.47217813 14.9390862,8.42761981 C14.9390862,9.40250317 15.5659695,9.96650317 16.3734572,9.96650317 L16.3734573,9.96650317 Z" id="Path" fill-rule="nonzero"></path>
            </g>
            <g id="10.13-High-Sierra" stroke-width="1" fill-rule="evenodd" transform="translate(80.8362, 189.2134) rotate(90) translate(-80.8362, -189.2134)translate(67.2416, 183.605)" fill="color(display-p3 0.498 0.573 0.514)">
                <path d="M0,3.89450317 L2.22978149,3.89450317 L2.22978149,3.40572803 L1.45943335,3.40572803 L1.45943335,0.072 L1.01181958,0.072 C0.785496826,0.208825928 0.528,0.304490479 0.163844971,0.369987305 L0.163844971,0.746942871 L0.865341797,0.746942871 L0.865341797,3.40572803 L0,3.40572803 L0,3.89450317 Z" id="Path" fill-rule="nonzero"></path>
                <path d="M4.0877688,3.96650317 C4.86609155,3.96650317 5.34957568,3.25491614 5.34957568,1.96833545 C5.34957568,0.684670898 4.86609155,0 4.0877688,0 C3.30944604,0 2.82596191,0.681754761 2.82596191,1.96833545 C2.82596191,3.25491614 3.30944604,3.96650317 4.0877688,3.96650317 Z M4.0877688,3.49522485 C3.68124023,3.49522485 3.39705981,3.06885132 3.39705981,1.96833545 C3.39705981,0.86781958 3.68124023,0.47127832 4.0877688,0.47127832 C4.49429736,0.47127832 4.77847778,0.86781958 4.77847778,1.96833545 C4.77847778,3.06885132 4.49429736,3.49522485 4.0877688,3.49522485 Z" id="Shape" fill-rule="nonzero"></path>
                <path d="M6.39022119,3.96650317 C6.6148667,3.96650317 6.792854,3.78918677 6.792854,3.54603809 C6.792854,3.29672168 6.6148667,3.11940527 6.39022119,3.11940527 C6.16557568,3.11940527 5.98758838,3.29672168 5.98758838,3.54603809 C5.98758838,3.78918677 6.16557568,3.96650317 6.39022119,3.96650317 Z" id="Path" fill-rule="nonzero"></path>
                <path d="M7.63520215,3.89450317 L9.86498364,3.89450317 L9.86498364,3.40572803 L9.0946355,3.40572803 L9.0946355,0.072 L8.64702173,0.072 C8.42069897,0.208825928 8.16320215,0.304490479 7.79904712,0.369987305 L7.79904712,0.746942871 L8.50054395,0.746942871 L8.50054395,3.40572803 L7.63520215,3.40572803 L7.63520215,3.89450317 Z" id="Path" fill-rule="nonzero"></path>
                <path d="M11.6344805,3.96650317 C12.3524678,3.96650317 12.9377842,3.55816772 12.9377842,2.86900635 C12.9377842,2.352 12.5822747,2.02116138 12.1256038,1.90766455 L12.1256038,1.88366455 C12.5397715,1.72525159 12.8054487,1.43383228 12.8054487,0.990735718 C12.8054487,0.359329102 12.3147905,0 11.6166482,0 C11.1609836,0 10.80199,0.198503174 10.4916672,0.479664551 L10.8041323,0.850787842 C11.0317969,0.628284668 11.2858096,0.477110596 11.5933191,0.477110596 C11.9715897,0.477110596 12.2051895,0.689626465 12.2051895,1.03481323 C12.2051895,1.40983228 11.9453445,1.69501904 11.1674868,1.69501904 L11.1674868,2.13747144 C12.0549188,2.13747144 12.3375249,2.41649048 12.3375249,2.84018042 C12.3375249,3.23437354 12.029009,3.47772803 11.5881577,3.47772803 C11.1732162,3.47772803 10.878713,3.27821851 10.6477969,3.04371533 L10.3586609,3.42650317 C10.62199,3.7193291 11.0195643,3.96650317 11.6344805,3.96650317 Z" id="Path" fill-rule="nonzero"></path>
                <polygon id="Path" fill-rule="nonzero" points="0.0596954956 9.89450317 0.659971344 9.89450317 0.659971344 8.09980362 2.36962656 8.09980362 2.36962656 9.89450317 2.9699024 9.89450317 2.9699024 5.96366565 2.36962656 5.96366565 2.36962656 7.57699246 0.659971344 7.57699246 0.659971344 5.96366565 0.0596954956 5.96366565"></polygon>
                <path d="M3.95246191,9.89450317 L4.54655346,9.89450317 L4.54655346,6.96234814 L3.95246191,6.96234814 L3.95246191,9.89450317 Z M4.24642383,6.40531641 C4.46523706,6.40531641 4.61922436,6.26299365 4.61922436,6.04350952 C4.61922436,5.83019312 4.46523706,5.68787036 4.24642383,5.68787036 C4.02761059,5.68787036 3.87362329,5.83019312 3.87362329,6.04350952 C3.87362329,6.26299365 4.02761059,6.40531641 4.24642383,6.40531641 Z" id="Shape" fill-rule="nonzero"></path>
                <path d="M6.48257886,11.2168513 C7.41488891,11.2168513 8.00670849,10.7543481 8.00670849,10.1926963 C8.00670849,9.69620581 7.64872119,9.48054126 6.95731457,9.48054126 L6.41171484,9.48054126 C6.03770215,9.48054126 5.91770215,9.36469629 5.91770215,9.18952222 C5.91770215,9.04384497 5.98521167,8.95850317 6.08221802,8.87674841 C6.21421802,8.93450317 6.36539209,8.96500635 6.49839844,8.96500635 C7.10872119,8.96500635 7.59321167,8.59682593 7.59321167,7.96250317 C7.59321167,7.72806482 7.50428283,7.55496826 7.379354,7.43429736 L7.379354,7.41029736 L7.95870849,7.41029736 L7.95870849,6.96234814 L6.92288891,6.96234814 C6.80972754,6.92051587 6.66023071,6.89034814 6.49839844,6.89034814 C5.89390796,6.89034814 5.36859155,7.28152222 5.36859155,7.93917407 C5.36859155,8.28717407 5.55442383,8.5693418 5.75192065,8.71950952 L5.75192065,8.74350952 C5.59109472,8.8566709 5.4282561,9.05416772 5.4282561,9.28900635 C5.4282561,9.52250317 5.54208838,9.67850317 5.69192065,9.77416772 L5.69192065,9.79816772 C5.42208838,9.96683862 5.26575293,10.1929288 5.26575293,10.4420127 C5.26575293,10.9511741 5.77390796,11.2168513 6.48257886,11.2168513 Z M6.49839844,8.58121216 C6.18921167,8.58121216 5.93385718,8.33819312 5.93385718,7.93917407 C5.93385718,7.53981958 6.18304394,7.30913599 6.49839844,7.30913599 C6.81375293,7.30913599 7.0629397,7.53981958 7.0629397,7.93917407 C7.0629397,8.33819312 6.8075852,8.58121216 6.49839844,8.58121216 Z M6.57039844,10.8213926 C6.07437304,10.8213926 5.7726958,10.6448767 5.7726958,10.3541931 C5.7726958,10.2023481 5.85186987,10.0498323 6.03488891,9.91615503 C6.15589526,9.94632275 6.28856616,9.95832275 6.42371484,9.95832275 L6.87666907,9.95832275 C7.23643652,9.95832275 7.42977832,10.0378323 7.42977832,10.2863481 C7.42977832,10.5653672 7.08526245,10.8213926 6.57039844,10.8213926 Z" id="Shape" fill-rule="nonzero"></path>
                <path d="M8.54939209,9.89450317 L9.14348364,9.89450317 L9.14348364,7.80931641 C9.41050268,7.54196191 9.5986831,7.40245239 9.87703125,7.40245239 C10.2290566,7.40245239 10.3805662,7.60947144 10.3805662,8.12299365 L10.3805662,9.89450317 L10.9746577,9.89450317 L10.9746577,8.04650317 C10.9746577,7.30250317 10.6986577,6.89034814 10.0756641,6.89034814 C9.67383179,6.89034814 9.37966406,7.10668359 9.12015454,7.35452856 L9.14348364,6.77068359 L9.14348364,5.63832275 L8.54939209,5.63832275 L8.54939209,9.89450317 Z" id="Path" fill-rule="nonzero"></path>
                <path d="M14.228335,9.96650317 C15.0893159,9.96650317 15.6043096,9.45251587 15.6043096,8.82335449 C15.6043096,8.24634814 15.2728,7.96585767 14.8022194,7.76768994 L14.2572905,7.53543201 C13.9402969,7.40359973 13.6196133,7.27592249 13.6196133,6.93264551 C13.6196133,6.61370398 13.8866323,6.4157688 14.2928254,6.4157688 C14.6164252,6.4157688 14.9081799,6.54877515 15.1598445,6.75961377 L15.4778064,6.3713291 C15.1885675,6.08741931 14.7669932,5.89166455 14.2928254,5.89166455 C13.5456768,5.89166455 13.0135217,6.35440027 13.0135217,6.96797461 C13.0135217,7.53814233 13.4257797,7.83354895 13.8087733,7.99829736 L14.3595344,8.23638757 C14.7234569,8.39305847 14.9923857,8.50856799 14.9923857,8.87034814 C14.9923857,9.21396057 14.7185281,9.44239893 14.2399995,9.44239893 C13.8416514,9.44239893 13.4418966,9.27614099 13.1628127,8.99571533 L12.8325154,9.384 C13.1908381,9.7553291 13.6753286,9.96650317 14.228335,9.96650317 Z" id="Path" fill-rule="nonzero"></path>
                <path d="M16.292335,9.89450317 L16.8864265,9.89450317 L16.8864265,6.96234814 L16.292335,6.96234814 L16.292335,9.89450317 Z M16.5862969,6.40531641 C16.8051101,6.40531641 16.9590974,6.26299365 16.9590974,6.04350952 C16.9590974,5.83019312 16.8051101,5.68787036 16.5862969,5.68787036 C16.3674836,5.68787036 16.2134963,5.83019312 16.2134963,6.04350952 C16.2134963,6.26299365 16.3674836,6.40531641 16.5862969,6.40531641 Z" id="Shape" fill-rule="nonzero"></path>
                <path d="M19.0419383,9.96650317 C19.4253341,9.96650317 19.7625426,9.84422397 20.0271468,9.66134061 L19.8167758,9.27659848 C19.6127758,9.41087769 19.3779382,9.487436 19.1122633,9.487436 C18.6209365,9.487436 18.1981219,9.1441322 18.1981219,8.4253407 C18.1981219,7.63454919 18.5923092,7.36552451 18.9602173,7.36552451 C19.3835671,7.36552451 19.6074751,7.65231601 19.6074751,8.14296954 L18.043797,8.14296954 L18.043797,8.60259512 L20.1059843,8.60259512 C20.127705,8.50143265 20.1374258,8.3928284 20.1374258,8.27450336 C20.1374258,7.45166583 19.7271466,6.89131778 18.9504965,6.89131778 C18.2658922,6.89131778 17.6075672,7.47217813 17.6075672,8.42761981 C17.6075672,9.40250317 18.2344505,9.96650317 19.0419381,9.96650317 L19.0419383,9.96650317 Z" id="Path" fill-rule="nonzero"></path>
                <path d="M20.8257524,9.89450317 L21.419844,9.89450317 L21.419844,8.05997461 C21.6070181,7.58929102 21.895689,7.42028467 22.1363599,7.42028467 C22.2560244,7.42028467 22.3218567,7.43228467 22.4113535,7.45628467 L22.5355085,6.95034814 C22.4453408,6.90818042 22.3525924,6.89034814 22.2128503,6.89034814 C21.8849279,6.89034814 21.5797665,7.11352222 21.3793535,7.49068359 L21.3615212,7.49068359 L21.3141921,6.96234814 L20.8257524,6.96234814 L20.8257524,9.89450317 Z" id="Path" fill-rule="nonzero"></path>
                <path d="M22.9883599,9.89450317 L23.5824514,9.89450317 L23.5824514,8.05997461 C23.7696255,7.58929102 24.0582964,7.42028467 24.2989673,7.42028467 C24.4186318,7.42028467 24.4844641,7.43228467 24.5739609,7.45628467 L24.698116,6.95034814 C24.6079482,6.90818042 24.5151998,6.89034814 24.3754578,6.89034814 C24.0475353,6.89034814 23.7423739,7.11352222 23.5419609,7.49068359 L23.5241287,7.49068359 L23.4767996,6.96234814 L22.9883599,6.96234814 L22.9883599,9.89450317 Z" id="Path" fill-rule="nonzero"></path>
                <path d="M25.6954567,9.96650317 C26.0502942,9.96650317 26.3519691,9.78938654 26.6325275,9.55910733 L26.6542483,9.55910733 L26.6976899,9.89450308 L27.1890594,9.89450308 L27.1890594,8.13171158 C27.1890594,7.3515737 26.8538279,6.8913175 26.1332237,6.8913175 C25.6652237,6.8913175 25.249782,7.0755737 24.9531318,7.26817795 L25.1755029,7.67236185 C25.4235488,7.52092017 25.7132238,7.38496609 26.0240153,7.38496609 C26.4587607,7.38496609 26.5884815,7.68710733 26.5959232,8.01901538 C25.3679691,8.15329459 24.8285734,8.46301538 24.8285734,9.11959662 C24.8285734,9.64129449 25.1931317,9.96650317 25.6954568,9.96650317 L25.6954567,9.96650317 Z M25.8727113,9.47771484 C25.6121989,9.47771484 25.4094074,9.36803989 25.4094074,9.07957352 C25.4094074,8.74310715 25.7053154,8.54259476 26.595923,8.43747812 L26.595923,9.14124829 C26.348015,9.36803979 26.1332235,9.47771484 25.8727111,9.47771484 L25.8727113,9.47771484 Z" id="Shape" fill-rule="nonzero"></path>
            </g>
            <g id="10.12-Sierra" stroke-width="1" fill-rule="evenodd" transform="translate(55.3002, 182.4196) rotate(90) translate(-55.3002, -182.4196)translate(48.1219, 177.4364)" fill="color(display-p3 0.498 0.573 0.514)">
                <path d="M0.216335449,3.89450317 L2.44611694,3.89450317 L2.44611694,3.40572803 L1.6757688,3.40572803 L1.6757688,0.072 L1.22815503,0.072 C1.00183228,0.208825928 0.744335449,0.304490479 0.38018042,0.369987305 L0.38018042,0.746942871 L1.08167725,0.746942871 L1.08167725,3.40572803 L0.216335449,3.40572803 L0.216335449,3.89450317 Z" id="Path" fill-rule="nonzero"></path>
                <path d="M4.30410425,3.96650317 C5.082427,3.96650317 5.56591113,3.25491614 5.56591113,1.96833545 C5.56591113,0.684670898 5.082427,0 4.30410425,0 C3.52578149,0 3.04229736,0.681754761 3.04229736,1.96833545 C3.04229736,3.25491614 3.52578149,3.96650317 4.30410425,3.96650317 Z M4.30410425,3.49522485 C3.89757568,3.49522485 3.61339526,3.06885132 3.61339526,1.96833545 C3.61339526,0.86781958 3.89757568,0.47127832 4.30410425,0.47127832 C4.71063281,0.47127832 4.99481323,0.86781958 4.99481323,1.96833545 C4.99481323,3.06885132 4.71063281,3.49522485 4.30410425,3.49522485 Z" id="Shape" fill-rule="nonzero"></path>
                <path d="M6.60655664,3.96650317 C6.83120215,3.96650317 7.00918945,3.78918677 7.00918945,3.54603809 C7.00918945,3.29672168 6.83120215,3.11940527 6.60655664,3.11940527 C6.38191113,3.11940527 6.20392383,3.29672168 6.20392383,3.54603809 C6.20392383,3.78918677 6.38191113,3.96650317 6.60655664,3.96650317 Z" id="Path" fill-rule="nonzero"></path>
                <path d="M7.8515376,3.89450317 L10.0813191,3.89450317 L10.0813191,3.40572803 L9.31097095,3.40572803 L9.31097095,0.072 L8.86335718,0.072 C8.63703442,0.208825928 8.3795376,0.304490479 8.01538257,0.369987305 L8.01538257,0.746942871 L8.71687939,0.746942871 L8.71687939,3.40572803 L7.8515376,3.40572803 L7.8515376,3.89450317 Z" id="Path" fill-rule="nonzero"></path>
                <path d="M10.6586609,3.89450317 L13.1842874,3.89450317 L13.1842874,3.3882312 L12.1130625,3.3882312 C11.9203916,3.3882312 11.6752302,3.40606348 11.4708948,3.42389575 C12.3367778,2.54500635 12.9981196,1.87099365 12.9981196,1.14348413 C12.9981196,0.454993652 12.5383,0 11.8196418,0 C11.3169836,0 10.9693191,0.228670898 10.6408286,0.598993652 L10.9652937,0.917291016 C11.1761323,0.67561377 11.4359773,0.477110596 11.7434868,0.477110596 C12.1921831,0.477110596 12.4211895,0.759381226 12.4211895,1.17847778 C12.4211895,1.77499365 11.7563635,2.47783228 10.6586609,3.52988306 L10.6586609,3.89450317 Z" id="Path" fill-rule="nonzero"></path>
                <path d="M1.39581958,9.96650317 C2.25680054,9.96650317 2.77179419,9.45251587 2.77179419,8.82335449 C2.77179419,8.24634814 2.44028467,7.96585767 1.96970398,7.76768994 L1.42477515,7.53543201 C1.10778149,7.40359973 0.7870979,7.27592249 0.7870979,6.93264551 C0.7870979,6.61370398 1.05411694,6.4157688 1.46031006,6.4157688 C1.78390979,6.4157688 2.07566455,6.54877515 2.3273291,6.75961377 L2.64529102,6.3713291 C2.35605212,6.08741931 1.93447778,5.89166455 1.46031006,5.89166455 C0.713161377,5.89166455 0.181006348,6.35440027 0.181006348,6.96797461 C0.181006348,7.53814233 0.593264282,7.83354895 0.976257935,7.99829736 L1.52701904,8.23638757 C1.89094153,8.39305847 2.15987036,8.50856799 2.15987036,8.87034814 C2.15987036,9.21396057 1.8860127,9.44239893 1.40748413,9.44239893 C1.00913599,9.44239893 0.609381226,9.27614099 0.330297363,8.99571533 L0,9.384 C0.358322754,9.7553291 0.842813232,9.96650317 1.39581958,9.96650317 Z" id="Path" fill-rule="nonzero"></path>
                <path d="M3.45981958,9.89450317 L4.05391113,9.89450317 L4.05391113,6.96234814 L3.45981958,6.96234814 L3.45981958,9.89450317 Z M3.75378149,6.40531641 C3.97259473,6.40531641 4.12658203,6.26299365 4.12658203,6.04350952 C4.12658203,5.83019312 3.97259473,5.68787036 3.75378149,5.68787036 C3.53496826,5.68787036 3.38098096,5.83019312 3.38098096,6.04350952 C3.38098096,6.26299365 3.53496826,6.40531641 3.75378149,6.40531641 Z" id="Shape" fill-rule="nonzero"></path>
                <path d="M6.20942294,9.96650317 C6.5928187,9.96650317 6.93002719,9.84422397 7.19463144,9.66134061 L6.98426038,9.27659848 C6.78026038,9.41087769 6.54542285,9.487436 6.27974789,9.487436 C5.78842108,9.487436 5.36560657,9.1441322 5.36560657,8.4253407 C5.36560657,7.63454919 5.75979382,7.36552451 6.12770187,7.36552451 C6.5510517,7.36552451 6.77495975,7.65231601 6.77495975,8.14296954 L5.21128162,8.14296954 L5.21128162,8.60259512 L7.27346887,8.60259512 C7.29518967,8.50143265 7.30491046,8.3928284 7.30491046,8.27450336 C7.30491046,7.45166583 6.89463126,6.89131778 6.11798108,6.89131778 C5.43337683,6.89131778 4.77505179,7.47217813 4.77505179,8.42761981 C4.77505179,9.40250317 5.40193515,9.96650317 6.20942276,9.96650317 L6.20942294,9.96650317 Z" id="Path" fill-rule="nonzero"></path>
                <path d="M7.99323706,9.89450317 L8.58732861,9.89450317 L8.58732861,8.05997461 C8.77450268,7.58929102 9.06317358,7.42028467 9.30384448,7.42028467 C9.42350903,7.42028467 9.48934131,7.43228467 9.57883813,7.45628467 L9.70299316,6.95034814 C9.61282544,6.90818042 9.52007702,6.89034814 9.38033496,6.89034814 C9.05241247,6.89034814 8.7472511,7.11352222 8.54683813,7.49068359 L8.52900586,7.49068359 L8.48167676,6.96234814 L7.99323706,6.96234814 L7.99323706,9.89450317 Z" id="Path" fill-rule="nonzero"></path>
                <path d="M10.1558445,9.89450317 L10.749936,9.89450317 L10.749936,8.05997461 C10.9371101,7.58929102 11.225781,7.42028467 11.4664519,7.42028467 C11.5861165,7.42028467 11.6519487,7.43228467 11.7414456,7.45628467 L11.8656006,6.95034814 C11.7754329,6.90818042 11.6826844,6.89034814 11.5429424,6.89034814 C11.2150199,6.89034814 10.9098585,7.11352222 10.7094456,7.49068359 L10.6916133,7.49068359 L10.6442842,6.96234814 L10.1558445,6.96234814 L10.1558445,9.89450317 Z" id="Path" fill-rule="nonzero"></path>
                <path d="M12.8629413,9.96650317 C13.2177788,9.96650317 13.5194538,9.78938654 13.8000121,9.55910733 L13.8217329,9.55910733 L13.8651746,9.89450308 L14.356544,9.89450308 L14.356544,8.13171158 C14.356544,7.3515737 14.0213125,6.8913175 13.3007083,6.8913175 C12.8327083,6.8913175 12.4172666,7.0755737 12.1206164,7.26817795 L12.3429875,7.67236185 C12.5910334,7.52092017 12.8807084,7.38496609 13.1914999,7.38496609 C13.6262454,7.38496609 13.7559662,7.68710733 13.7634078,8.01901538 C12.5354538,8.15329459 11.996058,8.46301538 11.996058,9.11959662 C11.996058,9.64129449 12.3606163,9.96650317 12.8629414,9.96650317 L12.8629413,9.96650317 Z M13.0401959,9.47771484 C12.7796835,9.47771484 12.576892,9.36803989 12.576892,9.07957352 C12.576892,8.74310715 12.8728,8.54259476 13.7634077,8.43747812 L13.7634077,9.14124829 C13.5154996,9.36803979 13.3007081,9.47771484 13.0401957,9.47771484 L13.0401959,9.47771484 Z" id="Shape" fill-rule="nonzero"></path>
            </g>
            <g id="10.11-El-Capitan" stroke-width="1" fill-rule="evenodd" transform="translate(28.8362, 187.9684) rotate(90) translate(-28.8362, -187.9684)translate(16.4244, 182.4222)" fill="color(display-p3 0.498 0.573 0.514)">
                <path d="M0,3.89450317 L2.22978149,3.89450317 L2.22978149,3.40572803 L1.45943335,3.40572803 L1.45943335,0.072 L1.01181958,0.072 C0.785496826,0.208825928 0.528,0.304490479 0.163844971,0.369987305 L0.163844971,0.746942871 L0.865341797,0.746942871 L0.865341797,3.40572803 L0,3.40572803 L0,3.89450317 Z" id="Path" fill-rule="nonzero"></path>
                <path d="M4.0877688,3.96650317 C4.86609155,3.96650317 5.34957568,3.25491614 5.34957568,1.96833545 C5.34957568,0.684670898 4.86609155,0 4.0877688,0 C3.30944604,0 2.82596191,0.681754761 2.82596191,1.96833545 C2.82596191,3.25491614 3.30944604,3.96650317 4.0877688,3.96650317 Z M4.0877688,3.49522485 C3.68124023,3.49522485 3.39705981,3.06885132 3.39705981,1.96833545 C3.39705981,0.86781958 3.68124023,0.47127832 4.0877688,0.47127832 C4.49429736,0.47127832 4.77847778,0.86781958 4.77847778,1.96833545 C4.77847778,3.06885132 4.49429736,3.49522485 4.0877688,3.49522485 Z" id="Shape" fill-rule="nonzero"></path>
                <path d="M6.39022119,3.96650317 C6.6148667,3.96650317 6.792854,3.78918677 6.792854,3.54603809 C6.792854,3.29672168 6.6148667,3.11940527 6.39022119,3.11940527 C6.16557568,3.11940527 5.98758838,3.29672168 5.98758838,3.54603809 C5.98758838,3.78918677 6.16557568,3.96650317 6.39022119,3.96650317 Z" id="Path" fill-rule="nonzero"></path>
                <path d="M7.63520215,3.89450317 L9.86498364,3.89450317 L9.86498364,3.40572803 L9.0946355,3.40572803 L9.0946355,0.072 L8.64702173,0.072 C8.42069897,0.208825928 8.16320215,0.304490479 7.79904712,0.369987305 L7.79904712,0.746942871 L8.50054395,0.746942871 L8.50054395,3.40572803 L7.63520215,3.40572803 L7.63520215,3.89450317 Z" id="Path" fill-rule="nonzero"></path>
                <path d="M10.6654995,3.89450317 L12.895281,3.89450317 L12.895281,3.40572803 L12.1249329,3.40572803 L12.1249329,0.072 L11.6773191,0.072 C11.4509963,0.208825928 11.1934995,0.304490479 10.8293445,0.369987305 L10.8293445,0.746942871 L11.5308413,0.746942871 L11.5308413,3.40572803 L10.6654995,3.40572803 L10.6654995,3.89450317 Z" id="Path" fill-rule="nonzero"></path>
                <polygon id="Path" fill-rule="nonzero" points="0.0606708984 9.89450317 2.43713599 9.89450317 2.43713599 9.3882312 0.660930176 9.3882312 0.660930176 8.09396191 2.11179419 8.09396191 2.11179419 7.58768994 0.660930176 7.58768994 0.660930176 6.46993652 2.37713599 6.46993652 2.37713599 5.96366455 0.0606708984 5.96366455"></polygon>
                <path d="M3.79974252,9.95222424 C3.94236978,9.95222424 4.04869482,9.93050317 4.1258573,9.89678238 L4.04611349,9.45143591 C3.99811349,9.46343591 3.97411349,9.46343591 3.94525314,9.46343591 C3.86611349,9.46343591 3.79381137,9.41057556 3.79381137,9.24455264 L3.79381137,5.64027017 L3.20067508,5.64027017 L3.20067508,9.20855264 C3.20067508,9.67896973 3.36700012,9.95222424 3.79974225,9.95222424 L3.79974252,9.95222424 Z" id="Path" fill-rule="nonzero"></path>
                <path d="M7.57123022,9.96650336 C8.07006774,9.96650336 8.45467199,9.76994485 8.77411367,9.40250317 L8.46569659,9.04776105 C8.23374251,9.29627344 7.96434676,9.44141309 7.61239269,9.44141309 C6.89450756,9.44141309 6.43485561,8.8626676 6.43485561,7.92194504 C6.43485561,6.9958038 6.91880968,6.4167561 7.60236968,6.4167561 C7.91862588,6.4167561 8.16744039,6.53873318 8.3737196,6.75184982 L8.69785747,6.38396805 C8.45983456,6.11738681 8.07067208,5.89166602 7.58778872,5.89166602 C6.59436996,5.89166602 5.81771978,6.65936389 5.81771978,7.93652637 C5.81771978,9.22827017 6.57978872,9.96650336 7.5712304,9.96650336 L7.57123022,9.96650336 Z" id="Path" fill-rule="nonzero"></path>
                <path d="M10.1146261,9.96650317 C10.4694636,9.96650317 10.7711386,9.78938654 11.0516969,9.55910733 L11.0734177,9.55910733 L11.1168594,9.89450308 L11.6082289,9.89450308 L11.6082289,8.13171158 C11.6082289,7.3515737 11.2729974,6.8913175 10.5523931,6.8913175 C10.0843931,6.8913175 9.66895143,7.0755737 9.37230125,7.26817795 L9.59467232,7.67236185 C9.84271824,7.52092017 10.1323932,7.38496609 10.4431847,7.38496609 C10.8779302,7.38496609 11.007651,7.68710733 11.0150927,8.01901538 C9.78713859,8.15329459 9.24774284,8.46301538 9.24774284,9.11959662 C9.24774284,9.64129449 9.61230116,9.96650317 10.1146262,9.96650317 L10.1146261,9.96650317 Z M10.2918807,9.47771484 C10.0313683,9.47771484 9.82857683,9.36803989 9.82857683,9.07957352 C9.82857683,8.74310715 10.1244849,8.54259476 11.0150925,8.43747812 L11.0150925,9.14124829 C10.7671844,9.36803979 10.5523929,9.47771484 10.2918805,9.47771484 L10.2918807,9.47771484 Z" id="Shape" fill-rule="nonzero"></path>
                <path d="M12.4827882,11.0923608 L13.0768797,11.0923608 L13.0768797,10.1348386 L13.0593829,9.63566455 C13.3130601,9.84616772 13.5780665,9.96650317 13.8424019,9.96650317 C14.5030728,9.96650317 15.1027374,9.3846709 15.1027374,8.38350952 C15.1027374,7.4780127 14.6899115,6.89034814 13.9449051,6.89034814 C13.6140665,6.89034814 13.2923117,7.07135449 13.0363892,7.28768994 L13.018557,7.28768994 L12.9712279,6.96234814 L12.4827882,6.96234814 L12.4827882,11.0923608 Z M13.7260919,9.47189575 C13.5447501,9.47189575 13.3140665,9.3988894 13.0768797,9.19837354 L13.0768797,7.74898096 C13.3322342,7.50663281 13.5570855,7.38495557 13.7870982,7.38495557 C14.2851363,7.38495557 14.4908136,7.7739873 14.4908136,8.3893418 C14.4908136,9.08252856 14.1634591,9.47189575 13.7260919,9.47189575 Z" id="Shape" fill-rule="nonzero"></path>
                <path d="M15.8394337,9.89450317 L16.4335252,9.89450317 L16.4335252,6.96234814 L15.8394337,6.96234814 L15.8394337,9.89450317 Z M16.1333956,6.40531641 C16.3522088,6.40531641 16.5061961,6.26299365 16.5061961,6.04350952 C16.5061961,5.83019312 16.3522088,5.68787036 16.1333956,5.68787036 C15.9145824,5.68787036 15.7605951,5.83019312 15.7605951,6.04350952 C15.7605951,6.26299365 15.9145824,6.40531641 16.1333956,6.40531641 Z" id="Shape" fill-rule="nonzero"></path>
                <path d="M18.342804,9.95222397 C18.5622916,9.95222397 18.7643145,9.89936362 18.9203145,9.82508441 L18.8045707,9.40631927 C18.699454,9.45887759 18.5891748,9.4731568 18.4860352,9.4731568 C18.177825,9.4731568 18.0549416,9.28692361 18.0549416,8.9343653 L18.0549416,7.4375246 L18.8243144,7.4375246 L18.8243144,6.96331769 L18.0549416,6.96331769 L18.0549416,6.03248016 L17.5587118,6.03248016 L17.4861076,6.96331769 L17.0301076,6.99217804 L17.0301076,7.43752451 L17.4569451,7.43752451 L17.4569451,8.92980698 C17.4569451,9.53845715 17.6884327,9.95222397 18.3428038,9.95222397 L18.342804,9.95222397 Z" id="Path" fill-rule="nonzero"></path>
                <path d="M20.030147,9.96650317 C20.3849845,9.96650317 20.6866595,9.78938654 20.9672178,9.55910733 L20.9889386,9.55910733 L21.0323803,9.89450308 L21.5237498,9.89450308 L21.5237498,8.13171158 C21.5237498,7.3515737 21.1885183,6.8913175 20.467914,6.8913175 C19.999914,6.8913175 19.5844723,7.0755737 19.2878221,7.26817795 L19.5101932,7.67236185 C19.7582391,7.52092017 20.0479141,7.38496609 20.3587056,7.38496609 C20.7934511,7.38496609 20.9231719,7.68710733 20.9306136,8.01901538 C19.7026595,8.15329459 19.1632637,8.46301538 19.1632637,9.11959662 C19.1632637,9.64129449 19.5278221,9.96650317 20.0301471,9.96650317 L20.030147,9.96650317 Z M20.2074016,9.47771484 C19.9468892,9.47771484 19.7440977,9.36803989 19.7440977,9.07957352 C19.7440977,8.74310715 20.0400058,8.54259476 20.9306134,8.43747812 L20.9306134,9.14124829 C20.6827053,9.36803979 20.4679138,9.47771484 20.2074014,9.47771484 L20.2074016,9.47771484 Z" id="Shape" fill-rule="nonzero"></path>
                <path d="M22.3983091,9.89450317 L22.9924006,9.89450317 L22.9924006,7.80931641 C23.2594197,7.54196191 23.4476001,7.40245239 23.7259482,7.40245239 C24.0779736,7.40245239 24.2294831,7.60947144 24.2294831,8.12299365 L24.2294831,9.89450317 L24.8235747,9.89450317 L24.8235747,8.04650317 C24.8235747,7.30250317 24.5475747,6.89034814 23.924581,6.89034814 C23.5227488,6.89034814 23.2227488,7.10668359 22.9519101,7.37168994 L22.9340779,7.37168994 L22.8867488,6.96234814 L22.3983091,6.96234814 L22.3983091,9.89450317 Z" id="Path" fill-rule="nonzero"></path>
            </g>
            <line x1="14" y1="15" x2="14" y2="168" id="Path" stroke="color(display-p3 0.498 0.573 0.514)" stroke-width="0.8" stroke-linecap="square"></line>
            <line x1="133" y1="49" x2="133" y2="287" id="Path" stroke="color(display-p3 0.498 0.573 0.514)" stroke-width="0.8" stroke-linecap="square" transform="translate(133, 168) rotate(-90) translate(-133, -168)"></line>
            <polygon id="Path" fill="color(display-p3 0.498 0.573 0.514)" fill-rule="evenodd" transform="translate(14, 16) rotate(-90) translate(-14, -16)" points="16 16 12 12 12 20"></polygon>
        </g>
    </g>
</svg>