<?xml version="1.0" encoding="UTF-8"?>
<svg width="16px" height="16px" viewBox="0 0 16 16" version="1.1" xmlns="http://www.w3.org/2000/svg" xmlns:xlink="http://www.w3.org/1999/xlink">
    <title>arrow</title>
    <g id="arrow" stroke="none" fill="none" fill-rule="nonzero">
        <path d="M4.53,4.75 L4.53,4.75 C4.53,4.33 4.86,4 5.28,4 L11.29,4 L11.29,4 C11.7,4 12.04,4.33 12.04,4.75 L12.04,10.76 L12.04,10.76 C12.04,11.17 11.7,11.51 11.29,11.51 C10.87,11.51 10.54,11.17 10.54,10.76 L10.54,6.56 L5.28,11.821 L5.28,11.821 C4.99,12.121 4.52,12.141 4.22,11.851 C4.11,11.751 4.03,11.621 4,11.481 L4,11.481 C3.93,11.211 4.01,10.931 4.21,10.741 L9.47,5.471 L5.27,5.471 L5.27,5.471 C4.85,5.471 4.52,5.131 4.52,4.721 L4.53,4.75 Z" id="Path" fill="#FF4B14"></path>
    </g>
</svg>