<?xml version="1.0" encoding="UTF-8"?>
<svg width="16px" height="16px" viewBox="0 0 16 16" version="1.1" xmlns="http://www.w3.org/2000/svg" xmlns:xlink="http://www.w3.org/1999/xlink">
    <title>book</title>
    <g id="book" stroke="none" fill="none" fill-rule="nonzero">
        <path d="M3,2.75 C3,1.784 3.784,1 4.75,1 L11.25,1 C12.216,1 13,1.784 13,2.75 L13,14.25 C13,14.5403187 12.8326211,14.8046136 12.5700664,14.9285086 C12.3075117,15.0524036 11.9970358,15.0136427 11.773,14.829 L8,11.722 L4.227,14.829 C4.00273685,15.0127722 3.69271826,15.0510329 3.43050451,14.9272987 C3.16829075,14.8035646 3.00072621,14.5399408 3,14.25 L3,2.75 Z M4.75,2.5 C4.61192881,2.5 4.5,2.61192881 4.5,2.75 L4.5,12.66 L7.523,10.171 C7.80002053,9.94268906 8.19997947,9.94268906 8.477,10.171 L11.5,12.661 L11.5,2.75 C11.5,2.61192881 11.3880712,2.5 11.25,2.5 L4.75,2.5 Z" id="Shape" fill="color(display-p3 1.000 0.294 0.078)"></path>
    </g>
</svg>