<?xml version="1.0" encoding="UTF-8"?>
<svg width="24px" height="24px" viewBox="0 0 24 24" version="1.1" xmlns="http://www.w3.org/2000/svg" xmlns:xlink="http://www.w3.org/1999/xlink">
    <title>hashtag</title>
    <g id="hashtag" stroke="none" fill="none" fill-rule="nonzero">
        <path d="M9.618,1.76 C9.8145665,1.79121162 9.99066643,1.89927463 10.1075177,2.06039056 C10.2243689,2.22150648 10.2723881,2.4224616 10.241,2.619 L9.46,7.5 L15.94,7.5 L16.76,2.382 C16.8391775,1.98703921 17.2162081,1.7251601 17.6139595,1.78885407 C18.0117109,1.85254805 18.2881133,2.21906473 18.24,2.619 L17.46,7.5 L21.25,7.5 C21.6642136,7.5 22,7.83578644 22,8.25 C22,8.66421356 21.6642136,9 21.25,9 L17.22,9 L16.26,15 L20.25,15 C20.6642136,15 21,15.3357864 21,15.75 C21,16.1642136 20.6642136,16.5 20.25,16.5 L16.02,16.5 L15.24,21.369 C15.1608225,21.7639608 14.7837919,22.0258399 14.3860405,21.9621459 C13.9882891,21.898452 13.7118867,21.5319353 13.76,21.132 L14.5,16.5 L8.02,16.5 L7.24,21.369 C7.16082248,21.7639608 6.78379189,22.0258399 6.38604048,21.9621459 C5.98828907,21.898452 5.71188673,21.5319353 5.76,21.132 L6.5,16.5 L2.745,16.5 C2.33078644,16.5 1.995,16.1642136 1.995,15.75 C1.995,15.3357864 2.33078644,15 2.745,15 L6.74,15 L7.7,9 L3.75,9 C3.33578644,9 3,8.66421356 3,8.25 C3,7.83578644 3.33578644,7.5 3.75,7.5 L7.94,7.5 L8.76,2.382 C8.82550061,1.9735127 9.20939967,1.69520826 9.618,1.76 Z M14.741,15 L15.701,9 L9.22,9 L8.26,15 L14.741,15 Z" id="Shape" fill="#FF4B14"></path>
    </g>
</svg>