<?xml version="1.0" encoding="UTF-8"?>
<svg width="16px" height="16px" viewBox="0 0 16 16" version="1.1" xmlns="http://www.w3.org/2000/svg" xmlns:xlink="http://www.w3.org/1999/xlink">
    <title>link</title>
    <g id="link" stroke="none" fill="none" fill-opacity="0.4" fill-rule="nonzero">
        <path d="M9.02,2.02 C10.38,0.649 12.6,0.649 13.97,2.019 C15.33,3.379 15.33,5.599 13.969,6.969 L11.469,9.469 C10.099,10.829 7.879,10.829 6.519,9.469 C6.509,9.459 6.509,9.459 6.509,9.459 C6.229,9.159 6.239,8.699 6.519,8.409 C6.799,8.119 7.259,8.109 7.559,8.389 C8.329,9.169 9.599,9.169 10.379,8.389 C10.379,8.379 10.379,8.379 10.379,8.379 L12.879,5.879 C13.629,5.069 13.599,3.799 12.789,3.049 C12.009,2.319 10.809,2.319 10.039,3.048 L8.789,4.298 L8.789,4.29 C8.489,4.56 8.029,4.55 7.739,4.27 C7.449,3.98 7.439,3.52 7.719,3.22 L9.02,2.02 Z M3.08,12.91 L3.08,12.91 C3.85,13.69 5.12,13.69 5.9,12.91 C5.9,12.9 5.9,12.9 5.9,12.9 L7.15,11.65 L7.15,11.65 C7.44,11.37 7.9,11.38 8.19,11.66 L8.19,11.66 C8.47,11.94 8.48,12.4 8.2,12.7 L6.95,13.95 L6.95,13.95 C5.58,15.31 3.36,15.31 2,13.95 C0.63,12.58 0.63,10.36 1.99,9 L4.49,6.5 L4.49,6.5 C5.85,5.13 8.07,5.13 9.43,6.49 C9.43,6.49 9.43,6.49 9.43,6.49 L9.43,6.49 C9.7,6.78 9.69,7.24 9.41,7.53 L9.41,7.53 C9.12,7.81 8.66,7.82 8.36,7.54 L8.36,7.54 C7.58,6.75 6.31,6.75 5.53,7.53 C5.52,7.53 5.52,7.53 5.52,7.53 L3.02,10.03 L3.02,10.03 C2.23,10.8 2.23,12.07 3.01,12.85 C3.01,12.85 3.01,12.85 3.01,12.85 L3.08,12.91 Z" id="Shape" fill="#353D37"></path>
    </g>
</svg>