<svg width="392" height="8" viewBox="0 0 392 8" fill="none" xmlns="http://www.w3.org/2000/svg">
<path d="M1 7L4 4C4.81787 3.18213 5.22681 2.77319 5.66795 2.55458C6.50728 2.13866 7.49272 2.13866 8.33205 2.55458C8.77319 2.77319 9.18213 3.18213 10 4V4C10.8179 4.81787 11.2268 5.22681 11.668 5.44542C12.5073 5.86134 13.4927 5.86134 14.332 5.44542C14.7732 5.22681 15.1821 4.81787 16 4V4C16.8179 3.18213 17.2268 2.77319 17.668 2.55458C18.5073 2.13866 19.4927 2.13866 20.332 2.55458C20.7732 2.77319 21.1821 3.18213 22 4V4C22.8179 4.81787 23.2268 5.22681 23.668 5.44542C24.5073 5.86134 25.4927 5.86134 26.332 5.44542C26.7732 5.22681 27.1821 4.81787 28 4V4C28.8179 3.18213 29.2268 2.77319 29.668 2.55458C30.5073 2.13866 31.4927 2.13866 32.332 2.55458C32.7732 2.77319 33.1821 3.18213 34 4V4C34.8179 4.81787 35.2268 5.22681 35.668 5.44542C36.5073 5.86134 37.4927 5.86134 38.332 5.44542C38.7732 5.22681 39.1821 4.81787 40 4V4C40.8179 3.18213 41.2268 2.77319 41.668 2.55458C42.5073 2.13866 43.4927 2.13866 44.332 2.55458C44.7732 2.77319 45.1821 3.18213 46 4V4C46.8179 4.81787 47.2268 5.22681 47.668 5.44542C48.5073 5.86134 49.4927 5.86134 50.332 5.44542C50.7732 5.22681 51.1821 4.81787 52 4V4C52.8179 3.18213 53.2268 2.77319 53.668 2.55458C54.5073 2.13866 55.4927 2.13866 56.332 2.55458C56.7732 2.77319 57.1821 3.18213 58 4V4C58.8179 4.81787 59.2268 5.22681 59.668 5.44542C60.5073 5.86134 61.4927 5.86134 62.332 5.44542C62.7732 5.22681 63.1821 4.81787 64 4V4C64.8179 3.18213 65.2268 2.77319 65.668 2.55458C66.5073 2.13866 67.4927 2.13866 68.332 2.55458C68.7732 2.77319 69.1821 3.18213 70 4V4C70.8179 4.81787 71.2268 5.22681 71.668 5.44542C72.5073 5.86134 73.4927 5.86134 74.332 5.44542C74.7732 5.22681 75.1821 4.81787 76 4V4C76.8179 3.18213 77.2268 2.77319 77.668 2.55458C78.5073 2.13866 79.4927 2.13866 80.332 2.55458C80.7732 2.77319 81.1821 3.18213 82 4V4C82.8179 4.81787 83.2268 5.22681 83.668 5.44542C84.5073 5.86134 85.4927 5.86134 86.332 5.44542C86.7732 5.22681 87.1821 4.81787 88 4V4C88.8179 3.18213 89.2268 2.77319 89.668 2.55458C90.5073 2.13866 91.4927 2.13866 92.332 2.55458C92.7732 2.77319 93.1821 3.18213 94 4V4C94.8179 4.81787 95.2268 5.22681 95.668 5.44542C96.5073 5.86134 97.4927 5.86134 98.332 5.44542C98.7732 5.22681 99.1821 4.81787 100 4V4C100.818 3.18213 101.227 2.77319 101.668 2.55458C102.507 2.13866 103.493 2.13866 104.332 2.55458C104.773 2.77319 105.182 3.18213 106 4V4C106.818 4.81787 107.227 5.22681 107.668 5.44542C108.507 5.86134 109.493 5.86134 110.332 5.44542C110.773 5.22681 111.182 4.81787 112 4V4C112.818 3.18213 113.227 2.77319 113.668 2.55458C114.507 2.13866 115.493 2.13866 116.332 2.55458C116.773 2.77319 117.182 3.18213 118 4V4C118.818 4.81787 119.227 5.22681 119.668 5.44542C120.507 5.86134 121.493 5.86134 122.332 5.44542C122.773 5.22681 123.182 4.81787 124 4V4C124.818 3.18213 125.227 2.77319 125.668 2.55458C126.507 2.13866 127.493 2.13866 128.332 2.55458C128.773 2.77319 129.182 3.18213 130 4V4C130.818 4.81787 131.227 5.22681 131.668 5.44542C132.507 5.86134 133.493 5.86134 134.332 5.44542C134.773 5.22681 135.182 4.81787 136 4V4C136.818 3.18213 137.227 2.77319 137.668 2.55458C138.507 2.13866 139.493 2.13866 140.332 2.55458C140.773 2.77319 141.182 3.18213 142 4V4C142.818 4.81787 143.227 5.22681 143.668 5.44542C144.507 5.86134 145.493 5.86134 146.332 5.44542C146.773 5.22681 147.182 4.81787 148 4V4C148.818 3.18213 149.227 2.77319 149.668 2.55458C150.507 2.13866 151.493 2.13866 152.332 2.55458C152.773 2.77319 153.182 3.18213 154 4V4C154.818 4.81787 155.227 5.22681 155.668 5.44542C156.507 5.86134 157.493 5.86134 158.332 5.44542C158.773 5.22681 159.182 4.81787 160 4V4C160.818 3.18213 161.227 2.77319 161.668 2.55458C162.507 2.13866 163.493 2.13866 164.332 2.55458C164.773 2.77319 165.182 3.18213 166 4V4C166.818 4.81787 167.227 5.22681 167.668 5.44542C168.507 5.86134 169.493 5.86134 170.332 5.44542C170.773 5.22681 171.182 4.81787 172 4V4C172.818 3.18213 173.227 2.77319 173.668 2.55458C174.507 2.13866 175.493 2.13866 176.332 2.55458C176.773 2.77319 177.182 3.18213 178 4V4C178.818 4.81787 179.227 5.22681 179.668 5.44542C180.507 5.86134 181.493 5.86134 182.332 5.44542C182.773 5.22681 183.182 4.81787 184 4V4C184.818 3.18213 185.227 2.77319 185.668 2.55458C186.507 2.13866 187.493 2.13866 188.332 2.55458C188.773 2.77319 189.182 3.18213 190 4V4C190.818 4.81787 191.227 5.22681 191.668 5.44542C192.507 5.86134 193.493 5.86134 194.332 5.44542C194.773 5.22681 195.182 4.81787 196 4V4C196.818 3.18213 197.227 2.77319 197.668 2.55458C198.507 2.13866 199.493 2.13866 200.332 2.55458C200.773 2.77319 201.182 3.18213 202 4V4C202.818 4.81787 203.227 5.22681 203.668 5.44542C204.507 5.86134 205.493 5.86134 206.332 5.44542C206.773 5.22681 207.182 4.81787 208 4V4C208.818 3.18213 209.227 2.77319 209.668 2.55458C210.507 2.13866 211.493 2.13866 212.332 2.55458C212.773 2.77319 213.182 3.18213 214 4V4C214.818 4.81787 215.227 5.22681 215.668 5.44542C216.507 5.86134 217.493 5.86134 218.332 5.44542C218.773 5.22681 219.182 4.81787 220 4V4C220.818 3.18213 221.227 2.77319 221.668 2.55458C222.507 2.13866 223.493 2.13866 224.332 2.55458C224.773 2.77319 225.182 3.18213 226 4V4C226.818 4.81787 227.227 5.22681 227.668 5.44542C228.507 5.86134 229.493 5.86134 230.332 5.44542C230.773 5.22681 231.182 4.81787 232 4V4C232.818 3.18213 233.227 2.77319 233.668 2.55458C234.507 2.13866 235.493 2.13866 236.332 2.55458C236.773 2.77319 237.182 3.18213 238 4V4C238.818 4.81787 239.227 5.22681 239.668 5.44542C240.507 5.86134 241.493 5.86134 242.332 5.44542C242.773 5.22681 243.182 4.81787 244 4V4C244.818 3.18213 245.227 2.77319 245.668 2.55458C246.507 2.13866 247.493 2.13866 248.332 2.55458C248.773 2.77319 249.182 3.18213 250 4V4C250.818 4.81787 251.227 5.22681 251.668 5.44542C252.507 5.86134 253.493 5.86134 254.332 5.44542C254.773 5.22681 255.182 4.81787 256 4V4C256.818 3.18213 257.227 2.77319 257.668 2.55458C258.507 2.13866 259.493 2.13866 260.332 2.55458C260.773 2.77319 261.182 3.18213 262 4V4C262.818 4.81787 263.227 5.22681 263.668 5.44542C264.507 5.86134 265.493 5.86134 266.332 5.44542C266.773 5.22681 267.182 4.81787 268 4V4C268.818 3.18213 269.227 2.77319 269.668 2.55458C270.507 2.13866 271.493 2.13866 272.332 2.55458C272.773 2.77319 273.182 3.18213 274 4V4C274.818 4.81787 275.227 5.22681 275.668 5.44542C276.507 5.86134 277.493 5.86134 278.332 5.44542C278.773 5.22681 279.182 4.81787 280 4V4C280.818 3.18213 281.227 2.77319 281.668 2.55458C282.507 2.13866 283.493 2.13866 284.332 2.55458C284.773 2.77319 285.182 3.18213 286 4V4C286.818 4.81787 287.227 5.22681 287.668 5.44542C288.507 5.86134 289.493 5.86134 290.332 5.44542C290.773 5.22681 291.182 4.81787 292 4V4C292.818 3.18213 293.227 2.77319 293.668 2.55458C294.507 2.13866 295.493 2.13866 296.332 2.55458C296.773 2.77319 297.182 3.18213 298 4V4C298.818 4.81787 299.227 5.22681 299.668 5.44542C300.507 5.86134 301.493 5.86134 302.332 5.44542C302.773 5.22681 303.182 4.81787 304 4V4C304.818 3.18213 305.227 2.77319 305.668 2.55458C306.507 2.13866 307.493 2.13866 308.332 2.55458C308.773 2.77319 309.182 3.18213 310 4V4C310.818 4.81787 311.227 5.22681 311.668 5.44542C312.507 5.86134 313.493 5.86134 314.332 5.44542C314.773 5.22681 315.182 4.81787 316 4V4C316.818 3.18213 317.227 2.77319 317.668 2.55458C318.507 2.13866 319.493 2.13866 320.332 2.55458C320.773 2.77319 321.182 3.18213 322 4V4C322.818 4.81787 323.227 5.22681 323.668 5.44542C324.507 5.86134 325.493 5.86134 326.332 5.44542C326.773 5.22681 327.182 4.81787 328 4V4C328.818 3.18213 329.227 2.77319 329.668 2.55458C330.507 2.13866 331.493 2.13866 332.332 2.55458C332.773 2.77319 333.182 3.18213 334 4V4C334.818 4.81787 335.227 5.22681 335.668 5.44542C336.507 5.86134 337.493 5.86134 338.332 5.44542C338.773 5.22681 339.182 4.81787 340 4V4C340.818 3.18213 341.227 2.77319 341.668 2.55458C342.507 2.13866 343.493 2.13866 344.332 2.55458C344.773 2.77319 345.182 3.18213 346 4V4C346.818 4.81787 347.227 5.22681 347.668 5.44542C348.507 5.86134 349.493 5.86134 350.332 5.44542C350.773 5.22681 351.182 4.81787 352 4V4C352.818 3.18213 353.227 2.77319 353.668 2.55458C354.507 2.13866 355.493 2.13866 356.332 2.55458C356.773 2.77319 357.182 3.18213 358 4V4C358.818 4.81787 359.227 5.22681 359.668 5.44542C360.507 5.86134 361.493 5.86134 362.332 5.44542C362.773 5.22681 363.182 4.81787 364 4V4C364.818 3.18213 365.227 2.77319 365.668 2.55458C366.507 2.13866 367.493 2.13866 368.332 2.55458C368.773 2.77319 369.182 3.18213 370 4V4C370.818 4.81787 371.227 5.22681 371.668 5.44542C372.507 5.86134 373.493 5.86134 374.332 5.44542C374.773 5.22681 375.182 4.81787 376 4V4C376.818 3.18213 377.227 2.77319 377.668 2.55458C378.507 2.13866 379.493 2.13866 380.332 2.55458C380.773 2.77319 381.182 3.18213 382 4V4C382.818 4.81787 383.227 5.22681 383.668 5.44542C384.507 5.86134 385.493 5.86134 386.332 5.44542C386.773 5.22681 387.182 4.81787 388 4L391 1" stroke="#104326" stroke-opacity="0.35" stroke-width="1.5"/>
</svg>
