<?xml version="1.0" encoding="UTF-8"?>
<svg width="8px" height="392px" viewBox="0 0 8 392" version="1.1" xmlns="http://www.w3.org/2000/svg" xmlns:xlink="http://www.w3.org/1999/xlink">
    <title>Path</title>
    <g id="Badges" stroke="none" stroke-width="1" fill="none" fill-rule="evenodd">
        <path d="M198.46967,192.46967 L199.53033,193.53033 L196.357206,196.703147 C195.473885,197.583187 195.210974,197.814047 194.796067,198.048024 C194.752689,198.072486 194.709091,198.095584 194.665114,198.117383 C193.616226,198.637352 192.383774,198.637352 191.334896,198.117388 C191.290909,198.095584 191.247311,198.072486 191.203933,198.048024 C190.763094,197.799423 190.493845,197.554342 189.469712,196.530372 L189.178226,196.239955 C188.512184,195.579429 188.295355,195.391683 188.059259,195.258541 C188.038932,195.247078 188.018867,195.236448 187.998886,195.226543 C187.369774,194.914672 186.630226,194.914672 186.001104,195.226548 C185.981133,195.236448 185.961068,195.247078 185.940741,195.258541 C185.704645,195.391683 185.487816,195.579429 184.821774,196.239955 L184.357206,196.703147 C183.473885,197.583187 183.210974,197.814047 182.796067,198.048024 C182.752689,198.072486 182.709091,198.095584 182.665114,198.117383 C181.616226,198.637352 180.383774,198.637352 179.334896,198.117388 C179.290909,198.095584 179.247311,198.072486 179.203933,198.048024 C178.763094,197.799423 178.493845,197.554342 177.469712,196.530372 L177.178226,196.239955 C176.512184,195.579429 176.295355,195.391683 176.059259,195.258541 C176.038932,195.247078 176.018867,195.236448 175.998886,195.226543 C175.369774,194.914672 174.630226,194.914672 174.001104,195.226548 C173.981133,195.236448 173.961068,195.247078 173.940741,195.258541 C173.704645,195.391683 173.487816,195.579429 172.821774,196.239955 L172.357206,196.703147 C171.473885,197.583187 171.210974,197.814047 170.796067,198.048024 C170.752689,198.072486 170.709091,198.095584 170.665114,198.117383 C169.616226,198.637352 168.383774,198.637352 167.334896,198.117388 C167.290909,198.095584 167.247311,198.072486 167.203933,198.048024 C166.763094,197.799423 166.493845,197.554342 165.469712,196.530372 L165.178226,196.239955 C164.512184,195.579429 164.295355,195.391683 164.059259,195.258541 C164.038932,195.247078 164.018867,195.236448 163.998886,195.226543 C163.369774,194.914672 162.630226,194.914672 162.001104,195.226548 C161.981133,195.236448 161.961068,195.247078 161.940741,195.258541 C161.704645,195.391683 161.487816,195.579429 160.821774,196.239955 L160.357206,196.703147 C159.473885,197.583187 159.210974,197.814047 158.796067,198.048024 C158.752689,198.072486 158.709091,198.095584 158.665114,198.117383 C157.616226,198.637352 156.383774,198.637352 155.334896,198.117388 C155.290909,198.095584 155.247311,198.072486 155.203933,198.048024 C154.763094,197.799423 154.493845,197.554342 153.469712,196.530372 L153.178226,196.239955 C152.512184,195.579429 152.295355,195.391683 152.059259,195.258541 C152.038932,195.247078 152.018867,195.236448 151.998886,195.226543 C151.369774,194.914672 150.630226,194.914672 150.001104,195.226548 C149.981133,195.236448 149.961068,195.247078 149.940741,195.258541 C149.704645,195.391683 149.487816,195.579429 148.821774,196.239955 L148.357206,196.703147 C147.473885,197.583187 147.210974,197.814047 146.796067,198.048024 C146.752689,198.072486 146.709091,198.095584 146.665114,198.117383 C145.616226,198.637352 144.383774,198.637352 143.334896,198.117388 C143.290909,198.095584 143.247311,198.072486 143.203933,198.048024 C142.763094,197.799423 142.493845,197.554342 141.469712,196.530372 L141.178226,196.239955 C140.512184,195.579429 140.295355,195.391683 140.059259,195.258541 C140.038932,195.247078 140.018867,195.236448 139.998886,195.226543 C139.369774,194.914672 138.630226,194.914672 138.001104,195.226548 C137.981133,195.236448 137.961068,195.247078 137.940741,195.258541 C137.704645,195.391683 137.487816,195.579429 136.821774,196.239955 L136.357206,196.703147 C135.473885,197.583187 135.210974,197.814047 134.796067,198.048024 C134.752689,198.072486 134.709091,198.095584 134.665114,198.117383 C133.616226,198.637352 132.383774,198.637352 131.334896,198.117388 C131.290909,198.095584 131.247311,198.072486 131.203933,198.048024 C130.763094,197.799423 130.493845,197.554342 129.469712,196.530372 L129.178226,196.239955 C128.512184,195.579429 128.295355,195.391683 128.059259,195.258541 C128.038932,195.247078 128.018867,195.236448 127.998886,195.226543 C127.369774,194.914672 126.630226,194.914672 126.001104,195.226548 C125.981133,195.236448 125.961068,195.247078 125.940741,195.258541 C125.704645,195.391683 125.487816,195.579429 124.821774,196.239955 L124.357206,196.703147 C123.473885,197.583187 123.210974,197.814047 122.796067,198.048024 C122.752689,198.072486 122.709091,198.095584 122.665114,198.117383 C121.616226,198.637352 120.383774,198.637352 119.334896,198.117388 C119.290909,198.095584 119.247311,198.072486 119.203933,198.048024 C118.763094,197.799423 118.493845,197.554342 117.469712,196.530372 L117.178226,196.239955 C116.512184,195.579429 116.295355,195.391683 116.059259,195.258541 C116.038932,195.247078 116.018867,195.236448 115.998886,195.226543 C115.369774,194.914672 114.630226,194.914672 114.001104,195.226548 C113.981133,195.236448 113.961068,195.247078 113.940741,195.258541 C113.704645,195.391683 113.487816,195.579429 112.821774,196.239955 L112.357206,196.703147 C111.473885,197.583187 111.210974,197.814047 110.796067,198.048024 C110.752689,198.072486 110.709091,198.095584 110.665114,198.117383 C109.616226,198.637352 108.383774,198.637352 107.334896,198.117388 C107.290909,198.095584 107.247311,198.072486 107.203933,198.048024 C106.763094,197.799423 106.493845,197.554342 105.469712,196.530372 L105.178226,196.239955 C104.512184,195.579429 104.295355,195.391683 104.059259,195.258541 C104.038932,195.247078 104.018867,195.236448 103.998886,195.226543 C103.369774,194.914672 102.630226,194.914672 102.001104,195.226548 C101.981133,195.236448 101.961068,195.247078 101.940741,195.258541 C101.704645,195.391683 101.487816,195.579429 100.821774,196.239955 L100.357206,196.703147 C99.4738852,197.583187 99.2109739,197.814047 98.7960671,198.048024 C98.7526892,198.072486 98.7090909,198.095584 98.6651144,198.117383 C97.6162256,198.637352 96.3837744,198.637352 95.3348957,198.117388 C95.2909091,198.095584 95.2473108,198.072486 95.2039329,198.048024 C94.7630944,197.799423 94.4938446,197.554342 93.4697121,196.530372 L93.1782264,196.239955 C92.5121837,195.579429 92.2953553,195.391683 92.0592589,195.258541 C92.0389318,195.247078 92.018867,195.236448 91.9988856,195.226543 C91.3697744,194.914672 90.6302256,194.914672 90.0011043,195.226548 C89.981133,195.236448 89.9610682,195.247078 89.9407411,195.258541 C89.7046447,195.391683 89.4878163,195.579429 88.8217736,196.239955 L88.3572062,196.703147 C87.4738852,197.583187 87.2109739,197.814047 86.7960671,198.048024 C86.7526892,198.072486 86.7090909,198.095584 86.6651144,198.117383 C85.6162256,198.637352 84.3837744,198.637352 83.3348957,198.117388 C83.2909091,198.095584 83.2473108,198.072486 83.2039329,198.048024 C82.7630944,197.799423 82.4938446,197.554342 81.4697121,196.530372 L81.1782264,196.239955 C80.5121837,195.579429 80.2953553,195.391683 80.0592589,195.258541 C80.0389318,195.247078 80.018867,195.236448 79.9988856,195.226543 C79.3697744,194.914672 78.6302256,194.914672 78.0011043,195.226548 C77.981133,195.236448 77.9610682,195.247078 77.9407411,195.258541 C77.7046447,195.391683 77.4878163,195.579429 76.8217736,196.239955 L76.3572062,196.703147 C75.4738852,197.583187 75.2109739,197.814047 74.7960671,198.048024 C74.7526892,198.072486 74.7090909,198.095584 74.6651144,198.117383 C73.6162256,198.637352 72.3837744,198.637352 71.3348957,198.117388 C71.2909091,198.095584 71.2473108,198.072486 71.2039329,198.048024 C70.7630944,197.799423 70.4938446,197.554342 69.4697121,196.530372 L69.1782264,196.239955 C68.5121837,195.579429 68.2953553,195.391683 68.0592589,195.258541 C68.0389318,195.247078 68.018867,195.236448 67.9988856,195.226543 C67.3697744,194.914672 66.6302256,194.914672 66.0011043,195.226548 C65.981133,195.236448 65.9610682,195.247078 65.9407411,195.258541 C65.7046447,195.391683 65.4878163,195.579429 64.8217736,196.239955 L64.3572062,196.703147 C63.4738852,197.583187 63.2109739,197.814047 62.7960671,198.048024 C62.7526892,198.072486 62.7090909,198.095584 62.6651144,198.117383 C61.6162256,198.637352 60.3837744,198.637352 59.3348957,198.117388 C59.2909091,198.095584 59.2473108,198.072486 59.2039329,198.048024 C58.7630944,197.799423 58.4938446,197.554342 57.4697121,196.530372 L57.1782264,196.239955 C56.5121837,195.579429 56.2953553,195.391683 56.0592589,195.258541 C56.0389318,195.247078 56.018867,195.236448 55.9988856,195.226543 C55.3697744,194.914672 54.6302256,194.914672 54.0011043,195.226548 C53.981133,195.236448 53.9610682,195.247078 53.9407411,195.258541 C53.7046447,195.391683 53.4878163,195.579429 52.8217736,196.239955 L52.3572062,196.703147 C51.4738852,197.583187 51.2109739,197.814047 50.7960671,198.048024 C50.7526892,198.072486 50.7090909,198.095584 50.6651144,198.117383 C49.6162256,198.637352 48.3837744,198.637352 47.3348957,198.117388 C47.2909091,198.095584 47.2473108,198.072486 47.2039329,198.048024 C46.7630944,197.799423 46.4938446,197.554342 45.4697121,196.530372 L45.1782264,196.239955 C44.5121837,195.579429 44.2953553,195.391683 44.0592589,195.258541 C44.0389318,195.247078 44.018867,195.236448 43.9988856,195.226543 C43.3697744,194.914672 42.6302256,194.914672 42.0011043,195.226548 C41.981133,195.236448 41.9610682,195.247078 41.9407411,195.258541 C41.7046447,195.391683 41.4878163,195.579429 40.8217736,196.239955 L40.3572062,196.703147 C39.4738852,197.583187 39.2109739,197.814047 38.7960671,198.048024 C38.7526892,198.072486 38.7090909,198.095584 38.6651144,198.117383 C37.6162256,198.637352 36.3837744,198.637352 35.3348957,198.117388 C35.2909091,198.095584 35.2473108,198.072486 35.2039329,198.048024 C34.7630944,197.799423 34.4938446,197.554342 33.4697121,196.530372 L33.1782264,196.239955 C32.5121837,195.579429 32.2953553,195.391683 32.0592589,195.258541 C32.0389318,195.247078 32.018867,195.236448 31.9988856,195.226543 C31.3697744,194.914672 30.6302256,194.914672 30.0011043,195.226548 C29.981133,195.236448 29.9610682,195.247078 29.9407411,195.258541 C29.7046447,195.391683 29.4878163,195.579429 28.8217736,196.239955 L28.3572062,196.703147 C27.4738852,197.583187 27.2109739,197.814047 26.7960671,198.048024 C26.7526892,198.072486 26.7090909,198.095584 26.6651144,198.117383 C25.6162256,198.637352 24.3837744,198.637352 23.3348957,198.117388 C23.2909091,198.095584 23.2473108,198.072486 23.2039329,198.048024 C22.7630944,197.799423 22.4938446,197.554342 21.4697121,196.530372 L21.1782264,196.239955 C20.5121837,195.579429 20.2953553,195.391683 20.0592589,195.258541 C20.0389318,195.247078 20.018867,195.236448 19.9988856,195.226543 C19.3697744,194.914672 18.6302256,194.914672 18.0011043,195.226548 C17.981133,195.236448 17.9610682,195.247078 17.9407411,195.258541 C17.7046447,195.391683 17.4878163,195.579429 16.8217736,196.239955 L16.3572062,196.703147 C15.4738852,197.583187 15.2109739,197.814047 14.7960671,198.048024 C14.7526892,198.072486 14.7090909,198.095584 14.6651144,198.117383 C13.6162256,198.637352 12.3837744,198.637352 11.3348957,198.117388 C11.2909091,198.095584 11.2473108,198.072486 11.2039329,198.048024 C10.7630944,197.799423 10.4938446,197.554342 9.46971206,196.530372 L9.17822642,196.239955 C8.51218374,195.579429 8.29535526,195.391683 8.0592589,195.258541 C8.03893182,195.247078 8.01886698,195.236448 7.99888557,195.226543 C7.36977442,194.914672 6.63022558,194.914672 6.00110433,195.226548 C5.98113302,195.236448 5.96106818,195.247078 5.9407411,195.258541 C5.70464474,195.391683 5.48781626,195.579429 4.82177358,196.239955 L4.35720625,196.703147 C3.47388522,197.583187 3.21097394,197.814047 2.79606714,198.048024 C2.75268916,198.072486 2.70909087,198.095584 2.66511443,198.117383 C1.61622558,198.637352 0.383774423,198.637352 -0.665104327,198.117388 C-0.709090871,198.095584 -0.752689164,198.072486 -0.796067139,198.048024 C-1.23690562,197.799423 -1.5061554,197.554342 -2.53028794,196.530372 L-2.82177358,196.239955 C-3.48781626,195.579429 -3.70464474,195.391683 -3.9407411,195.258541 C-3.96106818,195.247078 -3.98113302,195.236448 -4.00111443,195.226543 C-4.63022558,194.914672 -5.36977442,194.914672 -5.99889567,195.226548 C-6.01886698,195.236448 -6.03893182,195.247078 -6.0592589,195.258541 C-6.29535526,195.391683 -6.51218374,195.579429 -7.17822642,196.239955 L-7.64279375,196.703147 C-8.52611478,197.583187 -8.78902606,197.814047 -9.20393286,198.048024 C-9.24731084,198.072486 -9.29090913,198.095584 -9.33488557,198.117383 C-10.3837744,198.637352 -11.6162256,198.637352 -12.6651043,198.117388 C-12.7090909,198.095584 -12.7526892,198.072486 -12.7960671,198.048024 C-13.2369056,197.799423 -13.5061554,197.554342 -14.5302879,196.530372 L-14.8217736,196.239955 C-15.4878163,195.579429 -15.7046447,195.391683 -15.9407411,195.258541 C-15.9610682,195.247078 -15.981133,195.236448 -16.0011144,195.226543 C-16.6302256,194.914672 -17.3697744,194.914672 -17.9988957,195.226548 C-18.018867,195.236448 -18.0389318,195.247078 -18.0592589,195.258541 C-18.2953553,195.391683 -18.5121837,195.579429 -19.1782264,196.239955 L-19.6427938,196.703147 C-20.5261148,197.583187 -20.7890261,197.814047 -21.2039329,198.048024 C-21.2473108,198.072486 -21.2909091,198.095584 -21.3348856,198.117383 C-22.3837744,198.637352 -23.6162256,198.637352 -24.6651043,198.117388 C-24.7090909,198.095584 -24.7526892,198.072486 -24.7960671,198.048024 C-25.2369056,197.799423 -25.5061554,197.554342 -26.5302879,196.530372 L-26.8217736,196.239955 C-27.4878163,195.579429 -27.7046447,195.391683 -27.9407411,195.258541 C-27.9610682,195.247078 -27.981133,195.236448 -28.0011144,195.226543 C-28.6302256,194.914672 -29.3697744,194.914672 -29.9988957,195.226548 C-30.018867,195.236448 -30.0389318,195.247078 -30.0592589,195.258541 C-30.2953553,195.391683 -30.5121837,195.579429 -31.1782264,196.239955 L-31.6427938,196.703147 C-32.5261148,197.583187 -32.7890261,197.814047 -33.2039329,198.048024 C-33.2473108,198.072486 -33.2909091,198.095584 -33.3348856,198.117383 C-34.3837744,198.637352 -35.6162256,198.637352 -36.6651043,198.117388 C-36.7090909,198.095584 -36.7526892,198.072486 -36.7960671,198.048024 C-37.2369056,197.799423 -37.5061554,197.554342 -38.5302879,196.530372 L-38.8217736,196.239955 C-39.4878163,195.579429 -39.7046447,195.391683 -39.9407411,195.258541 C-39.9610682,195.247078 -39.981133,195.236448 -40.0011144,195.226543 C-40.6302256,194.914672 -41.3697744,194.914672 -41.9988957,195.226548 C-42.018867,195.236448 -42.0389318,195.247078 -42.0592589,195.258541 C-42.2953553,195.391683 -42.5121837,195.579429 -43.1782264,196.239955 L-43.6427938,196.703147 C-44.5261148,197.583187 -44.7890261,197.814047 -45.2039329,198.048024 C-45.2473108,198.072486 -45.2909091,198.095584 -45.3348856,198.117383 C-46.3837744,198.637352 -47.6162256,198.637352 -48.6651043,198.117388 C-48.7090909,198.095584 -48.7526892,198.072486 -48.7960671,198.048024 C-49.2369056,197.799423 -49.5061554,197.554342 -50.5302879,196.530372 L-50.8217736,196.239955 C-51.4878163,195.579429 -51.7046447,195.391683 -51.9407411,195.258541 C-51.9610682,195.247078 -51.981133,195.236448 -52.0011144,195.226543 C-52.6302256,194.914672 -53.3697744,194.914672 -53.9988957,195.226548 C-54.018867,195.236448 -54.0389318,195.247078 -54.0592589,195.258541 C-54.2953553,195.391683 -54.5121837,195.579429 -55.1782264,196.239955 L-55.6427938,196.703147 C-56.5261148,197.583187 -56.7890261,197.814047 -57.2039329,198.048024 C-57.2473108,198.072486 -57.2909091,198.095584 -57.3348856,198.117383 C-58.3837744,198.637352 -59.6162256,198.637352 -60.6651043,198.117388 C-60.7090909,198.095584 -60.7526892,198.072486 -60.7960671,198.048024 C-61.2369056,197.799423 -61.5061554,197.554342 -62.5302879,196.530372 L-62.8217736,196.239955 C-63.4878163,195.579429 -63.7046447,195.391683 -63.9407411,195.258541 C-63.9610682,195.247078 -63.981133,195.236448 -64.0011144,195.226543 C-64.6302256,194.914672 -65.3697744,194.914672 -65.9988957,195.226548 C-66.018867,195.236448 -66.0389318,195.247078 -66.0592589,195.258541 C-66.2953553,195.391683 -66.5121837,195.579429 -67.1782264,196.239955 L-67.6427938,196.703147 C-68.5261148,197.583187 -68.7890261,197.814047 -69.2039329,198.048024 C-69.2473108,198.072486 -69.2909091,198.095584 -69.3348856,198.117383 C-70.3837744,198.637352 -71.6162256,198.637352 -72.6651043,198.117388 C-72.7090909,198.095584 -72.7526892,198.072486 -72.7960671,198.048024 C-73.2369056,197.799423 -73.5061554,197.554342 -74.5302879,196.530372 L-74.8217736,196.239955 C-75.4878163,195.579429 -75.7046447,195.391683 -75.9407411,195.258541 C-75.9610682,195.247078 -75.981133,195.236448 -76.0011144,195.226543 C-76.6302256,194.914672 -77.3697744,194.914672 -77.9988957,195.226548 C-78.018867,195.236448 -78.0389318,195.247078 -78.0592589,195.258541 C-78.2953553,195.391683 -78.5121837,195.579429 -79.1782264,196.239955 L-79.6427938,196.703147 C-80.5261148,197.583187 -80.7890261,197.814047 -81.2039329,198.048024 C-81.2473108,198.072486 -81.2909091,198.095584 -81.3348856,198.117383 C-82.3837744,198.637352 -83.6162256,198.637352 -84.6651043,198.117388 C-84.7090909,198.095584 -84.7526892,198.072486 -84.7960671,198.048024 C-85.2369056,197.799423 -85.5061554,197.554342 -86.5302879,196.530372 L-86.8217736,196.239955 C-87.4878163,195.579429 -87.7046447,195.391683 -87.9407411,195.258541 C-87.9610682,195.247078 -87.981133,195.236448 -88.0011144,195.226543 C-88.6302256,194.914672 -89.3697744,194.914672 -89.9988957,195.226548 C-90.018867,195.236448 -90.0389318,195.247078 -90.0592589,195.258541 C-90.2953553,195.391683 -90.5121837,195.579429 -91.1782041,196.239933 L-91.6426785,196.703053 C-92.5255669,197.582775 -92.7881915,197.813436 -93.2028708,198.047447 C-93.246638,198.072146 -93.2906292,198.095455 -93.3349812,198.117431 C-94.3841176,198.637336 -95.6158824,198.637336 -96.6649831,198.117448 C-96.7093708,198.095455 -96.753362,198.072146 -96.7971292,198.047447 C-97.2377259,197.798811 -97.5066672,197.553955 -98.5303301,196.53034 L-98.6824021,196.378504 C-99.458607,195.60497 -99.6882945,195.400979 -99.9400653,195.258901 C-99.9605807,195.247323 -99.9808289,195.236595 -100.001019,195.226591 C-100.630482,194.914656 -101.369518,194.914656 -101.999017,195.226608 L-102.059935,195.258901 C-102.327441,195.409859 -102.570018,195.630711 -103.46968,196.53034 L-103.642678,196.703053 C-104.525567,197.582775 -104.788192,197.813436 -105.202871,198.047447 C-105.246638,198.072146 -105.290629,198.095455 -105.334981,198.117431 C-106.384118,198.637336 -107.615882,198.637336 -108.664983,198.117448 C-108.709371,198.095455 -108.753362,198.072146 -108.797129,198.047447 C-109.237726,197.798811 -109.506667,197.553955 -110.53033,196.53034 L-110.682402,196.378504 C-111.458607,195.60497 -111.688294,195.400979 -111.940065,195.258901 C-111.960581,195.247323 -111.980829,195.236595 -112.001019,195.226591 C-112.630482,194.914656 -113.369518,194.914656 -113.999017,195.226608 L-114.059935,195.258901 C-114.327441,195.409859 -114.570018,195.630711 -115.46968,196.53034 L-115.642678,196.703053 C-116.525567,197.582775 -116.788192,197.813436 -117.202871,198.047447 C-117.246638,198.072146 -117.290629,198.095455 -117.334981,198.117431 C-118.384118,198.637336 -119.615882,198.637336 -120.664983,198.117448 C-120.709371,198.095455 -120.753362,198.072146 -120.797129,198.047447 C-121.237726,197.798811 -121.506667,197.553955 -122.53033,196.53034 L-122.682402,196.378504 C-123.458607,195.60497 -123.688294,195.400979 -123.940065,195.258901 C-123.960581,195.247323 -123.980829,195.236595 -124.001019,195.226591 C-124.630482,194.914656 -125.369518,194.914656 -125.999017,195.226608 L-126.059935,195.258901 C-126.327441,195.409859 -126.570018,195.630711 -127.46968,196.53034 L-127.642678,196.703053 C-128.525567,197.582775 -128.788192,197.813436 -129.202871,198.047447 C-129.246638,198.072146 -129.290629,198.095455 -129.334981,198.117431 C-130.384118,198.637336 -131.615882,198.637336 -132.664983,198.117448 C-132.709371,198.095455 -132.753362,198.072146 -132.797129,198.047447 C-133.237726,197.798811 -133.506667,197.553955 -134.53033,196.53034 L-134.682402,196.378504 C-135.458607,195.60497 -135.688294,195.400979 -135.940065,195.258901 C-135.960581,195.247323 -135.980829,195.236595 -136.001019,195.226591 C-136.630482,194.914656 -137.369518,194.914656 -137.999017,195.226608 L-138.059935,195.258901 C-138.327441,195.409859 -138.570018,195.630711 -139.46968,196.53034 L-139.642678,196.703053 C-140.525567,197.582775 -140.788192,197.813436 -141.202871,198.047447 C-141.246638,198.072146 -141.290629,198.095455 -141.334981,198.117431 C-142.384118,198.637336 -143.615882,198.637336 -144.664983,198.117448 C-144.709371,198.095455 -144.753362,198.072146 -144.797129,198.047447 C-145.237726,197.798811 -145.506667,197.553955 -146.53033,196.53034 L-146.682402,196.378504 C-147.458607,195.60497 -147.688294,195.400979 -147.940065,195.258901 C-147.960581,195.247323 -147.980829,195.236595 -148.001019,195.226591 C-148.630482,194.914656 -149.369518,194.914656 -149.999017,195.226608 L-150.059935,195.258901 C-150.327441,195.409859 -150.570018,195.630711 -151.46968,196.53034 L-151.642678,196.703053 C-152.525567,197.582775 -152.788192,197.813436 -153.202871,198.047447 C-153.246638,198.072146 -153.290629,198.095455 -153.334981,198.117431 C-154.384118,198.637336 -155.615882,198.637336 -156.664983,198.117448 C-156.709371,198.095455 -156.753362,198.072146 -156.797129,198.047447 C-157.237726,197.798811 -157.506667,197.553955 -158.53033,196.53034 L-158.682402,196.378504 C-159.458607,195.60497 -159.688294,195.400979 -159.940065,195.258901 C-159.960581,195.247323 -159.980829,195.236595 -160.001019,195.226591 C-160.630482,194.914656 -161.369518,194.914656 -161.999017,195.226608 L-162.059935,195.258901 C-162.327441,195.409859 -162.570018,195.630711 -163.46968,196.53034 L-163.642678,196.703053 C-164.525567,197.582775 -164.788192,197.813436 -165.202871,198.047447 C-165.246638,198.072146 -165.290629,198.095455 -165.334981,198.117431 C-166.384118,198.637336 -167.615882,198.637336 -168.664983,198.117448 C-168.709371,198.095455 -168.753362,198.072146 -168.797129,198.047447 C-169.237726,197.798811 -169.506667,197.553955 -170.53033,196.53034 L-170.682402,196.378504 C-171.458607,195.60497 -171.688294,195.400979 -171.940065,195.258901 C-171.960581,195.247323 -171.980829,195.236595 -172.001019,195.226591 C-172.630482,194.914656 -173.369518,194.914656 -173.999017,195.226608 L-174.059935,195.258901 C-174.327441,195.409859 -174.570018,195.630711 -175.46968,196.53034 L-175.642678,196.703053 C-176.525567,197.582775 -176.788192,197.813436 -177.202871,198.047447 C-177.246638,198.072146 -177.290629,198.095455 -177.334981,198.117431 C-178.384118,198.637336 -179.615882,198.637336 -180.664983,198.117448 C-180.709371,198.095455 -180.753362,198.072146 -180.797129,198.047447 C-181.237726,197.798811 -181.506667,197.553955 -182.53033,196.53033 L-182.690568,196.37038 C-183.507695,195.556421 -183.738074,195.35687 -184.000959,195.226595 C-184.630458,194.914655 -185.369542,194.914655 -185.999031,195.22659 C-186.278357,195.365012 -186.520975,195.581636 -187.46967,196.53033 L-190.46967,199.53033 L-191.53033,198.46967 L-188.53033,195.46967 C-187.434345,194.373684 -187.157738,194.126715 -186.665059,193.882565 C-185.615898,193.362665 -184.384102,193.362665 -183.334931,193.88257 C-182.842262,194.126715 -182.565655,194.373684 -181.46968,195.46967 L-181.317598,195.621496 C-180.541393,196.39503 -180.311706,196.599021 -180.059935,196.741099 C-180.039419,196.752677 -180.019171,196.763405 -179.998981,196.773409 C-179.369518,197.085344 -178.630482,197.085344 -178.000983,196.773392 L-177.940065,196.741099 C-177.672559,196.590141 -177.429982,196.369289 -176.53033,195.46967 L-176.357322,195.296947 C-175.474433,194.417225 -175.211808,194.186564 -174.797129,193.952553 C-174.753362,193.927854 -174.709371,193.904545 -174.665019,193.882569 C-173.615882,193.362664 -172.384118,193.362664 -171.335017,193.882552 C-171.290629,193.904545 -171.246638,193.927854 -171.202871,193.952553 C-170.762274,194.201189 -170.493333,194.446045 -169.46968,195.46967 L-169.317598,195.621496 C-168.541393,196.39503 -168.311706,196.599021 -168.059935,196.741099 C-168.039419,196.752677 -168.019171,196.763405 -167.998981,196.773409 C-167.369518,197.085344 -166.630482,197.085344 -166.000983,196.773392 L-165.940065,196.741099 C-165.672559,196.590141 -165.429982,196.369289 -164.53033,195.46967 L-164.357322,195.296947 C-163.474433,194.417225 -163.211808,194.186564 -162.797129,193.952553 C-162.753362,193.927854 -162.709371,193.904545 -162.665019,193.882569 C-161.615882,193.362664 -160.384118,193.362664 -159.335017,193.882552 C-159.290629,193.904545 -159.246638,193.927854 -159.202871,193.952553 C-158.762274,194.201189 -158.493333,194.446045 -157.46968,195.46967 L-157.317598,195.621496 C-156.541393,196.39503 -156.311706,196.599021 -156.059935,196.741099 C-156.039419,196.752677 -156.019171,196.763405 -155.998981,196.773409 C-155.369518,197.085344 -154.630482,197.085344 -154.000983,196.773392 L-153.940065,196.741099 C-153.672559,196.590141 -153.429982,196.369289 -152.53033,195.46967 L-152.357322,195.296947 C-151.474433,194.417225 -151.211808,194.186564 -150.797129,193.952553 C-150.753362,193.927854 -150.709371,193.904545 -150.665019,193.882569 C-149.615882,193.362664 -148.384118,193.362664 -147.335017,193.882552 C-147.290629,193.904545 -147.246638,193.927854 -147.202871,193.952553 C-146.762274,194.201189 -146.493333,194.446045 -145.46968,195.46967 L-145.317598,195.621496 C-144.541393,196.39503 -144.311706,196.599021 -144.059935,196.741099 C-144.039419,196.752677 -144.019171,196.763405 -143.998981,196.773409 C-143.369518,197.085344 -142.630482,197.085344 -142.000983,196.773392 L-141.940065,196.741099 C-141.672559,196.590141 -141.429982,196.369289 -140.53033,195.46967 L-140.357322,195.296947 C-139.474433,194.417225 -139.211808,194.186564 -138.797129,193.952553 C-138.753362,193.927854 -138.709371,193.904545 -138.665019,193.882569 C-137.615882,193.362664 -136.384118,193.362664 -135.335017,193.882552 C-135.290629,193.904545 -135.246638,193.927854 -135.202871,193.952553 C-134.762274,194.201189 -134.493333,194.446045 -133.46968,195.46967 L-133.317598,195.621496 C-132.541393,196.39503 -132.311706,196.599021 -132.059935,196.741099 C-132.039419,196.752677 -132.019171,196.763405 -131.998981,196.773409 C-131.369518,197.085344 -130.630482,197.085344 -130.000983,196.773392 L-129.940065,196.741099 C-129.672559,196.590141 -129.429982,196.369289 -128.53033,195.46967 L-128.357322,195.296947 C-127.474433,194.417225 -127.211808,194.186564 -126.797129,193.952553 C-126.753362,193.927854 -126.709371,193.904545 -126.665019,193.882569 C-125.615882,193.362664 -124.384118,193.362664 -123.335017,193.882552 C-123.290629,193.904545 -123.246638,193.927854 -123.202871,193.952553 C-122.762274,194.201189 -122.493333,194.446045 -121.46968,195.46967 L-121.317598,195.621496 C-120.541393,196.39503 -120.311706,196.599021 -120.059935,196.741099 C-120.039419,196.752677 -120.019171,196.763405 -119.998981,196.773409 C-119.369518,197.085344 -118.630482,197.085344 -118.000983,196.773392 L-117.940065,196.741099 C-117.672559,196.590141 -117.429982,196.369289 -116.53033,195.46967 L-116.357322,195.296947 C-115.474433,194.417225 -115.211808,194.186564 -114.797129,193.952553 C-114.753362,193.927854 -114.709371,193.904545 -114.665019,193.882569 C-113.615882,193.362664 -112.384118,193.362664 -111.335017,193.882552 C-111.290629,193.904545 -111.246638,193.927854 -111.202871,193.952553 C-110.762274,194.201189 -110.493333,194.446045 -109.46968,195.46967 L-109.317598,195.621496 C-108.541393,196.39503 -108.311706,196.599021 -108.059935,196.741099 C-108.039419,196.752677 -108.019171,196.763405 -107.998981,196.773409 C-107.369518,197.085344 -106.630482,197.085344 -106.000983,196.773392 L-105.940065,196.741099 C-105.672559,196.590141 -105.429982,196.369289 -104.53033,195.46967 L-104.357322,195.296947 C-103.474433,194.417225 -103.211808,194.186564 -102.797129,193.952553 C-102.753362,193.927854 -102.709371,193.904545 -102.665019,193.882569 C-101.615882,193.362664 -100.384118,193.362664 -99.3350169,193.882552 C-99.2906292,193.904545 -99.246638,193.927854 -99.2028708,193.952553 C-98.7622741,194.201189 -98.4933328,194.446045 -97.4696796,195.46967 L-97.3175979,195.621496 C-96.541393,196.39503 -96.3117055,196.599021 -96.0599347,196.741099 C-96.0394193,196.752677 -96.0191711,196.763405 -95.9989812,196.773409 C-95.3695176,197.085344 -94.6304824,197.085344 -94.0009831,196.773392 L-93.9400653,196.741099 C-93.6725588,196.590141 -93.4299823,196.369289 -92.5302879,195.469628 L-92.3572062,195.296853 C-91.4738852,194.416813 -91.2109739,194.185953 -90.7960671,193.951976 C-90.7526892,193.927514 -90.7090909,193.904416 -90.6651144,193.882617 C-89.6162256,193.362648 -88.3837744,193.362648 -87.3348957,193.882612 C-87.2909091,193.904416 -87.2473108,193.927514 -87.2039329,193.951976 C-86.7630944,194.200577 -86.4938446,194.445658 -85.4697121,195.469628 L-85.1782264,195.760045 C-84.5121837,196.420571 -84.2953553,196.608317 -84.0592589,196.741459 C-84.0389318,196.752922 -84.018867,196.763552 -83.9988856,196.773457 C-83.3697744,197.085328 -82.6302256,197.085328 -82.0011043,196.773452 C-81.981133,196.763552 -81.9610682,196.752922 -81.9407411,196.741459 C-81.7046447,196.608317 -81.4878163,196.420571 -80.8217736,195.760045 L-80.3572062,195.296853 C-79.4738852,194.416813 -79.2109739,194.185953 -78.7960671,193.951976 C-78.7526892,193.927514 -78.7090909,193.904416 -78.6651144,193.882617 C-77.6162256,193.362648 -76.3837744,193.362648 -75.3348957,193.882612 C-75.2909091,193.904416 -75.2473108,193.927514 -75.2039329,193.951976 C-74.7630944,194.200577 -74.4938446,194.445658 -73.4697121,195.469628 L-73.1782264,195.760045 C-72.5121837,196.420571 -72.2953553,196.608317 -72.0592589,196.741459 C-72.0389318,196.752922 -72.018867,196.763552 -71.9988856,196.773457 C-71.3697744,197.085328 -70.6302256,197.085328 -70.0011043,196.773452 C-69.981133,196.763552 -69.9610682,196.752922 -69.9407411,196.741459 C-69.7046447,196.608317 -69.4878163,196.420571 -68.8217736,195.760045 L-68.3572062,195.296853 C-67.4738852,194.416813 -67.2109739,194.185953 -66.7960671,193.951976 C-66.7526892,193.927514 -66.7090909,193.904416 -66.6651144,193.882617 C-65.6162256,193.362648 -64.3837744,193.362648 -63.3348957,193.882612 C-63.2909091,193.904416 -63.2473108,193.927514 -63.2039329,193.951976 C-62.7630944,194.200577 -62.4938446,194.445658 -61.4697121,195.469628 L-61.1782264,195.760045 C-60.5121837,196.420571 -60.2953553,196.608317 -60.0592589,196.741459 C-60.0389318,196.752922 -60.018867,196.763552 -59.9988856,196.773457 C-59.3697744,197.085328 -58.6302256,197.085328 -58.0011043,196.773452 C-57.981133,196.763552 -57.9610682,196.752922 -57.9407411,196.741459 C-57.7046447,196.608317 -57.4878163,196.420571 -56.8217736,195.760045 L-56.3572062,195.296853 C-55.4738852,194.416813 -55.2109739,194.185953 -54.7960671,193.951976 C-54.7526892,193.927514 -54.7090909,193.904416 -54.6651144,193.882617 C-53.6162256,193.362648 -52.3837744,193.362648 -51.3348957,193.882612 C-51.2909091,193.904416 -51.2473108,193.927514 -51.2039329,193.951976 C-50.7630944,194.200577 -50.4938446,194.445658 -49.4697121,195.469628 L-49.1782264,195.760045 C-48.5121837,196.420571 -48.2953553,196.608317 -48.0592589,196.741459 C-48.0389318,196.752922 -48.018867,196.763552 -47.9988856,196.773457 C-47.3697744,197.085328 -46.6302256,197.085328 -46.0011043,196.773452 C-45.981133,196.763552 -45.9610682,196.752922 -45.9407411,196.741459 C-45.7046447,196.608317 -45.4878163,196.420571 -44.8217736,195.760045 L-44.3572062,195.296853 C-43.4738852,194.416813 -43.2109739,194.185953 -42.7960671,193.951976 C-42.7526892,193.927514 -42.7090909,193.904416 -42.6651144,193.882617 C-41.6162256,193.362648 -40.3837744,193.362648 -39.3348957,193.882612 C-39.2909091,193.904416 -39.2473108,193.927514 -39.2039329,193.951976 C-38.7630944,194.200577 -38.4938446,194.445658 -37.4697121,195.469628 L-37.1782264,195.760045 C-36.5121837,196.420571 -36.2953553,196.608317 -36.0592589,196.741459 C-36.0389318,196.752922 -36.018867,196.763552 -35.9988856,196.773457 C-35.3697744,197.085328 -34.6302256,197.085328 -34.0011043,196.773452 C-33.981133,196.763552 -33.9610682,196.752922 -33.9407411,196.741459 C-33.7046447,196.608317 -33.4878163,196.420571 -32.8217736,195.760045 L-32.3572062,195.296853 C-31.4738852,194.416813 -31.2109739,194.185953 -30.7960671,193.951976 C-30.7526892,193.927514 -30.7090909,193.904416 -30.6651144,193.882617 C-29.6162256,193.362648 -28.3837744,193.362648 -27.3348957,193.882612 C-27.2909091,193.904416 -27.2473108,193.927514 -27.2039329,193.951976 C-26.7630944,194.200577 -26.4938446,194.445658 -25.4697121,195.469628 L-25.1782264,195.760045 C-24.5121837,196.420571 -24.2953553,196.608317 -24.0592589,196.741459 C-24.0389318,196.752922 -24.018867,196.763552 -23.9988856,196.773457 C-23.3697744,197.085328 -22.6302256,197.085328 -22.0011043,196.773452 C-21.981133,196.763552 -21.9610682,196.752922 -21.9407411,196.741459 C-21.7046447,196.608317 -21.4878163,196.420571 -20.8217736,195.760045 L-20.3572062,195.296853 C-19.4738852,194.416813 -19.2109739,194.185953 -18.7960671,193.951976 C-18.7526892,193.927514 -18.7090909,193.904416 -18.6651144,193.882617 C-17.6162256,193.362648 -16.3837744,193.362648 -15.3348957,193.882612 C-15.2909091,193.904416 -15.2473108,193.927514 -15.2039329,193.951976 C-14.7630944,194.200577 -14.4938446,194.445658 -13.4697121,195.469628 L-13.1782264,195.760045 C-12.5121837,196.420571 -12.2953553,196.608317 -12.0592589,196.741459 C-12.0389318,196.752922 -12.018867,196.763552 -11.9988856,196.773457 C-11.3697744,197.085328 -10.6302256,197.085328 -10.0011043,196.773452 C-9.98113302,196.763552 -9.96106818,196.752922 -9.9407411,196.741459 C-9.70464474,196.608317 -9.48781626,196.420571 -8.82177358,195.760045 L-8.35720625,195.296853 C-7.47388522,194.416813 -7.21097394,194.185953 -6.79606714,193.951976 C-6.75268916,193.927514 -6.70909087,193.904416 -6.66511443,193.882617 C-5.61622558,193.362648 -4.38377442,193.362648 -3.33489567,193.882612 C-3.29090913,193.904416 -3.24731084,193.927514 -3.20393286,193.951976 C-2.76309438,194.200577 -2.4938446,194.445658 -1.46971206,195.469628 L-1.17822642,195.760045 C-0.51218374,196.420571 -0.295355261,196.608317 -0.0592589035,196.741459 C-0.0389318179,196.752922 -0.0188669782,196.763552 0.00111442991,196.773457 C0.630225577,197.085328 1.36977442,197.085328 1.99889567,196.773452 C2.01886698,196.763552 2.03893182,196.752922 2.0592589,196.741459 C2.29535526,196.608317 2.51218374,196.420571 3.17822642,195.760045 L3.64279375,195.296853 C4.52611478,194.416813 4.78902606,194.185953 5.20393286,193.951976 C5.24731084,193.927514 5.29090913,193.904416 5.33488557,193.882617 C6.38377442,193.362648 7.61622558,193.362648 8.66510433,193.882612 C8.70909087,193.904416 8.75268916,193.927514 8.79606714,193.951976 C9.23690562,194.200577 9.5061554,194.445658 10.5302879,195.469628 L10.8217736,195.760045 C11.4878163,196.420571 11.7046447,196.608317 11.9407411,196.741459 C11.9610682,196.752922 11.981133,196.763552 12.0011144,196.773457 C12.6302256,197.085328 13.3697744,197.085328 13.9988957,196.773452 C14.018867,196.763552 14.0389318,196.752922 14.0592589,196.741459 C14.2953553,196.608317 14.5121837,196.420571 15.1782264,195.760045 L15.6427938,195.296853 C16.5261148,194.416813 16.7890261,194.185953 17.2039329,193.951976 C17.2473108,193.927514 17.2909091,193.904416 17.3348856,193.882617 C18.3837744,193.362648 19.6162256,193.362648 20.6651043,193.882612 C20.7090909,193.904416 20.7526892,193.927514 20.7960671,193.951976 C21.2369056,194.200577 21.5061554,194.445658 22.5302879,195.469628 L22.8217736,195.760045 C23.4878163,196.420571 23.7046447,196.608317 23.9407411,196.741459 C23.9610682,196.752922 23.981133,196.763552 24.0011144,196.773457 C24.6302256,197.085328 25.3697744,197.085328 25.9988957,196.773452 C26.018867,196.763552 26.0389318,196.752922 26.0592589,196.741459 C26.2953553,196.608317 26.5121837,196.420571 27.1782264,195.760045 L27.6427938,195.296853 C28.5261148,194.416813 28.7890261,194.185953 29.2039329,193.951976 C29.2473108,193.927514 29.2909091,193.904416 29.3348856,193.882617 C30.3837744,193.362648 31.6162256,193.362648 32.6651043,193.882612 C32.7090909,193.904416 32.7526892,193.927514 32.7960671,193.951976 C33.2369056,194.200577 33.5061554,194.445658 34.5302879,195.469628 L34.8217736,195.760045 C35.4878163,196.420571 35.7046447,196.608317 35.9407411,196.741459 C35.9610682,196.752922 35.981133,196.763552 36.0011144,196.773457 C36.6302256,197.085328 37.3697744,197.085328 37.9988957,196.773452 C38.018867,196.763552 38.0389318,196.752922 38.0592589,196.741459 C38.2953553,196.608317 38.5121837,196.420571 39.1782264,195.760045 L39.6427938,195.296853 C40.5261148,194.416813 40.7890261,194.185953 41.2039329,193.951976 C41.2473108,193.927514 41.2909091,193.904416 41.3348856,193.882617 C42.3837744,193.362648 43.6162256,193.362648 44.6651043,193.882612 C44.7090909,193.904416 44.7526892,193.927514 44.7960671,193.951976 C45.2369056,194.200577 45.5061554,194.445658 46.5302879,195.469628 L46.8217736,195.760045 C47.4878163,196.420571 47.7046447,196.608317 47.9407411,196.741459 C47.9610682,196.752922 47.981133,196.763552 48.0011144,196.773457 C48.6302256,197.085328 49.3697744,197.085328 49.9988957,196.773452 C50.018867,196.763552 50.0389318,196.752922 50.0592589,196.741459 C50.2953553,196.608317 50.5121837,196.420571 51.1782264,195.760045 L51.6427938,195.296853 C52.5261148,194.416813 52.7890261,194.185953 53.2039329,193.951976 C53.2473108,193.927514 53.2909091,193.904416 53.3348856,193.882617 C54.3837744,193.362648 55.6162256,193.362648 56.6651043,193.882612 C56.7090909,193.904416 56.7526892,193.927514 56.7960671,193.951976 C57.2369056,194.200577 57.5061554,194.445658 58.5302879,195.469628 L58.8217736,195.760045 C59.4878163,196.420571 59.7046447,196.608317 59.9407411,196.741459 C59.9610682,196.752922 59.981133,196.763552 60.0011144,196.773457 C60.6302256,197.085328 61.3697744,197.085328 61.9988957,196.773452 C62.018867,196.763552 62.0389318,196.752922 62.0592589,196.741459 C62.2953553,196.608317 62.5121837,196.420571 63.1782264,195.760045 L63.6427938,195.296853 C64.5261148,194.416813 64.7890261,194.185953 65.2039329,193.951976 C65.2473108,193.927514 65.2909091,193.904416 65.3348856,193.882617 C66.3837744,193.362648 67.6162256,193.362648 68.6651043,193.882612 C68.7090909,193.904416 68.7526892,193.927514 68.7960671,193.951976 C69.2369056,194.200577 69.5061554,194.445658 70.5302879,195.469628 L70.8217736,195.760045 C71.4878163,196.420571 71.7046447,196.608317 71.9407411,196.741459 C71.9610682,196.752922 71.981133,196.763552 72.0011144,196.773457 C72.6302256,197.085328 73.3697744,197.085328 73.9988957,196.773452 C74.018867,196.763552 74.0389318,196.752922 74.0592589,196.741459 C74.2953553,196.608317 74.5121837,196.420571 75.1782264,195.760045 L75.6427938,195.296853 C76.5261148,194.416813 76.7890261,194.185953 77.2039329,193.951976 C77.2473108,193.927514 77.2909091,193.904416 77.3348856,193.882617 C78.3837744,193.362648 79.6162256,193.362648 80.6651043,193.882612 C80.7090909,193.904416 80.7526892,193.927514 80.7960671,193.951976 C81.2369056,194.200577 81.5061554,194.445658 82.5302879,195.469628 L82.8217736,195.760045 C83.4878163,196.420571 83.7046447,196.608317 83.9407411,196.741459 C83.9610682,196.752922 83.981133,196.763552 84.0011144,196.773457 C84.6302256,197.085328 85.3697744,197.085328 85.9988957,196.773452 C86.018867,196.763552 86.0389318,196.752922 86.0592589,196.741459 C86.2953553,196.608317 86.5121837,196.420571 87.1782264,195.760045 L87.6427938,195.296853 C88.5261148,194.416813 88.7890261,194.185953 89.2039329,193.951976 C89.2473108,193.927514 89.2909091,193.904416 89.3348856,193.882617 C90.3837744,193.362648 91.6162256,193.362648 92.6651043,193.882612 C92.7090909,193.904416 92.7526892,193.927514 92.7960671,193.951976 C93.2369056,194.200577 93.5061554,194.445658 94.5302879,195.469628 L94.8217736,195.760045 C95.4878163,196.420571 95.7046447,196.608317 95.9407411,196.741459 C95.9610682,196.752922 95.981133,196.763552 96.0011144,196.773457 C96.6302256,197.085328 97.3697744,197.085328 97.9988957,196.773452 C98.018867,196.763552 98.0389318,196.752922 98.0592589,196.741459 C98.2953553,196.608317 98.5121837,196.420571 99.1782264,195.760045 L99.6427938,195.296853 C100.526115,194.416813 100.789026,194.185953 101.203933,193.951976 C101.247311,193.927514 101.290909,193.904416 101.334886,193.882617 C102.383774,193.362648 103.616226,193.362648 104.665104,193.882612 C104.709091,193.904416 104.752689,193.927514 104.796067,193.951976 C105.236906,194.200577 105.506155,194.445658 106.530288,195.469628 L106.821774,195.760045 C107.487816,196.420571 107.704645,196.608317 107.940741,196.741459 C107.961068,196.752922 107.981133,196.763552 108.001114,196.773457 C108.630226,197.085328 109.369774,197.085328 109.998896,196.773452 C110.018867,196.763552 110.038932,196.752922 110.059259,196.741459 C110.295355,196.608317 110.512184,196.420571 111.178226,195.760045 L111.642794,195.296853 C112.526115,194.416813 112.789026,194.185953 113.203933,193.951976 C113.247311,193.927514 113.290909,193.904416 113.334886,193.882617 C114.383774,193.362648 115.616226,193.362648 116.665104,193.882612 C116.709091,193.904416 116.752689,193.927514 116.796067,193.951976 C117.236906,194.200577 117.506155,194.445658 118.530288,195.469628 L118.821774,195.760045 C119.487816,196.420571 119.704645,196.608317 119.940741,196.741459 C119.961068,196.752922 119.981133,196.763552 120.001114,196.773457 C120.630226,197.085328 121.369774,197.085328 121.998896,196.773452 C122.018867,196.763552 122.038932,196.752922 122.059259,196.741459 C122.295355,196.608317 122.512184,196.420571 123.178226,195.760045 L123.642794,195.296853 C124.526115,194.416813 124.789026,194.185953 125.203933,193.951976 C125.247311,193.927514 125.290909,193.904416 125.334886,193.882617 C126.383774,193.362648 127.616226,193.362648 128.665104,193.882612 C128.709091,193.904416 128.752689,193.927514 128.796067,193.951976 C129.236906,194.200577 129.506155,194.445658 130.530288,195.469628 L130.821774,195.760045 C131.487816,196.420571 131.704645,196.608317 131.940741,196.741459 C131.961068,196.752922 131.981133,196.763552 132.001114,196.773457 C132.630226,197.085328 133.369774,197.085328 133.998896,196.773452 C134.018867,196.763552 134.038932,196.752922 134.059259,196.741459 C134.295355,196.608317 134.512184,196.420571 135.178226,195.760045 L135.642794,195.296853 C136.526115,194.416813 136.789026,194.185953 137.203933,193.951976 C137.247311,193.927514 137.290909,193.904416 137.334886,193.882617 C138.383774,193.362648 139.616226,193.362648 140.665104,193.882612 C140.709091,193.904416 140.752689,193.927514 140.796067,193.951976 C141.236906,194.200577 141.506155,194.445658 142.530288,195.469628 L142.821774,195.760045 C143.487816,196.420571 143.704645,196.608317 143.940741,196.741459 C143.961068,196.752922 143.981133,196.763552 144.001114,196.773457 C144.630226,197.085328 145.369774,197.085328 145.998896,196.773452 C146.018867,196.763552 146.038932,196.752922 146.059259,196.741459 C146.295355,196.608317 146.512184,196.420571 147.178226,195.760045 L147.642794,195.296853 C148.526115,194.416813 148.789026,194.185953 149.203933,193.951976 C149.247311,193.927514 149.290909,193.904416 149.334886,193.882617 C150.383774,193.362648 151.616226,193.362648 152.665104,193.882612 C152.709091,193.904416 152.752689,193.927514 152.796067,193.951976 C153.236906,194.200577 153.506155,194.445658 154.530288,195.469628 L154.821774,195.760045 C155.487816,196.420571 155.704645,196.608317 155.940741,196.741459 C155.961068,196.752922 155.981133,196.763552 156.001114,196.773457 C156.630226,197.085328 157.369774,197.085328 157.998896,196.773452 C158.018867,196.763552 158.038932,196.752922 158.059259,196.741459 C158.295355,196.608317 158.512184,196.420571 159.178226,195.760045 L159.642794,195.296853 C160.526115,194.416813 160.789026,194.185953 161.203933,193.951976 C161.247311,193.927514 161.290909,193.904416 161.334886,193.882617 C162.383774,193.362648 163.616226,193.362648 164.665104,193.882612 C164.709091,193.904416 164.752689,193.927514 164.796067,193.951976 C165.236906,194.200577 165.506155,194.445658 166.530288,195.469628 L166.821774,195.760045 C167.487816,196.420571 167.704645,196.608317 167.940741,196.741459 C167.961068,196.752922 167.981133,196.763552 168.001114,196.773457 C168.630226,197.085328 169.369774,197.085328 169.998896,196.773452 C170.018867,196.763552 170.038932,196.752922 170.059259,196.741459 C170.295355,196.608317 170.512184,196.420571 171.178226,195.760045 L171.642794,195.296853 C172.526115,194.416813 172.789026,194.185953 173.203933,193.951976 C173.247311,193.927514 173.290909,193.904416 173.334886,193.882617 C174.383774,193.362648 175.616226,193.362648 176.665104,193.882612 C176.709091,193.904416 176.752689,193.927514 176.796067,193.951976 C177.236906,194.200577 177.506155,194.445658 178.530288,195.469628 L178.821774,195.760045 C179.487816,196.420571 179.704645,196.608317 179.940741,196.741459 C179.961068,196.752922 179.981133,196.763552 180.001114,196.773457 C180.630226,197.085328 181.369774,197.085328 181.998896,196.773452 C182.018867,196.763552 182.038932,196.752922 182.059259,196.741459 C182.295355,196.608317 182.512184,196.420571 183.178226,195.760045 L183.642794,195.296853 C184.526115,194.416813 184.789026,194.185953 185.203933,193.951976 C185.247311,193.927514 185.290909,193.904416 185.334886,193.882617 C186.383774,193.362648 187.616226,193.362648 188.665104,193.882612 C188.709091,193.904416 188.752689,193.927514 188.796067,193.951976 C189.236906,194.200577 189.506155,194.445658 190.530288,195.469628 L190.821774,195.760045 C191.487816,196.420571 191.704645,196.608317 191.940741,196.741459 C191.961068,196.752922 191.981133,196.763552 192.001114,196.773457 C192.630226,197.085328 193.369774,197.085328 193.998896,196.773452 C194.018867,196.763552 194.038932,196.752922 194.059259,196.741459 C194.295355,196.608317 194.512184,196.420571 195.178197,195.760074 L195.46967,195.46967 L198.46967,192.46967 Z" id="Path" fill="#FF4B14" fill-rule="nonzero" transform="translate(4, 196) rotate(90) translate(-4, -196)"></path>
    </g>
</svg>