<?xml version="1.0" encoding="UTF-8"?>
<svg width="16px" height="16px" viewBox="0 0 16 16" version="1.1" xmlns="http://www.w3.org/2000/svg" xmlns:xlink="http://www.w3.org/1999/xlink">
    <title>xmark</title>
    <g id="xmark" stroke="none" fill="none" fill-rule="nonzero">
        <path d="M3.96966991,3.96966991 C4.26256313,3.6767767 4.73743687,3.6767767 5.03033009,3.96966991 L12.0303301,10.9696699 C12.3232233,11.2625631 12.3232233,11.7374369 12.0303301,12.0303301 C11.7374369,12.3232233 11.2625631,12.3232233 10.9696699,12.0303301 L3.96966991,5.03033009 C3.6767767,4.73743687 3.6767767,4.26256313 3.96966991,3.96966991 Z" id="Path-2" fill="color(display-p3 1.000 0.294 0.078)"></path>
        <path d="M10.9696699,3.96966991 C11.2625631,3.6767767 11.7374369,3.6767767 12.0303301,3.96966991 C12.3232233,4.26256313 12.3232233,4.73743687 12.0303301,5.03033009 L5.03033009,12.0303301 C4.73743687,12.3232233 4.26256313,12.3232233 3.96966991,12.0303301 C3.6767767,11.7374369 3.6767767,11.2625631 3.96966991,10.9696699 L10.9696699,3.96966991 Z" id="Path-2" fill="color(display-p3 1.000 0.294 0.078)"></path>
    </g>
</svg>